<?xml version="1.0" encoding="UTF-8"?>
<svg xmlns="http://www.w3.org/2000/svg" xmlns:xlink="http://www.w3.org/1999/xlink" width="375pt" height="374.999991pt" viewBox="0 0 375 374.999991" version="1.2">
<defs>
<clipPath id="clip1">
  <path d="M 42.53125 0 L 332.570312 0 L 332.570312 375 L 42.53125 375 Z M 42.53125 0 "/>
</clipPath>
<clipPath id="clip2">
  <path d="M 67.617188 118.308594 L 311.871094 118.308594 L 311.871094 267.289062 L 67.617188 267.289062 Z M 67.617188 118.308594 "/>
</clipPath>
<clipPath id="clip3">
  <path d="M 65.179688 50.542969 L 304.21875 50.542969 L 304.21875 196.757812 L 65.179688 196.757812 Z M 65.179688 50.542969 "/>
</clipPath>
<clipPath id="clip4">
  <path d="M 131.667969 95.375 L 243.582031 95.375 L 243.582031 222.875 L 131.667969 222.875 Z M 131.667969 95.375 "/>
</clipPath>
</defs>
<g id="surface1">
<g clip-path="url(#clip1)" clip-rule="nonzero">
<path style=" stroke:none;fill-rule:nonzero;fill:rgb(30.589294%,10.198975%,13.729858%);fill-opacity:1;" d="M 332.605469 145.054688 C 332.605469 268.316406 187.550781 375.179688 187.550781 375.179688 C 187.550781 375.179688 42.53125 268.316406 42.53125 145.054688 C 42.53125 64.953125 107.484375 0 187.585938 0.0351562 C 267.652344 0.0351562 332.605469 64.953125 332.605469 145.054688 "/>
</g>
<path style=" stroke:none;fill-rule:nonzero;fill:rgb(30.589294%,10.198975%,13.729858%);fill-opacity:1;" d="M 187.550781 82.136719 C 221.847656 82.136719 249.644531 109.933594 249.644531 144.234375 C 249.644531 178.53125 221.847656 206.328125 187.550781 206.328125 C 153.285156 206.328125 125.492188 178.53125 125.492188 144.234375 C 125.492188 109.933594 153.285156 82.136719 187.550781 82.136719 "/>
<g clip-path="url(#clip2)" clip-rule="nonzero">
<path style=" stroke:none;fill-rule:nonzero;fill:rgb(100%,100%,100%);fill-opacity:1;" d="M 94.726562 254.199219 C 93.792969 255.132812 92.992188 255.53125 91.789062 254.597656 C 91.523438 254.332031 91.121094 254.332031 90.585938 254.199219 C 90.722656 253.933594 90.988281 253.53125 91.253906 253 C 90.722656 252.867188 89.917969 252.867188 89.652344 252.464844 C 89.386719 252.066406 89.652344 251.398438 89.785156 250.464844 C 89.25 250.597656 88.585938 250.597656 88.050781 250.730469 L 87.25 249.132812 C 87.515625 249.132812 87.917969 249 88.316406 249 L 88.316406 248.730469 C 87.917969 248.597656 87.382812 248.464844 87.382812 248.464844 C 86.980469 247.933594 86.847656 247.664062 86.582031 247.53125 C 86.3125 247.398438 86.046875 247.265625 85.914062 247.132812 C 85.511719 246.867188 85.246094 246.597656 84.84375 246.199219 C 85.378906 245.933594 85.78125 245.796875 86.3125 245.53125 C 86.582031 245.398438 86.980469 245.398438 87.25 245.265625 C 86.980469 245 86.714844 244.867188 86.449219 244.597656 C 86.179688 244.332031 85.914062 243.933594 85.78125 243.53125 C 85.511719 242.597656 85.378906 241.664062 85.113281 240.730469 C 84.84375 240.199219 84.3125 239.664062 83.910156 239.132812 C 83.777344 239 83.375 238.867188 83.242188 238.730469 C 82.707031 237.796875 82.574219 236.332031 81.90625 235.796875 C 80.570312 234.730469 81.90625 233.265625 80.839844 232.332031 C 80.570312 232.066406 80.171875 231.664062 80.171875 231.265625 C 80.171875 230.332031 78.433594 229.933594 79.503906 228.730469 C 79.636719 228.597656 78.96875 227.265625 78.433594 226.867188 C 76.699219 225.53125 77.097656 223.265625 76.03125 221.664062 C 75.898438 221.398438 76.296875 220.867188 76.296875 220.464844 C 74.5625 219.398438 74.160156 217.800781 75.097656 216.199219 C 74.429688 215.664062 73.761719 215.265625 73.226562 214.730469 L 72.824219 214.332031 C 75.363281 213.800781 74.5625 211.664062 74.960938 210.066406 C 74.429688 209.800781 74.027344 209.664062 73.359375 209.398438 C 73.628906 209.132812 73.894531 209 74.160156 208.730469 C 73.226562 207.800781 70.421875 207.53125 72.960938 205.132812 C 72.15625 204.867188 71.492188 204.597656 70.554688 204.332031 C 71.089844 203.933594 71.492188 203.664062 71.890625 203.398438 C 71.492188 203.132812 70.957031 203 70.421875 202.597656 C 69.886719 201.933594 71.890625 200.332031 69.753906 199.53125 L 69.753906 197.53125 C 69.886719 197.398438 70.289062 197.132812 70.824219 196.867188 C 70.15625 196.734375 69.753906 196.597656 69.621094 196.597656 C 69.355469 195.265625 69.085938 194.066406 68.820312 193 C 68.550781 193 68.417969 192.867188 68.152344 192.867188 C 68.550781 192.734375 68.820312 192.597656 69.21875 192.464844 C 69.21875 192.332031 69.085938 192.199219 69.085938 192.066406 C 68.550781 191.800781 68.152344 191.664062 67.617188 191.398438 C 67.617188 191.265625 67.617188 190.867188 67.75 190.597656 C 68.152344 190.597656 68.6875 190.734375 69.085938 190.734375 C 73.761719 186.867188 76.429688 185.664062 83.242188 184.066406 C 86.980469 183.132812 90.585938 181.933594 94.191406 180.867188 C 95.261719 180.464844 96.464844 180.066406 97.398438 179.398438 C 97.933594 179 98.066406 178.066406 98.199219 177.265625 C 98.199219 176.867188 97.664062 176.332031 97.132812 176.199219 C 95.929688 175.664062 96.0625 174.734375 96.195312 173.933594 C 95.660156 173.398438 95.128906 173 94.59375 172.464844 C 94.996094 171.933594 95.261719 171.53125 95.527344 171.132812 C 93.390625 171.53125 94.058594 169.667969 93.792969 168.867188 C 93.125 167.265625 92.992188 165.667969 92.589844 163.933594 C 92.722656 163.933594 92.992188 163.933594 93.257812 164.066406 C 92.589844 162.066406 92.054688 160.199219 91.386719 158.199219 C 91.523438 158.199219 91.65625 158.066406 91.789062 158.066406 C 91.386719 157.667969 90.855469 157.398438 90.320312 156.867188 C 91.253906 155.800781 92.324219 155 92.457031 153.53125 C 92.589844 151.800781 94.460938 151.265625 95.929688 150.597656 C 99.933594 149 104.074219 147.53125 108.082031 145.800781 C 110.617188 144.734375 113.023438 143.398438 115.558594 142.332031 C 117.964844 141.265625 120.367188 140.199219 122.90625 139.265625 C 125.308594 138.332031 127.847656 137.53125 130.25 136.867188 C 132.386719 136.332031 134.65625 136.066406 136.792969 135.53125 C 137.730469 135.398438 138.53125 134.867188 139.332031 134.601562 C 143.605469 133.398438 147.878906 132.332031 152.019531 131.132812 C 155.625 130.199219 159.097656 129.132812 162.703125 128.734375 C 164.171875 128.601562 165.640625 127 167.242188 128.332031 C 167.375 128.464844 167.910156 127.933594 168.308594 127.933594 C 168.976562 127.800781 169.511719 127.933594 170.179688 127.933594 C 169.78125 125.933594 171.78125 127 172.449219 126.867188 C 174.71875 126.199219 177.257812 125.800781 179.660156 125.667969 C 185.003906 125.265625 190.078125 123.53125 195.285156 123.265625 C 198.359375 123 201.429688 122.332031 204.5 121.933594 C 204.769531 121.933594 205.96875 121.132812 205.4375 122.332031 C 209.441406 120.601562 213.847656 121 218.121094 120.332031 C 218.121094 120.867188 218.121094 121.132812 217.988281 121.53125 C 218.257812 121.398438 218.65625 121.265625 218.65625 121.265625 C 218.257812 120.066406 219.058594 120.066406 219.859375 119.933594 C 221.863281 119.800781 224 119.667969 226.003906 119.53125 C 228.273438 119.398438 230.410156 119.132812 232.679688 119 C 233.078125 119 233.480469 119.132812 233.882812 119.265625 C 234.414062 119.53125 234.683594 119.53125 235.351562 119.132812 C 236.019531 118.601562 237.351562 118.734375 238.289062 118.734375 C 242.429688 118.601562 246.566406 118.464844 250.707031 118.464844 C 253.644531 118.464844 256.449219 118.734375 259.386719 118.867188 C 260.855469 119 262.328125 119.132812 263.796875 119.132812 C 264.996094 119.132812 267.933594 121.53125 267.535156 122.464844 C 267 123.667969 268.335938 124.601562 267.667969 125.667969 C 267.667969 125.667969 268.070312 125.933594 268.335938 126.066406 C 267.667969 126.867188 267.800781 127.265625 268.601562 129.933594 C 269.003906 131.265625 269.003906 132.867188 269.003906 134.332031 C 269.136719 134.867188 269.136719 135.398438 269.269531 136.066406 C 269.539062 137.398438 269.804688 138.734375 270.070312 140.199219 C 269.402344 140.332031 268.738281 140.332031 267.933594 140.464844 C 269.269531 141.53125 270.339844 142.867188 268.871094 144.867188 L 269.539062 144.867188 C 268.738281 146.332031 267.933594 147.933594 267.402344 149.132812 C 268.601562 150.332031 269.671875 151.53125 270.875 152.597656 C 271.140625 152.867188 271.675781 153.265625 271.808594 153.132812 C 273.675781 152.199219 274.480469 153.933594 275.546875 154.597656 C 276.347656 155.132812 278.21875 155.53125 277.148438 157.398438 C 277.148438 157.398438 277.949219 158.066406 278.351562 158.199219 C 279.152344 158.332031 279.953125 158.199219 281.023438 158.066406 L 281.023438 170.734375 L 281.289062 170.734375 C 281.15625 171 281.023438 171.398438 281.023438 171.53125 C 281.824219 173.132812 281.289062 174.332031 279.554688 174.867188 C 279.421875 174.867188 279.285156 175.132812 279.152344 175.265625 C 279.152344 175.398438 279.152344 175.664062 279.285156 175.664062 L 279.953125 175.664062 L 281.558594 174.867188 L 281.824219 175.132812 C 281.558594 175.53125 281.289062 175.933594 281.023438 176.464844 C 281.421875 176.867188 281.824219 177.265625 282.492188 177.800781 C 282.222656 178.066406 281.824219 178.332031 281.691406 178.734375 C 281.558594 179.132812 280.621094 179.53125 281.691406 180.066406 C 281.957031 180.199219 281.957031 181.132812 282.089844 181.800781 C 280.085938 180.867188 280.222656 183.132812 279.019531 183.664062 C 278.886719 183.398438 278.617188 183 278.351562 182.464844 C 278.21875 183 278.085938 183.398438 278.085938 183.53125 C 277.683594 183.53125 276.882812 183.398438 276.75 183.53125 C 276.480469 184.332031 276.082031 185.265625 276.347656 185.933594 C 276.480469 186.464844 277.417969 187.132812 278.085938 187.132812 C 279.953125 187.53125 281.824219 187.664062 283.695312 187.800781 C 284.761719 187.933594 285.832031 187.664062 286.898438 187.664062 C 288.367188 187.800781 289.703125 188.066406 291.171875 188.199219 C 291.707031 188.199219 292.375 187.933594 292.90625 187.933594 C 294.378906 188.066406 295.980469 188.199219 297.449219 188.464844 C 297.714844 188.464844 297.984375 188.867188 298.117188 189 C 299.050781 189.132812 299.984375 189.398438 300.789062 189.265625 C 302.65625 188.867188 303.589844 189.53125 304.792969 190.867188 C 305.195312 191.398438 306.664062 191.265625 307.464844 191.132812 C 309.601562 190.867188 308.933594 192.597656 309.46875 193.53125 C 309.734375 193.933594 309.734375 194.464844 309.734375 194.867188 C 310 195.933594 309.867188 196.867188 308.265625 197.398438 C 308.800781 197.933594 309.335938 198.199219 309.734375 198.734375 C 310 199 310 199.398438 310 199.800781 C 310 200.332031 309.734375 201 310 201.265625 C 310.9375 202.066406 310.402344 202.597656 309.867188 203 C 310.136719 203.664062 310.667969 204.199219 310.667969 204.734375 C 310.667969 205.664062 310 206.597656 311.070312 207.265625 L 311.070312 207.398438 C 309.601562 209.265625 311.472656 211 311.070312 212.867188 C 311.070312 213.132812 311.070312 213.664062 311.335938 213.933594 C 312.136719 214.597656 311.738281 215.265625 311.472656 216.066406 C 310.9375 217.265625 310.402344 218.464844 310 219.398438 C 309.199219 219.265625 308.265625 219 307.332031 219.132812 C 306.394531 219.132812 305.59375 219.398438 304.660156 219.53125 C 304.925781 220.332031 306.128906 220.867188 304.792969 221.933594 C 304.394531 222.199219 304.660156 223.398438 304.792969 224.066406 C 304.925781 225 305.328125 226.066406 305.195312 227 C 305.195312 227.398438 304.257812 227.800781 303.589844 228.066406 C 302.390625 228.730469 300.386719 228.464844 300.652344 230.730469 C 299.71875 230.867188 298.515625 230.730469 299.71875 232.199219 C 300.253906 232.867188 299.183594 233.800781 297.714844 233.933594 C 296.113281 234.066406 294.511719 234.464844 292.90625 234.730469 C 291.4375 235 289.96875 235.265625 288.5 235.398438 C 288.101562 235.398438 287.566406 235 287.03125 234.867188 C 286.632812 235 285.964844 235.265625 285.296875 235.53125 C 284.894531 234.730469 284.628906 234.199219 284.496094 233.53125 C 284.359375 233.53125 284.226562 233.53125 284.226562 233.664062 L 284.226562 235.53125 C 283.160156 233.265625 281.691406 235.53125 280.621094 235.132812 C 280.890625 235.398438 281.023438 235.664062 281.289062 236.066406 C 280.621094 236.332031 280.085938 236.464844 279.554688 236.597656 L 279.554688 238.199219 C 278.617188 239 277.949219 239.53125 277.285156 240.199219 C 277.816406 240.332031 278.351562 240.597656 279.152344 240.867188 C 277.550781 241.265625 276.347656 242.199219 274.746094 241.796875 C 274.34375 241.664062 273.8125 242.199219 273.410156 242.464844 C 272.609375 243.398438 271.808594 244.066406 270.875 243.132812 C 270.207031 244.332031 269.671875 245.398438 269.136719 246.464844 C 269.136719 245.933594 269.003906 245.53125 269.003906 245 C 268.46875 245.132812 267.933594 245.132812 267.402344 245.265625 C 267.535156 246.066406 267.667969 246.464844 267.800781 247.132812 C 268.335938 246.867188 268.738281 246.597656 269.136719 246.332031 C 269.804688 247.933594 270.207031 248.066406 272.074219 247.132812 C 272.34375 247.664062 272.609375 248.199219 272.875 248.867188 C 271.40625 249.132812 269.9375 249.398438 268.335938 249.796875 C 269.269531 251 267.132812 252.730469 269.269531 253.132812 C 268.738281 253.664062 268.335938 254.464844 267.667969 254.867188 C 266.734375 255.398438 265.664062 255.53125 264.597656 255.796875 C 263.128906 256.066406 261.523438 256.332031 260.054688 256.464844 C 258.054688 256.597656 256.050781 256.730469 254.179688 256.867188 C 252.710938 257 251.375 257.398438 250.039062 257.53125 C 248.972656 257.664062 247.769531 257.398438 246.703125 257.53125 C 244.964844 257.796875 243.363281 258.464844 241.625 258.867188 C 241.226562 259 240.691406 259 240.292969 259 C 239.625 259 238.957031 258.332031 238.554688 259.398438 C 236.953125 258.332031 235.617188 260.867188 234.015625 259.664062 C 233.882812 259.53125 233.480469 259.933594 233.214844 260.066406 L 232.414062 260.464844 C 228.671875 261.132812 224.933594 261.664062 221.195312 262.199219 C 219.324219 262.464844 217.457031 262.464844 215.585938 262.597656 C 214.382812 262.730469 213.183594 263.132812 211.980469 263.265625 C 211.179688 263.398438 210.378906 263.265625 209.308594 263.132812 C 208.90625 264.199219 208.242188 264.066406 207.574219 263.132812 C 206.238281 263.796875 204.902344 264.464844 203.300781 264.066406 C 202.765625 263.933594 201.964844 264.332031 201.296875 264.332031 C 200.761719 264.332031 200.226562 264.199219 199.695312 263.933594 C 199.160156 263.664062 198.492188 262.867188 198.359375 264.332031 C 198.359375 264.464844 197.023438 264.597656 196.222656 264.730469 C 194.617188 265 192.882812 265.132812 191.148438 265.398438 C 191.414062 264.867188 191.546875 264.464844 191.679688 264.066406 L 191.546875 263.933594 L 189.542969 265.53125 C 188.476562 266.464844 187.140625 266.332031 185.804688 266.332031 C 184.601562 266.332031 183.265625 266.199219 182.332031 266.597656 C 181.265625 267 181.398438 267.265625 180.730469 266.332031 C 180.195312 267.398438 177.792969 267.933594 177.125 267.265625 C 177.523438 267 177.925781 266.863281 178.328125 266.597656 C 178.191406 266.464844 178.191406 266.332031 178.058594 266.199219 C 177.792969 266.332031 177.660156 266.464844 177.390625 266.597656 C 175.789062 267.53125 174.054688 267.265625 172.449219 267.398438 C 171.113281 267.53125 169.78125 267 168.308594 266.730469 L 168.308594 265.53125 C 168.308594 263.796875 167.375 262.867188 165.773438 262.730469 C 165.238281 262.730469 164.304688 262.867188 164.4375 261.53125 C 164.570312 260.597656 163.234375 260.066406 162.035156 260.332031 C 161.097656 260.597656 160.03125 260.464844 159.097656 260.464844 C 158.960938 260.332031 158.695312 260.199219 158.429688 260.199219 C 157.359375 260.332031 156.425781 260.597656 155.355469 260.597656 C 153.21875 260.867188 151.214844 261 149.078125 261.265625 C 148.546875 261.265625 148.011719 261.132812 147.210938 261.132812 C 147.746094 260.730469 148.144531 260.464844 148.546875 260.199219 C 145.074219 260.867188 144.003906 258.730469 143.335938 256.199219 C 143.472656 256.199219 143.738281 256.066406 144.003906 256.066406 C 141.199219 255.664062 140.933594 253.398438 140.265625 251.265625 C 139.867188 251.132812 139.0625 250.867188 138.53125 250.597656 C 138.796875 250.199219 139.199219 249.664062 139.464844 249.265625 C 138.929688 249.132812 138.261719 248.867188 137.730469 248.867188 C 135.859375 249.132812 134.257812 248.867188 133.054688 247.265625 C 134.789062 247.53125 136.394531 247.796875 138.128906 248.066406 C 138.394531 247.132812 138.53125 246.597656 138.664062 245.933594 C 137.460938 246.730469 137.460938 246.730469 136.527344 245.933594 C 136.125 245.664062 135.726562 245.398438 135.457031 245.265625 C 134.65625 246.597656 133.320312 245.53125 132.121094 246.066406 C 132.519531 246.597656 132.789062 247 133.054688 247.398438 C 132.386719 247 131.050781 247.933594 131.320312 246.332031 C 130.25 246.597656 129.183594 246.867188 128.246094 247.265625 C 127.710938 247.53125 127.445312 248.199219 127.046875 248.730469 L 127.046875 247.933594 C 126.777344 247.933594 126.511719 247.933594 126.378906 248.066406 C 124.773438 248.867188 123.039062 249.796875 121.4375 250.597656 C 121.035156 250.066406 120.902344 249.664062 120.769531 249.664062 C 119.832031 250.199219 118.898438 251 118.097656 250.867188 C 117.296875 250.867188 116.363281 249.933594 115.558594 249.53125 C 115.558594 250.199219 115.425781 250.867188 115.425781 251.53125 C 113.824219 250.199219 113.558594 250.332031 112.621094 252.730469 C 113.558594 252.730469 114.492188 252.597656 115.558594 252.597656 L 115.558594 251.664062 C 115.960938 252.066406 116.363281 252.332031 116.761719 252.730469 C 116.761719 253 116.628906 253.664062 116.628906 253.664062 C 115.292969 253.664062 114.226562 255.398438 112.621094 254.332031 C 112.355469 254.199219 111.820312 254.597656 111.421875 254.597656 L 110.617188 254.597656 C 107.011719 256.199219 103.140625 256.332031 99.269531 257.265625 C 99.132812 255.796875 98.332031 255.933594 97.265625 256.199219 C 96.996094 256.332031 96.464844 255.933594 96.0625 255.933594 C 96.328125 255.933594 96.597656 255.796875 96.730469 255.796875 C 96.996094 255.265625 97.265625 254.597656 97.398438 254.199219 C 96.996094 254.066406 96.464844 253.664062 95.929688 253.664062 C 95.527344 253.664062 95.128906 254.066406 94.726562 254.199219 C 94.996094 253.796875 94.859375 254.066406 94.726562 254.199219 Z M 234.414062 256.867188 C 232.679688 257.132812 231.210938 257.398438 229.609375 257.664062 L 229.609375 258.332031 C 230.410156 258.464844 231.34375 258.730469 232.144531 258.597656 C 232.945312 258.597656 234.148438 258.597656 234.414062 256.867188 Z M 112.222656 252.867188 C 111.554688 252.066406 111.285156 251.265625 110.351562 252.066406 C 109.953125 252.464844 109.285156 252.464844 108.75 252.730469 C 108.480469 252.867188 108.214844 253 107.949219 253.265625 L 108.082031 253.664062 C 108.347656 253.664062 108.617188 253.53125 109.015625 253.398438 C 109.417969 253.265625 109.816406 253.265625 110.21875 253.265625 C 110.617188 253.132812 111.285156 253 112.222656 252.867188 Z M 157.625 257 C 158.292969 257.796875 158.828125 258.464844 159.363281 259.132812 C 159.628906 258.464844 160.03125 257.796875 160.164062 257.265625 C 159.363281 257 158.5625 257 157.625 257 Z M 116.226562 245.398438 C 115.425781 247.53125 115.960938 248.332031 117.429688 248.199219 C 117.027344 247.398438 116.628906 246.597656 116.226562 245.398438 Z M 116.226562 245.398438 "/>
</g>
<path style=" stroke:none;fill-rule:nonzero;fill:rgb(100%,100%,100%);fill-opacity:1;" d="M 117.027344 252.199219 C 116.894531 251.933594 116.894531 251.664062 116.761719 251.132812 C 118.230469 252.199219 119.300781 251.132812 120.5 250.867188 C 121.703125 250.597656 123.039062 251.132812 124.242188 251.265625 L 124.242188 251.132812 C 123.972656 252.464844 122.90625 252.066406 121.96875 252.199219 C 121.167969 252.332031 120.101562 252.066406 119.566406 252.464844 C 118.363281 253.53125 117.695312 253 117.027344 252.199219 Z M 117.027344 252.199219 "/>
<path style=" stroke:none;fill-rule:nonzero;fill:rgb(100%,100%,100%);fill-opacity:1;" d="M 124.242188 251.265625 C 124.640625 251 125.042969 250.464844 125.574219 250.066406 C 126.109375 249.664062 126.644531 249.398438 127.179688 249 C 127.3125 249.132812 127.445312 249.398438 127.710938 249.53125 L 129.316406 249.933594 C 127.445312 250.332031 125.84375 250.730469 124.242188 251.265625 Z M 124.242188 251.265625 "/>
<path style=" stroke:none;fill-rule:nonzero;fill:rgb(100%,100%,100%);fill-opacity:1;" d="M 94.726562 254.199219 C 94.859375 254.066406 94.996094 253.796875 95.128906 253.664062 C 96.730469 253 96.328125 254.730469 97.132812 255.265625 C 96.863281 255.265625 96.597656 255.398438 96.464844 255.398438 C 96.0625 255.53125 95.394531 255.796875 95.128906 255.664062 C 94.859375 255.265625 94.859375 254.730469 94.726562 254.199219 Z M 94.726562 254.199219 "/>
<path style=" stroke:none;fill-rule:nonzero;fill:rgb(100%,100%,100%);fill-opacity:1;" d="M 129.183594 249.933594 C 128.914062 248.597656 130.25 248.730469 130.785156 248.464844 C 131.183594 248.332031 131.851562 248.597656 132.652344 248.730469 C 131.453125 250.066406 130.382812 250.464844 129.183594 249.933594 Z M 129.183594 249.933594 "/>
<g clip-path="url(#clip3)" clip-rule="nonzero">
<path style=" stroke:none;fill-rule:nonzero;fill:rgb(100%,100%,100%);fill-opacity:1;" d="M 91.710938 183.910156 C 90.796875 184.828125 90.011719 185.21875 88.835938 184.304688 C 88.574219 184.042969 88.183594 184.042969 87.660156 183.910156 C 87.789062 183.648438 88.050781 183.257812 88.3125 182.734375 C 87.789062 182.601562 87.007812 182.601562 86.746094 182.210938 C 86.484375 181.816406 86.746094 181.164062 86.875 180.246094 C 86.351562 180.378906 85.699219 180.378906 85.175781 180.507812 L 84.390625 178.9375 C 84.652344 178.9375 85.046875 178.808594 85.4375 178.808594 L 85.4375 178.546875 C 85.046875 178.414062 84.523438 178.285156 84.523438 178.285156 C 84.132812 177.761719 84 177.5 83.738281 177.367188 C 83.476562 177.238281 83.214844 177.105469 83.085938 176.976562 C 82.695312 176.714844 82.433594 176.453125 82.039062 176.058594 C 82.5625 175.796875 82.953125 175.667969 83.476562 175.40625 C 83.738281 175.273438 84.132812 175.273438 84.390625 175.144531 C 84.132812 174.882812 83.871094 174.75 83.609375 174.488281 C 83.347656 174.226562 83.085938 173.835938 82.953125 173.441406 C 82.695312 172.527344 82.5625 171.609375 82.300781 170.695312 C 82.039062 170.171875 81.515625 169.648438 81.125 169.125 C 80.996094 168.992188 80.601562 168.863281 80.472656 168.730469 C 79.949219 167.816406 79.816406 166.375 79.164062 165.851562 C 77.859375 164.804688 79.164062 163.367188 78.121094 162.449219 C 77.859375 162.1875 77.464844 161.796875 77.464844 161.402344 C 77.464844 160.488281 75.765625 160.09375 76.8125 158.917969 C 76.941406 158.785156 76.289062 157.476562 75.765625 157.085938 C 74.066406 155.777344 74.460938 153.550781 73.414062 151.980469 C 73.285156 151.71875 73.675781 151.195312 73.675781 150.804688 C 71.976562 149.757812 71.585938 148.1875 72.5 146.617188 C 71.847656 146.09375 71.191406 145.699219 70.667969 145.175781 L 70.277344 144.785156 C 72.761719 144.261719 71.976562 142.167969 72.367188 140.597656 C 71.847656 140.335938 71.453125 140.203125 70.800781 139.941406 C 71.0625 139.679688 71.324219 139.550781 71.585938 139.289062 C 70.667969 138.371094 67.925781 138.109375 70.410156 135.753906 C 69.625 135.492188 68.96875 135.230469 68.054688 134.96875 C 68.578125 134.578125 68.96875 134.316406 69.363281 134.054688 C 68.96875 133.792969 68.449219 133.660156 67.925781 133.269531 C 67.402344 132.613281 69.363281 131.042969 67.273438 130.257812 L 67.273438 128.296875 C 67.402344 128.164062 67.792969 127.902344 68.316406 127.640625 C 67.664062 127.511719 67.273438 127.378906 67.140625 127.378906 C 66.878906 126.070312 66.617188 124.894531 66.355469 123.847656 C 66.09375 123.847656 65.964844 123.714844 65.703125 123.714844 C 66.09375 123.585938 66.355469 123.453125 66.75 123.324219 C 66.75 123.191406 66.617188 123.0625 66.617188 122.929688 C 66.09375 122.667969 65.703125 122.539062 65.179688 122.277344 C 65.179688 122.144531 65.179688 121.753906 65.3125 121.492188 C 65.703125 121.492188 66.226562 121.621094 66.617188 121.621094 C 71.191406 117.828125 73.804688 116.648438 80.472656 115.078125 C 84.132812 114.164062 87.660156 112.984375 91.1875 111.9375 C 92.234375 111.546875 93.410156 111.152344 94.324219 110.5 C 94.847656 110.105469 94.980469 109.191406 95.109375 108.40625 C 95.109375 108.011719 94.585938 107.488281 94.0625 107.355469 C 92.886719 106.832031 93.019531 105.917969 93.148438 105.132812 C 92.625 104.609375 92.101562 104.214844 91.582031 103.691406 C 91.972656 103.167969 92.234375 102.777344 92.496094 102.382812 C 90.40625 102.777344 91.058594 100.945312 90.796875 100.160156 C 90.144531 98.589844 90.011719 97.019531 89.621094 95.316406 C 89.75 95.316406 90.011719 95.316406 90.273438 95.449219 C 89.621094 93.484375 89.097656 91.652344 88.445312 89.691406 C 88.574219 89.691406 88.707031 89.558594 88.835938 89.558594 C 88.445312 89.167969 87.921875 88.90625 87.398438 88.382812 C 88.3125 87.335938 89.359375 86.550781 89.488281 85.109375 C 89.621094 83.410156 91.449219 82.886719 92.886719 82.230469 C 96.808594 80.660156 100.859375 79.222656 104.78125 77.519531 C 107.265625 76.472656 109.617188 75.164062 112.101562 74.117188 C 114.453125 73.070312 116.804688 72.023438 119.289062 71.109375 C 121.640625 70.191406 124.125 69.40625 126.476562 68.753906 C 128.566406 68.230469 130.789062 67.96875 132.878906 67.445312 C 133.792969 67.3125 134.578125 66.789062 135.363281 66.527344 C 139.546875 65.351562 143.726562 64.304688 147.777344 63.125 C 151.308594 62.210938 154.707031 61.164062 158.234375 60.769531 C 159.671875 60.640625 161.109375 59.070312 162.679688 60.378906 C 162.808594 60.507812 163.332031 59.984375 163.722656 59.984375 C 164.378906 59.855469 164.898438 59.984375 165.554688 59.984375 C 165.160156 58.023438 167.121094 59.070312 167.773438 58.9375 C 169.996094 58.285156 172.480469 57.890625 174.832031 57.761719 C 180.058594 57.367188 185.027344 55.667969 190.125 55.40625 C 193.128906 55.144531 196.136719 54.488281 199.140625 54.097656 C 199.402344 54.097656 200.578125 53.3125 200.058594 54.488281 C 203.976562 52.789062 208.289062 53.179688 212.472656 52.527344 C 212.472656 53.050781 212.472656 53.3125 212.34375 53.703125 C 212.601562 53.574219 212.996094 53.441406 212.996094 53.441406 C 212.601562 52.265625 213.386719 52.265625 214.171875 52.132812 C 216.132812 52.003906 218.222656 51.871094 220.183594 51.742188 C 222.40625 51.609375 224.496094 51.347656 226.71875 51.21875 C 227.109375 51.21875 227.503906 51.347656 227.894531 51.480469 C 228.417969 51.742188 228.679688 51.742188 229.332031 51.347656 C 229.984375 50.824219 231.292969 50.957031 232.207031 50.957031 C 236.257812 50.824219 240.308594 50.695312 244.363281 50.695312 C 247.238281 50.695312 249.980469 50.957031 252.855469 51.085938 C 254.292969 51.21875 255.730469 51.347656 257.167969 51.347656 C 258.347656 51.347656 261.222656 53.703125 260.828125 54.621094 C 260.304688 55.796875 261.613281 56.714844 260.960938 57.761719 C 260.960938 57.761719 261.351562 58.023438 261.613281 58.152344 C 260.960938 58.9375 261.089844 59.332031 261.875 61.949219 C 262.265625 63.257812 262.265625 64.828125 262.265625 66.265625 C 262.398438 66.789062 262.398438 67.3125 262.527344 67.96875 C 262.789062 69.277344 263.050781 70.585938 263.3125 72.023438 C 262.660156 72.15625 262.003906 72.15625 261.222656 72.285156 C 262.527344 73.332031 263.574219 74.640625 262.136719 76.605469 L 262.789062 76.605469 C 262.003906 78.042969 261.222656 79.613281 260.699219 80.792969 C 261.875 81.96875 262.921875 83.148438 264.097656 84.195312 C 264.359375 84.457031 264.882812 84.847656 265.011719 84.71875 C 266.839844 83.800781 267.625 85.503906 268.671875 86.15625 C 269.457031 86.679688 271.285156 87.074219 270.238281 88.90625 C 270.238281 88.90625 271.023438 89.558594 271.414062 89.691406 C 272.199219 89.820312 272.984375 89.691406 274.03125 89.558594 L 274.03125 101.992188 L 274.289062 101.992188 C 274.160156 102.253906 274.03125 102.644531 274.03125 102.777344 C 274.8125 104.347656 274.289062 105.523438 272.589844 106.046875 C 272.460938 106.046875 272.332031 106.308594 272.199219 106.441406 C 272.199219 106.570312 272.199219 106.832031 272.332031 106.832031 L 272.984375 106.832031 L 274.550781 106.046875 L 274.8125 106.308594 C 274.550781 106.703125 274.289062 107.09375 274.03125 107.617188 C 274.421875 108.011719 274.8125 108.40625 275.46875 108.929688 C 275.207031 109.191406 274.8125 109.453125 274.683594 109.84375 C 274.550781 110.238281 273.636719 110.628906 274.683594 111.152344 C 274.945312 111.285156 274.945312 112.199219 275.074219 112.855469 C 273.113281 111.9375 273.246094 114.164062 272.070312 114.6875 C 271.9375 114.425781 271.675781 114.03125 271.414062 113.507812 C 271.285156 114.03125 271.152344 114.425781 271.152344 114.554688 C 270.761719 114.554688 269.976562 114.425781 269.847656 114.554688 C 269.585938 115.339844 269.195312 116.257812 269.457031 116.910156 C 269.585938 117.433594 270.5 118.089844 271.152344 118.089844 C 272.984375 118.480469 274.8125 118.613281 276.644531 118.742188 C 277.6875 118.875 278.734375 118.613281 279.78125 118.613281 C 281.21875 118.742188 282.523438 119.003906 283.960938 119.136719 C 284.484375 119.136719 285.136719 118.875 285.660156 118.875 C 287.097656 119.003906 288.667969 119.136719 290.105469 119.398438 C 290.367188 119.398438 290.628906 119.789062 290.757812 119.921875 C 291.671875 120.050781 292.589844 120.3125 293.371094 120.183594 C 295.203125 119.789062 296.117188 120.445312 297.292969 121.753906 C 297.683594 122.277344 299.121094 122.144531 299.90625 122.015625 C 301.996094 121.753906 301.34375 123.453125 301.867188 124.371094 C 302.128906 124.761719 302.128906 125.285156 302.128906 125.679688 C 302.390625 126.726562 302.257812 127.640625 300.691406 128.164062 C 301.214844 128.6875 301.738281 128.949219 302.128906 129.472656 C 302.390625 129.734375 302.390625 130.128906 302.390625 130.519531 C 302.390625 131.042969 302.128906 131.699219 302.390625 131.960938 C 303.304688 132.746094 302.78125 133.269531 302.257812 133.660156 C 302.519531 134.316406 303.042969 134.839844 303.042969 135.363281 C 303.042969 136.277344 302.390625 137.195312 303.433594 137.847656 L 303.433594 137.980469 C 301.996094 139.8125 303.828125 141.511719 303.433594 143.34375 C 303.433594 143.605469 303.433594 144.128906 303.695312 144.390625 C 304.480469 145.046875 304.089844 145.699219 303.828125 146.484375 C 303.304688 147.664062 302.78125 148.839844 302.390625 149.757812 C 301.605469 149.625 300.691406 149.363281 299.777344 149.496094 C 298.859375 149.496094 298.078125 149.757812 297.164062 149.886719 C 297.421875 150.671875 298.601562 151.195312 297.292969 152.242188 C 296.902344 152.503906 297.164062 153.683594 297.292969 154.335938 C 297.421875 155.253906 297.816406 156.300781 297.683594 157.214844 C 297.683594 157.609375 296.769531 158 296.117188 158.261719 C 294.941406 158.917969 292.980469 158.65625 293.242188 160.878906 C 292.328125 161.011719 291.148438 160.878906 292.328125 162.320312 C 292.847656 162.972656 291.804688 163.890625 290.367188 164.019531 C 288.796875 164.152344 287.230469 164.542969 285.660156 164.804688 C 284.222656 165.066406 282.785156 165.328125 281.347656 165.460938 C 280.957031 165.460938 280.433594 165.066406 279.910156 164.9375 C 279.519531 165.066406 278.863281 165.328125 278.210938 165.589844 C 277.820312 164.804688 277.558594 164.28125 277.425781 163.628906 C 277.296875 163.628906 277.167969 163.628906 277.167969 163.757812 L 277.167969 165.589844 C 276.121094 163.367188 274.683594 165.589844 273.636719 165.199219 C 273.898438 165.460938 274.03125 165.722656 274.289062 166.113281 C 273.636719 166.375 273.113281 166.507812 272.589844 166.636719 L 272.589844 168.207031 C 271.675781 168.992188 271.023438 169.515625 270.371094 170.171875 C 270.894531 170.300781 271.414062 170.5625 272.199219 170.824219 C 270.632812 171.21875 269.453125 172.132812 267.886719 171.742188 C 267.496094 171.609375 266.972656 172.132812 266.578125 172.394531 C 265.796875 173.3125 265.011719 173.964844 264.097656 173.050781 C 263.441406 174.226562 262.921875 175.273438 262.398438 176.320312 C 262.398438 175.796875 262.265625 175.40625 262.265625 174.882812 C 261.742188 175.011719 261.222656 175.011719 260.699219 175.144531 C 260.828125 175.929688 260.960938 176.320312 261.089844 176.976562 C 261.613281 176.714844 262.003906 176.453125 262.398438 176.191406 C 263.050781 177.761719 263.441406 177.890625 265.273438 176.976562 C 265.535156 177.5 265.796875 178.023438 266.058594 178.675781 C 264.621094 178.9375 263.183594 179.199219 261.613281 179.59375 C 262.527344 180.769531 260.4375 182.472656 262.527344 182.863281 C 262.003906 183.386719 261.613281 184.171875 260.960938 184.566406 C 260.046875 185.089844 259 185.21875 257.953125 185.480469 C 256.515625 185.742188 254.949219 186.003906 253.511719 186.136719 C 251.550781 186.265625 249.589844 186.398438 247.761719 186.527344 C 246.320312 186.660156 245.015625 187.050781 243.707031 187.183594 C 242.664062 187.3125 241.488281 187.050781 240.441406 187.183594 C 238.742188 187.445312 237.171875 188.097656 235.476562 188.492188 C 235.082031 188.621094 234.558594 188.621094 234.167969 188.621094 C 233.515625 188.621094 232.859375 187.96875 232.46875 189.015625 C 230.898438 187.96875 229.59375 190.453125 228.023438 189.277344 C 227.894531 189.144531 227.503906 189.539062 227.242188 189.667969 L 226.457031 190.0625 C 222.796875 190.714844 219.136719 191.238281 215.476562 191.761719 C 213.648438 192.023438 211.820312 192.023438 209.988281 192.15625 C 208.8125 192.285156 207.636719 192.679688 206.460938 192.808594 C 205.675781 192.941406 204.890625 192.808594 203.847656 192.679688 C 203.453125 193.726562 202.800781 193.59375 202.148438 192.679688 C 200.839844 193.332031 199.535156 193.988281 197.964844 193.59375 C 197.441406 193.464844 196.660156 193.855469 196.003906 193.855469 C 195.480469 193.855469 194.960938 193.726562 194.4375 193.464844 C 193.914062 193.203125 193.261719 192.417969 193.128906 193.855469 C 193.128906 193.988281 191.824219 194.117188 191.039062 194.25 C 189.46875 194.511719 187.769531 194.640625 186.074219 194.902344 C 186.332031 194.378906 186.464844 193.988281 186.59375 193.59375 L 186.464844 193.464844 L 184.503906 195.035156 C 183.457031 195.949219 182.152344 195.820312 180.84375 195.820312 C 179.667969 195.820312 178.363281 195.6875 177.445312 196.082031 C 176.402344 196.472656 176.53125 196.734375 175.878906 195.820312 C 175.355469 196.867188 173.003906 197.390625 172.347656 196.734375 C 172.742188 196.472656 173.132812 196.34375 173.527344 196.082031 C 173.394531 195.949219 173.394531 195.820312 173.265625 195.6875 C 173.003906 195.820312 172.871094 195.949219 172.609375 196.082031 C 171.042969 196.996094 169.34375 196.734375 167.773438 196.867188 C 166.46875 196.996094 165.160156 196.472656 163.722656 196.210938 L 163.722656 195.035156 C 163.722656 193.332031 162.808594 192.417969 161.242188 192.285156 C 160.71875 192.285156 159.804688 192.417969 159.933594 191.109375 C 160.0625 190.191406 158.757812 189.667969 157.582031 189.929688 C 156.667969 190.191406 155.621094 190.0625 154.707031 190.0625 C 154.574219 189.929688 154.3125 189.800781 154.050781 189.800781 C 153.007812 189.929688 152.09375 190.191406 151.046875 190.191406 C 148.957031 190.453125 146.996094 190.585938 144.902344 190.847656 C 144.382812 190.847656 143.859375 190.714844 143.074219 190.714844 C 143.597656 190.324219 143.988281 190.0625 144.382812 189.800781 C 140.984375 190.453125 139.9375 188.359375 139.285156 185.875 C 139.414062 185.875 139.675781 185.742188 139.9375 185.742188 C 137.191406 185.351562 136.929688 183.125 136.277344 181.03125 C 135.886719 180.902344 135.101562 180.640625 134.578125 180.378906 C 134.839844 179.984375 135.234375 179.460938 135.492188 179.070312 C 134.972656 178.9375 134.316406 178.675781 133.792969 178.675781 C 131.964844 178.9375 130.398438 178.675781 129.21875 177.105469 C 130.917969 177.367188 132.488281 177.628906 134.1875 177.890625 C 134.449219 176.976562 134.578125 176.453125 134.710938 175.796875 C 133.535156 176.582031 133.535156 176.582031 132.617188 175.796875 C 132.226562 175.535156 131.835938 175.273438 131.574219 175.144531 C 130.789062 176.453125 129.480469 175.40625 128.304688 175.929688 C 128.699219 176.453125 128.960938 176.84375 129.21875 177.238281 C 128.566406 176.84375 127.261719 177.761719 127.523438 176.191406 C 126.476562 176.453125 125.429688 176.714844 124.515625 177.105469 C 123.992188 177.367188 123.730469 178.023438 123.339844 178.546875 L 123.339844 177.761719 C 123.078125 177.761719 122.816406 177.761719 122.6875 177.890625 C 121.117188 178.675781 119.417969 179.59375 117.851562 180.378906 C 117.457031 179.855469 117.328125 179.460938 117.195312 179.460938 C 116.28125 179.984375 115.367188 180.769531 114.582031 180.640625 C 113.796875 180.640625 112.882812 179.722656 112.097656 179.332031 C 112.097656 179.984375 111.96875 180.640625 111.96875 181.292969 C 110.402344 179.984375 110.140625 180.117188 109.222656 182.472656 C 110.140625 182.472656 111.054688 182.339844 112.097656 182.339844 L 112.097656 181.425781 C 112.492188 181.816406 112.882812 182.078125 113.277344 182.472656 C 113.277344 182.734375 113.144531 183.386719 113.144531 183.386719 C 111.839844 183.386719 110.792969 185.089844 109.222656 184.042969 C 108.964844 183.910156 108.441406 184.304688 108.046875 184.304688 L 107.265625 184.304688 C 103.734375 185.875 99.945312 186.003906 96.15625 186.921875 C 96.023438 185.480469 95.238281 185.613281 94.195312 185.875 C 93.933594 186.003906 93.410156 185.613281 93.019531 185.613281 C 93.28125 185.613281 93.542969 185.480469 93.671875 185.480469 C 93.933594 184.957031 94.195312 184.304688 94.324219 183.910156 C 93.933594 183.78125 93.410156 183.386719 92.886719 183.386719 C 92.496094 183.386719 92.101562 183.78125 91.710938 183.910156 C 91.972656 183.519531 91.84375 183.78125 91.710938 183.910156 Z M 228.417969 186.527344 C 226.71875 186.789062 225.28125 187.050781 223.710938 187.3125 L 223.710938 187.96875 C 224.496094 188.097656 225.410156 188.359375 226.195312 188.230469 C 226.980469 188.230469 228.15625 188.230469 228.417969 186.527344 Z M 108.832031 182.601562 C 108.179688 181.816406 107.917969 181.03125 107.003906 181.816406 C 106.609375 182.210938 105.957031 182.210938 105.433594 182.472656 C 105.171875 182.601562 104.910156 182.734375 104.648438 182.996094 L 104.78125 183.386719 C 105.042969 183.386719 105.304688 183.257812 105.695312 183.125 C 106.085938 182.996094 106.480469 182.996094 106.871094 182.996094 C 107.265625 182.863281 107.917969 182.734375 108.832031 182.601562 Z M 153.269531 186.660156 C 153.921875 187.445312 154.445312 188.097656 154.96875 188.753906 C 155.230469 188.097656 155.621094 187.445312 155.75 186.921875 C 154.96875 186.660156 154.183594 186.660156 153.269531 186.660156 Z M 112.753906 175.273438 C 111.96875 177.367188 112.492188 178.152344 113.929688 178.023438 C 113.539062 177.238281 113.144531 176.453125 112.753906 175.273438 Z M 112.753906 175.273438 "/>
</g>
<path style=" stroke:none;fill-rule:nonzero;fill:rgb(100%,100%,100%);fill-opacity:1;" d="M 113.539062 181.949219 C 113.40625 181.6875 113.40625 181.425781 113.277344 180.902344 C 114.714844 181.949219 115.757812 180.902344 116.933594 180.640625 C 118.113281 180.378906 119.417969 180.902344 120.59375 181.03125 L 120.59375 180.902344 C 120.332031 182.210938 119.289062 181.816406 118.371094 181.949219 C 117.589844 182.078125 116.542969 181.816406 116.019531 182.210938 C 114.84375 183.257812 114.191406 182.734375 113.539062 181.949219 Z M 113.539062 181.949219 "/>
<path style=" stroke:none;fill-rule:nonzero;fill:rgb(100%,100%,100%);fill-opacity:1;" d="M 120.59375 181.03125 C 120.988281 180.769531 121.378906 180.246094 121.902344 179.855469 C 122.425781 179.460938 122.945312 179.199219 123.46875 178.808594 C 123.601562 178.9375 123.730469 179.199219 123.992188 179.332031 L 125.5625 179.722656 C 123.730469 180.117188 122.164062 180.507812 120.59375 181.03125 Z M 120.59375 181.03125 "/>
<path style=" stroke:none;fill-rule:nonzero;fill:rgb(100%,100%,100%);fill-opacity:1;" d="M 91.710938 183.910156 C 91.84375 183.78125 91.972656 183.519531 92.101562 183.386719 C 93.671875 182.734375 93.28125 184.433594 94.0625 184.957031 C 93.800781 184.957031 93.542969 185.089844 93.410156 185.089844 C 93.019531 185.21875 92.363281 185.480469 92.101562 185.351562 C 91.84375 184.957031 91.84375 184.433594 91.710938 183.910156 Z M 91.710938 183.910156 "/>
<path style=" stroke:none;fill-rule:nonzero;fill:rgb(100%,100%,100%);fill-opacity:1;" d="M 125.429688 179.722656 C 125.167969 178.414062 126.476562 178.546875 127 178.285156 C 127.390625 178.152344 128.042969 178.414062 128.828125 178.546875 C 127.652344 179.855469 126.605469 180.246094 125.429688 179.722656 Z M 125.429688 179.722656 "/>
<g clip-path="url(#clip4)" clip-rule="nonzero">
<path style=" stroke:none;fill-rule:nonzero;fill:rgb(30.589294%,10.198975%,13.729858%);fill-opacity:1;" d="M 236.480469 222.875 L 167.769531 222.875 C 163.875 222.875 160.65625 219.648438 160.65625 215.753906 C 160.65625 211.859375 163.875 208.644531 167.769531 208.644531 L 229.363281 208.644531 L 229.363281 143.402344 L 187.628906 109.703125 L 145.894531 143.402344 L 145.894531 215.753906 C 145.894531 219.648438 142.667969 222.875 138.78125 222.875 C 134.882812 222.875 131.667969 219.648438 131.667969 215.753906 L 131.667969 143.128906 C 131.667969 139.101562 133.546875 135.207031 136.628906 132.660156 L 179.167969 98.292969 C 184.003906 94.402344 191.121094 94.402344 195.945312 98.292969 L 238.621094 132.660156 C 241.835938 135.207031 243.582031 138.964844 243.582031 143.128906 L 243.582031 215.890625 C 243.582031 219.648438 240.363281 222.875 236.480469 222.875 "/>
</g>
</g>
</svg>
