<?xml version="1.0" encoding="UTF-8"?>
<svg xmlns="http://www.w3.org/2000/svg" xmlns:xlink="http://www.w3.org/1999/xlink" width="375pt" height="374.999991pt" viewBox="0 0 375 374.999991" version="1.2">
<g id="surface1">
<path style=" stroke:none;fill-rule:nonzero;fill:rgb(58.039856%,69.40918%,67.449951%);fill-opacity:1;" d="M 358.753906 187.550781 C 358.753906 282.101562 282.101562 358.753906 187.546875 358.753906 C 92.996094 358.753906 16.34375 282.101562 16.34375 187.550781 C 16.34375 93 92.996094 16.347656 187.546875 16.347656 C 282.101562 16.347656 358.753906 93 358.753906 187.550781 "/>
<path style=" stroke:none;fill-rule:nonzero;fill:rgb(4.708862%,22.349548%,19.60907%);fill-opacity:1;" d="M 187.546875 32.652344 C 102.136719 32.652344 32.648438 102.140625 32.648438 187.550781 C 32.648438 272.960938 102.136719 342.449219 187.546875 342.449219 C 272.960938 342.449219 342.445312 272.960938 342.445312 187.550781 C 342.445312 102.140625 272.960938 32.652344 187.546875 32.652344 Z M 187.546875 375.058594 C 84.15625 375.058594 0.0390625 290.941406 0.0390625 187.550781 C 0.0390625 84.15625 84.15625 0.0429688 187.546875 0.0429688 C 290.941406 0.0429688 375.054688 84.15625 375.054688 187.550781 C 375.054688 290.941406 290.941406 375.058594 187.546875 375.058594 "/>
<path style=" stroke:none;fill-rule:nonzero;fill:rgb(4.708862%,22.349548%,19.60907%);fill-opacity:1;" d="M 194.394531 294.121094 C 179.171875 294.121094 165.476562 291.742188 153.304688 286.964844 C 141.125 282.191406 130.75 275.277344 122.171875 266.207031 C 113.589844 257.152344 106.984375 245.980469 102.347656 232.695312 C 97.710938 219.40625 95.394531 204.261719 95.394531 187.238281 C 95.394531 170.355469 97.710938 155.347656 102.347656 142.199219 C 106.984375 129.0625 113.589844 117.957031 122.171875 108.886719 C 130.75 99.828125 141.125 92.90625 153.304688 88.136719 C 165.476562 83.359375 179.171875 80.976562 194.394531 80.976562 C 206.15625 80.976562 216.988281 82.460938 226.878906 85.4375 C 236.769531 88.417969 245.417969 92.800781 252.824219 98.617188 C 260.222656 104.425781 266.238281 111.625 270.878906 120.203125 C 275.515625 128.785156 278.453125 138.675781 279.703125 149.878906 L 235.90625 149.878906 C 235.492188 144.484375 234.140625 139.640625 231.859375 135.347656 C 229.578125 131.0625 226.601562 127.398438 222.933594 124.355469 C 219.265625 121.3125 214.976562 118.992188 210.070312 117.402344 C 205.152344 115.808594 199.929688 115.007812 194.394531 115.007812 C 186.644531 115.007812 179.558594 116.503906 173.121094 119.472656 C 166.6875 122.449219 161.1875 126.941406 156.625 132.96875 C 152.054688 138.984375 148.492188 146.527344 145.9375 155.585938 C 143.375 164.652344 142.09375 175.207031 142.09375 187.238281 C 142.09375 199.558594 143.375 210.242188 145.9375 219.304688 C 148.492188 228.367188 152.054688 235.949219 156.625 242.035156 C 161.1875 248.121094 166.6875 252.648438 173.121094 255.628906 C 179.558594 258.605469 186.644531 260.089844 194.394531 260.089844 C 199.929688 260.089844 205.117188 259.292969 209.964844 257.699219 C 214.800781 256.117188 219.097656 253.792969 222.828125 250.746094 C 226.570312 247.707031 229.578125 244.039062 231.859375 239.746094 C 234.140625 235.460938 235.492188 230.617188 235.90625 225.222656 L 279.703125 225.222656 C 278.316406 236.296875 275.304688 246.117188 270.671875 254.691406 C 266.035156 263.277344 260.050781 270.46875 252.714844 276.277344 C 245.382812 282.089844 236.769531 286.523438 226.878906 289.5625 C 216.988281 292.601562 206.15625 294.121094 194.394531 294.121094 "/>
</g>
</svg>
