<?xml version="1.0" encoding="UTF-8"?>
<svg xmlns="http://www.w3.org/2000/svg" xmlns:xlink="http://www.w3.org/1999/xlink" width="810pt" height="809.999993pt" viewBox="0 0 810 809.999993" version="1.2">
<defs>
<clipPath id="clip1">
  <path d="M 123.96875 506 L 209 506 L 209 531 L 123.96875 531 Z M 123.96875 506 "/>
</clipPath>
<clipPath id="clip2">
  <path d="M 123.96875 405 L 209 405 L 209 451 L 123.96875 451 Z M 123.96875 405 "/>
</clipPath>
<clipPath id="clip3">
  <path d="M 601 506 L 685.71875 506 L 685.71875 531 L 601 531 Z M 601 506 "/>
</clipPath>
<clipPath id="clip4">
  <path d="M 601 405 L 685.71875 405 L 685.71875 451 L 601 451 Z M 601 405 "/>
</clipPath>
</defs>
<g id="surface1">
<path style=" stroke:none;fill-rule:nonzero;fill:rgb(79.219055%,84.709167%,83.918762%);fill-opacity:1;" d="M 376.300781 161.023438 L 428.226562 161.023438 L 428.226562 123.496094 L 376.300781 123.496094 L 376.300781 161.023438 "/>
<path style=" stroke:none;fill-rule:nonzero;fill:rgb(79.219055%,84.709167%,83.918762%);fill-opacity:1;" d="M 373.914062 429.773438 L 430.613281 429.773438 L 430.613281 236.070312 L 373.914062 236.070312 L 373.914062 429.773438 "/>
<path style=" stroke:none;fill-rule:nonzero;fill:rgb(79.219055%,84.709167%,83.918762%);fill-opacity:1;" d="M 368.191406 237.128906 L 436.335938 237.128906 L 436.335938 199.601562 L 368.191406 199.601562 L 368.191406 237.128906 "/>
<path style=" stroke:none;fill-rule:nonzero;fill:rgb(79.219055%,84.709167%,83.918762%);fill-opacity:1;" d="M 383.691406 176.914062 L 420.0625 176.914062 L 420.0625 163.191406 L 383.691406 163.191406 L 383.691406 176.914062 "/>
<path style=" stroke:none;fill-rule:nonzero;fill:rgb(38.819885%,18.03894%,21.569824%);fill-opacity:1;" d="M 367.347656 232.917969 L 437.179688 232.917969 L 437.179688 241.332031 L 367.347656 241.332031 L 367.347656 232.917969 "/>
<path style=" stroke:none;fill-rule:nonzero;fill:rgb(38.819885%,18.03894%,21.569824%);fill-opacity:1;" d="M 379.75 179.089844 L 424.136719 179.089844 L 444.144531 202.730469 L 359.738281 202.730469 L 379.75 179.089844 "/>
<path style=" stroke:none;fill-rule:nonzero;fill:rgb(10.198975%,30.589294%,27.059937%);fill-opacity:1;" d="M 379.75 179.089844 L 424.003906 179.089844 L 424.003906 174.738281 L 379.75 174.738281 L 379.75 179.089844 "/>
<path style=" stroke:none;fill-rule:nonzero;fill:rgb(10.198975%,30.589294%,27.059937%);fill-opacity:1;" d="M 379.75 165.367188 L 424.003906 165.367188 L 424.003906 161.023438 L 379.75 161.023438 L 379.75 165.367188 "/>
<path style=" stroke:none;fill-rule:nonzero;fill:rgb(10.198975%,30.589294%,27.059937%);fill-opacity:1;" d="M 414.460938 130.972656 L 424.003906 130.972656 L 424.003906 127.230469 L 414.460938 127.230469 L 414.460938 130.972656 "/>
<path style=" stroke:none;fill-rule:nonzero;fill:rgb(10.198975%,30.589294%,27.059937%);fill-opacity:1;" d="M 397.101562 130.972656 L 406.644531 130.972656 L 406.644531 127.230469 L 397.101562 127.230469 L 397.101562 130.972656 "/>
<path style=" stroke:none;fill-rule:nonzero;fill:rgb(10.198975%,30.589294%,27.059937%);fill-opacity:1;" d="M 379.75 130.972656 L 389.292969 130.972656 L 389.292969 127.230469 L 379.75 127.230469 L 379.75 130.972656 "/>
<path style=" stroke:none;fill-rule:nonzero;fill:rgb(10.198975%,30.589294%,27.059937%);fill-opacity:1;" d="M 414.460938 224.441406 L 424.003906 224.441406 L 424.003906 212.285156 L 414.460938 212.285156 L 414.460938 224.441406 "/>
<path style=" stroke:none;fill-rule:nonzero;fill:rgb(10.198975%,30.589294%,27.059937%);fill-opacity:1;" d="M 397.101562 224.441406 L 406.644531 224.441406 L 406.644531 212.285156 L 397.101562 212.285156 L 397.101562 224.441406 "/>
<path style=" stroke:none;fill-rule:nonzero;fill:rgb(10.198975%,30.589294%,27.059937%);fill-opacity:1;" d="M 379.75 224.441406 L 389.292969 224.441406 L 389.292969 212.285156 L 379.75 212.285156 L 379.75 224.441406 "/>
<path style=" stroke:none;fill-rule:nonzero;fill:rgb(38.819885%,18.03894%,21.569824%);fill-opacity:1;" d="M 444.144531 123.496094 C 444.144531 123.496094 402.269531 83.808594 402.269531 22.074219 C 401.875 83.40625 359.738281 123.496094 359.738281 123.496094 L 444.144531 123.496094 "/>
<path style=" stroke:none;fill-rule:nonzero;fill:rgb(10.198975%,30.589294%,27.059937%);fill-opacity:1;" d="M 486.207031 382.472656 L 288.691406 382.472656 L 288.691406 358.644531 L 486.207031 358.644531 L 486.207031 382.472656 "/>
<path style=" stroke:none;fill-rule:nonzero;fill:rgb(58.039856%,69.40918%,67.449951%);fill-opacity:1;" d="M 509.066406 596.4375 L 289.625 596.4375 L 289.625 373.800781 L 509.066406 373.800781 L 509.066406 596.4375 "/>
<path style=" stroke:none;fill-rule:nonzero;fill:rgb(38.819885%,35.289001%,18.03894%);fill-opacity:1;" d="M 483.347656 107.003906 C 489.234375 101.992188 495.109375 117.550781 500.992188 112.53125 C 495.109375 121.234375 489.234375 109.363281 483.347656 118.066406 C 483.347656 114.382812 483.347656 110.6875 483.347656 107.003906 "/>
<path style=" stroke:none;fill-rule:nonzero;fill:rgb(58.039856%,69.40918%,67.449951%);fill-opacity:1;" d="M 483.347656 129.722656 L 481.347656 129.722656 L 481.347656 103.667969 L 483.347656 103.667969 L 483.347656 129.722656 "/>
<path style=" stroke:none;fill-rule:nonzero;fill:rgb(58.039856%,69.40918%,67.449951%);fill-opacity:1;" d="M 485.242188 102.140625 C 485.242188 103.742188 483.941406 105.035156 482.347656 105.035156 C 480.757812 105.035156 479.457031 103.742188 479.457031 102.140625 C 479.457031 100.550781 480.757812 99.257812 482.347656 99.257812 C 483.941406 99.257812 485.242188 100.550781 485.242188 102.140625 "/>
<path style=" stroke:none;fill-rule:nonzero;fill:rgb(58.039856%,69.40918%,67.449951%);fill-opacity:1;" d="M 484.125 105.996094 C 484.125 106.519531 483.324219 106.953125 482.347656 106.953125 C 481.367188 106.953125 480.574219 106.519531 480.574219 105.996094 C 480.574219 105.46875 481.367188 105.035156 482.347656 105.035156 C 483.324219 105.035156 484.125 105.46875 484.125 105.996094 "/>
<path style=" stroke:none;fill-rule:nonzero;fill:rgb(79.219055%,84.709167%,83.918762%);fill-opacity:1;" d="M 490 161.273438 L 474.699219 161.273438 L 474.699219 131.492188 L 490 131.492188 L 490 161.273438 "/>
<path style=" stroke:none;fill-rule:nonzero;fill:rgb(38.819885%,18.03894%,21.569824%);fill-opacity:1;" d="M 490.03125 125.605469 L 474.558594 125.605469 L 467.574219 133.851562 L 497.007812 133.851562 L 490.03125 125.605469 "/>
<path style=" stroke:none;fill-rule:nonzero;fill:rgb(38.819885%,18.03894%,21.569824%);fill-opacity:1;" d="M 496.742188 160.046875 L 466.023438 160.046875 L 452.179688 222.148438 L 510.585938 222.148438 L 496.742188 160.046875 "/>
<path style=" stroke:none;fill-rule:nonzero;fill:rgb(79.219055%,84.709167%,83.918762%);fill-opacity:1;" d="M 455.171875 283.070312 L 506.226562 283.070312 L 506.226562 219.011719 L 455.171875 219.011719 L 455.171875 283.070312 "/>
<path style=" stroke:none;fill-rule:nonzero;fill:rgb(10.198975%,30.589294%,27.059937%);fill-opacity:1;" d="M 486.234375 243.882812 C 485.550781 238.398438 490.324219 235.929688 490.324219 235.929688 C 490.324219 235.929688 495.109375 238.398438 494.425781 243.882812 L 495.109375 245.292969 L 495.109375 286.40625 L 485.550781 286.40625 L 485.550781 245.292969 L 486.234375 243.882812 "/>
<path style=" stroke:none;fill-rule:nonzero;fill:rgb(10.198975%,30.589294%,27.059937%);fill-opacity:1;" d="M 467.496094 243.882812 C 466.816406 238.398438 471.589844 235.929688 471.589844 235.929688 C 471.589844 235.929688 476.375 238.398438 475.691406 243.882812 L 476.375 245.292969 L 476.375 286.40625 L 466.816406 286.40625 L 466.816406 245.292969 L 467.496094 243.882812 "/>
<path style=" stroke:none;fill-rule:nonzero;fill:rgb(10.198975%,30.589294%,27.059937%);fill-opacity:1;" d="M 497.535156 241.597656 C 497.535156 242.125 497.957031 242.558594 498.484375 242.558594 C 499.007812 242.558594 499.433594 242.125 499.433594 241.597656 C 499.433594 241.082031 499.007812 240.65625 498.484375 240.65625 C 497.957031 240.65625 497.535156 241.082031 497.535156 241.597656 "/>
<path style=" stroke:none;fill-rule:nonzero;fill:rgb(10.198975%,30.589294%,27.059937%);fill-opacity:1;" d="M 496.109375 236.972656 C 496.109375 237.496094 496.535156 237.929688 497.058594 237.929688 C 497.582031 237.929688 498.007812 237.496094 498.007812 236.972656 C 498.007812 236.453125 497.582031 236.03125 497.058594 236.03125 C 496.535156 236.03125 496.109375 236.453125 496.109375 236.972656 "/>
<path style=" stroke:none;fill-rule:nonzero;fill:rgb(10.198975%,30.589294%,27.059937%);fill-opacity:1;" d="M 493.691406 233.476562 C 493.691406 234.003906 494.117188 234.429688 494.640625 234.429688 C 495.167969 234.429688 495.589844 234.003906 495.589844 233.476562 C 495.589844 232.953125 495.167969 232.527344 494.640625 232.527344 C 494.117188 232.527344 493.691406 232.953125 493.691406 233.476562 "/>
<path style=" stroke:none;fill-rule:nonzero;fill:rgb(10.198975%,30.589294%,27.059937%);fill-opacity:1;" d="M 483.28125 241.597656 C 483.28125 242.125 482.855469 242.558594 482.332031 242.558594 C 481.808594 242.558594 481.382812 242.125 481.382812 241.597656 C 481.382812 241.082031 481.808594 240.65625 482.332031 240.65625 C 482.855469 240.65625 483.28125 241.082031 483.28125 241.597656 "/>
<path style=" stroke:none;fill-rule:nonzero;fill:rgb(10.198975%,30.589294%,27.059937%);fill-opacity:1;" d="M 484.707031 236.972656 C 484.707031 237.496094 484.28125 237.929688 483.757812 237.929688 C 483.230469 237.929688 482.816406 237.496094 482.816406 236.972656 C 482.816406 236.453125 483.230469 236.03125 483.757812 236.03125 C 484.28125 236.03125 484.707031 236.453125 484.707031 236.972656 "/>
<path style=" stroke:none;fill-rule:nonzero;fill:rgb(10.198975%,30.589294%,27.059937%);fill-opacity:1;" d="M 487.125 233.476562 C 487.125 234.003906 486.699219 234.429688 486.175781 234.429688 C 485.648438 234.429688 485.222656 234.003906 485.222656 233.476562 C 485.222656 232.953125 485.648438 232.527344 486.175781 232.527344 C 486.699219 232.527344 487.125 232.953125 487.125 233.476562 "/>
<path style=" stroke:none;fill-rule:nonzero;fill:rgb(10.198975%,30.589294%,27.059937%);fill-opacity:1;" d="M 478.722656 241.597656 C 478.722656 242.125 479.148438 242.558594 479.671875 242.558594 C 480.191406 242.558594 480.625 242.125 480.625 241.597656 C 480.625 241.082031 480.191406 240.65625 479.671875 240.65625 C 479.148438 240.65625 478.722656 241.082031 478.722656 241.597656 "/>
<path style=" stroke:none;fill-rule:nonzero;fill:rgb(10.198975%,30.589294%,27.059937%);fill-opacity:1;" d="M 477.289062 236.972656 C 477.289062 237.496094 477.714844 237.929688 478.242188 237.929688 C 478.765625 237.929688 479.191406 237.496094 479.191406 236.972656 C 479.191406 236.453125 478.765625 236.03125 478.242188 236.03125 C 477.714844 236.03125 477.289062 236.453125 477.289062 236.972656 "/>
<path style=" stroke:none;fill-rule:nonzero;fill:rgb(10.198975%,30.589294%,27.059937%);fill-opacity:1;" d="M 474.875 233.476562 C 474.875 234.003906 475.296875 234.429688 475.824219 234.429688 C 476.347656 234.429688 476.773438 234.003906 476.773438 233.476562 C 476.773438 232.953125 476.347656 232.527344 475.824219 232.527344 C 475.296875 232.527344 474.875 232.953125 474.875 233.476562 "/>
<path style=" stroke:none;fill-rule:nonzero;fill:rgb(10.198975%,30.589294%,27.059937%);fill-opacity:1;" d="M 464.464844 241.597656 C 464.464844 242.125 464.039062 242.558594 463.515625 242.558594 C 462.988281 242.558594 462.5625 242.125 462.5625 241.597656 C 462.5625 241.082031 462.988281 240.65625 463.515625 240.65625 C 464.039062 240.65625 464.464844 241.082031 464.464844 241.597656 "/>
<path style=" stroke:none;fill-rule:nonzero;fill:rgb(10.198975%,30.589294%,27.059937%);fill-opacity:1;" d="M 465.890625 236.972656 C 465.890625 237.496094 465.472656 237.929688 464.949219 237.929688 C 464.421875 237.929688 463.996094 237.496094 463.996094 236.972656 C 463.996094 236.453125 464.421875 236.03125 464.949219 236.03125 C 465.472656 236.03125 465.890625 236.453125 465.890625 236.972656 "/>
<path style=" stroke:none;fill-rule:nonzero;fill:rgb(10.198975%,30.589294%,27.059937%);fill-opacity:1;" d="M 468.304688 233.476562 C 468.304688 234.003906 467.882812 234.429688 467.363281 234.429688 C 466.839844 234.429688 466.414062 234.003906 466.414062 233.476562 C 466.414062 232.953125 466.839844 232.527344 467.363281 232.527344 C 467.882812 232.527344 468.304688 232.953125 468.304688 233.476562 "/>
<path style=" stroke:none;fill-rule:nonzero;fill:rgb(79.219055%,84.709167%,83.918762%);fill-opacity:1;" d="M 450.746094 327.542969 L 510.660156 327.542969 L 510.660156 289.75 L 450.746094 289.75 L 450.746094 327.542969 "/>
<path style=" stroke:none;fill-rule:nonzero;fill:rgb(10.198975%,30.589294%,27.059937%);fill-opacity:1;" d="M 495.214844 297.277344 L 506.226562 297.277344 L 506.226562 293.519531 L 495.214844 293.519531 L 495.214844 297.277344 "/>
<path style=" stroke:none;fill-rule:nonzero;fill:rgb(10.198975%,30.589294%,27.059937%);fill-opacity:1;" d="M 475.199219 297.277344 L 486.207031 297.277344 L 486.207031 293.519531 L 475.199219 293.519531 L 475.199219 297.277344 "/>
<path style=" stroke:none;fill-rule:nonzero;fill:rgb(10.198975%,30.589294%,27.059937%);fill-opacity:1;" d="M 455.171875 297.277344 L 466.179688 297.277344 L 466.179688 293.519531 L 455.171875 293.519531 L 455.171875 297.277344 "/>
<path style=" stroke:none;fill-rule:nonzero;fill:rgb(79.219055%,84.709167%,83.918762%);fill-opacity:1;" d="M 514.085938 572.933594 L 447.3125 572.933594 L 447.3125 351.074219 L 514.085938 351.074219 L 514.085938 572.933594 "/>
<path style=" stroke:none;fill-rule:nonzero;fill:rgb(58.039856%,69.40918%,67.449951%);fill-opacity:1;" d="M 470.296875 572.933594 L 460.5625 572.933594 L 460.5625 351.074219 L 470.296875 351.074219 L 470.296875 572.933594 "/>
<path style=" stroke:none;fill-rule:nonzero;fill:rgb(58.039856%,69.40918%,67.449951%);fill-opacity:1;" d="M 500.84375 572.933594 L 491.109375 572.933594 L 491.109375 351.074219 L 500.84375 351.074219 L 500.84375 572.933594 "/>
<path style=" stroke:none;fill-rule:nonzero;fill:rgb(79.219055%,84.709167%,83.918762%);fill-opacity:1;" d="M 519.011719 360.664062 L 442.394531 360.664062 L 442.394531 330.878906 L 519.011719 330.878906 L 519.011719 360.664062 "/>
<path style=" stroke:none;fill-rule:nonzero;fill:rgb(38.819885%,18.03894%,21.569824%);fill-opacity:1;" d="M 524.570312 357.328125 L 436.835938 357.328125 L 436.835938 364.003906 L 524.570312 364.003906 L 524.570312 357.328125 "/>
<path style=" stroke:none;fill-rule:nonzero;fill:rgb(38.819885%,18.03894%,21.569824%);fill-opacity:1;" d="M 524.570312 324.210938 L 436.835938 324.210938 L 436.835938 330.878906 L 524.570312 330.878906 L 524.570312 324.210938 "/>
<path style=" stroke:none;fill-rule:nonzero;fill:rgb(38.819885%,18.03894%,21.569824%);fill-opacity:1;" d="M 514.085938 283.070312 L 447.3125 283.070312 L 447.3125 289.75 L 514.085938 289.75 L 514.085938 283.070312 "/>
<path style=" stroke:none;fill-rule:nonzero;fill:rgb(58.039856%,69.40918%,67.449951%);fill-opacity:1;" d="M 510.660156 215.675781 L 450.746094 215.675781 L 450.746094 222.355469 L 510.660156 222.355469 L 510.660156 215.675781 "/>
<path style=" stroke:none;fill-rule:nonzero;fill:rgb(10.198975%,30.589294%,27.059937%);fill-opacity:1;" d="M 467.863281 350.597656 L 458.128906 350.597656 L 458.128906 340.945312 L 467.863281 340.945312 L 467.863281 350.597656 "/>
<path style=" stroke:none;fill-rule:nonzero;fill:rgb(10.198975%,30.589294%,27.059937%);fill-opacity:1;" d="M 485.566406 350.597656 L 475.832031 350.597656 L 475.832031 340.945312 L 485.566406 340.945312 L 485.566406 350.597656 "/>
<path style=" stroke:none;fill-rule:nonzero;fill:rgb(10.198975%,30.589294%,27.059937%);fill-opacity:1;" d="M 503.277344 350.597656 L 493.542969 350.597656 L 493.542969 340.945312 L 503.277344 340.945312 L 503.277344 350.597656 "/>
<path style=" stroke:none;fill-rule:nonzero;fill:rgb(58.039856%,69.40918%,67.449951%);fill-opacity:1;" d="M 523.542969 787.652344 L 286.082031 787.652344 L 286.082031 581.328125 L 523.542969 581.328125 L 523.542969 787.652344 "/>
<path style=" stroke:none;fill-rule:nonzero;fill:rgb(10.198975%,30.589294%,27.059937%);fill-opacity:1;" d="M 523.542969 594.976562 L 286.082031 594.976562 L 286.082031 566.320312 L 523.542969 566.320312 L 523.542969 594.976562 "/>
<path style=" stroke:none;fill-rule:nonzero;fill:rgb(10.198975%,30.589294%,27.059937%);fill-opacity:1;" d="M 232.136719 607.25 L 232.136719 569.949219 L 193.203125 539.714844 L 193.203125 579.984375 L 232.136719 607.25 "/>
<path style=" stroke:none;fill-rule:nonzero;fill:rgb(58.039856%,69.40918%,67.449951%);fill-opacity:1;" d="M 232.136719 787.4375 L 193.203125 757.203125 L 193.203125 566.09375 L 232.136719 596.335938 L 232.136719 787.4375 "/>
<path style=" stroke:none;fill-rule:nonzero;fill:rgb(79.219055%,84.709167%,83.918762%);fill-opacity:1;" d="M 284.066406 518.902344 L 232.136719 518.902344 L 232.136719 481.375 L 284.066406 481.375 L 284.066406 518.902344 "/>
<path style=" stroke:none;fill-rule:nonzero;fill:rgb(79.219055%,84.709167%,83.918762%);fill-opacity:1;" d="M 286.449219 787.652344 L 229.753906 787.652344 L 229.753906 593.953125 L 286.449219 593.953125 L 286.449219 787.652344 "/>
<path style=" stroke:none;fill-rule:nonzero;fill:rgb(79.219055%,84.709167%,83.918762%);fill-opacity:1;" d="M 292.175781 595.011719 L 224.027344 595.011719 L 224.027344 557.484375 L 292.175781 557.484375 L 292.175781 595.011719 "/>
<path style=" stroke:none;fill-rule:nonzero;fill:rgb(79.219055%,84.709167%,83.918762%);fill-opacity:1;" d="M 276.675781 534.796875 L 240.304688 534.796875 L 240.304688 521.070312 L 276.675781 521.070312 L 276.675781 534.796875 "/>
<path style=" stroke:none;fill-rule:nonzero;fill:rgb(38.819885%,18.03894%,21.569824%);fill-opacity:1;" d="M 293.019531 590.800781 L 223.179688 590.800781 L 223.179688 599.214844 L 293.019531 599.214844 L 293.019531 590.800781 "/>
<path style=" stroke:none;fill-rule:nonzero;fill:rgb(38.819885%,18.03894%,21.569824%);fill-opacity:1;" d="M 280.617188 536.964844 L 236.222656 536.964844 L 216.21875 560.609375 L 300.625 560.609375 L 280.617188 536.964844 "/>
<path style=" stroke:none;fill-rule:nonzero;fill:rgb(10.198975%,30.589294%,27.059937%);fill-opacity:1;" d="M 280.617188 536.964844 L 236.363281 536.964844 L 236.363281 532.628906 L 280.617188 532.628906 L 280.617188 536.964844 "/>
<path style=" stroke:none;fill-rule:nonzero;fill:rgb(10.198975%,30.589294%,27.059937%);fill-opacity:1;" d="M 280.617188 523.246094 L 236.363281 523.246094 L 236.363281 518.902344 L 280.617188 518.902344 L 280.617188 523.246094 "/>
<path style=" stroke:none;fill-rule:nonzero;fill:rgb(10.198975%,30.589294%,27.059937%);fill-opacity:1;" d="M 245.90625 488.855469 L 236.363281 488.855469 L 236.363281 485.109375 L 245.90625 485.109375 L 245.90625 488.855469 "/>
<path style=" stroke:none;fill-rule:nonzero;fill:rgb(10.198975%,30.589294%,27.059937%);fill-opacity:1;" d="M 263.257812 488.855469 L 253.714844 488.855469 L 253.714844 485.109375 L 263.257812 485.109375 L 263.257812 488.855469 "/>
<path style=" stroke:none;fill-rule:nonzero;fill:rgb(10.198975%,30.589294%,27.059937%);fill-opacity:1;" d="M 280.617188 488.855469 L 271.074219 488.855469 L 271.074219 485.109375 L 280.617188 485.109375 L 280.617188 488.855469 "/>
<path style=" stroke:none;fill-rule:nonzero;fill:rgb(10.198975%,30.589294%,27.059937%);fill-opacity:1;" d="M 245.90625 582.320312 L 236.363281 582.320312 L 236.363281 570.164062 L 245.90625 570.164062 L 245.90625 582.320312 "/>
<path style=" stroke:none;fill-rule:nonzero;fill:rgb(10.198975%,30.589294%,27.059937%);fill-opacity:1;" d="M 263.257812 582.320312 L 253.714844 582.320312 L 253.714844 570.164062 L 263.257812 570.164062 L 263.257812 582.320312 "/>
<path style=" stroke:none;fill-rule:nonzero;fill:rgb(10.198975%,30.589294%,27.059937%);fill-opacity:1;" d="M 280.617188 582.320312 L 271.074219 582.320312 L 271.074219 570.164062 L 280.617188 570.164062 L 280.617188 582.320312 "/>
<path style=" stroke:none;fill-rule:nonzero;fill:rgb(38.819885%,18.03894%,21.569824%);fill-opacity:1;" d="M 216.21875 481.375 C 216.21875 481.375 258.097656 441.6875 258.097656 379.949219 C 258.488281 441.289062 300.625 481.375 300.625 481.375 L 216.21875 481.375 "/>
<path style=" stroke:none;fill-rule:nonzero;fill:rgb(38.819885%,35.289001%,18.03894%);fill-opacity:1;" d="M 167.484375 344.710938 C 174.898438 338.390625 182.316406 357.992188 189.726562 351.675781 C 182.316406 362.636719 174.898438 347.679688 167.484375 358.644531 C 167.484375 354 167.484375 349.355469 167.484375 344.710938 "/>
<path style=" stroke:none;fill-rule:nonzero;fill:rgb(58.039856%,69.40918%,67.449951%);fill-opacity:1;" d="M 167.484375 373.335938 L 164.972656 373.335938 L 164.972656 340.5 L 167.484375 340.5 L 167.484375 373.335938 "/>
<path style=" stroke:none;fill-rule:nonzero;fill:rgb(58.039856%,69.40918%,67.449951%);fill-opacity:1;" d="M 169.867188 338.582031 C 169.867188 340.59375 168.242188 342.226562 166.234375 342.226562 C 164.222656 342.226562 162.589844 340.59375 162.589844 338.582031 C 162.589844 336.574219 164.222656 334.941406 166.234375 334.941406 C 168.242188 334.941406 169.867188 336.574219 169.867188 338.582031 "/>
<path style=" stroke:none;fill-rule:nonzero;fill:rgb(58.039856%,69.40918%,67.449951%);fill-opacity:1;" d="M 168.464844 343.4375 C 168.464844 344.101562 167.464844 344.644531 166.234375 344.644531 C 165 344.644531 163.992188 344.101562 163.992188 343.4375 C 163.992188 342.769531 165 342.226562 166.234375 342.226562 C 167.464844 342.226562 168.464844 342.769531 168.464844 343.4375 "/>
<path style=" stroke:none;fill-rule:nonzero;fill:rgb(79.219055%,84.709167%,83.918762%);fill-opacity:1;" d="M 191.808594 488.453125 L 139.871094 488.453125 L 139.871094 450.925781 L 191.808594 450.925781 L 191.808594 488.453125 "/>
<path style=" stroke:none;fill-rule:nonzero;fill:rgb(79.219055%,84.709167%,83.918762%);fill-opacity:1;" d="M 175.867188 413.089844 L 156.589844 413.089844 L 156.589844 375.5625 L 175.867188 375.5625 L 175.867188 413.089844 "/>
<path style=" stroke:none;fill-rule:nonzero;fill:rgb(79.219055%,84.709167%,83.918762%);fill-opacity:1;" d="M 194.195312 757.203125 L 137.488281 757.203125 L 137.488281 563.503906 L 194.195312 563.503906 L 194.195312 757.203125 "/>
<path style=" stroke:none;fill-rule:nonzero;fill:rgb(79.219055%,84.709167%,83.918762%);fill-opacity:1;" d="M 199.910156 564.5625 L 131.773438 564.5625 L 131.773438 527.035156 L 199.910156 527.035156 L 199.910156 564.5625 "/>
<path style=" stroke:none;fill-rule:nonzero;fill:rgb(79.219055%,84.709167%,83.918762%);fill-opacity:1;" d="M 184.417969 504.347656 L 148.046875 504.347656 L 148.046875 490.628906 L 184.417969 490.628906 L 184.417969 504.347656 "/>
<path style=" stroke:none;fill-rule:nonzero;fill:rgb(38.819885%,18.03894%,21.569824%);fill-opacity:1;" d="M 200.761719 560.359375 L 130.921875 560.359375 L 130.921875 568.761719 L 200.761719 568.761719 L 200.761719 560.359375 "/>
<g clip-path="url(#clip1)" clip-rule="nonzero">
<path style=" stroke:none;fill-rule:nonzero;fill:rgb(38.819885%,18.03894%,21.569824%);fill-opacity:1;" d="M 188.359375 506.523438 L 143.964844 506.523438 L 123.953125 530.160156 L 208.359375 530.160156 L 188.359375 506.523438 "/>
</g>
<path style=" stroke:none;fill-rule:nonzero;fill:rgb(38.819885%,18.03894%,21.569824%);fill-opacity:1;" d="M 175.917969 368.140625 L 156.40625 368.140625 L 147.613281 378.53125 L 184.710938 378.53125 L 175.917969 368.140625 "/>
<path style=" stroke:none;fill-rule:nonzero;fill:rgb(10.198975%,30.589294%,27.059937%);fill-opacity:1;" d="M 188.359375 506.523438 L 144.105469 506.523438 L 144.105469 502.179688 L 188.359375 502.179688 L 188.359375 506.523438 "/>
<path style=" stroke:none;fill-rule:nonzero;fill:rgb(10.198975%,30.589294%,27.059937%);fill-opacity:1;" d="M 188.359375 492.796875 L 144.105469 492.796875 L 144.105469 488.453125 L 188.359375 488.453125 L 188.359375 492.796875 "/>
<path style=" stroke:none;fill-rule:nonzero;fill:rgb(10.198975%,30.589294%,27.059937%);fill-opacity:1;" d="M 153.648438 458.414062 L 144.105469 458.414062 L 144.105469 454.671875 L 153.648438 454.671875 L 153.648438 458.414062 "/>
<path style=" stroke:none;fill-rule:nonzero;fill:rgb(10.198975%,30.589294%,27.059937%);fill-opacity:1;" d="M 171 458.414062 L 161.457031 458.414062 L 161.457031 454.671875 L 171 454.671875 L 171 458.414062 "/>
<path style=" stroke:none;fill-rule:nonzero;fill:rgb(10.198975%,30.589294%,27.059937%);fill-opacity:1;" d="M 188.359375 458.414062 L 178.816406 458.414062 L 178.816406 454.671875 L 188.359375 454.671875 L 188.359375 458.414062 "/>
<path style=" stroke:none;fill-rule:nonzero;fill:rgb(10.198975%,30.589294%,27.059937%);fill-opacity:1;" d="M 153.648438 551.878906 L 144.105469 551.878906 L 144.105469 539.714844 L 153.648438 539.714844 L 153.648438 551.878906 "/>
<path style=" stroke:none;fill-rule:nonzero;fill:rgb(10.198975%,30.589294%,27.059937%);fill-opacity:1;" d="M 171 551.878906 L 161.457031 551.878906 L 161.457031 539.714844 L 171 539.714844 L 171 551.878906 "/>
<path style=" stroke:none;fill-rule:nonzero;fill:rgb(10.198975%,30.589294%,27.059937%);fill-opacity:1;" d="M 188.359375 551.878906 L 178.816406 551.878906 L 178.816406 539.714844 L 188.359375 539.714844 L 188.359375 551.878906 "/>
<g clip-path="url(#clip2)" clip-rule="nonzero">
<path style=" stroke:none;fill-rule:nonzero;fill:rgb(38.819885%,18.03894%,21.569824%);fill-opacity:1;" d="M 178.183594 405.710938 L 153.933594 405.710938 C 141.546875 434.25 123.953125 450.925781 123.953125 450.925781 L 208.359375 450.925781 C 208.359375 450.925781 190.742188 434.152344 178.183594 405.710938 "/>
</g>
<path style=" stroke:none;fill-rule:nonzero;fill:rgb(10.198975%,30.589294%,27.059937%);fill-opacity:1;" d="M 577.554688 607.25 L 577.554688 569.949219 L 616.492188 539.714844 L 616.492188 579.984375 L 577.554688 607.25 "/>
<path style=" stroke:none;fill-rule:nonzero;fill:rgb(58.039856%,69.40918%,67.449951%);fill-opacity:1;" d="M 577.554688 787.4375 L 616.492188 757.203125 L 616.492188 566.09375 L 577.554688 596.335938 L 577.554688 787.4375 "/>
<path style=" stroke:none;fill-rule:nonzero;fill:rgb(79.219055%,84.709167%,83.918762%);fill-opacity:1;" d="M 525.628906 518.902344 L 577.554688 518.902344 L 577.554688 481.375 L 525.628906 481.375 L 525.628906 518.902344 "/>
<path style=" stroke:none;fill-rule:nonzero;fill:rgb(79.219055%,84.709167%,83.918762%);fill-opacity:1;" d="M 523.242188 787.652344 L 579.941406 787.652344 L 579.941406 593.953125 L 523.242188 593.953125 L 523.242188 787.652344 "/>
<path style=" stroke:none;fill-rule:nonzero;fill:rgb(79.219055%,84.709167%,83.918762%);fill-opacity:1;" d="M 517.527344 595.011719 L 585.664062 595.011719 L 585.664062 557.484375 L 517.527344 557.484375 L 517.527344 595.011719 "/>
<path style=" stroke:none;fill-rule:nonzero;fill:rgb(79.219055%,84.709167%,83.918762%);fill-opacity:1;" d="M 533.019531 534.796875 L 569.390625 534.796875 L 569.390625 521.070312 L 533.019531 521.070312 L 533.019531 534.796875 "/>
<path style=" stroke:none;fill-rule:nonzero;fill:rgb(38.819885%,18.03894%,21.569824%);fill-opacity:1;" d="M 516.675781 590.800781 L 586.515625 590.800781 L 586.515625 599.214844 L 516.675781 599.214844 L 516.675781 590.800781 "/>
<path style=" stroke:none;fill-rule:nonzero;fill:rgb(38.819885%,18.03894%,21.569824%);fill-opacity:1;" d="M 529.078125 536.964844 L 573.472656 536.964844 L 593.472656 560.609375 L 509.066406 560.609375 L 529.078125 536.964844 "/>
<path style=" stroke:none;fill-rule:nonzero;fill:rgb(10.198975%,30.589294%,27.059937%);fill-opacity:1;" d="M 529.078125 536.964844 L 573.332031 536.964844 L 573.332031 532.628906 L 529.078125 532.628906 L 529.078125 536.964844 "/>
<path style=" stroke:none;fill-rule:nonzero;fill:rgb(10.198975%,30.589294%,27.059937%);fill-opacity:1;" d="M 529.078125 523.246094 L 573.332031 523.246094 L 573.332031 518.902344 L 529.078125 518.902344 L 529.078125 523.246094 "/>
<path style=" stroke:none;fill-rule:nonzero;fill:rgb(10.198975%,30.589294%,27.059937%);fill-opacity:1;" d="M 563.789062 488.855469 L 573.332031 488.855469 L 573.332031 485.109375 L 563.789062 485.109375 L 563.789062 488.855469 "/>
<path style=" stroke:none;fill-rule:nonzero;fill:rgb(10.198975%,30.589294%,27.059937%);fill-opacity:1;" d="M 546.4375 488.855469 L 555.980469 488.855469 L 555.980469 485.109375 L 546.4375 485.109375 L 546.4375 488.855469 "/>
<path style=" stroke:none;fill-rule:nonzero;fill:rgb(10.198975%,30.589294%,27.059937%);fill-opacity:1;" d="M 529.078125 488.855469 L 538.621094 488.855469 L 538.621094 485.109375 L 529.078125 485.109375 L 529.078125 488.855469 "/>
<path style=" stroke:none;fill-rule:nonzero;fill:rgb(10.198975%,30.589294%,27.059937%);fill-opacity:1;" d="M 563.789062 582.320312 L 573.332031 582.320312 L 573.332031 570.164062 L 563.789062 570.164062 L 563.789062 582.320312 "/>
<path style=" stroke:none;fill-rule:nonzero;fill:rgb(10.198975%,30.589294%,27.059937%);fill-opacity:1;" d="M 546.4375 582.320312 L 555.980469 582.320312 L 555.980469 570.164062 L 546.4375 570.164062 L 546.4375 582.320312 "/>
<path style=" stroke:none;fill-rule:nonzero;fill:rgb(10.198975%,30.589294%,27.059937%);fill-opacity:1;" d="M 529.078125 582.320312 L 538.621094 582.320312 L 538.621094 570.164062 L 529.078125 570.164062 L 529.078125 582.320312 "/>
<path style=" stroke:none;fill-rule:nonzero;fill:rgb(38.819885%,18.03894%,21.569824%);fill-opacity:1;" d="M 593.472656 481.375 C 593.472656 481.375 551.597656 441.6875 551.597656 379.949219 C 551.203125 441.289062 509.066406 481.375 509.066406 481.375 L 593.472656 481.375 "/>
<path style=" stroke:none;fill-rule:nonzero;fill:rgb(38.819885%,35.289001%,18.03894%);fill-opacity:1;" d="M 644.863281 344.710938 C 652.269531 338.390625 659.6875 357.992188 667.105469 351.675781 C 659.6875 362.636719 652.269531 347.679688 644.863281 358.644531 C 644.863281 354 644.863281 349.355469 644.863281 344.710938 "/>
<path style=" stroke:none;fill-rule:nonzero;fill:rgb(58.039856%,69.40918%,67.449951%);fill-opacity:1;" d="M 644.863281 373.335938 L 642.34375 373.335938 L 642.34375 340.5 L 644.863281 340.5 L 644.863281 373.335938 "/>
<path style=" stroke:none;fill-rule:nonzero;fill:rgb(58.039856%,69.40918%,67.449951%);fill-opacity:1;" d="M 647.246094 338.582031 C 647.246094 340.59375 645.613281 342.226562 643.601562 342.226562 C 641.59375 342.226562 639.960938 340.59375 639.960938 338.582031 C 639.960938 336.574219 641.59375 334.941406 643.601562 334.941406 C 645.613281 334.941406 647.246094 336.574219 647.246094 338.582031 "/>
<path style=" stroke:none;fill-rule:nonzero;fill:rgb(58.039856%,69.40918%,67.449951%);fill-opacity:1;" d="M 645.84375 343.4375 C 645.84375 344.101562 644.835938 344.644531 643.601562 344.644531 C 642.371094 344.644531 641.359375 344.101562 641.359375 343.4375 C 641.359375 342.769531 642.371094 342.226562 643.601562 342.226562 C 644.835938 342.226562 645.84375 342.769531 645.84375 343.4375 "/>
<path style=" stroke:none;fill-rule:nonzero;fill:rgb(79.219055%,84.709167%,83.918762%);fill-opacity:1;" d="M 669.179688 488.453125 L 617.25 488.453125 L 617.25 450.925781 L 669.179688 450.925781 L 669.179688 488.453125 "/>
<path style=" stroke:none;fill-rule:nonzero;fill:rgb(79.219055%,84.709167%,83.918762%);fill-opacity:1;" d="M 653.246094 413.089844 L 633.960938 413.089844 L 633.960938 375.5625 L 653.246094 375.5625 L 653.246094 413.089844 "/>
<path style=" stroke:none;fill-rule:nonzero;fill:rgb(79.219055%,84.709167%,83.918762%);fill-opacity:1;" d="M 671.5625 757.203125 L 614.867188 757.203125 L 614.867188 563.503906 L 671.5625 563.503906 L 671.5625 757.203125 "/>
<path style=" stroke:none;fill-rule:nonzero;fill:rgb(79.219055%,84.709167%,83.918762%);fill-opacity:1;" d="M 677.289062 564.5625 L 609.140625 564.5625 L 609.140625 527.035156 L 677.289062 527.035156 L 677.289062 564.5625 "/>
<path style=" stroke:none;fill-rule:nonzero;fill:rgb(79.219055%,84.709167%,83.918762%);fill-opacity:1;" d="M 661.789062 504.347656 L 625.417969 504.347656 L 625.417969 490.628906 L 661.789062 490.628906 L 661.789062 504.347656 "/>
<path style=" stroke:none;fill-rule:nonzero;fill:rgb(38.819885%,18.03894%,21.569824%);fill-opacity:1;" d="M 678.128906 560.359375 L 608.292969 560.359375 L 608.292969 568.761719 L 678.128906 568.761719 L 678.128906 560.359375 "/>
<g clip-path="url(#clip3)" clip-rule="nonzero">
<path style=" stroke:none;fill-rule:nonzero;fill:rgb(38.819885%,18.03894%,21.569824%);fill-opacity:1;" d="M 665.730469 506.523438 L 621.34375 506.523438 L 601.332031 530.160156 L 685.738281 530.160156 L 665.730469 506.523438 "/>
</g>
<path style=" stroke:none;fill-rule:nonzero;fill:rgb(38.819885%,18.03894%,21.569824%);fill-opacity:1;" d="M 653.289062 368.140625 L 633.777344 368.140625 L 624.984375 378.53125 L 662.078125 378.53125 L 653.289062 368.140625 "/>
<path style=" stroke:none;fill-rule:nonzero;fill:rgb(10.198975%,30.589294%,27.059937%);fill-opacity:1;" d="M 665.730469 506.523438 L 621.476562 506.523438 L 621.476562 502.179688 L 665.730469 502.179688 L 665.730469 506.523438 "/>
<path style=" stroke:none;fill-rule:nonzero;fill:rgb(10.198975%,30.589294%,27.059937%);fill-opacity:1;" d="M 665.730469 492.796875 L 621.476562 492.796875 L 621.476562 488.453125 L 665.730469 488.453125 L 665.730469 492.796875 "/>
<path style=" stroke:none;fill-rule:nonzero;fill:rgb(10.198975%,30.589294%,27.059937%);fill-opacity:1;" d="M 631.019531 458.414062 L 621.476562 458.414062 L 621.476562 454.671875 L 631.019531 454.671875 L 631.019531 458.414062 "/>
<path style=" stroke:none;fill-rule:nonzero;fill:rgb(10.198975%,30.589294%,27.059937%);fill-opacity:1;" d="M 648.371094 458.414062 L 638.835938 458.414062 L 638.835938 454.671875 L 648.371094 454.671875 L 648.371094 458.414062 "/>
<path style=" stroke:none;fill-rule:nonzero;fill:rgb(10.198975%,30.589294%,27.059937%);fill-opacity:1;" d="M 665.730469 458.414062 L 656.1875 458.414062 L 656.1875 454.671875 L 665.730469 454.671875 L 665.730469 458.414062 "/>
<path style=" stroke:none;fill-rule:nonzero;fill:rgb(10.198975%,30.589294%,27.059937%);fill-opacity:1;" d="M 631.019531 551.878906 L 621.476562 551.878906 L 621.476562 539.714844 L 631.019531 539.714844 L 631.019531 551.878906 "/>
<path style=" stroke:none;fill-rule:nonzero;fill:rgb(10.198975%,30.589294%,27.059937%);fill-opacity:1;" d="M 648.371094 551.878906 L 638.835938 551.878906 L 638.835938 539.714844 L 648.371094 539.714844 L 648.371094 551.878906 "/>
<path style=" stroke:none;fill-rule:nonzero;fill:rgb(10.198975%,30.589294%,27.059937%);fill-opacity:1;" d="M 665.730469 551.878906 L 656.1875 551.878906 L 656.1875 539.714844 L 665.730469 539.714844 L 665.730469 551.878906 "/>
<g clip-path="url(#clip4)" clip-rule="nonzero">
<path style=" stroke:none;fill-rule:nonzero;fill:rgb(38.819885%,18.03894%,21.569824%);fill-opacity:1;" d="M 655.554688 405.710938 L 631.300781 405.710938 C 618.917969 434.25 601.332031 450.925781 601.332031 450.925781 L 685.738281 450.925781 C 685.738281 450.925781 668.113281 434.152344 655.554688 405.710938 "/>
</g>
<path style=" stroke:none;fill-rule:nonzero;fill:rgb(38.819885%,35.289001%,18.03894%);fill-opacity:1;" d="M 380.984375 421.601562 C 388.410156 415.273438 395.84375 434.910156 403.269531 428.582031 C 395.84375 439.5625 388.410156 424.578125 380.984375 435.558594 C 380.984375 430.90625 380.984375 426.253906 380.984375 421.601562 "/>
<path style=" stroke:none;fill-rule:nonzero;fill:rgb(10.198975%,30.589294%,27.059937%);fill-opacity:1;" d="M 380.984375 450.285156 L 378.464844 450.285156 L 378.464844 417.382812 L 380.984375 417.382812 L 380.984375 450.285156 "/>
<path style=" stroke:none;fill-rule:nonzero;fill:rgb(10.198975%,30.589294%,27.059937%);fill-opacity:1;" d="M 383.375 415.464844 C 383.375 417.484375 381.742188 419.109375 379.722656 419.109375 C 377.707031 419.109375 376.074219 417.484375 376.074219 415.464844 C 376.074219 413.449219 377.707031 411.8125 379.722656 411.8125 C 381.742188 411.8125 383.375 413.449219 383.375 415.464844 "/>
<path style=" stroke:none;fill-rule:nonzero;fill:rgb(10.198975%,30.589294%,27.059937%);fill-opacity:1;" d="M 381.964844 420.328125 C 381.964844 420.992188 380.964844 421.535156 379.722656 421.535156 C 378.484375 421.535156 377.484375 420.992188 377.484375 420.328125 C 377.484375 419.652344 378.484375 419.109375 379.722656 419.109375 C 380.964844 419.109375 381.964844 419.652344 381.964844 420.328125 "/>
<path style=" stroke:none;fill-rule:nonzero;fill:rgb(38.819885%,35.289001%,18.03894%);fill-opacity:1;" d="M 431.328125 421.601562 C 438.761719 415.273438 446.1875 434.910156 453.621094 428.582031 C 446.1875 439.5625 438.761719 424.578125 431.328125 435.558594 C 431.328125 430.90625 431.328125 426.253906 431.328125 421.601562 "/>
<path style=" stroke:none;fill-rule:nonzero;fill:rgb(10.198975%,30.589294%,27.059937%);fill-opacity:1;" d="M 431.328125 450.285156 L 428.8125 450.285156 L 428.8125 417.382812 L 431.328125 417.382812 L 431.328125 450.285156 "/>
<path style=" stroke:none;fill-rule:nonzero;fill:rgb(10.198975%,30.589294%,27.059937%);fill-opacity:1;" d="M 433.71875 415.464844 C 433.71875 417.484375 432.085938 419.109375 430.070312 419.109375 C 428.0625 419.109375 426.429688 417.484375 426.429688 415.464844 C 426.429688 413.449219 428.0625 411.8125 430.070312 411.8125 C 432.085938 411.8125 433.71875 413.449219 433.71875 415.464844 "/>
<path style=" stroke:none;fill-rule:nonzero;fill:rgb(10.198975%,30.589294%,27.059937%);fill-opacity:1;" d="M 432.320312 420.328125 C 432.320312 420.992188 431.3125 421.535156 430.070312 421.535156 C 428.835938 421.535156 427.835938 420.992188 427.835938 420.328125 C 427.835938 419.652344 428.835938 419.109375 430.070312 419.109375 C 431.3125 419.109375 432.320312 419.652344 432.320312 420.328125 "/>
<path style=" stroke:none;fill-rule:nonzero;fill:rgb(38.819885%,18.03894%,21.569824%);fill-opacity:1;" d="M 434.679688 447.492188 L 375.273438 447.492188 L 348.496094 567.605469 L 461.464844 567.605469 L 434.679688 447.492188 "/>
<path style=" stroke:none;fill-rule:nonzero;fill:rgb(10.198975%,30.589294%,27.059937%);fill-opacity:1;" d="M 346.9375 578.117188 L 404.976562 438.210938 L 463.015625 578.117188 Z M 346.9375 578.117188 "/>
<path style=" stroke:none;fill-rule:nonzero;fill:rgb(79.219055%,84.709167%,83.918762%);fill-opacity:1;" d="M 483.949219 787.652344 L 326.003906 787.652344 L 326.003906 570.949219 L 483.949219 570.949219 L 483.949219 787.652344 "/>
<path style=" stroke:none;fill-rule:nonzero;fill:rgb(38.819885%,18.03894%,21.569824%);fill-opacity:1;" d="M 489.058594 566.320312 L 320.894531 566.320312 L 320.894531 570.949219 L 489.058594 570.949219 L 489.058594 566.320312 "/>
<path style=" stroke:none;fill-rule:nonzero;fill:rgb(79.219055%,84.709167%,83.918762%);fill-opacity:1;" d="M 351.429688 578.117188 L 404.976562 449.058594 L 458.523438 578.117188 Z M 351.429688 578.117188 "/>
<path style=" stroke:none;fill-rule:nonzero;fill:rgb(10.198975%,30.589294%,27.059937%);fill-opacity:1;" d="M 383.425781 596.652344 C 382.558594 589.742188 388.582031 586.632812 388.582031 586.632812 C 388.582031 586.632812 394.601562 589.742188 393.75 596.652344 L 394.601562 598.429688 L 394.601562 650.238281 L 382.558594 650.238281 L 382.558594 598.429688 L 383.425781 596.652344 "/>
<path style=" stroke:none;fill-rule:nonzero;fill:rgb(10.198975%,30.589294%,27.059937%);fill-opacity:1;" d="M 359.816406 596.652344 C 358.957031 589.742188 364.972656 586.632812 364.972656 586.632812 C 364.972656 586.632812 371 589.742188 370.132812 596.652344 L 371 598.429688 L 371 650.238281 L 358.957031 650.238281 L 358.957031 598.429688 L 359.816406 596.652344 "/>
<path style=" stroke:none;fill-rule:nonzero;fill:rgb(10.198975%,30.589294%,27.059937%);fill-opacity:1;" d="M 397.667969 593.777344 C 397.667969 594.445312 398.199219 594.976562 398.859375 594.976562 C 399.519531 594.976562 400.058594 594.445312 400.058594 593.777344 C 400.058594 593.117188 399.519531 592.585938 398.859375 592.585938 C 398.199219 592.585938 397.667969 593.117188 397.667969 593.777344 "/>
<path style=" stroke:none;fill-rule:nonzero;fill:rgb(10.198975%,30.589294%,27.059937%);fill-opacity:1;" d="M 395.867188 587.949219 C 395.867188 588.617188 396.402344 589.148438 397.058594 589.148438 C 397.71875 589.148438 398.257812 588.617188 398.257812 587.949219 C 398.257812 587.289062 397.71875 586.757812 397.058594 586.757812 C 396.402344 586.757812 395.867188 587.289062 395.867188 587.949219 "/>
<path style=" stroke:none;fill-rule:nonzero;fill:rgb(10.198975%,30.589294%,27.059937%);fill-opacity:1;" d="M 392.824219 583.539062 C 392.824219 584.195312 393.359375 584.738281 394.015625 584.738281 C 394.675781 584.738281 395.207031 584.195312 395.207031 583.539062 C 395.207031 582.878906 394.675781 582.347656 394.015625 582.347656 C 393.359375 582.347656 392.824219 582.878906 392.824219 583.539062 "/>
<path style=" stroke:none;fill-rule:nonzero;fill:rgb(10.198975%,30.589294%,27.059937%);fill-opacity:1;" d="M 379.699219 593.777344 C 379.699219 594.445312 379.167969 594.976562 378.507812 594.976562 C 377.847656 594.976562 377.308594 594.445312 377.308594 593.777344 C 377.308594 593.117188 377.847656 592.585938 378.507812 592.585938 C 379.167969 592.585938 379.699219 593.117188 379.699219 593.777344 "/>
<path style=" stroke:none;fill-rule:nonzero;fill:rgb(10.198975%,30.589294%,27.059937%);fill-opacity:1;" d="M 381.5 587.949219 C 381.5 588.617188 380.964844 589.148438 380.308594 589.148438 C 379.648438 589.148438 379.109375 588.617188 379.109375 587.949219 C 379.109375 587.289062 379.648438 586.757812 380.308594 586.757812 C 380.964844 586.757812 381.5 587.289062 381.5 587.949219 "/>
<path style=" stroke:none;fill-rule:nonzero;fill:rgb(10.198975%,30.589294%,27.059937%);fill-opacity:1;" d="M 384.542969 583.539062 C 384.542969 584.195312 384.007812 584.738281 383.351562 584.738281 C 382.691406 584.738281 382.148438 584.195312 382.148438 583.539062 C 382.148438 582.878906 382.691406 582.347656 383.351562 582.347656 C 384.007812 582.347656 384.542969 582.878906 384.542969 583.539062 "/>
<path style=" stroke:none;fill-rule:nonzero;fill:rgb(10.198975%,30.589294%,27.059937%);fill-opacity:1;" d="M 373.957031 593.777344 C 373.957031 594.445312 374.492188 594.976562 375.148438 594.976562 C 375.816406 594.976562 376.347656 594.445312 376.347656 593.777344 C 376.347656 593.117188 375.816406 592.585938 375.148438 592.585938 C 374.492188 592.585938 373.957031 593.117188 373.957031 593.777344 "/>
<path style=" stroke:none;fill-rule:nonzero;fill:rgb(10.198975%,30.589294%,27.059937%);fill-opacity:1;" d="M 372.15625 587.949219 C 372.15625 588.617188 372.691406 589.148438 373.347656 589.148438 C 374.007812 589.148438 374.550781 588.617188 374.550781 587.949219 C 374.550781 587.289062 374.007812 586.757812 373.347656 586.757812 C 372.691406 586.757812 372.15625 587.289062 372.15625 587.949219 "/>
<path style=" stroke:none;fill-rule:nonzero;fill:rgb(10.198975%,30.589294%,27.059937%);fill-opacity:1;" d="M 369.117188 583.539062 C 369.117188 584.195312 369.648438 584.738281 370.308594 584.738281 C 370.964844 584.738281 371.5 584.195312 371.5 583.539062 C 371.5 582.878906 370.964844 582.347656 370.308594 582.347656 C 369.648438 582.347656 369.117188 582.878906 369.117188 583.539062 "/>
<path style=" stroke:none;fill-rule:nonzero;fill:rgb(10.198975%,30.589294%,27.059937%);fill-opacity:1;" d="M 355.988281 593.777344 C 355.988281 594.445312 355.457031 594.976562 354.796875 594.976562 C 354.128906 594.976562 353.597656 594.445312 353.597656 593.777344 C 353.597656 593.117188 354.128906 592.585938 354.796875 592.585938 C 355.457031 592.585938 355.988281 593.117188 355.988281 593.777344 "/>
<path style=" stroke:none;fill-rule:nonzero;fill:rgb(10.198975%,30.589294%,27.059937%);fill-opacity:1;" d="M 357.789062 587.949219 C 357.789062 588.617188 357.257812 589.148438 356.597656 589.148438 C 355.9375 589.148438 355.398438 588.617188 355.398438 587.949219 C 355.398438 587.289062 355.9375 586.757812 356.597656 586.757812 C 357.257812 586.757812 357.789062 587.289062 357.789062 587.949219 "/>
<path style=" stroke:none;fill-rule:nonzero;fill:rgb(10.198975%,30.589294%,27.059937%);fill-opacity:1;" d="M 360.839844 583.539062 C 360.839844 584.195312 360.296875 584.738281 359.640625 584.738281 C 358.980469 584.738281 358.449219 584.195312 358.449219 583.539062 C 358.449219 582.878906 358.980469 582.347656 359.640625 582.347656 C 360.296875 582.347656 360.839844 582.878906 360.839844 583.539062 "/>
<path style=" stroke:none;fill-rule:nonzero;fill:rgb(10.198975%,30.589294%,27.059937%);fill-opacity:1;" d="M 449.90625 596.652344 C 449.046875 589.742188 455.0625 586.632812 455.0625 586.632812 C 455.0625 586.632812 461.089844 589.742188 460.230469 596.652344 L 461.089844 598.429688 L 461.089844 650.238281 L 449.046875 650.238281 L 449.046875 598.429688 L 449.90625 596.652344 "/>
<path style=" stroke:none;fill-rule:nonzero;fill:rgb(10.198975%,30.589294%,27.059937%);fill-opacity:1;" d="M 426.292969 596.652344 C 425.4375 589.742188 431.453125 586.632812 431.453125 586.632812 C 431.453125 586.632812 437.46875 589.742188 436.621094 596.652344 L 437.46875 598.429688 L 437.46875 650.238281 L 425.4375 650.238281 L 425.4375 598.429688 L 426.292969 596.652344 "/>
<path style=" stroke:none;fill-rule:nonzero;fill:rgb(10.198975%,30.589294%,27.059937%);fill-opacity:1;" d="M 464.148438 593.777344 C 464.148438 594.445312 464.679688 594.976562 465.339844 594.976562 C 466.007812 594.976562 466.539062 594.445312 466.539062 593.777344 C 466.539062 593.117188 466.007812 592.585938 465.339844 592.585938 C 464.679688 592.585938 464.148438 593.117188 464.148438 593.777344 "/>
<path style=" stroke:none;fill-rule:nonzero;fill:rgb(10.198975%,30.589294%,27.059937%);fill-opacity:1;" d="M 462.347656 587.949219 C 462.347656 588.617188 462.878906 589.148438 463.546875 589.148438 C 464.207031 589.148438 464.738281 588.617188 464.738281 587.949219 C 464.738281 587.289062 464.207031 586.757812 463.546875 586.757812 C 462.878906 586.757812 462.347656 587.289062 462.347656 587.949219 "/>
<path style=" stroke:none;fill-rule:nonzero;fill:rgb(10.198975%,30.589294%,27.059937%);fill-opacity:1;" d="M 459.304688 583.539062 C 459.304688 584.195312 459.839844 584.738281 460.496094 584.738281 C 461.15625 584.738281 461.699219 584.195312 461.699219 583.539062 C 461.699219 582.878906 461.15625 582.347656 460.496094 582.347656 C 459.839844 582.347656 459.304688 582.878906 459.304688 583.539062 "/>
<path style=" stroke:none;fill-rule:nonzero;fill:rgb(10.198975%,30.589294%,27.059937%);fill-opacity:1;" d="M 446.1875 593.777344 C 446.1875 594.445312 445.644531 594.976562 444.988281 594.976562 C 444.328125 594.976562 443.789062 594.445312 443.789062 593.777344 C 443.789062 593.117188 444.328125 592.585938 444.988281 592.585938 C 445.644531 592.585938 446.1875 593.117188 446.1875 593.777344 "/>
<path style=" stroke:none;fill-rule:nonzero;fill:rgb(10.198975%,30.589294%,27.059937%);fill-opacity:1;" d="M 447.980469 587.949219 C 447.980469 588.617188 447.445312 589.148438 446.789062 589.148438 C 446.128906 589.148438 445.597656 588.617188 445.597656 587.949219 C 445.597656 587.289062 446.128906 586.757812 446.789062 586.757812 C 447.445312 586.757812 447.980469 587.289062 447.980469 587.949219 "/>
<path style=" stroke:none;fill-rule:nonzero;fill:rgb(10.198975%,30.589294%,27.059937%);fill-opacity:1;" d="M 451.03125 583.539062 C 451.03125 584.195312 450.488281 584.738281 449.828125 584.738281 C 449.171875 584.738281 448.636719 584.195312 448.636719 583.539062 C 448.636719 582.878906 449.171875 582.347656 449.828125 582.347656 C 450.488281 582.347656 451.03125 582.878906 451.03125 583.539062 "/>
<path style=" stroke:none;fill-rule:nonzero;fill:rgb(10.198975%,30.589294%,27.059937%);fill-opacity:1;" d="M 440.4375 593.777344 C 440.4375 594.445312 440.972656 594.976562 441.628906 594.976562 C 442.296875 594.976562 442.828125 594.445312 442.828125 593.777344 C 442.828125 593.117188 442.296875 592.585938 441.628906 592.585938 C 440.972656 592.585938 440.4375 593.117188 440.4375 593.777344 "/>
<path style=" stroke:none;fill-rule:nonzero;fill:rgb(10.198975%,30.589294%,27.059937%);fill-opacity:1;" d="M 438.636719 587.949219 C 438.636719 588.617188 439.171875 589.148438 439.828125 589.148438 C 440.496094 589.148438 441.027344 588.617188 441.027344 587.949219 C 441.027344 587.289062 440.496094 586.757812 439.828125 586.757812 C 439.171875 586.757812 438.636719 587.289062 438.636719 587.949219 "/>
<path style=" stroke:none;fill-rule:nonzero;fill:rgb(10.198975%,30.589294%,27.059937%);fill-opacity:1;" d="M 435.59375 583.539062 C 435.59375 584.195312 436.128906 584.738281 436.789062 584.738281 C 437.445312 584.738281 437.988281 584.195312 437.988281 583.539062 C 437.988281 582.878906 437.445312 582.347656 436.789062 582.347656 C 436.128906 582.347656 435.59375 582.878906 435.59375 583.539062 "/>
<path style=" stroke:none;fill-rule:nonzero;fill:rgb(10.198975%,30.589294%,27.059937%);fill-opacity:1;" d="M 422.46875 593.777344 C 422.46875 594.445312 421.9375 594.976562 421.277344 594.976562 C 420.621094 594.976562 420.085938 594.445312 420.085938 593.777344 C 420.085938 593.117188 420.621094 592.585938 421.277344 592.585938 C 421.9375 592.585938 422.46875 593.117188 422.46875 593.777344 "/>
<path style=" stroke:none;fill-rule:nonzero;fill:rgb(10.198975%,30.589294%,27.059937%);fill-opacity:1;" d="M 424.269531 587.949219 C 424.269531 588.617188 423.734375 589.148438 423.078125 589.148438 C 422.417969 589.148438 421.886719 588.617188 421.886719 587.949219 C 421.886719 587.289062 422.417969 586.757812 423.078125 586.757812 C 423.734375 586.757812 424.269531 587.289062 424.269531 587.949219 "/>
<path style=" stroke:none;fill-rule:nonzero;fill:rgb(10.198975%,30.589294%,27.059937%);fill-opacity:1;" d="M 427.320312 583.539062 C 427.320312 584.195312 426.777344 584.738281 426.121094 584.738281 C 425.460938 584.738281 424.929688 584.195312 424.929688 583.539062 C 424.929688 582.878906 425.460938 582.347656 426.121094 582.347656 C 426.777344 582.347656 427.320312 582.878906 427.320312 583.539062 "/>
<path style=" stroke:none;fill-rule:nonzero;fill:rgb(38.819885%,18.03894%,21.569824%);fill-opacity:1;" d="M 331.203125 787.652344 L 320.894531 787.652344 L 320.894531 657.183594 L 331.203125 657.183594 L 331.203125 787.652344 "/>
<path style=" stroke:none;fill-rule:nonzero;fill:rgb(38.819885%,18.03894%,21.569824%);fill-opacity:1;" d="M 489.058594 787.652344 L 478.75 787.652344 L 478.75 657.183594 L 489.058594 657.183594 L 489.058594 787.652344 "/>
<path style=" stroke:none;fill-rule:nonzero;fill:rgb(38.819885%,18.03894%,21.569824%);fill-opacity:1;" d="M 404.976562 689.335938 C 381.65625 689.335938 362.765625 705.59375 362.765625 725.65625 L 362.765625 787.652344 L 447.195312 787.652344 L 447.195312 725.65625 C 447.195312 705.59375 428.285156 689.335938 404.976562 689.335938 "/>
<path style=" stroke:none;fill-rule:nonzero;fill:rgb(58.039856%,69.40918%,67.449951%);fill-opacity:1;" d="M 404.976562 693.703125 C 383.734375 693.703125 366.507812 709.246094 366.507812 728.40625 L 366.507812 787.652344 L 443.445312 787.652344 L 443.445312 728.40625 C 443.445312 709.246094 426.21875 693.703125 404.976562 693.703125 "/>
<path style=" stroke:none;fill-rule:nonzero;fill:rgb(79.219055%,84.709167%,83.918762%);fill-opacity:1;" d="M 404.976562 698.191406 C 385.757812 698.191406 370.183594 712.980469 370.183594 731.234375 L 370.183594 787.652344 L 378.207031 782.117188 L 431.746094 782.117188 L 439.769531 787.652344 L 439.769531 731.234375 C 439.769531 712.980469 424.195312 698.191406 404.976562 698.191406 "/>
<path style=" stroke:none;fill-rule:nonzero;fill:rgb(10.198975%,30.589294%,27.059937%);fill-opacity:1;" d="M 404.976562 713.289062 C 390.191406 713.289062 378.207031 724.671875 378.207031 738.710938 L 378.207031 782.117188 L 431.746094 782.117188 L 431.746094 738.710938 C 431.746094 724.671875 419.761719 713.289062 404.976562 713.289062 "/>
<path style=" stroke:none;fill-rule:nonzero;fill:rgb(58.039856%,69.40918%,67.449951%);fill-opacity:1;" d="M 483.933594 641.675781 L 326.027344 641.675781 L 326.027344 636.75 L 483.933594 636.75 L 483.933594 641.675781 "/>
<path style=" stroke:none;fill-rule:nonzero;fill:rgb(58.039856%,69.40918%,67.449951%);fill-opacity:1;" d="M 353.855469 664.070312 L 397.558594 664.070312 L 417.269531 640.800781 L 334.144531 640.800781 L 353.855469 664.070312 "/>
<path style=" stroke:none;fill-rule:nonzero;fill:rgb(58.039856%,69.40918%,67.449951%);fill-opacity:1;" d="M 412.394531 664.070312 L 456.105469 664.070312 L 475.808594 640.800781 L 392.691406 640.800781 L 412.394531 664.070312 "/>
<path style=" stroke:none;fill-rule:nonzero;fill:rgb(38.819885%,18.03894%,21.569824%);fill-opacity:1;" d="M 483.949219 657.183594 L 478.75 657.183594 L 478.75 570.949219 L 483.949219 570.949219 L 483.949219 657.183594 "/>
<path style=" stroke:none;fill-rule:nonzero;fill:rgb(38.819885%,18.03894%,21.569824%);fill-opacity:1;" d="M 331.203125 657.183594 L 326.003906 657.183594 L 326.003906 570.949219 L 331.203125 570.949219 L 331.203125 657.183594 "/>
<path style=" stroke:none;fill-rule:nonzero;fill:rgb(10.198975%,30.589294%,27.059937%);fill-opacity:1;" d="M 429.421875 532.628906 C 429.421875 546.136719 418.476562 557.082031 404.976562 557.082031 C 391.476562 557.082031 380.53125 546.136719 380.53125 532.628906 C 380.53125 519.121094 391.476562 508.171875 404.976562 508.171875 C 418.476562 508.171875 429.421875 519.121094 429.421875 532.628906 "/>
<path style=" stroke:none;fill-rule:nonzero;fill:rgb(10.198975%,30.589294%,27.059937%);fill-opacity:1;" d="M 404.542969 541.574219 L 404.542969 552.714844 C 401.742188 552.628906 399.085938 551.972656 396.675781 550.847656 L 401.007812 542.398438 L 404.542969 541.574219 "/>
<path style=" stroke:none;fill-rule:nonzero;fill:rgb(10.198975%,30.589294%,27.059937%);fill-opacity:1;" d="M 395.332031 536.28125 L 396.265625 533.195312 L 402.074219 533.195312 C 402.160156 533.585938 402.316406 533.953125 402.535156 534.285156 L 398.867188 537.949219 L 395.332031 536.28125 "/>
<path style=" stroke:none;fill-rule:nonzero;fill:rgb(10.198975%,30.589294%,27.059937%);fill-opacity:1;" d="M 400.949219 541.632812 L 399.585938 539.074219 L 403.453125 535.203125 C 403.777344 535.421875 404.144531 535.578125 404.542969 535.65625 L 404.542969 541.183594 L 404.453125 540.816406 L 400.949219 541.632812 "/>
<path style=" stroke:none;fill-rule:nonzero;fill:rgb(10.198975%,30.589294%,27.059937%);fill-opacity:1;" d="M 395.949219 531.894531 L 395.175781 529.316406 L 398.675781 526.949219 L 402.535156 530.800781 C 402.316406 531.128906 402.160156 531.492188 402.074219 531.894531 L 395.949219 531.894531 "/>
<path style=" stroke:none;fill-rule:nonzero;fill:rgb(10.198975%,30.589294%,27.059937%);fill-opacity:1;" d="M 404.542969 524.265625 L 404.542969 529.425781 C 404.144531 529.507812 403.777344 529.667969 403.453125 529.886719 L 399.351562 525.773438 L 400.824219 523.339844 L 404.542969 524.265625 "/>
<path style=" stroke:none;fill-rule:nonzero;fill:rgb(10.198975%,30.589294%,27.059937%);fill-opacity:1;" d="M 398.800781 525.222656 L 391.390625 517.8125 C 392.917969 516.386719 394.660156 515.183594 396.566406 514.285156 L 400.226562 522.871094 L 398.800781 525.222656 "/>
<path style=" stroke:none;fill-rule:nonzero;fill:rgb(10.198975%,30.589294%,27.059937%);fill-opacity:1;" d="M 400.925781 522.582031 L 397.257812 513.96875 C 399.507812 513.007812 401.960938 512.449219 404.542969 512.367188 L 404.542969 523.480469 L 400.925781 522.582031 "/>
<path style=" stroke:none;fill-rule:nonzero;fill:rgb(10.198975%,30.589294%,27.059937%);fill-opacity:1;" d="M 398.300781 538.515625 L 390.476562 546.351562 C 388.667969 544.425781 387.242188 542.15625 386.300781 539.640625 L 394.851562 536.886719 L 398.300781 538.515625 "/>
<path style=" stroke:none;fill-rule:nonzero;fill:rgb(10.198975%,30.589294%,27.059937%);fill-opacity:1;" d="M 394.566406 536.179688 L 386.042969 538.921875 C 385.441406 537.113281 385.089844 535.1875 385.023438 533.195312 L 395.476562 533.195312 L 394.566406 536.179688 "/>
<path style=" stroke:none;fill-rule:nonzero;fill:rgb(10.198975%,30.589294%,27.059937%);fill-opacity:1;" d="M 395.160156 531.894531 L 385.023438 531.894531 C 385.089844 529.703125 385.507812 527.59375 386.226562 525.632812 L 394.417969 529.433594 L 395.160156 531.894531 "/>
<path style=" stroke:none;fill-rule:nonzero;fill:rgb(10.198975%,30.589294%,27.059937%);fill-opacity:1;" d="M 394.691406 528.726562 L 386.5 524.925781 C 387.441406 522.613281 388.792969 520.523438 390.476562 518.738281 L 398.132812 526.398438 L 394.691406 528.726562 "/>
<path style=" stroke:none;fill-rule:nonzero;fill:rgb(10.198975%,30.589294%,27.059937%);fill-opacity:1;" d="M 400.324219 542.074219 L 396 550.511719 C 394.308594 549.652344 392.757812 548.554688 391.390625 547.269531 L 399.015625 539.632812 L 400.324219 542.074219 "/>
<path style=" stroke:none;fill-rule:nonzero;fill:rgb(58.039856%,69.40918%,67.449951%);fill-opacity:1;" d="M 386.300781 539.640625 L 394.851562 536.886719 L 398.300781 538.515625 L 390.476562 546.351562 C 388.667969 544.425781 387.242188 542.15625 386.300781 539.640625 Z M 391.390625 547.269531 L 399.015625 539.632812 L 400.324219 542.074219 L 396 550.511719 C 394.308594 549.652344 392.757812 548.554688 391.390625 547.269531 Z M 396.675781 550.847656 L 401.007812 542.398438 L 404.542969 541.574219 L 404.542969 552.714844 C 401.742188 552.628906 399.085938 551.972656 396.675781 550.847656 Z M 397.257812 513.96875 C 399.507812 513.007812 401.960938 512.449219 404.542969 512.367188 L 404.542969 523.480469 L 400.925781 522.582031 Z M 391.390625 517.8125 C 392.917969 516.386719 394.660156 515.183594 396.566406 514.285156 L 400.226562 522.871094 L 398.800781 525.222656 Z M 390.476562 518.738281 L 398.132812 526.398438 L 394.691406 528.726562 L 386.5 524.925781 C 387.441406 522.613281 388.792969 520.523438 390.476562 518.738281 Z M 395.332031 536.28125 L 396.265625 533.195312 L 402.074219 533.195312 C 402.160156 533.585938 402.316406 533.953125 402.535156 534.285156 L 398.867188 537.949219 Z M 395.175781 529.316406 L 398.675781 526.949219 L 402.535156 530.800781 C 402.316406 531.128906 402.160156 531.492188 402.074219 531.894531 L 395.949219 531.894531 Z M 395.160156 531.894531 L 385.023438 531.894531 C 385.089844 529.703125 385.507812 527.59375 386.226562 525.632812 L 394.417969 529.433594 Z M 404.542969 529.425781 C 404.144531 529.507812 403.777344 529.667969 403.453125 529.886719 L 399.351562 525.773438 L 400.824219 523.339844 L 404.542969 524.265625 Z M 399.585938 539.074219 L 403.453125 535.203125 C 403.777344 535.421875 404.144531 535.578125 404.542969 535.65625 L 404.542969 541.183594 L 404.453125 540.816406 L 400.949219 541.632812 Z M 394.566406 536.179688 L 386.042969 538.921875 C 385.441406 537.113281 385.089844 535.1875 385.023438 533.195312 L 395.476562 533.195312 Z M 382.933594 532.542969 C 382.933594 544.84375 392.890625 554.816406 405.191406 554.816406 L 405.285156 554.816406 L 405.285156 510.273438 L 405.191406 510.265625 C 392.890625 510.265625 382.933594 520.238281 382.933594 532.542969 "/>
<path style=" stroke:none;fill-rule:nonzero;fill:rgb(10.198975%,30.589294%,27.059937%);fill-opacity:1;" d="M 405.410156 541.574219 L 405.410156 552.714844 C 408.210938 552.628906 410.875 551.972656 413.277344 550.847656 L 408.941406 542.398438 L 405.410156 541.574219 "/>
<path style=" stroke:none;fill-rule:nonzero;fill:rgb(10.198975%,30.589294%,27.059937%);fill-opacity:1;" d="M 414.617188 536.28125 L 413.683594 533.195312 L 407.875 533.195312 C 407.792969 533.585938 407.636719 533.953125 407.417969 534.285156 L 411.085938 537.949219 L 414.617188 536.28125 "/>
<path style=" stroke:none;fill-rule:nonzero;fill:rgb(10.198975%,30.589294%,27.059937%);fill-opacity:1;" d="M 409 541.632812 L 410.367188 539.074219 L 406.5 535.203125 C 406.175781 535.421875 405.808594 535.578125 405.410156 535.65625 L 405.410156 541.183594 L 405.5 540.816406 L 409 541.632812 "/>
<path style=" stroke:none;fill-rule:nonzero;fill:rgb(10.198975%,30.589294%,27.059937%);fill-opacity:1;" d="M 414.003906 531.894531 L 414.777344 529.316406 L 411.277344 526.949219 L 407.417969 530.800781 C 407.636719 531.128906 407.792969 531.492188 407.875 531.894531 L 414.003906 531.894531 "/>
<path style=" stroke:none;fill-rule:nonzero;fill:rgb(10.198975%,30.589294%,27.059937%);fill-opacity:1;" d="M 405.410156 524.265625 L 405.410156 529.425781 C 405.808594 529.507812 406.175781 529.667969 406.5 529.886719 L 410.601562 525.773438 L 409.125 523.339844 L 405.410156 524.265625 "/>
<path style=" stroke:none;fill-rule:nonzero;fill:rgb(10.198975%,30.589294%,27.059937%);fill-opacity:1;" d="M 411.160156 525.222656 L 418.5625 517.8125 C 417.035156 516.386719 415.292969 515.183594 413.386719 514.285156 L 409.726562 522.871094 L 411.160156 525.222656 "/>
<path style=" stroke:none;fill-rule:nonzero;fill:rgb(10.198975%,30.589294%,27.059937%);fill-opacity:1;" d="M 409.027344 522.582031 L 412.695312 513.96875 C 410.445312 513.007812 407.992188 512.449219 405.410156 512.367188 L 405.410156 523.480469 L 409.027344 522.582031 "/>
<path style=" stroke:none;fill-rule:nonzero;fill:rgb(10.198975%,30.589294%,27.059937%);fill-opacity:1;" d="M 411.652344 538.515625 L 419.484375 546.351562 C 421.285156 544.425781 422.710938 542.15625 423.652344 539.640625 L 415.101562 536.886719 L 411.652344 538.515625 "/>
<path style=" stroke:none;fill-rule:nonzero;fill:rgb(10.198975%,30.589294%,27.059937%);fill-opacity:1;" d="M 415.386719 536.179688 L 423.910156 538.921875 C 424.511719 537.113281 424.859375 535.1875 424.929688 533.195312 L 414.476562 533.195312 L 415.386719 536.179688 "/>
<path style=" stroke:none;fill-rule:nonzero;fill:rgb(10.198975%,30.589294%,27.059937%);fill-opacity:1;" d="M 414.792969 531.894531 L 424.929688 531.894531 C 424.859375 529.703125 424.445312 527.59375 423.726562 525.632812 L 415.535156 529.433594 L 414.792969 531.894531 "/>
<path style=" stroke:none;fill-rule:nonzero;fill:rgb(10.198975%,30.589294%,27.059937%);fill-opacity:1;" d="M 415.261719 528.726562 L 423.453125 524.925781 C 422.511719 522.613281 421.160156 520.523438 419.484375 518.738281 L 411.820312 526.398438 L 415.261719 528.726562 "/>
<path style=" stroke:none;fill-rule:nonzero;fill:rgb(10.198975%,30.589294%,27.059937%);fill-opacity:1;" d="M 409.625 542.074219 L 413.953125 550.511719 C 415.644531 549.652344 417.195312 548.554688 418.5625 547.269531 L 410.925781 539.632812 L 409.625 542.074219 "/>
<path style=" stroke:none;fill-rule:nonzero;fill:rgb(58.039856%,69.40918%,67.449951%);fill-opacity:1;" d="M 419.484375 546.351562 L 411.652344 538.515625 L 415.101562 536.886719 L 423.652344 539.640625 C 422.710938 542.15625 421.285156 544.425781 419.484375 546.351562 Z M 413.953125 550.511719 L 409.625 542.074219 L 410.925781 539.632812 L 418.5625 547.269531 C 417.195312 548.554688 415.644531 549.652344 413.953125 550.511719 Z M 405.410156 552.714844 L 405.410156 541.574219 L 408.941406 542.398438 L 413.277344 550.847656 C 410.875 551.972656 408.210938 552.628906 405.410156 552.714844 Z M 409.027344 522.582031 L 405.410156 523.480469 L 405.410156 512.367188 C 407.992188 512.449219 410.445312 513.007812 412.695312 513.96875 Z M 411.160156 525.222656 L 409.726562 522.871094 L 413.386719 514.285156 C 415.292969 515.183594 417.035156 516.386719 418.5625 517.8125 Z M 423.453125 524.925781 L 415.261719 528.726562 L 411.820312 526.398438 L 419.484375 518.738281 C 421.160156 520.523438 422.511719 522.613281 423.453125 524.925781 Z M 411.085938 537.949219 L 407.417969 534.285156 C 407.636719 533.953125 407.792969 533.585938 407.875 533.195312 L 413.683594 533.195312 L 414.617188 536.28125 Z M 414.003906 531.894531 L 407.875 531.894531 C 407.792969 531.492188 407.636719 531.128906 407.417969 530.800781 L 411.277344 526.949219 L 414.777344 529.316406 Z M 415.535156 529.433594 L 423.726562 525.632812 C 424.445312 527.59375 424.859375 529.703125 424.929688 531.894531 L 414.792969 531.894531 Z M 405.410156 524.265625 L 409.125 523.339844 L 410.601562 525.773438 L 406.5 529.886719 C 406.175781 529.667969 405.808594 529.507812 405.410156 529.425781 Z M 409 541.632812 L 405.5 540.816406 L 405.410156 541.183594 L 405.410156 535.65625 C 405.808594 535.578125 406.175781 535.421875 406.5 535.203125 L 410.367188 539.074219 Z M 414.476562 533.195312 L 424.929688 533.195312 C 424.859375 535.1875 424.511719 537.113281 423.910156 538.921875 L 415.386719 536.179688 Z M 404.757812 510.265625 L 404.667969 510.273438 L 404.667969 554.816406 L 404.757812 554.816406 C 417.0625 554.816406 427.019531 544.84375 427.019531 532.542969 C 427.019531 520.238281 417.0625 510.265625 404.757812 510.265625 "/>
<path style=" stroke:none;fill-rule:nonzero;fill:rgb(38.819885%,18.03894%,21.569824%);fill-opacity:1;" d="M 395.925781 280.351562 L 350.039062 280.351562 L 329.355469 373.128906 L 416.609375 373.128906 L 395.925781 280.351562 "/>
<path style=" stroke:none;fill-rule:nonzero;fill:rgb(10.198975%,30.589294%,27.059937%);fill-opacity:1;" d="M 416.785156 374.996094 L 372.980469 273.183594 L 329.171875 374.996094 Z M 416.785156 374.996094 "/>
<path style=" stroke:none;fill-rule:nonzero;fill:rgb(58.039856%,69.40918%,67.449951%);fill-opacity:1;" d="M 433.980469 378.789062 L 433.980469 375.710938 L 311.984375 375.710938 L 311.984375 378.789062 L 433.980469 378.789062 "/>
<path style=" stroke:none;fill-rule:nonzero;fill:rgb(38.819885%,18.03894%,21.569824%);fill-opacity:1;" d="M 437.929688 372.136719 L 308.035156 372.136719 L 308.035156 375.710938 L 437.929688 375.710938 L 437.929688 372.136719 "/>
<path style=" stroke:none;fill-rule:nonzero;fill:rgb(58.039856%,69.40918%,67.449951%);fill-opacity:1;" d="M 413.320312 379.949219 L 372.980469 281.5625 L 332.644531 379.949219 Z M 413.320312 379.949219 "/>
<path style=" stroke:none;fill-rule:nonzero;fill:rgb(10.198975%,30.589294%,27.059937%);fill-opacity:1;" d="M 391.859375 346.105469 C 391.859375 356.542969 383.40625 364.996094 372.980469 364.996094 C 362.554688 364.996094 354.097656 356.542969 354.097656 346.105469 C 354.097656 335.675781 362.554688 327.21875 372.980469 327.21875 C 383.40625 327.21875 391.859375 335.675781 391.859375 346.105469 "/>
<path style=" stroke:none;fill-rule:nonzero;fill:rgb(10.198975%,30.589294%,27.059937%);fill-opacity:1;" d="M 372.640625 353.015625 L 372.640625 361.628906 C 370.480469 361.5625 368.421875 361.046875 366.574219 360.1875 L 369.914062 353.660156 L 372.640625 353.015625 "/>
<path style=" stroke:none;fill-rule:nonzero;fill:rgb(10.198975%,30.589294%,27.059937%);fill-opacity:1;" d="M 365.53125 348.929688 L 366.257812 346.546875 L 370.742188 346.546875 C 370.808594 346.855469 370.921875 347.136719 371.089844 347.386719 L 368.265625 350.214844 L 365.53125 348.929688 "/>
<path style=" stroke:none;fill-rule:nonzero;fill:rgb(10.198975%,30.589294%,27.059937%);fill-opacity:1;" d="M 369.875 353.066406 L 368.816406 351.089844 L 371.796875 348.097656 C 372.058594 348.265625 372.339844 348.390625 372.640625 348.449219 L 372.640625 352.714844 L 372.574219 352.433594 L 369.875 353.066406 "/>
<path style=" stroke:none;fill-rule:nonzero;fill:rgb(10.198975%,30.589294%,27.059937%);fill-opacity:1;" d="M 366.007812 345.546875 L 365.40625 343.554688 L 368.113281 341.726562 L 371.089844 344.695312 C 370.921875 344.953125 370.808594 345.238281 370.742188 345.546875 L 366.007812 345.546875 "/>
<path style=" stroke:none;fill-rule:nonzero;fill:rgb(10.198975%,30.589294%,27.059937%);fill-opacity:1;" d="M 372.640625 339.652344 L 372.640625 343.636719 C 372.339844 343.695312 372.058594 343.820312 371.796875 343.988281 L 368.632812 340.820312 L 369.773438 338.933594 L 372.640625 339.652344 "/>
<path style=" stroke:none;fill-rule:nonzero;fill:rgb(10.198975%,30.589294%,27.059937%);fill-opacity:1;" d="M 368.207031 340.394531 L 362.488281 334.671875 C 363.664062 333.566406 365.015625 332.640625 366.488281 331.9375 L 369.308594 338.574219 L 368.207031 340.394531 "/>
<path style=" stroke:none;fill-rule:nonzero;fill:rgb(10.198975%,30.589294%,27.059937%);fill-opacity:1;" d="M 369.847656 338.351562 L 367.023438 331.695312 C 368.757812 330.953125 370.65625 330.519531 372.640625 330.464844 L 372.640625 339.050781 L 369.847656 338.351562 "/>
<path style=" stroke:none;fill-rule:nonzero;fill:rgb(10.198975%,30.589294%,27.059937%);fill-opacity:1;" d="M 367.824219 350.65625 L 361.78125 356.710938 C 360.390625 355.226562 359.28125 353.464844 358.554688 351.523438 L 365.15625 349.398438 L 367.824219 350.65625 "/>
<path style=" stroke:none;fill-rule:nonzero;fill:rgb(10.198975%,30.589294%,27.059937%);fill-opacity:1;" d="M 364.941406 348.847656 L 358.355469 350.972656 C 357.890625 349.574219 357.613281 348.089844 357.574219 346.546875 L 365.640625 346.546875 L 364.941406 348.847656 "/>
<path style=" stroke:none;fill-rule:nonzero;fill:rgb(10.198975%,30.589294%,27.059937%);fill-opacity:1;" d="M 365.398438 345.546875 L 357.574219 345.546875 C 357.621094 343.851562 357.949219 342.21875 358.496094 340.710938 L 364.824219 343.644531 L 365.398438 345.546875 "/>
<path style=" stroke:none;fill-rule:nonzero;fill:rgb(10.198975%,30.589294%,27.059937%);fill-opacity:1;" d="M 365.039062 343.09375 L 358.714844 340.160156 C 359.441406 338.375 360.480469 336.757812 361.78125 335.382812 L 367.699219 341.300781 L 365.039062 343.09375 "/>
<path style=" stroke:none;fill-rule:nonzero;fill:rgb(10.198975%,30.589294%,27.059937%);fill-opacity:1;" d="M 369.382812 353.410156 L 366.046875 359.929688 C 364.738281 359.253906 363.546875 358.410156 362.488281 357.417969 L 368.382812 351.523438 L 369.382812 353.410156 "/>
<path style=" stroke:none;fill-rule:nonzero;fill:rgb(79.219055%,84.709167%,83.918762%);fill-opacity:1;" d="M 358.554688 351.523438 L 365.15625 349.398438 L 367.824219 350.65625 L 361.78125 356.710938 C 360.390625 355.226562 359.28125 353.464844 358.554688 351.523438 Z M 362.488281 357.417969 L 368.382812 351.523438 L 369.382812 353.410156 L 366.046875 359.929688 C 364.738281 359.253906 363.546875 358.410156 362.488281 357.417969 Z M 366.574219 360.1875 L 369.914062 353.660156 L 372.640625 353.015625 L 372.640625 361.628906 C 370.480469 361.5625 368.421875 361.046875 366.574219 360.1875 Z M 367.023438 331.695312 C 368.757812 330.953125 370.65625 330.519531 372.640625 330.464844 L 372.640625 339.050781 L 369.847656 338.351562 Z M 362.488281 334.671875 C 363.664062 333.566406 365.015625 332.640625 366.488281 331.9375 L 369.308594 338.574219 L 368.207031 340.394531 Z M 361.78125 335.382812 L 367.699219 341.300781 L 365.039062 343.09375 L 358.714844 340.160156 C 359.441406 338.375 360.480469 336.757812 361.78125 335.382812 Z M 365.53125 348.929688 L 366.257812 346.546875 L 370.742188 346.546875 C 370.808594 346.855469 370.921875 347.136719 371.089844 347.386719 L 368.265625 350.214844 Z M 365.40625 343.554688 L 368.113281 341.726562 L 371.089844 344.695312 C 370.921875 344.953125 370.808594 345.238281 370.742188 345.546875 L 366.007812 345.546875 Z M 365.398438 345.546875 L 357.574219 345.546875 C 357.621094 343.851562 357.949219 342.21875 358.496094 340.710938 L 364.824219 343.644531 Z M 372.640625 343.636719 C 372.339844 343.695312 372.058594 343.820312 371.796875 343.988281 L 368.632812 340.820312 L 369.773438 338.933594 L 372.640625 339.652344 Z M 368.816406 351.089844 L 371.796875 348.097656 C 372.058594 348.265625 372.339844 348.390625 372.640625 348.449219 L 372.640625 352.714844 L 372.574219 352.433594 L 369.875 353.066406 Z M 364.941406 348.847656 L 358.355469 350.972656 C 357.890625 349.574219 357.613281 348.089844 357.574219 346.546875 L 365.640625 346.546875 Z M 355.949219 346.046875 C 355.949219 355.542969 363.648438 363.246094 373.148438 363.246094 L 373.214844 363.246094 L 373.214844 328.84375 L 373.148438 328.835938 C 363.648438 328.835938 355.949219 336.542969 355.949219 346.046875 "/>
<path style=" stroke:none;fill-rule:nonzero;fill:rgb(10.198975%,30.589294%,27.059937%);fill-opacity:1;" d="M 373.316406 353.015625 L 373.316406 361.628906 C 375.484375 361.5625 377.53125 361.046875 379.390625 360.1875 L 376.039062 353.660156 L 373.316406 353.015625 "/>
<path style=" stroke:none;fill-rule:nonzero;fill:rgb(10.198975%,30.589294%,27.059937%);fill-opacity:1;" d="M 380.425781 348.929688 L 379.707031 346.546875 L 375.222656 346.546875 C 375.15625 346.855469 375.03125 347.136719 374.867188 347.386719 L 377.699219 350.214844 L 380.425781 348.929688 "/>
<path style=" stroke:none;fill-rule:nonzero;fill:rgb(10.198975%,30.589294%,27.059937%);fill-opacity:1;" d="M 376.089844 353.066406 L 377.148438 351.089844 L 374.15625 348.097656 C 373.90625 348.265625 373.625 348.390625 373.316406 348.449219 L 373.316406 352.714844 L 373.382812 352.433594 L 376.089844 353.066406 "/>
<path style=" stroke:none;fill-rule:nonzero;fill:rgb(10.198975%,30.589294%,27.059937%);fill-opacity:1;" d="M 379.949219 345.546875 L 380.550781 343.554688 L 377.839844 341.726562 L 374.867188 344.695312 C 375.03125 344.953125 375.15625 345.238281 375.222656 345.546875 L 379.949219 345.546875 "/>
<path style=" stroke:none;fill-rule:nonzero;fill:rgb(10.198975%,30.589294%,27.059937%);fill-opacity:1;" d="M 373.316406 339.652344 L 373.316406 343.636719 C 373.625 343.695312 373.90625 343.820312 374.15625 343.988281 L 377.324219 340.820312 L 376.183594 338.933594 L 373.316406 339.652344 "/>
<path style=" stroke:none;fill-rule:nonzero;fill:rgb(10.198975%,30.589294%,27.059937%);fill-opacity:1;" d="M 377.75 340.394531 L 383.476562 334.671875 C 382.300781 333.566406 380.949219 332.640625 379.472656 331.9375 L 376.648438 338.574219 L 377.75 340.394531 "/>
<path style=" stroke:none;fill-rule:nonzero;fill:rgb(10.198975%,30.589294%,27.059937%);fill-opacity:1;" d="M 376.109375 338.351562 L 378.941406 331.695312 C 377.207031 330.953125 375.308594 330.519531 373.316406 330.464844 L 373.316406 339.050781 L 376.109375 338.351562 "/>
<path style=" stroke:none;fill-rule:nonzero;fill:rgb(10.198975%,30.589294%,27.059937%);fill-opacity:1;" d="M 378.132812 350.65625 L 384.183594 356.710938 C 385.574219 355.226562 386.675781 353.464844 387.410156 351.523438 L 380.800781 349.398438 L 378.132812 350.65625 "/>
<path style=" stroke:none;fill-rule:nonzero;fill:rgb(10.198975%,30.589294%,27.059937%);fill-opacity:1;" d="M 381.015625 348.847656 L 387.601562 350.972656 C 388.066406 349.574219 388.339844 348.089844 388.390625 346.546875 L 380.316406 346.546875 L 381.015625 348.847656 "/>
<path style=" stroke:none;fill-rule:nonzero;fill:rgb(10.198975%,30.589294%,27.059937%);fill-opacity:1;" d="M 380.566406 345.546875 L 388.390625 345.546875 C 388.339844 343.851562 388.015625 342.21875 387.464844 340.710938 L 381.140625 343.644531 L 380.566406 345.546875 "/>
<path style=" stroke:none;fill-rule:nonzero;fill:rgb(10.198975%,30.589294%,27.059937%);fill-opacity:1;" d="M 380.925781 343.09375 L 387.25 340.160156 C 386.523438 338.375 385.484375 336.757812 384.183594 335.382812 L 378.265625 341.300781 L 380.925781 343.09375 "/>
<path style=" stroke:none;fill-rule:nonzero;fill:rgb(10.198975%,30.589294%,27.059937%);fill-opacity:1;" d="M 376.574219 353.410156 L 379.917969 359.929688 C 381.214844 359.253906 382.417969 358.410156 383.476562 357.417969 L 377.574219 351.523438 L 376.574219 353.410156 "/>
<path style=" stroke:none;fill-rule:nonzero;fill:rgb(79.219055%,84.709167%,83.918762%);fill-opacity:1;" d="M 384.183594 356.710938 L 378.132812 350.65625 L 380.800781 349.398438 L 387.410156 351.523438 C 386.675781 353.464844 385.574219 355.226562 384.183594 356.710938 Z M 379.917969 359.929688 L 376.574219 353.410156 L 377.574219 351.523438 L 383.476562 357.417969 C 382.417969 358.410156 381.214844 359.253906 379.917969 359.929688 Z M 373.316406 361.628906 L 373.316406 353.015625 L 376.039062 353.660156 L 379.390625 360.1875 C 377.53125 361.046875 375.484375 361.5625 373.316406 361.628906 Z M 376.109375 338.351562 L 373.316406 339.050781 L 373.316406 330.464844 C 375.308594 330.519531 377.207031 330.953125 378.941406 331.695312 Z M 377.75 340.394531 L 376.648438 338.574219 L 379.472656 331.9375 C 380.949219 332.640625 382.300781 333.566406 383.476562 334.671875 Z M 387.25 340.160156 L 380.925781 343.09375 L 378.265625 341.300781 L 384.183594 335.382812 C 385.484375 336.757812 386.523438 338.375 387.25 340.160156 Z M 377.699219 350.214844 L 374.867188 347.386719 C 375.03125 347.136719 375.15625 346.855469 375.222656 346.546875 L 379.707031 346.546875 L 380.425781 348.929688 Z M 379.949219 345.546875 L 375.222656 345.546875 C 375.15625 345.238281 375.03125 344.953125 374.867188 344.695312 L 377.839844 341.726562 L 380.550781 343.554688 Z M 381.140625 343.644531 L 387.464844 340.710938 C 388.015625 342.21875 388.339844 343.851562 388.390625 345.546875 L 380.566406 345.546875 Z M 373.316406 339.652344 L 376.183594 338.933594 L 377.324219 340.820312 L 374.15625 343.988281 C 373.90625 343.820312 373.625 343.695312 373.316406 343.636719 Z M 376.089844 353.066406 L 373.382812 352.433594 L 373.316406 352.714844 L 373.316406 348.449219 C 373.625 348.390625 373.90625 348.265625 374.15625 348.097656 L 377.148438 351.089844 Z M 380.316406 346.546875 L 388.390625 346.546875 C 388.339844 348.089844 388.066406 349.574219 387.601562 350.972656 L 381.015625 348.847656 Z M 372.816406 328.835938 L 372.742188 328.84375 L 372.742188 363.246094 L 372.816406 363.246094 C 382.308594 363.246094 390.007812 355.542969 390.007812 346.046875 C 390.007812 336.542969 382.308594 328.835938 372.816406 328.835938 "/>
<path style=" stroke:none;fill-rule:nonzero;fill:rgb(10.198975%,30.589294%,27.059937%);fill-opacity:1;" d="M 302.175781 616.898438 L 292.632812 616.898438 L 292.632812 604.734375 L 302.175781 604.734375 L 302.175781 616.898438 "/>
<path style=" stroke:none;fill-rule:nonzero;fill:rgb(10.198975%,30.589294%,27.059937%);fill-opacity:1;" d="M 317.679688 616.898438 L 308.136719 616.898438 L 308.136719 604.734375 L 317.679688 604.734375 L 317.679688 616.898438 "/>
<path style=" stroke:none;fill-rule:nonzero;fill:rgb(10.198975%,30.589294%,27.059937%);fill-opacity:1;" d="M 501.492188 616.898438 L 491.949219 616.898438 L 491.949219 604.734375 L 501.492188 604.734375 L 501.492188 616.898438 "/>
<path style=" stroke:none;fill-rule:nonzero;fill:rgb(10.198975%,30.589294%,27.059937%);fill-opacity:1;" d="M 516.984375 616.898438 L 507.441406 616.898438 L 507.441406 604.734375 L 516.984375 604.734375 L 516.984375 616.898438 "/>
<path style=" stroke:none;fill-rule:nonzero;fill:rgb(79.219055%,84.709167%,83.918762%);fill-opacity:1;" d="M 307.378906 392.722656 L 276.976562 392.722656 L 276.976562 340.019531 L 307.378906 340.019531 L 307.378906 392.722656 "/>
<path style=" stroke:none;fill-rule:nonzero;fill:rgb(58.039856%,69.40918%,67.449951%);fill-opacity:1;" d="M 287.433594 392.722656 L 283 392.722656 L 283 340.019531 L 287.433594 340.019531 L 287.433594 392.722656 "/>
<path style=" stroke:none;fill-rule:nonzero;fill:rgb(58.039856%,69.40918%,67.449951%);fill-opacity:1;" d="M 301.34375 392.722656 L 296.910156 392.722656 L 296.910156 340.019531 L 301.34375 340.019531 L 301.34375 392.722656 "/>
<path style=" stroke:none;fill-rule:nonzero;fill:rgb(79.219055%,84.709167%,83.918762%);fill-opacity:1;" d="M 270.925781 344.761719 L 313.417969 344.761719 L 313.417969 314.054688 L 270.925781 314.054688 L 270.925781 344.761719 "/>
<path style=" stroke:none;fill-rule:nonzero;fill:rgb(10.198975%,30.589294%,27.059937%);fill-opacity:1;" d="M 274.066406 348.324219 L 310.277344 348.324219 L 310.277344 344.761719 L 274.066406 344.761719 L 274.066406 348.324219 "/>
<path style=" stroke:none;fill-rule:nonzero;fill:rgb(10.198975%,30.589294%,27.059937%);fill-opacity:1;" d="M 310.277344 388.300781 L 274.066406 388.300781 L 274.066406 391.863281 L 310.277344 391.863281 L 310.277344 388.300781 "/>
<path style=" stroke:none;fill-rule:nonzero;fill:rgb(10.198975%,30.589294%,27.059937%);fill-opacity:1;" d="M 302.46875 320.175781 L 310.277344 320.175781 L 310.277344 317.113281 L 302.46875 317.113281 L 302.46875 320.175781 "/>
<path style=" stroke:none;fill-rule:nonzero;fill:rgb(10.198975%,30.589294%,27.059937%);fill-opacity:1;" d="M 288.265625 320.175781 L 296.078125 320.175781 L 296.078125 317.113281 L 288.265625 317.113281 L 288.265625 320.175781 "/>
<path style=" stroke:none;fill-rule:nonzero;fill:rgb(10.198975%,30.589294%,27.059937%);fill-opacity:1;" d="M 274.066406 320.175781 L 281.875 320.175781 L 281.875 317.113281 L 274.066406 317.113281 L 274.066406 320.175781 "/>
<path style=" stroke:none;fill-rule:nonzero;fill:rgb(38.819885%,18.03894%,21.569824%);fill-opacity:1;" d="M 318.476562 314.054688 C 318.476562 314.054688 292.367188 289.316406 292.367188 250.835938 C 292.132812 289.066406 265.867188 314.054688 265.867188 314.054688 L 318.476562 314.054688 "/>
<path style=" stroke:none;fill-rule:nonzero;fill:rgb(79.219055%,84.709167%,83.918762%);fill-opacity:1;" d="M 313.417969 391.863281 L 270.925781 391.863281 L 270.925781 422.570312 L 283 438.210938 L 301.34375 438.210938 L 313.417969 422.570312 L 313.417969 391.863281 "/>
<path style=" stroke:none;fill-rule:nonzero;fill:rgb(10.198975%,30.589294%,27.059937%);fill-opacity:1;" d="M 357.863281 398.640625 L 348.332031 398.640625 L 348.332031 386.476562 L 357.863281 386.476562 L 357.863281 398.640625 "/>
<path style=" stroke:none;fill-rule:nonzero;fill:rgb(10.198975%,30.589294%,27.059937%);fill-opacity:1;" d="M 326.871094 398.640625 L 317.328125 398.640625 L 317.328125 386.476562 L 326.871094 386.476562 L 326.871094 398.640625 "/>
<path style=" stroke:none;fill-rule:nonzero;fill:rgb(10.198975%,30.589294%,27.059937%);fill-opacity:1;" d="M 342.371094 398.640625 L 332.828125 398.640625 L 332.828125 386.476562 L 342.371094 386.476562 L 342.371094 398.640625 "/>
<path style=" stroke:none;fill-rule:nonzero;fill:rgb(10.198975%,30.589294%,27.059937%);fill-opacity:1;" d="M 373.367188 398.640625 L 363.824219 398.640625 L 363.824219 386.476562 L 373.367188 386.476562 L 373.367188 398.640625 "/>
<path style=" stroke:none;fill-rule:nonzero;fill:rgb(10.198975%,30.589294%,27.059937%);fill-opacity:1;" d="M 388.867188 398.640625 L 379.324219 398.640625 L 379.324219 386.476562 L 388.867188 386.476562 L 388.867188 398.640625 "/>
<path style=" stroke:none;fill-rule:nonzero;fill:rgb(10.198975%,30.589294%,27.059937%);fill-opacity:1;" d="M 404.367188 398.640625 L 394.824219 398.640625 L 394.824219 386.476562 L 404.367188 386.476562 L 404.367188 398.640625 "/>
<path style=" stroke:none;fill-rule:nonzero;fill:rgb(10.198975%,30.589294%,27.059937%);fill-opacity:1;" d="M 419.871094 398.640625 L 410.328125 398.640625 L 410.328125 386.476562 L 419.871094 386.476562 L 419.871094 398.640625 "/>
<path style=" stroke:none;fill-rule:nonzero;fill:rgb(10.198975%,30.589294%,27.059937%);fill-opacity:1;" d="M 435.371094 398.640625 L 425.828125 398.640625 L 425.828125 386.476562 L 435.371094 386.476562 L 435.371094 398.640625 "/>
</g>
</svg>
