<?xml version="1.0" encoding="UTF-8"?>
<svg xmlns="http://www.w3.org/2000/svg" xmlns:xlink="http://www.w3.org/1999/xlink" width="810pt" height="809.999993pt" viewBox="0 0 810 809.999993" version="1.2">
<defs>
<clipPath id="clip1">
  <path d="M 64 83.25 L 755.425781 83.25 L 755.425781 738 L 64 738 Z M 64 83.25 "/>
</clipPath>
<clipPath id="clip2">
  <path d="M 74.425781 92.566406 L 765.925781 92.566406 L 765.925781 747.316406 L 74.425781 747.316406 Z M 74.425781 92.566406 "/>
</clipPath>
</defs>
<g id="surface1">
<g clip-path="url(#clip1)" clip-rule="nonzero">
<path style=" stroke:none;fill-rule:nonzero;fill:rgb(38.819885%,18.03894%,21.569824%);fill-opacity:1;" d="M 676.851562 92.621094 L 676.851562 83.289062 L 663.078125 83.289062 L 663.078125 115.714844 L 676.851562 115.714844 L 676.851562 106.382812 L 741.566406 106.382812 L 741.566406 453.875 L 524.671875 453.875 L 524.671875 444.546875 L 510.898438 444.546875 L 510.898438 476.976562 L 524.671875 476.976562 L 524.671875 467.640625 L 741.566406 467.640625 L 741.566406 724.300781 L 435.027344 724.300781 L 435.027344 437.953125 L 444.367188 437.953125 L 444.367188 424.191406 L 411.921875 424.191406 L 411.921875 437.953125 L 421.257812 437.953125 L 421.257812 453.875 L 295.929688 453.875 L 295.929688 444.546875 L 282.160156 444.546875 L 282.160156 476.976562 L 295.929688 476.976562 L 295.929688 467.640625 L 421.257812 467.640625 L 421.257812 724.300781 L 77.785156 724.300781 L 77.785156 467.640625 L 190.917969 467.640625 L 190.917969 476.976562 L 204.691406 476.976562 L 204.691406 444.546875 L 190.917969 444.546875 L 190.917969 453.875 L 77.785156 453.875 L 77.785156 255.574219 L 81.433594 255.574219 L 81.433594 264.902344 L 95.207031 264.902344 L 95.207031 252.816406 L 99.339844 255.574219 L 152.054688 290.625 C 152.648438 291.023438 153.308594 291.203125 153.953125 291.203125 C 155.070312 291.203125 156.171875 290.667969 156.835938 289.675781 C 157.882812 288.089844 157.457031 285.960938 155.871094 284.898438 L 111.761719 255.574219 L 97.105469 245.828125 C 96.527344 245.429688 95.851562 245.25 95.207031 245.25 L 95.207031 232.476562 L 81.433594 232.476562 L 81.433594 241.808594 L 77.785156 241.808594 L 77.785156 106.382812 L 187.132812 106.382812 L 187.132812 241.808594 L 179.558594 241.808594 L 179.558594 232.476562 L 165.789062 232.476562 L 165.789062 264.902344 L 179.558594 264.902344 L 179.558594 255.574219 L 320.378906 255.574219 L 320.378906 264.902344 L 334.152344 264.902344 L 334.152344 232.476562 L 320.378906 232.476562 L 320.378906 241.808594 L 200.90625 241.808594 L 200.90625 106.382812 L 421.257812 106.382812 L 421.257812 232.476562 L 408.285156 232.476562 L 408.285156 264.902344 L 421.257812 264.902344 L 421.257812 331.980469 L 411.921875 331.980469 L 411.921875 345.746094 L 444.367188 345.746094 L 444.367188 331.980469 L 435.027344 331.980469 L 435.027344 106.382812 L 504.011719 106.382812 L 504.011719 354.703125 L 494.675781 354.703125 L 494.675781 368.46875 L 527.121094 368.46875 L 527.121094 354.703125 L 517.785156 354.703125 L 517.785156 106.382812 L 571.496094 106.382812 L 571.496094 115.714844 L 585.269531 115.714844 L 585.269531 83.289062 L 571.496094 83.289062 L 571.496094 92.621094 L 64.011719 92.621094 L 64.011719 738.066406 L 755.339844 738.066406 L 755.339844 92.621094 L 676.851562 92.621094 "/>
</g>
<path style=" stroke:none;fill-rule:nonzero;fill:rgb(38.819885%,18.03894%,21.569824%);fill-opacity:1;" d="M 586.839844 102.363281 L 592.882812 106.382812 L 645.585938 141.433594 C 646.179688 141.835938 646.84375 142.015625 647.503906 142.015625 C 648.605469 142.015625 649.707031 141.476562 650.367188 140.484375 C 651.414062 138.902344 650.988281 136.769531 649.40625 135.710938 L 605.304688 106.382812 L 590.652344 96.636719 C 589.070312 95.59375 586.921875 96.019531 585.875 97.601562 C 585.488281 98.183594 585.292969 98.839844 585.292969 99.503906 C 585.292969 100.613281 585.832031 101.703125 586.839844 102.363281 "/>
<path style=" stroke:none;fill-rule:nonzero;fill:rgb(38.819885%,18.03894%,21.569824%);fill-opacity:1;" d="M 464.375 359.683594 L 435.027344 403.753906 L 425.277344 418.398438 C 424.222656 419.980469 424.660156 422.113281 426.242188 423.171875 C 426.820312 423.5625 427.480469 423.75 428.144531 423.75 C 429.257812 423.75 430.347656 423.214844 431.007812 422.210938 L 435.027344 416.167969 L 470.105469 363.5 C 471.164062 361.917969 470.738281 359.769531 469.15625 358.722656 C 467.570312 357.675781 465.4375 358.101562 464.375 359.683594 "/>
<path style=" stroke:none;fill-rule:nonzero;fill:rgb(38.819885%,18.03894%,21.569824%);fill-opacity:1;" d="M 402.828125 245.828125 L 388.175781 255.574219 L 344.066406 284.898438 C 342.480469 285.960938 342.054688 288.089844 343.101562 289.675781 C 343.761719 290.667969 344.863281 291.203125 345.980469 291.203125 C 346.625 291.203125 347.289062 291.023438 347.878906 290.625 L 400.582031 255.574219 L 406.632812 251.554688 C 407.636719 250.890625 408.171875 249.789062 408.171875 248.675781 C 408.171875 248.027344 407.980469 247.367188 407.597656 246.789062 C 406.550781 245.195312 404.402344 244.765625 402.828125 245.828125 "/>
<path style=" stroke:none;fill-rule:nonzero;fill:rgb(38.819885%,18.03894%,21.569824%);fill-opacity:1;" d="M 280.523438 457.894531 L 274.476562 453.875 L 221.769531 418.824219 C 220.1875 417.761719 218.050781 418.191406 216.992188 419.773438 C 215.945312 421.359375 216.375 423.492188 217.957031 424.550781 L 262.050781 453.875 L 276.707031 463.621094 C 277.296875 464.007812 277.960938 464.203125 278.621094 464.203125 C 279.738281 464.203125 280.824219 463.660156 281.484375 462.660156 C 281.871094 462.078125 282.066406 461.421875 282.066406 460.761719 C 282.066406 459.644531 281.527344 458.558594 280.523438 457.894531 "/>
<path style=" stroke:none;fill-rule:nonzero;fill:rgb(38.819885%,18.03894%,21.569824%);fill-opacity:1;" d="M 681.902344 605.089844 C 681.902344 601.601562 684.730469 598.777344 688.21875 598.777344 L 697.101562 598.777344 C 700.59375 598.777344 703.417969 601.601562 703.417969 605.089844 L 703.417969 631.734375 C 703.417969 635.214844 700.59375 638.042969 697.101562 638.042969 L 688.21875 638.042969 C 684.730469 638.042969 681.902344 635.214844 681.902344 631.734375 Z M 681.902344 560.214844 C 681.902344 556.730469 684.730469 553.902344 688.21875 553.902344 L 697.101562 553.902344 C 700.59375 553.902344 703.417969 556.730469 703.417969 560.214844 L 703.417969 586.855469 C 703.417969 590.34375 700.59375 593.167969 697.101562 593.167969 L 688.21875 593.167969 C 684.730469 593.167969 681.902344 590.34375 681.902344 586.855469 Z M 709.734375 659.542969 C 712.1875 659.542969 714.175781 657.554688 714.175781 655.105469 L 714.175781 536.839844 C 714.175781 534.390625 712.1875 532.402344 709.734375 532.402344 L 548.363281 532.402344 C 545.90625 532.402344 543.917969 534.390625 543.917969 536.839844 L 543.917969 655.105469 C 543.917969 657.554688 545.90625 659.542969 548.363281 659.542969 L 709.734375 659.542969 "/>
<path style=" stroke:none;fill-rule:nonzero;fill:rgb(38.819885%,18.03894%,21.569824%);fill-opacity:1;" d="M 241.574219 114.519531 C 230.882812 114.519531 222.210938 123.183594 222.210938 133.867188 L 222.210938 150.160156 C 222.210938 160.84375 230.882812 169.507812 241.574219 169.507812 L 319.390625 169.507812 C 330.082031 169.507812 338.746094 160.84375 338.746094 150.160156 L 338.746094 133.867188 C 338.746094 123.183594 330.082031 114.519531 319.390625 114.519531 L 241.574219 114.519531 "/>
<path style=" stroke:none;fill-rule:nonzero;fill:rgb(38.819885%,18.03894%,21.569824%);fill-opacity:1;" d="M 412.277344 128.128906 L 412.277344 118.738281 C 412.277344 116.410156 410.390625 114.519531 408.058594 114.519531 L 363.398438 114.519531 C 361.066406 114.519531 359.175781 116.410156 359.175781 118.738281 L 359.175781 128.128906 C 359.175781 135.796875 365.398438 142.015625 373.070312 142.015625 L 398.386719 142.015625 C 406.058594 142.015625 412.277344 135.796875 412.277344 128.128906 "/>
<path style=" stroke:none;fill-rule:nonzero;fill:rgb(38.819885%,18.03894%,21.569824%);fill-opacity:1;" d="M 159.867188 134.386719 L 159.867188 122.152344 C 159.867188 117.9375 156.445312 114.519531 152.230469 114.519531 L 108.242188 114.519531 C 104.023438 114.519531 100.609375 117.9375 100.609375 122.152344 L 100.609375 134.386719 C 100.609375 138.597656 104.023438 142.015625 108.242188 142.015625 L 152.230469 142.015625 C 156.445312 142.015625 159.867188 138.597656 159.867188 134.386719 "/>
<path style=" stroke:none;fill-rule:nonzero;fill:rgb(38.819885%,18.03894%,21.569824%);fill-opacity:1;" d="M 370.289062 517.910156 L 246.347656 517.910156 C 239.9375 517.910156 234.742188 523.105469 234.742188 529.511719 L 234.742188 592.316406 C 234.742188 598.722656 239.9375 603.917969 246.347656 603.917969 L 370.289062 603.917969 C 376.699219 603.917969 381.902344 598.722656 381.902344 592.316406 L 381.902344 529.511719 C 381.902344 523.105469 376.699219 517.910156 370.289062 517.910156 "/>
<path style=" stroke:none;fill-rule:nonzero;fill:rgb(38.819885%,18.03894%,21.569824%);fill-opacity:1;" d="M 114.0625 560.917969 L 97.21875 560.917969 C 92.183594 560.917969 87.863281 557.855469 86.015625 553.492188 L 86.015625 716.078125 L 413.027344 716.078125 L 413.027344 666.550781 L 135.574219 666.550781 L 135.574219 475.867188 L 86.015625 475.867188 L 86.015625 509.277344 C 87.863281 504.914062 92.183594 501.855469 97.21875 501.855469 L 114.0625 501.855469 C 120.777344 501.855469 126.222656 507.292969 126.222656 514.007812 L 126.222656 548.761719 C 126.222656 555.472656 120.777344 560.917969 114.0625 560.917969 "/>
<path style=" stroke:none;fill-rule:nonzero;fill:rgb(38.819885%,18.03894%,21.569824%);fill-opacity:1;" d="M 108.242188 150.242188 C 108.023438 150.242188 107.808594 150.21875 107.59375 150.207031 L 107.59375 180.332031 C 107.59375 190.53125 115.863281 198.792969 126.066406 198.792969 L 134.410156 198.792969 C 144.609375 198.792969 152.882812 190.53125 152.882812 180.332031 L 152.882812 150.207031 C 152.667969 150.21875 152.453125 150.242188 152.230469 150.242188 L 108.242188 150.242188 "/>
<g clip-path="url(#clip2)" clip-rule="nonzero">
<path style=" stroke:none;fill-rule:nonzero;fill:rgb(10.198975%,30.589294%,27.059937%);fill-opacity:1;" d="M 687.351562 101.9375 L 687.351562 92.609375 L 673.578125 92.609375 L 673.578125 125.03125 L 687.351562 125.03125 L 687.351562 115.703125 L 752.066406 115.703125 L 752.066406 463.195312 L 535.171875 463.195312 L 535.171875 453.863281 L 521.398438 453.863281 L 521.398438 486.292969 L 535.171875 486.292969 L 535.171875 476.957031 L 752.066406 476.957031 L 752.066406 733.621094 L 445.527344 733.621094 L 445.527344 447.273438 L 454.867188 447.273438 L 454.867188 433.507812 L 422.421875 433.507812 L 422.421875 447.273438 L 431.757812 447.273438 L 431.757812 463.195312 L 306.429688 463.195312 L 306.429688 453.863281 L 292.660156 453.863281 L 292.660156 486.292969 L 306.429688 486.292969 L 306.429688 476.957031 L 431.757812 476.957031 L 431.757812 733.621094 L 88.285156 733.621094 L 88.285156 476.957031 L 201.417969 476.957031 L 201.417969 486.292969 L 215.191406 486.292969 L 215.191406 453.863281 L 201.417969 453.863281 L 201.417969 463.195312 L 88.285156 463.195312 L 88.285156 264.890625 L 91.933594 264.890625 L 91.933594 274.222656 L 105.707031 274.222656 L 105.707031 262.132812 L 109.839844 264.890625 L 162.554688 299.945312 C 163.148438 300.339844 163.808594 300.519531 164.453125 300.519531 C 165.570312 300.519531 166.671875 299.984375 167.335938 298.992188 C 168.382812 297.410156 167.957031 295.277344 166.371094 294.214844 L 122.261719 264.890625 L 107.605469 255.148438 C 107.027344 254.746094 106.351562 254.566406 105.707031 254.566406 L 105.707031 241.796875 L 91.933594 241.796875 L 91.933594 251.128906 L 88.285156 251.128906 L 88.285156 115.703125 L 197.632812 115.703125 L 197.632812 251.128906 L 190.058594 251.128906 L 190.058594 241.796875 L 176.289062 241.796875 L 176.289062 274.222656 L 190.058594 274.222656 L 190.058594 264.890625 L 330.878906 264.890625 L 330.878906 274.222656 L 344.652344 274.222656 L 344.652344 241.796875 L 330.878906 241.796875 L 330.878906 251.128906 L 211.40625 251.128906 L 211.40625 115.703125 L 431.757812 115.703125 L 431.757812 241.796875 L 418.785156 241.796875 L 418.785156 274.222656 L 431.757812 274.222656 L 431.757812 341.300781 L 422.421875 341.300781 L 422.421875 355.0625 L 454.867188 355.0625 L 454.867188 341.300781 L 445.527344 341.300781 L 445.527344 115.703125 L 514.511719 115.703125 L 514.511719 364.023438 L 505.175781 364.023438 L 505.175781 377.785156 L 537.621094 377.785156 L 537.621094 364.023438 L 528.285156 364.023438 L 528.285156 115.703125 L 581.996094 115.703125 L 581.996094 125.03125 L 595.769531 125.03125 L 595.769531 92.609375 L 581.996094 92.609375 L 581.996094 101.9375 L 74.511719 101.9375 L 74.511719 747.382812 L 765.839844 747.382812 L 765.839844 101.9375 L 687.351562 101.9375 "/>
</g>
<path style=" stroke:none;fill-rule:nonzero;fill:rgb(10.198975%,30.589294%,27.059937%);fill-opacity:1;" d="M 597.339844 111.683594 L 603.382812 115.703125 L 656.085938 150.753906 C 656.679688 151.152344 657.34375 151.332031 658.003906 151.332031 C 659.105469 151.332031 660.207031 150.792969 660.867188 149.804688 C 661.914062 148.222656 661.488281 146.085938 659.90625 145.027344 L 615.804688 115.703125 L 601.152344 105.953125 C 599.570312 104.910156 597.421875 105.335938 596.375 106.917969 C 595.988281 107.5 595.792969 108.15625 595.792969 108.820312 C 595.792969 109.933594 596.332031 111.019531 597.339844 111.683594 "/>
<path style=" stroke:none;fill-rule:nonzero;fill:rgb(10.198975%,30.589294%,27.059937%);fill-opacity:1;" d="M 474.875 369.003906 L 445.527344 413.074219 L 435.777344 427.714844 C 434.722656 429.296875 435.160156 431.433594 436.742188 432.492188 C 437.320312 432.878906 437.980469 433.066406 438.644531 433.066406 C 439.757812 433.066406 440.847656 432.53125 441.507812 431.53125 L 445.527344 425.488281 L 480.605469 372.816406 C 481.664062 371.234375 481.238281 369.089844 479.65625 368.042969 C 478.070312 366.996094 475.9375 367.421875 474.875 369.003906 "/>
<path style=" stroke:none;fill-rule:nonzero;fill:rgb(10.198975%,30.589294%,27.059937%);fill-opacity:1;" d="M 413.328125 255.148438 L 398.675781 264.890625 L 354.566406 294.214844 C 352.980469 295.277344 352.554688 297.410156 353.601562 298.992188 C 354.261719 299.984375 355.363281 300.519531 356.480469 300.519531 C 357.125 300.519531 357.789062 300.339844 358.378906 299.945312 L 411.082031 264.890625 L 417.132812 260.871094 C 418.136719 260.207031 418.671875 259.109375 418.671875 257.992188 C 418.671875 257.347656 418.480469 256.683594 418.097656 256.105469 C 417.050781 254.511719 414.902344 254.082031 413.328125 255.148438 "/>
<path style=" stroke:none;fill-rule:nonzero;fill:rgb(10.198975%,30.589294%,27.059937%);fill-opacity:1;" d="M 291.023438 467.214844 L 284.976562 463.195312 L 232.269531 428.140625 C 230.6875 427.082031 228.550781 427.511719 227.492188 429.09375 C 226.445312 430.675781 226.875 432.808594 228.457031 433.867188 L 272.550781 463.195312 L 287.207031 472.9375 C 287.796875 473.328125 288.460938 473.519531 289.121094 473.519531 C 290.238281 473.519531 291.324219 472.980469 291.984375 471.976562 C 292.371094 471.398438 292.566406 470.738281 292.566406 470.082031 C 292.566406 468.964844 292.027344 467.875 291.023438 467.214844 "/>
<path style=" stroke:none;fill-rule:nonzero;fill:rgb(10.198975%,30.589294%,27.059937%);fill-opacity:1;" d="M 692.402344 614.40625 C 692.402344 610.917969 695.230469 608.09375 698.71875 608.09375 L 707.601562 608.09375 C 711.09375 608.09375 713.917969 610.917969 713.917969 614.40625 L 713.917969 641.050781 C 713.917969 644.535156 711.09375 647.359375 707.601562 647.359375 L 698.71875 647.359375 C 695.230469 647.359375 692.402344 644.535156 692.402344 641.050781 Z M 692.402344 569.53125 C 692.402344 566.046875 695.230469 563.222656 698.71875 563.222656 L 707.601562 563.222656 C 711.09375 563.222656 713.917969 566.046875 713.917969 569.53125 L 713.917969 596.175781 C 713.917969 599.664062 711.09375 602.488281 707.601562 602.488281 L 698.71875 602.488281 C 695.230469 602.488281 692.402344 599.664062 692.402344 596.175781 Z M 720.234375 668.859375 C 722.6875 668.859375 724.675781 666.871094 724.675781 664.421875 L 724.675781 546.160156 C 724.675781 543.710938 722.6875 541.71875 720.234375 541.71875 L 558.863281 541.71875 C 556.40625 541.71875 554.417969 543.710938 554.417969 546.160156 L 554.417969 664.421875 C 554.417969 666.871094 556.40625 668.859375 558.863281 668.859375 L 720.234375 668.859375 "/>
<path style=" stroke:none;fill-rule:nonzero;fill:rgb(10.198975%,30.589294%,27.059937%);fill-opacity:1;" d="M 252.074219 123.839844 C 241.382812 123.839844 232.710938 132.5 232.710938 143.183594 L 232.710938 159.476562 C 232.710938 170.164062 241.382812 178.828125 252.074219 178.828125 L 329.890625 178.828125 C 340.582031 178.828125 349.246094 170.164062 349.246094 159.476562 L 349.246094 143.183594 C 349.246094 132.5 340.582031 123.839844 329.890625 123.839844 L 252.074219 123.839844 "/>
<path style=" stroke:none;fill-rule:nonzero;fill:rgb(10.198975%,30.589294%,27.059937%);fill-opacity:1;" d="M 422.777344 137.445312 L 422.777344 128.054688 C 422.777344 125.726562 420.890625 123.839844 418.558594 123.839844 L 373.898438 123.839844 C 371.566406 123.839844 369.675781 125.726562 369.675781 128.054688 L 369.675781 137.445312 C 369.675781 145.113281 375.898438 151.332031 383.570312 151.332031 L 408.886719 151.332031 C 416.558594 151.332031 422.777344 145.113281 422.777344 137.445312 "/>
<path style=" stroke:none;fill-rule:nonzero;fill:rgb(10.198975%,30.589294%,27.059937%);fill-opacity:1;" d="M 170.367188 143.703125 L 170.367188 131.46875 C 170.367188 127.253906 166.945312 123.839844 162.730469 123.839844 L 118.742188 123.839844 C 114.523438 123.839844 111.109375 127.253906 111.109375 131.46875 L 111.109375 143.703125 C 111.109375 147.914062 114.523438 151.332031 118.742188 151.332031 L 162.730469 151.332031 C 166.945312 151.332031 170.367188 147.914062 170.367188 143.703125 "/>
<path style=" stroke:none;fill-rule:nonzero;fill:rgb(10.198975%,30.589294%,27.059937%);fill-opacity:1;" d="M 380.789062 527.226562 L 256.847656 527.226562 C 250.4375 527.226562 245.242188 532.425781 245.242188 538.832031 L 245.242188 601.632812 C 245.242188 608.039062 250.4375 613.238281 256.847656 613.238281 L 380.789062 613.238281 C 387.199219 613.238281 392.402344 608.039062 392.402344 601.632812 L 392.402344 538.832031 C 392.402344 532.425781 387.199219 527.226562 380.789062 527.226562 "/>
<path style=" stroke:none;fill-rule:nonzero;fill:rgb(10.198975%,30.589294%,27.059937%);fill-opacity:1;" d="M 124.5625 570.234375 L 107.71875 570.234375 C 102.683594 570.234375 98.363281 567.171875 96.515625 562.808594 L 96.515625 725.394531 L 423.527344 725.394531 L 423.527344 675.867188 L 146.074219 675.867188 L 146.074219 485.183594 L 96.515625 485.183594 L 96.515625 518.59375 C 98.363281 514.234375 102.683594 511.175781 107.71875 511.175781 L 124.5625 511.175781 C 131.277344 511.175781 136.722656 516.613281 136.722656 523.328125 L 136.722656 558.078125 C 136.722656 564.792969 131.277344 570.234375 124.5625 570.234375 "/>
<path style=" stroke:none;fill-rule:nonzero;fill:rgb(10.198975%,30.589294%,27.059937%);fill-opacity:1;" d="M 118.742188 159.558594 C 118.523438 159.558594 118.308594 159.535156 118.09375 159.523438 L 118.09375 189.648438 C 118.09375 199.847656 126.363281 208.113281 136.566406 208.113281 L 144.910156 208.113281 C 155.109375 208.113281 163.382812 199.847656 163.382812 189.648438 L 163.382812 159.523438 C 163.167969 159.535156 162.953125 159.558594 162.730469 159.558594 L 118.742188 159.558594 "/>
</g>
</svg>
