<?xml version="1.0" encoding="UTF-8"?>
<svg xmlns="http://www.w3.org/2000/svg" xmlns:xlink="http://www.w3.org/1999/xlink" width="810pt" height="809.999993pt" viewBox="0 0 810 809.999993" version="1.2">
<defs>
<clipPath id="clip1">
  <path d="M 108 118 L 702 118 L 702 783.65625 L 108 783.65625 Z M 108 118 "/>
</clipPath>
<clipPath id="clip2">
  <path d="M 39.984375 26.15625 L 769.734375 26.15625 L 769.734375 422 L 39.984375 422 Z M 39.984375 26.15625 "/>
</clipPath>
<clipPath id="clip3">
  <path d="M 449 475 L 632 475 L 632 783.65625 L 449 783.65625 Z M 449 475 "/>
</clipPath>
<clipPath id="clip4">
  <path d="M 467 492 L 615 492 L 615 783.65625 L 467 783.65625 Z M 467 492 "/>
</clipPath>
</defs>
<g id="surface1">
<g clip-path="url(#clip1)" clip-rule="nonzero">
<path style=" stroke:none;fill-rule:nonzero;fill:rgb(79.219055%,84.709167%,83.918762%);fill-opacity:1;" d="M 108.113281 416.980469 L 405.460938 118.378906 L 701.777344 416.980469 L 701.777344 783.207031 L 108.113281 783.207031 Z M 108.113281 416.980469 "/>
</g>
<g clip-path="url(#clip2)" clip-rule="nonzero">
<path style=" stroke:none;fill-rule:nonzero;fill:rgb(38.819885%,18.03894%,21.569824%);fill-opacity:1;" d="M 695.222656 317.101562 L 695.222656 83.878906 L 571.386719 83.878906 L 571.386719 193.246094 L 404.773438 26.605469 L 404.601562 26.78125 L 404.425781 26.605469 L 39.984375 391.105469 L 69.820312 421.121094 L 404.945312 83.878906 L 740.066406 421.121094 L 769.734375 391.625 Z M 695.222656 317.101562 "/>
</g>
<path style=" stroke:none;fill-rule:nonzero;fill:rgb(38.819885%,18.03894%,21.569824%);fill-opacity:1;" d="M 506.535156 363.160156 C 504.980469 307.960938 460.136719 263.625 404.773438 263.625 C 349.578125 263.625 304.5625 307.960938 303.011719 363.160156 L 303.011719 378.6875 L 506.535156 378.6875 Z M 506.535156 363.160156 "/>
<path style=" stroke:none;fill-rule:nonzero;fill:rgb(58.039856%,69.40918%,67.449951%);fill-opacity:1;" d="M 320.601562 361.4375 C 321.636719 340.046875 330.78125 320.035156 345.957031 305.027344 C 361.824219 289.503906 382.695312 280.878906 404.945312 280.878906 C 427.023438 280.878906 448.0625 289.503906 463.933594 305.027344 C 479.28125 320.035156 488.25 340.046875 489.285156 361.4375 Z M 320.601562 361.4375 "/>
<g clip-path="url(#clip3)" clip-rule="nonzero">
<path style=" stroke:none;fill-rule:nonzero;fill:rgb(38.819885%,18.03894%,21.569824%);fill-opacity:1;" d="M 449.789062 475.289062 L 631.75 475.289062 L 631.75 783.207031 L 449.789062 783.207031 Z M 449.789062 475.289062 "/>
</g>
<g clip-path="url(#clip4)" clip-rule="nonzero">
<path style=" stroke:none;fill-rule:nonzero;fill:rgb(58.039856%,69.40918%,67.449951%);fill-opacity:1;" d="M 467.035156 492.539062 L 614.503906 492.539062 L 614.503906 783.207031 L 467.035156 783.207031 Z M 467.035156 492.539062 "/>
</g>
<path style=" stroke:none;fill-rule:nonzero;fill:rgb(38.819885%,18.03894%,21.569824%);fill-opacity:1;" d="M 383.863281 681.128906 L 178.097656 681.128906 L 178.097656 475.332031 L 383.863281 475.332031 Z M 383.863281 681.128906 "/>
<path style=" stroke:none;fill-rule:nonzero;fill:rgb(58.039856%,69.40918%,67.449951%);fill-opacity:1;" d="M 195.257812 663.921875 L 195.257812 492.625 L 366.527344 492.625 L 366.527344 663.921875 Z M 195.257812 663.921875 "/>
<path style=" stroke:none;fill-rule:nonzero;fill:rgb(38.819885%,18.03894%,21.569824%);fill-opacity:1;" d="M 373.726562 568.269531 L 289.558594 568.269531 L 289.558594 484.085938 L 272.308594 484.085938 L 272.308594 568.269531 L 188.140625 568.269531 L 188.140625 585.519531 L 272.308594 585.519531 L 272.308594 669.871094 L 289.558594 669.871094 L 289.558594 585.519531 L 373.726562 585.519531 Z M 373.726562 568.269531 "/>
<path style=" stroke:none;fill-rule:nonzero;fill:rgb(10.198975%,30.589294%,27.059937%);fill-opacity:1;" d="M 536.542969 601.734375 L 540.855469 606.046875 L 545.167969 601.734375 C 551.378906 595.695312 561.207031 595.695312 567.246094 601.90625 C 573.28125 608.117188 573.28125 617.949219 567.074219 623.984375 L 540.511719 650.207031 L 514.296875 623.640625 C 508.257812 617.429688 508.257812 607.597656 514.46875 601.5625 C 520.675781 595.523438 530.507812 595.523438 536.542969 601.734375 Z M 536.542969 601.734375 "/>
<path style=" stroke:none;fill-rule:nonzero;fill:rgb(38.819885%,18.03894%,21.569824%);fill-opacity:1;" d="M 396.320312 272.078125 L 413.570312 272.078125 L 413.570312 366.4375 L 396.320312 366.4375 Z M 396.320312 272.078125 "/>
</g>
</svg>
