<?xml version="1.0" encoding="UTF-8"?>
<svg xmlns="http://www.w3.org/2000/svg" xmlns:xlink="http://www.w3.org/1999/xlink" width="810pt" height="809.999993pt" viewBox="0 0 810 809.999993" version="1.2">
<defs>
<clipPath id="clip1">
  <path d="M 134.476562 70.996094 L 675.199219 70.996094 L 675.199219 739.238281 L 134.476562 739.238281 Z M 134.476562 70.996094 "/>
</clipPath>
</defs>
<g id="surface1">
<path style=" stroke:none;fill-rule:evenodd;fill:rgb(10.198975%,30.589294%,27.059937%);fill-opacity:1;" d="M 596.347656 184.222656 C 590.394531 182.234375 591.277344 173.65625 586.617188 170.417969 C 583.5 172.441406 576.328125 181.390625 573.867188 172.910156 C 582.519531 169.5 586.660156 160.898438 593.894531 169.644531 C 595.949219 172.132812 599.566406 179.582031 596.347656 184.222656 "/>
<path style=" stroke:none;fill-rule:evenodd;fill:rgb(10.198975%,30.589294%,27.059937%);fill-opacity:1;" d="M 522.828125 184.699219 C 524.140625 192.40625 507.007812 190.210938 507.429688 183.507812 C 511.726562 181.484375 515.972656 186.308594 522.828125 184.699219 "/>
<path style=" stroke:none;fill-rule:evenodd;fill:rgb(10.198975%,30.589294%,27.059937%);fill-opacity:1;" d="M 584.324219 196.726562 C 578.226562 196.960938 574.246094 195.140625 569.859375 193.734375 C 570.089844 185.476562 583.1875 192.296875 584.324219 196.726562 "/>
<path style=" stroke:none;fill-rule:evenodd;fill:rgb(79.219055%,84.709167%,83.918762%);fill-opacity:1;" d="M 445.082031 218.707031 C 448.703125 219.96875 447.53125 225.851562 447.585938 230.558594 C 441.308594 230.796875 440.914062 221.039062 445.082031 218.707031 "/>
<path style=" stroke:none;fill-rule:evenodd;fill:rgb(10.198975%,30.589294%,27.059937%);fill-opacity:1;" d="M 543.894531 274.101562 C 557.179688 273.207031 546.773438 252.992188 549.914062 242.414062 C 546.207031 237.328125 537.28125 242.761719 537.359375 234.011719 C 542.066406 232.414062 548.949219 235.726562 553.640625 237.035156 C 553.367188 249.71875 556.5625 263.824219 554.742188 276.117188 C 548.976562 276.605469 546.707031 280.722656 540.144531 280.390625 C 539.539062 263.40625 536.859375 249.867188 535.464844 238.527344 C 536.070312 238.535156 536.675781 238.542969 537.28125 238.554688 C 544.132812 245.917969 541.472656 262.460938 543.894531 274.101562 "/>
<path style=" stroke:none;fill-rule:evenodd;fill:rgb(10.198975%,30.589294%,27.059937%);fill-opacity:1;" d="M 601.988281 273.34375 C 598.957031 272.199219 594.707031 273.972656 590.222656 271.3125 C 590.238281 270.402344 590.261719 269.5 590.277344 268.589844 C 593.664062 268.320312 603.160156 265.3125 601.988281 273.34375 "/>
<path style=" stroke:none;fill-rule:evenodd;fill:rgb(79.219055%,84.709167%,83.918762%);fill-opacity:1;" d="M 417.433594 291.78125 C 425.5 290.535156 426.480469 296.132812 429.078125 300.164062 C 424 300.132812 420.535156 301.789062 417.21875 303.582031 C 415.730469 299.015625 415.464844 296.019531 417.433594 291.78125 "/>
<path style=" stroke:none;fill-rule:evenodd;fill:rgb(10.198975%,30.589294%,27.059937%);fill-opacity:1;" d="M 450.589844 315.089844 C 453.199219 325.027344 456.472656 338.183594 453.570312 350.574219 C 449.886719 352.917969 444.699219 353.699219 438.097656 353.015625 C 437.03125 341.902344 432.195312 325.742188 435.132812 316.625 C 441.304688 318.375 438.640625 328.386719 439.335938 334.871094 C 439.835938 339.574219 441.769531 343.65625 440.921875 347.617188 C 455.625 352.40625 449.117188 330.355469 447.75 321.398438 C 446.375 317.667969 440.269531 318.507812 438.792969 314.878906 C 438.664062 313.820312 439.023438 313.265625 439.734375 313.078125 C 443.046875 310.980469 446.21875 315.371094 450.589844 315.089844 "/>
<path style=" stroke:none;fill-rule:evenodd;fill:rgb(10.198975%,30.589294%,27.059937%);fill-opacity:1;" d="M 550.914062 386.863281 C 545.035156 386.15625 541.472656 387.949219 537.308594 386.617188 C 538.515625 371.941406 537.628906 360.34375 536.222656 346.628906 C 546.71875 349.878906 540.132812 369.613281 541.941406 381.253906 C 543.378906 381.347656 545.410156 380.878906 545.550781 382.230469 C 552.136719 373.175781 545.457031 356.316406 542.585938 345.835938 C 543.335938 345.070312 545.082031 345.347656 545.347656 344.070312 C 553.367188 351.386719 554.597656 374.109375 550.914062 386.863281 "/>
<path style=" stroke:none;fill-rule:evenodd;fill:rgb(10.198975%,30.589294%,27.059937%);fill-opacity:1;" d="M 591.476562 352.175781 C 598.628906 353.539062 605.808594 349.519531 605.890625 357.890625 C 602.457031 358.597656 592.300781 358.859375 591.476562 352.175781 "/>
<path style=" stroke:none;fill-rule:evenodd;fill:rgb(10.198975%,30.589294%,27.059937%);fill-opacity:1;" d="M 517.449219 380.800781 C 516.980469 386.796875 508.179688 384.136719 503.746094 386 C 503.203125 392.113281 505.5 393.683594 503.527344 397.8125 C 502.015625 397.78125 500.5 397.75 498.992188 397.726562 C 499.0625 393.789062 499.136719 389.859375 499.207031 385.917969 C 494.457031 382.214844 488.007812 387.875 485.578125 386.582031 C 486.289062 373.53125 507.789062 385.695312 517.449219 380.800781 "/>
<path style=" stroke:none;fill-rule:evenodd;fill:rgb(10.198975%,30.589294%,27.059937%);fill-opacity:1;" d="M 422.609375 456.285156 C 426.199219 457.144531 427.148438 457.160156 430.769531 456.433594 C 430.183594 447.738281 431.421875 438.605469 426.730469 429.105469 C 425.519531 429.089844 424.308594 429.066406 423.101562 429.042969 C 419.703125 435.546875 422.789062 445.726562 422.609375 456.285156 M 431.34375 424.652344 C 433.113281 437.113281 437.285156 447.578125 435.261719 459.238281 C 432.742188 462.488281 426.542969 461.914062 420.691406 461.703125 C 416.8125 450.878906 418.378906 434.785156 414.113281 424.335938 C 420.222656 423.523438 424.183594 423.574219 431.34375 424.652344 "/>
<path style=" stroke:none;fill-rule:evenodd;fill:rgb(38.819885%,18.03894%,21.569824%);fill-opacity:1;" d="M 423.101562 429.042969 C 424.308594 429.066406 425.519531 429.089844 426.730469 429.105469 C 431.421875 438.605469 430.1875 447.738281 430.769531 456.433594 C 427.148438 457.160156 426.199219 457.144531 422.609375 456.285156 C 422.789062 445.726562 419.703125 435.546875 423.101562 429.042969 "/>
<path style=" stroke:none;fill-rule:evenodd;fill:rgb(10.198975%,30.589294%,27.059937%);fill-opacity:1;" d="M 550.78125 444.089844 C 555.515625 442.289062 554.75 448.015625 557.925781 450.582031 C 565.308594 456.53125 571.167969 452.898438 567.675781 463.472656 C 566.460938 463.449219 565.253906 463.425781 564.039062 463.40625 C 562.710938 460.765625 564.121094 460.566406 563.25 457.035156 C 557.632812 454.132812 552.613281 450.648438 550.78125 444.089844 "/>
<path style=" stroke:none;fill-rule:evenodd;fill:rgb(10.198975%,30.589294%,27.059937%);fill-opacity:1;" d="M 539.8125 448.429688 C 533.636719 454.890625 513.550781 456.273438 502.550781 451.386719 C 503.730469 445.761719 512.734375 451.03125 516.164062 451.628906 C 523.65625 450.160156 530.40625 447.917969 539.8125 448.429688 "/>
<path style=" stroke:none;fill-rule:evenodd;fill:rgb(10.198975%,30.589294%,27.059937%);fill-opacity:1;" d="M 540.386719 516.566406 C 543.109375 516.621094 545.832031 516.664062 548.550781 516.714844 C 549.800781 503.558594 545.832031 495.304688 544.644531 482.128906 C 542.511719 482.101562 542.003906 480.511719 539.21875 481.121094 C 537.917969 490.625 541.472656 503.035156 540.386719 516.566406 M 553.023438 520.433594 C 545.476562 519.289062 542.707031 522.820312 537.570312 521.964844 C 535.339844 508.730469 535.679688 490.300781 533.839844 477.390625 C 537.867188 475.542969 543.609375 474.898438 548.355469 477.652344 C 549.867188 492.355469 555.726562 506.578125 553.023438 520.433594 "/>
<path style=" stroke:none;fill-rule:evenodd;fill:rgb(38.819885%,18.03894%,21.569824%);fill-opacity:1;" d="M 539.21875 481.121094 C 542.003906 480.511719 542.511719 482.101562 544.640625 482.128906 C 545.832031 495.304688 549.800781 503.558594 548.550781 516.714844 C 545.832031 516.664062 543.109375 516.621094 540.386719 516.566406 C 541.472656 503.035156 537.917969 490.625 539.21875 481.121094 "/>
<path style=" stroke:none;fill-rule:evenodd;fill:rgb(10.198975%,30.589294%,27.059937%);fill-opacity:1;" d="M 435.488281 496.488281 C 436.398438 501.445312 432.320312 501.214844 432.601562 505.519531 C 439.0625 507.898438 445.777344 502.554688 454.40625 504.101562 C 453.992188 506.28125 456.027344 506.101562 455.230469 508.660156 C 451.558594 511.585938 446.113281 506.695312 439.792969 509.289062 C 436.097656 509.796875 436.257812 519.148438 431.511719 515.492188 C 427.03125 515.097656 432.304688 513.125 431.59375 510.953125 C 413.863281 511.59375 402.6875 517.988281 384.335938 514.632812 C 385.136719 512.074219 383.101562 512.25 383.515625 510.070312 C 395.113281 513.605469 414.253906 509.746094 426.214844 507.21875 C 429.03125 501.847656 429.019531 494.863281 435.488281 496.488281 "/>
<path style=" stroke:none;fill-rule:evenodd;fill:rgb(10.198975%,30.589294%,27.059937%);fill-opacity:1;" d="M 544.988281 562.976562 C 545.78125 563.691406 547.019531 563.988281 548.601562 563.949219 C 549.488281 567.664062 548.269531 568.246094 548.433594 573.035156 C 555.355469 574.667969 555.578125 569.347656 559.421875 567.777344 C 564.316406 568.714844 560.695312 573.84375 560.160156 576.878906 C 550.011719 578.042969 539.058594 579.359375 529.285156 578.132812 C 528.296875 585.136719 531.339844 587.949219 528.148438 590.832031 C 521.671875 589.007812 526.816406 583.214844 526.527344 579.902344 C 516.457031 577.167969 503.449219 584.296875 492.933594 581.105469 C 492.941406 580.5 492.953125 579.890625 492.964844 579.285156 C 509.363281 575.203125 524.890625 575.117188 542.972656 573.84375 C 544.355469 572.394531 543.117188 566.25 544.988281 562.976562 "/>
<path style=" stroke:none;fill-rule:evenodd;fill:rgb(10.198975%,30.589294%,27.059937%);fill-opacity:1;" d="M 403.453125 561.304688 C 406.851562 561.292969 406.484375 564.925781 406.964844 567.730469 C 420.464844 568.585938 437.074219 561.636719 442.28125 572.003906 C 419.835938 566.703125 391.308594 577.871094 370.59375 571.601562 C 377.503906 567.351562 390.351562 570.054688 399.691406 568.507812 C 401.535156 566.71875 401.390625 562.863281 403.453125 561.304688 "/>
<path style=" stroke:none;fill-rule:evenodd;fill:rgb(10.198975%,30.589294%,27.059937%);fill-opacity:1;" d="M 424.085938 574.394531 C 424.164062 576.636719 424.148438 578.777344 423.082031 579.832031 C 414.738281 580.773438 418.714844 570.824219 424.085938 574.394531 "/>
<path style=" stroke:none;fill-rule:evenodd;fill:rgb(38.819885%,18.03894%,21.569824%);fill-opacity:1;" d="M 511.121094 678.628906 C 516.171875 673.734375 516.414062 666.128906 514.1875 659.609375 C 502.828125 657.082031 499.703125 678.34375 511.121094 678.628906 M 514.714844 630.550781 C 521.792969 653.519531 522.769531 681.511719 525.15625 705.230469 C 517.488281 703.375 508.832031 702.066406 502.460938 705.722656 C 490.800781 698.835938 487.382812 684 479.449219 673.507812 C 467.691406 677.984375 466.417969 698.175781 455.371094 700.320312 C 456.539062 676.128906 449.464844 653.769531 460.203125 634.097656 C 476.214844 629.671875 497.851562 629.253906 514.714844 630.550781 "/>
<path style=" stroke:none;fill-rule:evenodd;fill:rgb(10.198975%,30.589294%,27.059937%);fill-opacity:1;" d="M 573.5 641.617188 C 576.105469 646.582031 573.261719 651.320312 575.035156 657.085938 C 580.820312 657.535156 584.878906 654.617188 590.472656 656.464844 C 589.195312 661.253906 583.84375 660.382812 579.523438 659.890625 C 577.238281 661.617188 583.195312 667.550781 578.449219 668.953125 C 575.289062 668.140625 574.835938 664.710938 574.96875 660.71875 C 568.660156 660.121094 549.566406 670.890625 552.339844 657.578125 C 556.417969 660.730469 564.933594 657.347656 569.558594 658.800781 C 573.355469 652.253906 563.632812 642.496094 573.5 641.617188 "/>
<path style=" stroke:none;fill-rule:evenodd;fill:rgb(10.198975%,30.589294%,27.059937%);fill-opacity:1;" d="M 401.980469 642.117188 C 402.585938 642.136719 403.191406 642.140625 403.796875 642.15625 C 408.324219 643.335938 407.675781 647.179688 408.183594 650.410156 C 414.796875 650.566406 422.726562 649.457031 421.679688 657.007812 C 414.027344 656.273438 403.800781 655.164062 396.273438 656.550781 C 394.886719 660.972656 396.878906 668.898438 392.398438 670.105469 C 391.105469 665.429688 391.164062 660.300781 393.535156 657.410156 C 389.519531 656.828125 382.855469 658.796875 382.703125 654.488281 C 387.074219 649.910156 395.746094 655.503906 400.894531 652.097656 C 403.53125 649.945312 402.648438 645.570312 401.980469 642.117188 "/>
<path style=" stroke:none;fill-rule:evenodd;fill:rgb(38.819885%,18.03894%,21.569824%);fill-opacity:1;" d="M 318.867188 671.492188 C 309.386719 666.757812 300.101562 674.886719 294.34375 672.863281 C 294.328125 669.28125 295.273438 665.539062 291.820312 661.910156 C 290.714844 649.613281 311.011719 643.972656 314.660156 653.246094 C 312.105469 663.144531 319.863281 663.09375 318.867188 671.492188 "/>
<path style=" stroke:none;fill-rule:evenodd;fill:rgb(79.219055%,84.709167%,83.918762%);fill-opacity:1;" d="M 256.75 693.972656 C 249.769531 689.671875 241.589844 697.792969 238.394531 705.445312 C 231.378906 701.808594 227.347656 695.296875 226.960938 685.257812 C 238.25 684.945312 236.488281 671.089844 247.203125 670.183594 C 250.222656 677.863281 258.808594 684.296875 256.75 693.972656 "/>
<path style=" stroke:none;fill-rule:evenodd;fill:rgb(38.819885%,18.03894%,21.569824%);fill-opacity:1;" d="M 272.550781 673.375 C 286.1875 671.5 288.898438 683.992188 281.3125 690.785156 C 281.914062 693.773438 286.03125 693.367188 285.730469 697.226562 C 280.222656 700.457031 274.863281 703.828125 269.222656 706.914062 C 265.890625 705.078125 263.210938 702.605469 260.265625 700.398438 C 261.601562 688.523438 270.832031 684.847656 272.550781 673.375 "/>
<path style=" stroke:none;fill-rule:evenodd;fill:rgb(79.219055%,84.709167%,83.918762%);fill-opacity:1;" d="M 329.621094 678.953125 C 329.453125 703.195312 310.175781 692.898438 294.835938 695.574219 C 296.648438 690.359375 300.023438 686.777344 298.777344 678.390625 C 305.226562 670.742188 321.960938 674.992188 329.621094 678.953125 "/>
<path style=" stroke:none;fill-rule:evenodd;fill:rgb(58.039856%,69.40918%,67.449951%);fill-opacity:1;" d="M 476.632812 678.914062 C 482.257812 682.5 491.265625 708.164062 500.5625 710.226562 C 504.292969 711.0625 507.355469 708.019531 511.503906 707.707031 C 520.550781 706.992188 531.449219 711.496094 542.296875 710.988281 C 559.230469 710.1875 569.875 704.617188 577.097656 693.457031 C 585.402344 690.664062 589.441406 698.628906 596.035156 700.160156 C 600.398438 701.171875 605.167969 698.546875 609.65625 699.503906 C 617.164062 701.097656 620.96875 708.285156 627.601562 710.726562 C 634.492188 708.628906 638.191406 703.21875 643.238281 699.207031 C 648.527344 700.933594 655.46875 701.078125 659.484375 704.046875 C 658.253906 708.628906 654.808594 710.914062 652.933594 714.824219 C 645.628906 717.417969 637.929688 719.597656 631.902344 723.523438 C 613.640625 724.222656 595.027344 726.203125 572.015625 723.34375 C 567.972656 722.84375 564.335938 720.625 560.273438 720.402344 C 549.714844 719.816406 539.15625 724.640625 528.417969 725.273438 C 512.9375 726.179688 494.855469 726.605469 477.585938 726.160156 C 438.652344 725.15625 397.683594 728.195312 363.253906 725.898438 C 346.964844 724.804688 332.609375 728.660156 320.742188 717.851562 C 322.035156 716.085938 328.46875 716.882812 329.820312 718.015625 C 340.523438 711.246094 344.496094 697.484375 354.820312 690.3125 C 365.351562 702.21875 374.699219 715.675781 389.65625 720.929688 C 402.605469 718.328125 412.25 712.304688 419.015625 703.292969 C 425.367188 708.535156 434.175781 715.851562 442.390625 715.523438 C 455.65625 715 471.300781 691.304688 476.632812 678.914062 "/>
<path style=" stroke:none;fill-rule:evenodd;fill:rgb(38.819885%,18.03894%,21.569824%);fill-opacity:1;" d="M 220.597656 686.046875 C 219.808594 691.976562 223.957031 694.25 224.867188 700.664062 C 216.632812 701.148438 212.40625 704.980469 203.957031 703.003906 C 203.824219 694.894531 209.339844 676.828125 220.597656 686.046875 "/>
<path style=" stroke:none;fill-rule:evenodd;fill:rgb(79.219055%,84.709167%,83.918762%);fill-opacity:1;" d="M 329.339844 694.386719 C 330.957031 698.449219 331.605469 706.273438 334.566406 706.292969 C 326.195312 721.875 314.011719 705.058594 304.714844 701.210938 C 301.046875 704.230469 303.472656 713.34375 304.382812 719.367188 C 299.046875 720.554688 278.308594 725.460938 272.652344 717.882812 C 272.785156 712.5625 276.214844 715.625 279.097656 712.546875 C 285.453125 704.355469 292.867188 697.964844 305.671875 698.5 C 314.722656 698.878906 325.3125 705.230469 329.339844 694.386719 "/>
<path style=" stroke:none;fill-rule:evenodd;fill:rgb(79.219055%,84.709167%,83.918762%);fill-opacity:1;" d="M 250.332031 697.492188 C 251.355469 705.265625 260.414062 710.234375 269.105469 713.28125 C 269.523438 716.796875 267.40625 717.675781 268.046875 721.429688 C 257.464844 721.242188 246.882812 721.042969 236.296875 720.847656 C 238.835938 710.835938 242.90625 702.421875 250.332031 697.492188 "/>
<path style=" stroke:none;fill-rule:evenodd;fill:rgb(79.219055%,84.709167%,83.918762%);fill-opacity:1;" d="M 198.382812 710.164062 C 201.042969 715.246094 196.886719 718.339844 197.226562 723.773438 C 186.960938 722.414062 176.238281 726.488281 169.132812 721.445312 C 171.117188 713.050781 175.53125 703.847656 182.167969 703.515625 C 188.769531 703.183594 190.769531 713.175781 198.382812 710.164062 "/>
<path style=" stroke:none;fill-rule:evenodd;fill:rgb(38.819885%,18.03894%,21.569824%);fill-opacity:1;" d="M 233.792969 709 C 233.324219 713.449219 232.417969 717.445312 231.75 721.671875 C 220.660156 721.199219 210.453125 721.429688 203.589844 722.984375 C 201.164062 710.558594 215.460938 705.839844 223.898438 704.277344 C 225.972656 705.242188 228.703125 705.585938 228.347656 708.898438 C 230.160156 708.929688 231.976562 708.964844 233.792969 709 "/>
<path style=" stroke:none;fill-rule:evenodd;fill:rgb(58.039856%,69.40918%,67.449951%);fill-opacity:1;" d="M 308.230469 707.628906 C 311.277344 711.523438 317.414062 712.441406 318.933594 717.816406 C 315.710938 718.171875 313.65625 719.734375 309.828125 719.472656 C 308.285156 716.757812 307.296875 709.878906 308.230469 707.628906 "/>
<path style=" stroke:none;fill-rule:evenodd;fill:rgb(79.219055%,84.709167%,83.918762%);fill-opacity:1;" d="M 154.683594 717.546875 C 158.546875 719.46875 164.960938 718.933594 164.53125 724.996094 C 158.714844 725.257812 154.839844 723.648438 150.976562 722.019531 C 151.625 719.921875 154.035156 719.644531 154.683594 717.546875 "/>
<path style=" stroke:none;fill-rule:evenodd;fill:rgb(79.219055%,84.709167%,83.918762%);fill-opacity:1;" d="M 400.894531 652.097656 C 395.746094 655.503906 387.074219 649.910156 382.703125 654.488281 C 382.855469 658.796875 389.519531 656.828125 393.539062 657.410156 C 391.164062 660.300781 391.105469 665.429688 392.398438 670.105469 C 396.878906 668.898438 394.886719 660.972656 396.273438 656.550781 C 403.800781 655.164062 414.027344 656.273438 421.679688 657.007812 C 422.726562 649.457031 414.796875 650.566406 408.183594 650.410156 C 407.675781 647.179688 408.324219 643.335938 403.796875 642.15625 C 403.191406 642.140625 402.585938 642.136719 401.980469 642.117188 C 402.648438 645.570312 403.53125 649.945312 400.894531 652.097656 M 569.558594 658.800781 C 564.933594 657.347656 556.417969 660.730469 552.339844 657.578125 C 549.566406 670.890625 568.660156 660.121094 574.96875 660.71875 C 574.835938 664.710938 575.289062 668.140625 578.449219 668.953125 C 583.195312 667.550781 577.238281 661.617188 579.523438 659.890625 C 583.84375 660.382812 589.195312 661.253906 590.472656 656.464844 C 584.878906 654.617188 580.820312 657.535156 575.035156 657.085938 C 573.261719 651.320312 576.105469 646.582031 573.5 641.617188 C 563.632812 642.496094 573.355469 652.253906 569.558594 658.800781 M 423.082031 579.832031 C 424.148438 578.78125 424.164062 576.636719 424.085938 574.394531 C 418.714844 570.824219 414.738281 580.773438 423.082031 579.832031 M 399.691406 568.507812 C 390.351562 570.054688 377.503906 567.351562 370.59375 571.601562 C 391.308594 577.871094 419.835938 566.703125 442.277344 572.003906 C 437.074219 561.636719 420.464844 568.585938 406.964844 567.730469 C 406.484375 564.925781 406.851562 561.292969 403.453125 561.304688 C 401.390625 562.863281 401.535156 566.71875 399.691406 568.507812 M 542.972656 573.84375 C 524.890625 575.117188 509.363281 575.203125 492.964844 579.285156 C 492.953125 579.890625 492.941406 580.5 492.933594 581.105469 C 503.449219 584.296875 516.457031 577.167969 526.527344 579.902344 C 526.816406 583.214844 521.671875 589.007812 528.148438 590.832031 C 531.339844 587.949219 528.296875 585.136719 529.285156 578.132812 C 539.058594 579.359375 550.011719 578.042969 560.160156 576.878906 C 560.695312 573.84375 564.316406 568.714844 559.421875 567.777344 C 555.578125 569.347656 555.355469 574.667969 548.433594 573.035156 C 548.269531 568.246094 549.488281 567.664062 548.601562 563.949219 C 547.019531 563.988281 545.78125 563.691406 544.988281 562.976562 C 543.117188 566.25 544.355469 572.394531 542.972656 573.84375 M 426.214844 507.21875 C 414.253906 509.746094 395.113281 513.605469 383.515625 510.070312 C 383.101562 512.25 385.136719 512.074219 384.335938 514.632812 C 402.6875 517.988281 413.863281 511.59375 431.59375 510.953125 C 432.304688 513.125 427.03125 515.097656 431.511719 515.492188 C 436.257812 519.148438 436.097656 509.796875 439.792969 509.289062 C 446.113281 506.695312 451.558594 511.585938 455.230469 508.660156 C 456.027344 506.101562 453.992188 506.28125 454.40625 504.101562 C 445.777344 502.554688 439.0625 507.898438 432.601562 505.519531 C 432.320312 501.214844 436.398438 501.445312 435.488281 496.488281 C 429.019531 494.863281 429.03125 501.84375 426.214844 507.21875 M 548.355469 477.652344 C 543.609375 474.898438 537.867188 475.542969 533.839844 477.390625 C 535.679688 490.300781 535.339844 508.730469 537.570312 521.964844 C 542.707031 522.820312 545.476562 519.289062 553.023438 520.433594 C 555.726562 506.578125 549.867188 492.355469 548.355469 477.652344 M 516.164062 451.628906 C 512.734375 451.03125 503.730469 445.761719 502.550781 451.386719 C 513.550781 456.273438 533.636719 454.890625 539.8125 448.429688 C 530.40625 447.917969 523.65625 450.160156 516.164062 451.628906 M 563.25 457.035156 C 564.121094 460.566406 562.710938 460.765625 564.039062 463.40625 C 565.253906 463.425781 566.460938 463.449219 567.675781 463.472656 C 571.167969 452.898438 565.308594 456.53125 557.921875 450.582031 C 554.75 448.015625 555.515625 442.289062 550.78125 444.089844 C 552.613281 450.648438 557.632812 454.132812 563.25 457.035156 M 414.113281 424.335938 C 418.378906 434.785156 416.8125 450.878906 420.691406 461.703125 C 426.542969 461.910156 432.742188 462.488281 435.261719 459.238281 C 437.285156 447.578125 433.113281 437.113281 431.34375 424.652344 C 424.183594 423.574219 420.222656 423.523438 414.113281 424.335938 M 485.578125 386.582031 C 488.007812 387.875 494.457031 382.214844 499.207031 385.917969 C 499.136719 389.859375 499.0625 393.789062 498.992188 397.726562 C 500.5 397.75 502.015625 397.78125 503.527344 397.8125 C 505.5 393.683594 503.203125 392.113281 503.746094 386 C 508.179688 384.136719 516.980469 386.796875 517.449219 380.800781 C 507.789062 385.695312 486.289062 373.53125 485.578125 386.582031 M 605.890625 357.890625 C 605.808594 349.519531 598.628906 353.539062 591.476562 352.179688 C 592.300781 358.859375 602.457031 358.597656 605.890625 357.890625 M 545.347656 344.070312 C 545.082031 345.347656 543.335938 345.070312 542.585938 345.839844 C 545.457031 356.316406 552.136719 373.175781 545.550781 382.230469 C 545.410156 380.878906 543.378906 381.347656 541.941406 381.253906 C 540.132812 369.613281 546.71875 349.878906 536.222656 346.625 C 537.628906 360.34375 538.515625 371.941406 537.308594 386.617188 C 541.472656 387.949219 545.035156 386.160156 550.914062 386.863281 C 554.597656 374.105469 553.367188 351.386719 545.347656 344.070312 M 439.734375 313.078125 C 439.023438 313.265625 438.664062 313.820312 438.792969 314.875 C 440.269531 318.507812 446.375 317.667969 447.75 321.398438 C 449.117188 330.351562 455.625 352.40625 440.921875 347.617188 C 441.769531 343.65625 439.835938 339.574219 439.335938 334.871094 C 438.640625 328.386719 441.304688 318.378906 435.128906 316.625 C 432.195312 325.742188 437.03125 341.90625 438.097656 353.015625 C 444.699219 353.699219 449.886719 352.917969 453.570312 350.574219 C 456.472656 338.183594 453.199219 325.027344 450.589844 315.089844 C 446.21875 315.371094 443.046875 310.984375 439.734375 313.078125 M 590.277344 268.589844 C 590.261719 269.496094 590.238281 270.402344 590.222656 271.3125 C 594.707031 273.972656 598.957031 272.199219 601.988281 273.34375 C 603.160156 265.3125 593.664062 268.320312 590.277344 268.589844 M 537.28125 238.554688 C 536.675781 238.542969 536.070312 238.535156 535.464844 238.527344 C 536.859375 249.867188 539.539062 263.40625 540.144531 280.390625 C 546.707031 280.722656 548.976562 276.609375 554.742188 276.117188 C 556.5625 263.824219 553.367188 249.71875 553.640625 237.035156 C 548.949219 235.722656 542.066406 232.414062 537.359375 234.011719 C 537.28125 242.761719 546.207031 237.328125 549.914062 242.414062 C 546.773438 252.992188 557.179688 273.207031 543.894531 274.101562 C 541.472656 262.460938 544.132812 245.917969 537.28125 238.554688 M 569.859375 193.734375 C 574.246094 195.140625 578.226562 196.960938 584.324219 196.726562 C 583.1875 192.296875 570.089844 185.476562 569.859375 193.734375 M 507.429688 183.507812 C 507.007812 190.210938 524.140625 192.40625 522.828125 184.699219 C 515.972656 186.308594 511.726562 181.484375 507.429688 183.507812 M 593.894531 169.644531 C 586.660156 160.898438 582.519531 169.5 573.867188 172.910156 C 576.328125 181.390625 583.5 172.445312 586.617188 170.417969 C 591.277344 173.65625 590.394531 182.234375 596.347656 184.222656 C 599.566406 179.582031 595.949219 172.136719 593.894531 169.644531 M 626.5 123.003906 C 622.84375 170.5625 622.742188 230.648438 628.164062 281.085938 C 608.320312 283.492188 618.074219 301.023438 622.085938 315.5 C 626.324219 330.738281 626.128906 352.371094 627.414062 371.90625 C 628.425781 387.292969 632.445312 402.179688 629.363281 414.640625 C 619.632812 426.933594 598.730469 410.539062 588.457031 418.429688 C 596.5625 424.355469 611.472656 418.636719 619.183594 425.347656 C 627.761719 466.308594 624.9375 519.105469 629.386719 562.699219 C 630.226562 570.9375 631.929688 577.855469 628.054688 586.292969 C 621.839844 590.898438 613.800781 585.199219 609.839844 589.59375 C 613.257812 595.445312 620.128906 591.824219 626.152344 590.804688 C 632.09375 606.144531 631.214844 638.972656 633.839844 667.238281 C 634.695312 676.523438 640.136719 688.328125 638.785156 694.589844 C 637.597656 700.066406 630.804688 702.140625 628.605469 705.296875 C 621.496094 703.121094 619.230469 697.917969 612.445312 695.917969 C 608.03125 694.625 603.160156 696.6875 598.839844 695.671875 C 591.15625 693.871094 587.332031 685.714844 577.179688 688.914062 C 566.46875 701.019531 552.382812 710.027344 529.695312 705.3125 C 528.925781 680.226562 524.964844 652.804688 518.429688 626.078125 C 497.476562 624.339844 476.90625 625.335938 458.488281 628.621094 C 442.742188 647.589844 453.34375 681.03125 449.816406 706.582031 C 441.261719 715.078125 426.6875 706.019531 420.917969 698.78125 C 410.90625 704.742188 403.898438 713.8125 390.644531 716.398438 C 372.355469 710.859375 366.214844 693.589844 353.144531 683.015625 C 348.707031 691.050781 342.203125 696.949219 337.324219 704.527344 C 333.070312 694.65625 331.542969 677.441406 336.15625 669.078125 C 333.730469 658.703125 330.660156 643.4375 328.699219 629.886719 C 332.882812 628.0625 335.953125 625.082031 339.714844 622.820312 C 351.355469 627.726562 357.136719 616.894531 364.378906 614.1875 C 373.433594 610.792969 383.84375 617.5 394.332031 613.828125 C 392.832031 607.589844 383.675781 609.296875 378.988281 609 C 374.261719 608.703125 367.898438 607.546875 363.570312 608.71875 C 355.90625 610.804688 350.042969 622.722656 341.613281 618.3125 C 343.480469 576.214844 333.75 527.035156 330.503906 480.945312 C 334.367188 475.398438 343.671875 475.496094 346.15625 468.519531 C 353.882812 466.648438 359.109375 473.492188 363.441406 466.101562 C 360.570312 460.257812 354.355469 463.664062 348.074219 463.101562 C 341.722656 435.652344 354.671875 396.183594 337.878906 374.800781 C 354.613281 380.4375 372.421875 377.136719 385.15625 370.21875 C 386.6875 365.132812 384.648438 357.476562 383.667969 352.023438 C 396.84375 352.746094 402.210938 345.363281 410.191406 340.699219 C 411.828125 329.695312 412.050781 325.261719 411.578125 314.382812 C 417.183594 305.703125 430.417969 304.949219 439.964844 300.359375 C 443.890625 280.226562 431.441406 238.152344 459.25 238.042969 C 463.574219 235.445312 465.855469 230.71875 469.421875 227.324219 C 472.3125 211.195312 462.761719 198.378906 463.835938 185.441406 C 464.722656 174.746094 472.496094 166.488281 474.359375 155.65625 C 489.902344 161.339844 497.007812 145.480469 503.75 136.207031 C 505.109375 137.863281 507.03125 138.996094 509.128906 139.941406 C 516.660156 134.1875 525.828125 142.488281 532.78125 136.738281 C 529.757812 128.003906 516.488281 134.121094 510.136719 134.507812 C 508.457031 128.625 516.003906 121.1875 516.898438 111.925781 C 517.832031 102.234375 513.585938 93.945312 511.929688 85.488281 C 519.09375 81.816406 531.277344 83.371094 541.921875 83.308594 C 545.308594 89.769531 541.757812 100.53125 543.304688 106.953125 C 546.480469 116.789062 564.117188 113.082031 574.066406 112.058594 C 579.089844 104.933594 585.375 99.117188 584.527344 85.90625 C 591.683594 82.539062 602.269531 82.742188 610.933594 80.9375 C 613.78125 98.71875 612.421875 115.59375 626.5 123.003906 "/>
<path style=" stroke:none;fill-rule:evenodd;fill:rgb(10.198975%,30.589294%,27.059937%);fill-opacity:1;" d="M 514.1875 659.609375 C 516.414062 666.128906 516.171875 673.734375 511.121094 678.628906 C 499.703125 678.34375 502.828125 657.082031 514.1875 659.609375 "/>
<g clip-path="url(#clip1)" clip-rule="nonzero">
<path style=" stroke:none;fill-rule:evenodd;fill:rgb(10.198975%,30.589294%,27.059937%);fill-opacity:1;" d="M 150.976562 722.019531 C 154.839844 723.644531 158.714844 725.257812 164.535156 724.996094 C 164.960938 718.933594 158.546875 719.46875 154.683594 717.546875 C 154.035156 719.644531 151.628906 719.921875 150.976562 722.019531 M 309.828125 719.472656 C 313.65625 719.734375 315.710938 718.171875 318.933594 717.816406 C 317.417969 712.441406 311.277344 711.523438 308.230469 707.628906 C 307.296875 709.878906 308.285156 716.757812 309.828125 719.472656 M 228.347656 708.898438 C 228.703125 705.585938 225.976562 705.242188 223.898438 704.277344 C 215.460938 705.839844 201.164062 710.558594 203.589844 722.984375 C 210.453125 721.429688 220.660156 721.199219 231.75 721.671875 C 232.417969 717.445312 233.324219 713.449219 233.792969 709 C 231.976562 708.96875 230.160156 708.929688 228.347656 708.898438 M 182.164062 703.515625 C 175.53125 703.847656 171.121094 713.050781 169.132812 721.445312 C 176.234375 726.488281 186.957031 722.414062 197.226562 723.773438 C 196.886719 718.339844 201.042969 715.246094 198.382812 710.164062 C 190.769531 713.175781 188.765625 703.183594 182.164062 703.515625 M 236.296875 720.847656 C 246.882812 721.046875 257.464844 721.242188 268.046875 721.429688 C 267.40625 717.675781 269.523438 716.796875 269.105469 713.28125 C 260.414062 710.234375 251.359375 705.269531 250.332031 697.492188 C 242.90625 702.421875 238.835938 710.835938 236.296875 720.847656 M 305.671875 698.5 C 292.867188 697.964844 285.453125 704.355469 279.101562 712.546875 C 276.214844 715.625 272.785156 712.5625 272.652344 717.882812 C 278.308594 725.460938 299.050781 720.554688 304.382812 719.367188 C 303.46875 713.34375 301.042969 704.230469 304.714844 701.210938 C 314.011719 705.058594 326.195312 721.875 334.566406 706.292969 C 331.609375 706.273438 330.957031 698.449219 329.339844 694.386719 C 325.3125 705.230469 314.722656 698.878906 305.671875 698.5 M 203.957031 703.003906 C 212.40625 704.980469 216.632812 701.148438 224.867188 700.664062 C 223.957031 694.246094 219.808594 691.976562 220.597656 686.046875 C 209.339844 676.824219 203.824219 694.894531 203.957031 703.003906 M 442.394531 715.523438 C 434.179688 715.851562 425.367188 708.535156 419.015625 703.292969 C 412.253906 712.304688 402.605469 718.328125 389.660156 720.929688 C 374.699219 715.675781 365.351562 702.21875 354.820312 690.3125 C 344.5 697.484375 340.527344 711.246094 329.820312 718.015625 C 328.46875 716.882812 322.035156 716.085938 320.746094 717.851562 C 332.613281 728.660156 346.96875 724.804688 363.253906 725.898438 C 397.683594 728.195312 438.652344 725.15625 477.589844 726.160156 C 494.855469 726.605469 512.9375 726.179688 528.421875 725.273438 C 539.15625 724.640625 549.71875 719.816406 560.277344 720.402344 C 564.335938 720.625 567.972656 722.84375 572.015625 723.34375 C 595.027344 726.203125 613.644531 724.222656 631.90625 723.523438 C 637.933594 719.597656 645.628906 717.417969 652.933594 714.824219 C 654.808594 710.914062 658.253906 708.628906 659.488281 704.046875 C 655.46875 701.078125 648.527344 700.933594 643.238281 699.207031 C 638.195312 703.21875 634.492188 708.628906 627.601562 710.730469 C 620.96875 708.285156 617.164062 701.09375 609.65625 699.503906 C 605.171875 698.546875 600.402344 701.171875 596.035156 700.160156 C 589.445312 698.628906 585.402344 690.664062 577.097656 693.457031 C 569.875 704.617188 559.230469 710.1875 542.296875 710.988281 C 531.453125 711.496094 520.554688 706.992188 511.503906 707.707031 C 507.355469 708.019531 504.292969 711.0625 500.5625 710.226562 C 491.265625 708.164062 482.257812 682.5 476.632812 678.914062 C 471.300781 691.304688 455.65625 715 442.394531 715.523438 M 298.78125 678.390625 C 300.027344 686.777344 296.648438 690.359375 294.835938 695.574219 C 310.175781 692.894531 329.453125 703.195312 329.621094 678.953125 C 321.964844 674.992188 305.222656 670.742188 298.78125 678.390625 M 260.265625 700.398438 C 263.210938 702.605469 265.890625 705.078125 269.222656 706.917969 C 274.863281 703.828125 280.222656 700.457031 285.730469 697.226562 C 286.035156 693.367188 281.914062 693.773438 281.3125 690.785156 C 288.898438 683.996094 286.1875 671.5 272.550781 673.375 C 270.832031 684.847656 261.601562 688.523438 260.265625 700.398438 M 247.203125 670.183594 C 236.488281 671.089844 238.25 684.945312 226.964844 685.257812 C 227.347656 695.296875 231.378906 701.808594 238.394531 705.445312 C 241.59375 697.792969 249.769531 689.671875 256.75 693.972656 C 258.808594 684.300781 250.222656 677.863281 247.203125 670.183594 M 314.660156 653.246094 C 311.011719 643.972656 290.714844 649.613281 291.816406 661.910156 C 295.273438 665.539062 294.332031 669.28125 294.339844 672.863281 C 300.097656 674.886719 309.390625 666.757812 318.871094 671.492188 C 319.863281 663.09375 312.109375 663.144531 314.660156 653.246094 M 460.207031 634.097656 C 449.46875 653.769531 456.539062 676.128906 455.375 700.320312 C 466.417969 698.175781 467.691406 677.984375 479.453125 673.507812 C 487.386719 683.996094 490.800781 698.835938 502.460938 705.722656 C 508.832031 702.066406 517.488281 703.375 525.15625 705.230469 C 522.769531 681.511719 521.792969 653.519531 514.714844 630.550781 C 497.851562 629.253906 476.21875 629.671875 460.207031 634.097656 M 417.222656 303.582031 C 420.539062 301.789062 424 300.132812 429.078125 300.164062 C 426.480469 296.132812 425.5 290.53125 417.4375 291.777344 C 415.464844 296.019531 415.730469 299.019531 417.222656 303.582031 M 447.585938 230.558594 C 447.53125 225.851562 448.707031 219.964844 445.082031 218.703125 C 440.917969 221.039062 441.308594 230.796875 447.585938 230.558594 M 610.9375 80.9375 C 602.269531 82.738281 591.683594 82.539062 584.527344 85.902344 C 585.375 99.117188 579.09375 104.933594 574.066406 112.050781 C 564.117188 113.082031 546.480469 116.789062 543.308594 106.953125 C 541.757812 100.527344 545.308594 89.765625 541.925781 83.304688 C 531.277344 83.367188 519.09375 81.8125 511.933594 85.488281 C 513.585938 93.945312 517.832031 102.238281 516.898438 111.921875 C 516.003906 121.1875 508.457031 128.625 510.136719 134.507812 C 516.488281 134.117188 529.757812 128 532.785156 136.738281 C 525.828125 142.488281 516.660156 134.1875 509.128906 139.933594 C 507.03125 138.992188 505.109375 137.859375 503.75 136.203125 C 497.007812 145.480469 489.902344 161.335938 474.359375 155.652344 C 472.496094 166.484375 464.722656 174.742188 463.835938 185.4375 C 462.765625 198.378906 472.3125 211.191406 469.425781 227.320312 C 465.855469 230.714844 463.578125 235.445312 459.25 238.039062 C 431.441406 238.148438 443.890625 280.226562 439.964844 300.359375 C 430.417969 304.949219 417.183594 305.703125 411.582031 314.382812 C 412.054688 325.261719 411.828125 329.691406 410.191406 340.699219 C 402.210938 345.363281 396.84375 352.746094 383.667969 352.023438 C 384.648438 357.476562 386.6875 365.132812 385.15625 370.21875 C 372.421875 377.136719 354.617188 380.4375 337.878906 374.800781 C 354.671875 396.183594 341.722656 435.652344 348.074219 463.101562 C 354.355469 463.664062 360.570312 460.253906 363.441406 466.101562 C 359.113281 473.492188 353.878906 466.648438 346.15625 468.519531 C 343.671875 475.496094 334.371094 475.398438 330.507812 480.945312 C 333.75 527.035156 343.480469 576.214844 341.617188 618.3125 C 350.042969 622.722656 355.90625 610.804688 363.570312 608.71875 C 367.898438 607.542969 374.261719 608.703125 378.988281 608.996094 C 383.675781 609.296875 392.835938 607.589844 394.332031 613.828125 C 383.84375 617.5 373.433594 610.792969 364.378906 614.1875 C 357.136719 616.894531 351.355469 627.726562 339.71875 622.820312 C 335.957031 625.082031 332.882812 628.0625 328.703125 629.886719 C 330.660156 643.4375 333.734375 658.703125 336.15625 669.078125 C 331.542969 677.441406 333.070312 694.65625 337.328125 704.527344 C 342.203125 696.949219 348.707031 691.050781 353.144531 683.015625 C 366.214844 693.589844 372.355469 710.863281 390.648438 716.398438 C 403.898438 713.8125 410.910156 704.742188 420.917969 698.78125 C 426.6875 706.019531 441.261719 715.078125 449.816406 706.582031 C 453.34375 681.03125 442.746094 647.589844 458.492188 628.621094 C 476.90625 625.335938 497.476562 624.339844 518.433594 626.078125 C 524.964844 652.804688 528.925781 680.226562 529.695312 705.3125 C 552.382812 710.027344 566.46875 701.023438 577.179688 688.914062 C 587.335938 685.714844 591.160156 693.871094 598.839844 695.671875 C 603.164062 696.6875 608.035156 694.625 612.449219 695.917969 C 619.234375 697.917969 621.5 703.121094 628.609375 705.296875 C 630.804688 702.140625 637.597656 700.066406 638.789062 694.589844 C 640.140625 688.328125 634.699219 676.519531 633.839844 667.238281 C 631.21875 638.972656 632.09375 606.144531 626.15625 590.800781 C 620.132812 591.820312 613.257812 595.445312 609.84375 589.59375 C 613.796875 585.199219 621.84375 590.894531 628.050781 586.292969 C 631.929688 577.855469 630.226562 570.9375 629.386719 562.699219 C 624.941406 519.105469 627.761719 466.308594 619.183594 425.347656 C 611.472656 418.636719 596.5625 424.355469 588.460938 418.429688 C 598.730469 410.539062 619.636719 426.933594 629.363281 414.640625 C 632.445312 402.183594 628.425781 387.289062 627.417969 371.90625 C 626.132812 352.367188 626.324219 330.738281 622.089844 315.496094 C 618.074219 301.023438 608.324219 283.496094 628.164062 281.082031 C 622.746094 230.648438 622.847656 170.558594 626.503906 123.003906 C 612.421875 115.589844 613.789062 98.714844 610.9375 80.9375 M 621.933594 74.777344 C 622.417969 86.507812 626.261719 94.976562 625.875 107.550781 C 628.523438 113.914062 635.910156 115.707031 638.3125 122.308594 C 631.992188 156.207031 638.894531 205.375 636.988281 244.910156 C 636.328125 258.546875 642.789062 279.832031 639.875 285.84375 C 637.5 290.734375 628.679688 290.355469 627.027344 293.789062 C 639.539062 317.714844 637.324219 359.582031 641.464844 397.601562 C 642.476562 406.832031 643.054688 417.695312 634.636719 423.816406 C 637.160156 456.273438 636.671875 483.699219 638.367188 518.355469 C 639.300781 537.578125 644.371094 556.9375 642.796875 573.847656 C 642.179688 580.53125 639.359375 586.789062 639.710938 593.777344 C 640.523438 609.96875 644.75 626.273438 645.171875 642.921875 C 645.617188 660.492188 645.867188 675.023438 651.585938 689.371094 C 659.855469 694.757812 665.449219 680.746094 675.203125 687.976562 C 671.234375 701.648438 665.605469 717.644531 655.472656 724.863281 C 648.003906 730.1875 630.144531 733.078125 613.5625 734.089844 C 607.265625 734.476562 601.617188 736.710938 597.1875 736.515625 C 592.460938 736.308594 587.667969 733.6875 582.722656 733.53125 C 573.855469 733.25 566.597656 732.070312 558.261719 731.269531 C 547.84375 730.261719 537.355469 734.542969 526.425781 735.222656 C 513.691406 736.027344 498.828125 735.621094 487.386719 736.328125 C 479 736.851562 471.238281 735.007812 462.910156 734.976562 C 451.730469 734.933594 439.925781 736.710938 428.386719 737.070312 C 410.878906 737.613281 394.132812 740.351562 370.28125 738.730469 C 362.957031 738.238281 355.671875 737.167969 348.523438 737.433594 C 343.589844 737.613281 338.953125 738.738281 334.894531 738.089844 C 329.761719 737.265625 324.894531 732.28125 319.59375 731.453125 C 312.878906 730.402344 306.550781 733.808594 298.660156 734.703125 C 273.046875 737.621094 237.445312 729.570312 207.960938 732.144531 C 186.652344 734.003906 154.800781 740.265625 134.476562 730.804688 C 136.921875 715.476562 149.613281 708.597656 164.882812 705.925781 C 171.570312 700.25 181.382812 687.128906 193.203125 695.539062 C 197.710938 681.71875 209.054688 667.222656 227.179688 673.449219 C 236.3125 665.539062 251.945312 651.386719 260.839844 668.613281 C 265.375 664.679688 271.125 662.023438 280.007812 662.605469 C 282.390625 657.46875 282.492188 655.449219 282.980469 649.035156 C 295.222656 646.917969 304.65625 634.195312 318.535156 639.691406 C 319.703125 634.105469 316.074219 633.148438 316.941406 627.855469 C 320.082031 621.941406 328.964844 621.527344 330.78125 615.386719 C 333.003906 607.847656 329.988281 592.703125 329.5625 582.667969 C 328.933594 568.03125 327.433594 553.855469 325.804688 539.90625 C 322.792969 514.207031 313.257812 486.753906 323.410156 471.734375 C 325.980469 470.085938 329.6875 469.613281 332.546875 468.269531 C 332.171875 444.617188 338.597656 422.464844 333.824219 398.347656 C 331.132812 384.761719 319.21875 372.730469 324.554688 359.117188 C 337.25 354.675781 349.46875 357.796875 356.171875 366.960938 C 360.402344 367.089844 369.226562 367.152344 372.566406 363.628906 C 373.207031 354.792969 371.746094 353.144531 371.988281 345.449219 C 380.363281 339.492188 394.050781 344.460938 399.40625 335.050781 C 401.613281 326.066406 399.347656 317.703125 398.054688 309.589844 C 399.839844 306.511719 401.941406 303.757812 406.335938 303.386719 C 405.90625 299.332031 402.511719 298.148438 402.886719 293.328125 C 406.707031 285.207031 414.484375 276.453125 426.722656 280.136719 C 429.582031 263.839844 426.511719 246.359375 435.664062 237.609375 C 426.753906 229.609375 430.601562 208.089844 440.808594 204.089844 C 448.335938 204.925781 451.472656 207.523438 456.085938 212.542969 C 455.3125 199.152344 449.984375 186.777344 451.335938 174.308594 C 452.589844 162.695312 462.375 157.488281 463.621094 147.285156 C 467.527344 144.859375 475.011719 146.152344 480.003906 144.859375 C 490.820312 136.652344 499.101562 125.828125 505.089844 112.613281 C 507.601562 97.398438 499.082031 92.835938 501.183594 78.019531 C 516.367188 73.515625 542.394531 67.800781 556.585938 75.402344 C 554.960938 87.101562 560.15625 92.777344 557.90625 102.679688 C 572.1875 107.0625 571.125 85.457031 572.894531 76.601562 C 586.058594 77.144531 608.484375 65.082031 621.933594 74.777344 "/>
</g>
</g>
</svg>
