<?xml version="1.0" encoding="UTF-8"?>
<svg xmlns="http://www.w3.org/2000/svg" xmlns:xlink="http://www.w3.org/1999/xlink" width="810pt" height="809.999993pt" viewBox="0 0 810 809.999993" version="1.2">
<defs>
<clipPath id="clip1">
  <path d="M 733 435 L 753.75 435 L 753.75 445 L 733 445 Z M 733 435 "/>
</clipPath>
<clipPath id="clip2">
  <path d="M 136 260 L 255 260 L 255 587 L 136 587 Z M 136 260 "/>
</clipPath>
<clipPath id="clip3">
  <path d="M 136.703125 562.363281 L 204.539062 260.601562 L 254.238281 586.902344 Z M 136.703125 562.363281 "/>
</clipPath>
<linearGradient id="linear0" gradientUnits="userSpaceOnUse" x1="12.894792" y1="17.13456" x2="12.679491" y2="37.567515" gradientTransform="matrix(16.037233,0,0,16.028053,-8.018613,-14.61516)">
<stop offset="0" style="stop-color:rgb(26.274109%,7.69043%,0%);stop-opacity:1;"/>
<stop offset="0.00377903" style="stop-color:rgb(26.435852%,7.71637%,0%);stop-opacity:1;"/>
<stop offset="0.015625" style="stop-color:rgb(26.597595%,7.743835%,0%);stop-opacity:1;"/>
<stop offset="0.03125" style="stop-color:rgb(26.759338%,7.769775%,0%);stop-opacity:1;"/>
<stop offset="0.046875" style="stop-color:rgb(27.082825%,7.821655%,0%);stop-opacity:1;"/>
<stop offset="0.0625" style="stop-color:rgb(27.407837%,7.875061%,0%);stop-opacity:1;"/>
<stop offset="0.078125" style="stop-color:rgb(27.731323%,7.926941%,0%);stop-opacity:1;"/>
<stop offset="0.09375" style="stop-color:rgb(28.05481%,7.980347%,0%);stop-opacity:1;"/>
<stop offset="0.109375" style="stop-color:rgb(28.378296%,8.032227%,0%);stop-opacity:1;"/>
<stop offset="0.125" style="stop-color:rgb(28.701782%,8.085632%,0%);stop-opacity:1;"/>
<stop offset="0.140625" style="stop-color:rgb(29.026794%,8.137512%,0%);stop-opacity:1;"/>
<stop offset="0.15625" style="stop-color:rgb(29.380798%,8.200073%,0%);stop-opacity:1;"/>
<stop offset="0.164062" style="stop-color:rgb(29.699707%,8.259583%,0%);stop-opacity:1;"/>
<stop offset="0.171875" style="stop-color:rgb(29.949951%,8.311462%,0%);stop-opacity:1;"/>
<stop offset="0.179687" style="stop-color:rgb(30.201721%,8.361816%,0%);stop-opacity:1;"/>
<stop offset="0.1875" style="stop-color:rgb(30.451965%,8.413696%,0%);stop-opacity:1;"/>
<stop offset="0.195312" style="stop-color:rgb(30.703735%,8.46405%,0%);stop-opacity:1;"/>
<stop offset="0.203125" style="stop-color:rgb(30.953979%,8.51593%,0%);stop-opacity:1;"/>
<stop offset="0.210937" style="stop-color:rgb(31.20575%,8.566284%,0%);stop-opacity:1;"/>
<stop offset="0.21875" style="stop-color:rgb(31.455994%,8.616638%,0%);stop-opacity:1;"/>
<stop offset="0.226562" style="stop-color:rgb(31.707764%,8.668518%,0%);stop-opacity:1;"/>
<stop offset="0.234375" style="stop-color:rgb(31.959534%,8.718872%,0%);stop-opacity:1;"/>
<stop offset="0.242188" style="stop-color:rgb(32.209778%,8.770752%,0%);stop-opacity:1;"/>
<stop offset="0.25" style="stop-color:rgb(32.461548%,8.821106%,0%);stop-opacity:1;"/>
<stop offset="0.257812" style="stop-color:rgb(32.711792%,8.872986%,0%);stop-opacity:1;"/>
<stop offset="0.265625" style="stop-color:rgb(32.963562%,8.92334%,0%);stop-opacity:1;"/>
<stop offset="0.273437" style="stop-color:rgb(33.213806%,8.97522%,0%);stop-opacity:1;"/>
<stop offset="0.28125" style="stop-color:rgb(33.465576%,9.025574%,0%);stop-opacity:1;"/>
<stop offset="0.289062" style="stop-color:rgb(33.71582%,9.077454%,0%);stop-opacity:1;"/>
<stop offset="0.296875" style="stop-color:rgb(33.96759%,9.127808%,0%);stop-opacity:1;"/>
<stop offset="0.304687" style="stop-color:rgb(34.217834%,9.179688%,0%);stop-opacity:1;"/>
<stop offset="0.3125" style="stop-color:rgb(34.469604%,9.230042%,0%);stop-opacity:1;"/>
<stop offset="0.320312" style="stop-color:rgb(34.719849%,9.281921%,0%);stop-opacity:1;"/>
<stop offset="0.328125" style="stop-color:rgb(34.971619%,9.332275%,0%);stop-opacity:1;"/>
<stop offset="0.335938" style="stop-color:rgb(35.221863%,9.382629%,0%);stop-opacity:1;"/>
<stop offset="0.34375" style="stop-color:rgb(35.473633%,9.434509%,0%);stop-opacity:1;"/>
<stop offset="0.351562" style="stop-color:rgb(35.725403%,9.484863%,0%);stop-opacity:1;"/>
<stop offset="0.359375" style="stop-color:rgb(35.975647%,9.536743%,0%);stop-opacity:1;"/>
<stop offset="0.367187" style="stop-color:rgb(36.227417%,9.587097%,0%);stop-opacity:1;"/>
<stop offset="0.375" style="stop-color:rgb(36.477661%,9.638977%,0%);stop-opacity:1;"/>
<stop offset="0.382812" style="stop-color:rgb(36.729431%,9.689331%,0%);stop-opacity:1;"/>
<stop offset="0.390625" style="stop-color:rgb(36.979675%,9.741211%,0%);stop-opacity:1;"/>
<stop offset="0.398437" style="stop-color:rgb(37.231445%,9.791565%,0%);stop-opacity:1;"/>
<stop offset="0.40625" style="stop-color:rgb(37.481689%,9.843445%,0%);stop-opacity:1;"/>
<stop offset="0.414062" style="stop-color:rgb(37.733459%,9.893799%,0%);stop-opacity:1;"/>
<stop offset="0.421875" style="stop-color:rgb(37.983704%,9.945679%,0%);stop-opacity:1;"/>
<stop offset="0.429688" style="stop-color:rgb(38.235474%,9.996033%,0%);stop-opacity:1;"/>
<stop offset="0.4375" style="stop-color:rgb(38.485718%,10.046387%,0%);stop-opacity:1;"/>
<stop offset="0.445312" style="stop-color:rgb(38.737488%,10.098267%,0%);stop-opacity:1;"/>
<stop offset="0.453125" style="stop-color:rgb(38.987732%,10.148621%,0%);stop-opacity:1;"/>
<stop offset="0.460937" style="stop-color:rgb(39.239502%,10.2005%,0%);stop-opacity:1;"/>
<stop offset="0.46875" style="stop-color:rgb(39.489746%,10.250854%,0%);stop-opacity:1;"/>
<stop offset="0.476562" style="stop-color:rgb(39.741516%,10.302734%,0%);stop-opacity:1;"/>
<stop offset="0.484375" style="stop-color:rgb(39.993286%,10.353088%,0%);stop-opacity:1;"/>
<stop offset="0.492187" style="stop-color:rgb(40.24353%,10.404968%,0%);stop-opacity:1;"/>
<stop offset="0.5" style="stop-color:rgb(40.4953%,10.455322%,0%);stop-opacity:1;"/>
<stop offset="0.507812" style="stop-color:rgb(40.745544%,10.507202%,0%);stop-opacity:1;"/>
<stop offset="0.515625" style="stop-color:rgb(40.997314%,10.557556%,0%);stop-opacity:1;"/>
<stop offset="0.523438" style="stop-color:rgb(41.265869%,10.610962%,0%);stop-opacity:1;"/>
<stop offset="0.53125" style="stop-color:rgb(41.56189%,10.665894%,0%);stop-opacity:1;"/>
<stop offset="0.539062" style="stop-color:rgb(41.867065%,10.722351%,0%);stop-opacity:1;"/>
<stop offset="0.546875" style="stop-color:rgb(42.170715%,10.778809%,0%);stop-opacity:1;"/>
<stop offset="0.554688" style="stop-color:rgb(42.475891%,10.83374%,0%);stop-opacity:1;"/>
<stop offset="0.5625" style="stop-color:rgb(42.779541%,10.890198%,0%);stop-opacity:1;"/>
<stop offset="0.570312" style="stop-color:rgb(43.084717%,10.946655%,0%);stop-opacity:1;"/>
<stop offset="0.578125" style="stop-color:rgb(43.388367%,11.003113%,0%);stop-opacity:1;"/>
<stop offset="0.585937" style="stop-color:rgb(43.693542%,11.05957%,0%);stop-opacity:1;"/>
<stop offset="0.59375" style="stop-color:rgb(43.997192%,11.114502%,0%);stop-opacity:1;"/>
<stop offset="0.601562" style="stop-color:rgb(44.300842%,11.170959%,0%);stop-opacity:1;"/>
<stop offset="0.609375" style="stop-color:rgb(44.606018%,11.227417%,0%);stop-opacity:1;"/>
<stop offset="0.617188" style="stop-color:rgb(44.909668%,11.283875%,0%);stop-opacity:1;"/>
<stop offset="0.625" style="stop-color:rgb(45.214844%,11.340332%,0%);stop-opacity:1;"/>
<stop offset="0.632812" style="stop-color:rgb(45.518494%,11.395264%,0%);stop-opacity:1;"/>
<stop offset="0.640625" style="stop-color:rgb(45.823669%,11.451721%,0%);stop-opacity:1;"/>
<stop offset="0.648438" style="stop-color:rgb(46.127319%,11.508179%,0%);stop-opacity:1;"/>
<stop offset="0.65625" style="stop-color:rgb(46.430969%,11.564636%,0%);stop-opacity:1;"/>
<stop offset="0.664062" style="stop-color:rgb(46.736145%,11.621094%,0%);stop-opacity:1;"/>
<stop offset="0.671875" style="stop-color:rgb(47.039795%,11.676025%,0%);stop-opacity:1;"/>
<stop offset="0.679687" style="stop-color:rgb(47.344971%,11.732483%,0%);stop-opacity:1;"/>
<stop offset="0.6875" style="stop-color:rgb(47.648621%,11.78894%,0%);stop-opacity:1;"/>
<stop offset="0.695312" style="stop-color:rgb(47.953796%,11.845398%,0%);stop-opacity:1;"/>
<stop offset="0.703125" style="stop-color:rgb(48.257446%,11.901855%,0%);stop-opacity:1;"/>
<stop offset="0.710938" style="stop-color:rgb(48.562622%,11.956787%,0%);stop-opacity:1;"/>
<stop offset="0.71875" style="stop-color:rgb(48.866272%,12.013245%,0%);stop-opacity:1;"/>
<stop offset="0.726562" style="stop-color:rgb(49.169922%,12.069702%,0%);stop-opacity:1;"/>
<stop offset="0.734375" style="stop-color:rgb(49.475098%,12.12616%,0%);stop-opacity:1;"/>
<stop offset="0.742188" style="stop-color:rgb(49.778748%,12.182617%,0%);stop-opacity:1;"/>
<stop offset="0.75" style="stop-color:rgb(50.083923%,12.237549%,0%);stop-opacity:1;"/>
<stop offset="0.757812" style="stop-color:rgb(50.387573%,12.294006%,0%);stop-opacity:1;"/>
<stop offset="0.765625" style="stop-color:rgb(50.692749%,12.350464%,0%);stop-opacity:1;"/>
<stop offset="0.773437" style="stop-color:rgb(50.996399%,12.406921%,0%);stop-opacity:1;"/>
<stop offset="0.78125" style="stop-color:rgb(51.301575%,12.463379%,0%);stop-opacity:1;"/>
<stop offset="0.789062" style="stop-color:rgb(51.605225%,12.518311%,0%);stop-opacity:1;"/>
<stop offset="0.796875" style="stop-color:rgb(51.908875%,12.574768%,0%);stop-opacity:1;"/>
<stop offset="0.804688" style="stop-color:rgb(52.21405%,12.631226%,0%);stop-opacity:1;"/>
<stop offset="0.8125" style="stop-color:rgb(52.5177%,12.687683%,0%);stop-opacity:1;"/>
<stop offset="0.820312" style="stop-color:rgb(52.822876%,12.744141%,0%);stop-opacity:1;"/>
<stop offset="0.828125" style="stop-color:rgb(53.126526%,12.799072%,0%);stop-opacity:1;"/>
<stop offset="0.835938" style="stop-color:rgb(53.431702%,12.85553%,0%);stop-opacity:1;"/>
<stop offset="0.84375" style="stop-color:rgb(53.735352%,12.911987%,0%);stop-opacity:1;"/>
<stop offset="0.851562" style="stop-color:rgb(54.040527%,12.968445%,0%);stop-opacity:1;"/>
<stop offset="0.859375" style="stop-color:rgb(54.344177%,13.024902%,0%);stop-opacity:1;"/>
<stop offset="0.867187" style="stop-color:rgb(54.647827%,13.079834%,0%);stop-opacity:1;"/>
<stop offset="0.875" style="stop-color:rgb(54.953003%,13.136292%,0%);stop-opacity:1;"/>
<stop offset="0.882812" style="stop-color:rgb(55.256653%,13.192749%,0%);stop-opacity:1;"/>
<stop offset="0.890625" style="stop-color:rgb(55.561829%,13.249207%,0%);stop-opacity:1;"/>
<stop offset="0.898438" style="stop-color:rgb(55.865479%,13.305664%,0%);stop-opacity:1;"/>
<stop offset="0.90625" style="stop-color:rgb(56.170654%,13.360596%,0%);stop-opacity:1;"/>
<stop offset="0.914062" style="stop-color:rgb(56.474304%,13.417053%,0%);stop-opacity:1;"/>
<stop offset="0.921875" style="stop-color:rgb(56.777954%,13.473511%,0%);stop-opacity:1;"/>
<stop offset="0.929688" style="stop-color:rgb(57.08313%,13.529968%,0%);stop-opacity:1;"/>
<stop offset="0.9375" style="stop-color:rgb(57.38678%,13.586426%,0%);stop-opacity:1;"/>
<stop offset="0.945312" style="stop-color:rgb(57.691956%,13.641357%,0%);stop-opacity:1;"/>
<stop offset="0.953125" style="stop-color:rgb(57.920837%,13.684082%,0%);stop-opacity:1;"/>
<stop offset="0.96875" style="stop-color:rgb(57.998657%,13.699341%,0%);stop-opacity:1;"/>
<stop offset="0.996221" style="stop-color:rgb(57.998657%,13.699341%,0%);stop-opacity:1;"/>
<stop offset="1" style="stop-color:rgb(57.998657%,13.699341%,0%);stop-opacity:1;"/>
</linearGradient>
</defs>
<g id="surface1">
<path style=" stroke:none;fill-rule:nonzero;fill:rgb(18.818665%,18.03894%,21.958923%);fill-opacity:1;" d="M 34.144531 536.621094 L 17.707031 483.457031 C 16.40625 480.1875 13.40625 478.054688 6.945312 479.675781 C 2.535156 480.78125 -0.320312 485.316406 0.480469 487.816406 C 0.625 488.25 21.203125 537.4375 21.203125 537.4375 C 21.203125 537.4375 22.46875 540.148438 27.746094 540.148438 C 35.457031 540.148438 34.144531 536.621094 34.144531 536.621094 Z M 34.144531 536.621094 "/>
<path style=" stroke:none;fill-rule:nonzero;fill:rgb(10.198975%,30.589294%,27.059937%);fill-opacity:1;" d="M 212.332031 176.519531 C 212.332031 176.519531 361.253906 176.519531 536.6875 115.820312 C 588.582031 345.710938 718.277344 493.203125 718.277344 493.203125 L 415.957031 620.785156 L 269.25 443.722656 Z M 212.332031 176.519531 "/>
<path style=" stroke:none;fill-rule:nonzero;fill:rgb(58.039856%,69.40918%,67.449951%);fill-opacity:1;" d="M 415.957031 620.785156 C 415.957031 620.785156 267.695312 416.8125 212.332031 176.519531 C 127.351562 428.914062 22.757812 539.3125 22.757812 539.3125 Z M 415.957031 620.785156 "/>
<path style=" stroke:none;fill-rule:nonzero;fill:rgb(18.818665%,18.03894%,21.958923%);fill-opacity:1;" d="M 459.484375 568.886719 L 440.15625 567.605469 L 415.957031 620.769531 C 415.957031 620.769531 414.644531 624.296875 422.339844 624.296875 C 427.617188 624.296875 428.882812 621.585938 428.882812 621.585938 Z M 459.484375 568.886719 "/>
<path style=" stroke:none;fill-rule:nonzero;fill:rgb(18.818665%,18.03894%,21.958923%);fill-opacity:1;" d="M 459.933594 567.605469 C 459.933594 567.902344 459.867188 568.195312 459.742188 568.488281 C 459.613281 568.78125 459.425781 569.066406 459.179688 569.339844 C 458.929688 569.613281 458.625 569.875 458.265625 570.125 C 457.902344 570.371094 457.492188 570.601562 457.035156 570.8125 C 456.574219 571.023438 456.074219 571.210938 455.535156 571.375 C 454.992188 571.539062 454.421875 571.679688 453.824219 571.792969 C 453.222656 571.910156 452.605469 571.996094 451.96875 572.050781 C 451.328125 572.109375 450.6875 572.140625 450.035156 572.140625 C 449.386719 572.140625 448.742188 572.109375 448.105469 572.050781 C 447.46875 571.996094 446.851562 571.910156 446.25 571.792969 C 445.648438 571.679688 445.078125 571.539062 444.539062 571.375 C 444 571.210938 443.5 571.023438 443.039062 570.8125 C 442.582031 570.601562 442.171875 570.371094 441.808594 570.125 C 441.449219 569.875 441.144531 569.613281 440.894531 569.339844 C 440.644531 569.066406 440.457031 568.78125 440.332031 568.488281 C 440.207031 568.195312 440.140625 567.902344 440.140625 567.605469 C 440.140625 567.304688 440.207031 567.011719 440.332031 566.71875 C 440.457031 566.425781 440.644531 566.144531 440.894531 565.867188 C 441.144531 565.59375 441.449219 565.332031 441.808594 565.082031 C 442.171875 564.835938 442.582031 564.605469 443.039062 564.394531 C 443.5 564.1875 444 563.996094 444.539062 563.832031 C 445.078125 563.667969 445.648438 563.527344 446.25 563.414062 C 446.851562 563.300781 447.46875 563.214844 448.105469 563.15625 C 448.742188 563.097656 449.386719 563.066406 450.035156 563.066406 C 450.6875 563.066406 451.328125 563.097656 451.96875 563.15625 C 452.605469 563.214844 453.222656 563.300781 453.824219 563.414062 C 454.421875 563.527344 454.992188 563.667969 455.535156 563.832031 C 456.074219 563.996094 456.574219 564.1875 457.035156 564.394531 C 457.492188 564.605469 457.902344 564.835938 458.265625 565.082031 C 458.625 565.332031 458.929688 565.59375 459.179688 565.867188 C 459.425781 566.144531 459.613281 566.425781 459.742188 566.71875 C 459.867188 567.011719 459.933594 567.304688 459.933594 567.605469 Z M 459.933594 567.605469 "/>
<path style=" stroke:none;fill-rule:nonzero;fill:rgb(18.818665%,18.03894%,21.958923%);fill-opacity:1;" d="M 752.964844 441.480469 L 733.640625 440.195312 L 709.4375 493.363281 C 709.4375 493.363281 708.125 496.886719 715.820312 496.886719 C 721.097656 496.886719 722.363281 494.179688 722.363281 494.179688 Z M 752.964844 441.480469 "/>
<g clip-path="url(#clip1)" clip-rule="nonzero">
<path style=" stroke:none;fill-rule:nonzero;fill:rgb(18.818665%,18.03894%,21.958923%);fill-opacity:1;" d="M 753.414062 440.214844 C 753.414062 440.511719 753.351562 440.804688 753.222656 441.097656 C 753.097656 441.390625 752.910156 441.671875 752.660156 441.949219 C 752.410156 442.222656 752.105469 442.484375 751.746094 442.734375 C 751.382812 442.980469 750.972656 443.210938 750.515625 443.421875 C 750.054688 443.632812 749.554688 443.820312 749.015625 443.984375 C 748.476562 444.148438 747.90625 444.289062 747.304688 444.402344 C 746.703125 444.515625 746.085938 444.605469 745.449219 444.660156 C 744.8125 444.71875 744.167969 444.75 743.519531 444.75 C 742.867188 444.75 742.226562 444.71875 741.585938 444.660156 C 740.949219 444.601562 740.332031 444.515625 739.730469 444.402344 C 739.132812 444.289062 738.5625 444.148438 738.019531 443.984375 C 737.480469 443.820312 736.980469 443.628906 736.519531 443.421875 C 736.0625 443.210938 735.652344 442.980469 735.289062 442.734375 C 734.929688 442.484375 734.625 442.222656 734.375 441.949219 C 734.128906 441.671875 733.941406 441.390625 733.8125 441.097656 C 733.6875 440.804688 733.625 440.511719 733.625 440.214844 C 733.625 439.914062 733.6875 439.621094 733.8125 439.328125 C 733.941406 439.035156 734.128906 438.753906 734.375 438.476562 C 734.625 438.203125 734.929688 437.941406 735.289062 437.691406 C 735.652344 437.445312 736.0625 437.214844 736.519531 437.003906 C 736.980469 436.796875 737.480469 436.605469 738.019531 436.441406 C 738.5625 436.277344 739.132812 436.136719 739.730469 436.023438 C 740.332031 435.910156 740.949219 435.820312 741.585938 435.765625 C 742.226562 435.707031 742.867188 435.675781 743.519531 435.675781 C 744.167969 435.675781 744.8125 435.707031 745.449219 435.765625 C 746.085938 435.820312 746.703125 435.910156 747.304688 436.023438 C 747.90625 436.136719 748.476562 436.277344 749.015625 436.441406 C 749.554688 436.605469 750.054688 436.792969 750.515625 437.003906 C 750.972656 437.214844 751.382812 437.445312 751.746094 437.691406 C 752.105469 437.941406 752.410156 438.203125 752.660156 438.476562 C 752.910156 438.753906 753.097656 439.035156 753.222656 439.328125 C 753.351562 439.621094 753.414062 439.914062 753.414062 440.214844 Z M 753.414062 440.214844 "/>
</g>
<g clip-path="url(#clip2)" clip-rule="nonzero">
<g clip-path="url(#clip3)" clip-rule="nonzero">
<path style=" stroke:none;fill-rule:nonzero;fill:url(#linear0);" d="M 136.703125 260.601562 L 136.703125 586.902344 L 254.238281 586.902344 L 254.238281 260.601562 Z M 136.703125 260.601562 "/>
</g>
</g>
<path style=" stroke:none;fill-rule:nonzero;fill:rgb(10.198975%,30.589294%,27.059937%);fill-opacity:1;" d="M 204.539062 261.964844 L 316.816406 562.171875 C 316.816406 562.171875 294.203125 588.664062 253.292969 586.675781 Z M 204.539062 261.964844 "/>
<path style=" stroke:none;fill-rule:nonzero;fill:rgb(10.198975%,30.589294%,27.059937%);fill-opacity:1;" d="M 136.703125 562.363281 C 99.269531 548.914062 95.375 516.972656 95.375 516.972656 L 204.523438 260.601562 Z M 136.703125 562.363281 "/>
</g>
</svg>
