<?xml version="1.0" encoding="UTF-8"?>
<svg xmlns="http://www.w3.org/2000/svg" xmlns:xlink="http://www.w3.org/1999/xlink" width="810pt" height="809.999993pt" viewBox="0 0 810 809.999993" version="1.2">
<defs>
<clipPath id="clip1">
  <path d="M 81 81 L 729 81 L 729 298 L 81 298 Z M 81 81 "/>
</clipPath>
<clipPath id="clip2">
  <path d="M 81 594 L 729 594 L 729 729 L 81 729 Z M 81 594 "/>
</clipPath>
</defs>
<g id="surface1">
<path style=" stroke:none;fill-rule:nonzero;fill:rgb(4.708862%,22.349548%,19.60907%);fill-opacity:1;" d="M 526.230469 540 C 521.179688 540 516.484375 537.191406 514.160156 532.546875 L 458.730469 421.714844 L 458.730469 526.5 C 458.730469 533.953125 452.683594 540 445.230469 540 C 437.777344 540 431.730469 533.953125 431.730469 526.5 L 431.730469 364.5 C 431.730469 358.234375 436.023438 352.78125 442.125 351.351562 C 448.308594 349.972656 454.519531 352.863281 457.324219 358.453125 L 512.757812 469.285156 L 512.757812 364.5 C 512.757812 357.046875 518.804688 351 526.257812 351 C 533.707031 351 539.757812 357.046875 539.757812 364.5 L 539.757812 526.5 C 539.757812 532.765625 535.464844 538.21875 529.363281 539.648438 C 528.28125 539.890625 527.257812 540 526.230469 540 Z M 526.230469 540 "/>
<path style=" stroke:none;fill-rule:nonzero;fill:rgb(4.708862%,22.349548%,19.60907%);fill-opacity:1;" d="M 391.230469 540 C 385.585938 540 380.320312 536.4375 378.40625 530.765625 L 337.230469 407.1875 L 296.054688 530.765625 C 293.679688 537.867188 286.066406 541.699219 278.964844 539.296875 C 271.890625 536.949219 268.082031 529.308594 270.433594 522.234375 L 324.433594 360.234375 C 328.132812 349.21875 346.382812 349.21875 350.054688 360.234375 L 404.054688 522.234375 C 406.402344 529.308594 402.570312 536.949219 395.523438 539.296875 C 394.09375 539.785156 392.660156 540 391.230469 540 Z M 391.230469 540 "/>
<path style=" stroke:none;fill-rule:nonzero;fill:rgb(4.708862%,22.349548%,19.60907%);fill-opacity:1;" d="M 364.230469 486 L 310.230469 486 C 302.777344 486 296.730469 479.953125 296.730469 472.5 C 296.730469 465.046875 302.777344 459 310.230469 459 L 364.230469 459 C 371.683594 459 377.730469 465.046875 377.730469 472.5 C 377.730469 479.953125 371.710938 486 364.230469 486 Z M 364.230469 486 "/>
<path style=" stroke:none;fill-rule:nonzero;fill:rgb(4.708862%,22.349548%,19.60907%);fill-opacity:1;" d="M 188.730469 540 L 148.230469 540 C 140.777344 540 134.730469 533.953125 134.730469 526.5 L 134.730469 364.5 C 134.730469 357.046875 140.777344 351 148.230469 351 L 188.730469 351 C 218.511719 351 242.730469 375.21875 242.730469 405 C 242.730469 421.117188 235.628906 435.589844 224.398438 445.5 C 235.65625 455.410156 242.730469 469.882812 242.730469 486 C 242.730469 515.78125 218.511719 540 188.730469 540 Z M 161.730469 513 L 188.730469 513 C 203.632812 513 215.730469 500.878906 215.730469 486 C 215.730469 471.121094 203.632812 459 188.730469 459 L 161.730469 459 Z M 161.730469 432 L 188.730469 432 C 203.632812 432 215.730469 419.878906 215.730469 405 C 215.730469 390.121094 203.632812 378 188.730469 378 L 161.730469 378 Z M 161.730469 432 "/>
<path style=" stroke:none;fill-rule:nonzero;fill:rgb(4.708862%,22.349548%,19.60907%);fill-opacity:1;" d="M 580.230469 540 C 572.777344 540 566.730469 533.953125 566.730469 526.5 L 566.730469 364.5 C 566.730469 357.046875 572.777344 351 580.230469 351 C 587.683594 351 593.730469 357.046875 593.730469 364.5 L 593.730469 526.5 C 593.730469 533.953125 587.707031 540 580.230469 540 Z M 580.230469 540 "/>
<path style=" stroke:none;fill-rule:nonzero;fill:rgb(4.708862%,22.349548%,19.60907%);fill-opacity:1;" d="M 661.230469 540 C 657.367188 540 653.535156 538.351562 650.863281 535.140625 L 583.363281 454.140625 C 579.175781 449.117188 579.175781 441.855469 583.363281 436.832031 L 650.863281 355.832031 C 655.640625 350.109375 664.171875 349.378906 669.871094 354.105469 C 675.59375 358.882812 676.351562 367.390625 671.570312 373.140625 L 611.28125 445.5 L 671.570312 517.859375 C 676.351562 523.585938 675.566406 532.117188 669.871094 536.894531 C 667.359375 538.972656 664.308594 540 661.230469 540 Z M 661.230469 540 "/>
<g clip-path="url(#clip1)" clip-rule="nonzero">
<path style=" stroke:none;fill-rule:nonzero;fill:rgb(4.708862%,22.349548%,19.60907%);fill-opacity:1;" d="M 715.769531 297 C 715.660156 297 715.445312 297.027344 715.230469 297 L 94.230469 297 C 88.15625 297 82.78125 292.921875 81.214844 287.011719 C 79.597656 281.125 82.160156 274.914062 87.425781 271.808594 L 411.425781 82.808594 C 415.800781 80.269531 421.199219 80.378906 425.492188 83.078125 L 720.523438 270.835938 C 725.625 272.78125 729.269531 277.722656 729.269531 283.5 C 729.269531 290.953125 723.222656 297 715.769531 297 Z M 144.179688 270 L 668.898438 270 L 417.933594 110.296875 Z M 144.179688 270 "/>
</g>
<g clip-path="url(#clip2)" clip-rule="nonzero">
<path style=" stroke:none;fill-rule:nonzero;fill:rgb(4.708862%,22.349548%,19.60907%);fill-opacity:1;" d="M 715.230469 729 L 94.230469 729 C 86.777344 729 80.730469 722.953125 80.730469 715.5 L 80.730469 607.5 C 80.730469 600.046875 86.777344 594 94.230469 594 L 715.230469 594 C 722.683594 594 728.730469 600.046875 728.730469 607.5 L 728.730469 715.5 C 728.730469 722.953125 722.707031 729 715.230469 729 Z M 107.730469 702 L 701.730469 702 L 701.730469 621 L 107.730469 621 Z M 107.730469 702 "/>
</g>
</g>
</svg>
