<?xml version="1.0" encoding="UTF-8"?>
<svg xmlns="http://www.w3.org/2000/svg" xmlns:xlink="http://www.w3.org/1999/xlink" width="375pt" height="374.999991pt" viewBox="0 0 375 374.999991" version="1.2">
<defs>
<clipPath id="clip1">
  <path d="M 190 107 L 337.5 107 L 337.5 313.875 L 190 313.875 Z M 190 107 "/>
</clipPath>
<clipPath id="clip2">
  <path d="M 190 64 L 305 64 L 305 313.875 L 190 313.875 Z M 190 64 "/>
</clipPath>
<clipPath id="clip3">
  <path d="M 190 84 L 321 84 L 321 313.875 L 190 313.875 Z M 190 84 "/>
</clipPath>
<clipPath id="clip4">
  <path d="M 37.5 107 L 185 107 L 185 313.875 L 37.5 313.875 Z M 37.5 107 "/>
</clipPath>
<clipPath id="clip5">
  <path d="M 70 64 L 185 64 L 185 313.875 L 70 313.875 Z M 70 64 "/>
</clipPath>
<clipPath id="clip6">
  <path d="M 54 84 L 185 84 L 185 313.875 L 54 313.875 Z M 54 84 "/>
</clipPath>
</defs>
<g id="surface1">
<g clip-path="url(#clip1)" clip-rule="nonzero">
<path style=" stroke:none;fill-rule:nonzero;fill:rgb(4.708862%,22.349548%,19.60907%);fill-opacity:1;" d="M 320.539062 107.699219 C 320.539062 112.023438 320.539062 116.351562 320.539062 120.683594 C 322 121.132812 323.445312 121.601562 324.890625 122.078125 C 324.890625 180.101562 324.890625 238.121094 324.890625 296.144531 C 302.105469 288.519531 278.234375 285.296875 254.527344 286.46875 C 232.765625 290.949219 211.011719 300.15625 190.515625 313.84375 C 237.574219 294.347656 290.441406 294.347656 337.496094 313.84375 C 337.496094 247.160156 337.496094 180.480469 337.496094 113.800781 C 331.925781 111.488281 326.265625 109.457031 320.539062 107.699219 "/>
</g>
<g clip-path="url(#clip2)" clip-rule="nonzero">
<path style=" stroke:none;fill-rule:nonzero;fill:rgb(4.708862%,22.349548%,19.60907%);fill-opacity:1;" d="M 200.25 291.953125 C 230.773438 265.613281 263.792969 251.402344 294.3125 251.480469 C 294.3125 193.46875 294.3125 135.445312 294.3125 77.425781 C 263.792969 77.347656 230.773438 91.550781 200.25 117.894531 C 200.25 175.914062 200.25 233.929688 200.25 291.953125 Z M 304.050781 264.996094 C 267.703125 261.144531 226.863281 278.714844 190.515625 313.84375 C 190.515625 247.160156 190.515625 180.480469 190.515625 113.800781 C 226.863281 78.675781 267.703125 61.097656 304.050781 64.957031 C 304.050781 131.636719 304.050781 198.316406 304.050781 264.996094 "/>
</g>
<g clip-path="url(#clip3)" clip-rule="nonzero">
<path style=" stroke:none;fill-rule:nonzero;fill:rgb(4.708862%,22.349548%,19.60907%);fill-opacity:1;" d="M 304.050781 84.554688 C 304.050781 88.882812 304.050781 93.214844 304.050781 97.535156 C 305.835938 97.785156 307.621094 98.074219 309.390625 98.386719 C 309.390625 156.402344 309.390625 214.429688 309.390625 272.445312 C 288.660156 268.742188 266.910156 269.890625 245.347656 275.652344 C 226.703125 283.988281 208.082031 296.863281 190.515625 313.84375 C 232.144531 286.046875 278.917969 276.730469 320.539062 287.921875 C 320.539062 221.242188 320.539062 154.5625 320.539062 87.886719 C 315.125 86.425781 309.617188 85.320312 304.050781 84.554688 "/>
</g>
<g clip-path="url(#clip4)" clip-rule="nonzero">
<path style=" stroke:none;fill-rule:nonzero;fill:rgb(4.708862%,22.349548%,19.60907%);fill-opacity:1;" d="M 54.460938 107.699219 C 54.460938 112.023438 54.460938 116.351562 54.460938 120.683594 C 53.007812 121.132812 51.558594 121.601562 50.113281 122.078125 C 50.113281 180.101562 50.113281 238.121094 50.113281 296.144531 C 72.90625 288.519531 96.777344 285.296875 120.480469 286.46875 C 142.238281 290.949219 163.988281 300.15625 184.488281 313.84375 C 137.433594 294.347656 84.5625 294.347656 37.503906 313.84375 C 37.503906 247.160156 37.503906 180.480469 37.503906 113.800781 C 43.085938 111.488281 48.742188 109.457031 54.460938 107.699219 "/>
</g>
<g clip-path="url(#clip5)" clip-rule="nonzero">
<path style=" stroke:none;fill-rule:nonzero;fill:rgb(4.708862%,22.349548%,19.60907%);fill-opacity:1;" d="M 174.75 117.894531 C 144.234375 91.550781 111.207031 77.347656 80.695312 77.425781 C 80.695312 135.445312 80.695312 193.46875 80.695312 251.480469 C 111.207031 251.402344 144.234375 265.613281 174.75 291.953125 C 174.75 233.929688 174.75 175.914062 174.75 117.894531 Z M 70.957031 64.957031 C 107.304688 61.097656 148.140625 78.675781 184.488281 113.800781 C 184.488281 180.480469 184.488281 247.160156 184.488281 313.84375 C 148.140625 278.714844 107.304688 261.144531 70.957031 264.996094 C 70.957031 198.316406 70.957031 131.636719 70.957031 64.957031 "/>
</g>
<g clip-path="url(#clip6)" clip-rule="nonzero">
<path style=" stroke:none;fill-rule:nonzero;fill:rgb(4.708862%,22.349548%,19.60907%);fill-opacity:1;" d="M 70.957031 84.554688 C 70.957031 88.882812 70.957031 93.214844 70.957031 97.535156 C 69.167969 97.785156 67.382812 98.074219 65.613281 98.386719 C 65.613281 156.402344 65.613281 214.429688 65.613281 272.445312 C 86.34375 268.742188 108.101562 269.890625 129.652344 275.652344 C 148.304688 283.988281 166.921875 296.863281 184.488281 313.84375 C 142.859375 286.046875 96.089844 276.730469 54.460938 287.921875 C 54.460938 221.242188 54.460938 154.5625 54.460938 87.886719 C 59.878906 86.425781 65.386719 85.320312 70.957031 84.554688 "/>
</g>
</g>
</svg>
