<?xml version="1.0" encoding="UTF-8"?>
<svg xmlns="http://www.w3.org/2000/svg" xmlns:xlink="http://www.w3.org/1999/xlink" width="375pt" height="374.999991pt" viewBox="0 0 375 374.999991" version="1.2">
<defs>
<clipPath id="clip1">
  <path d="M 48 43.875 L 336 43.875 L 336 331.125 L 48 331.125 Z M 48 43.875 "/>
</clipPath>
</defs>
<g id="surface1">
<path style=" stroke:none;fill-rule:nonzero;fill:rgb(4.708862%,22.349548%,19.60907%);fill-opacity:1;" d="M 158.660156 84.246094 C 160.421875 84.246094 161.851562 82.816406 161.851562 81.054688 C 161.851562 79.292969 160.421875 77.863281 158.660156 77.863281 C 138.257812 77.863281 119.074219 85.808594 104.644531 100.234375 C 90.21875 114.664062 82.273438 133.847656 82.273438 154.25 C 82.273438 156.011719 83.699219 157.441406 85.464844 157.441406 C 87.226562 157.441406 88.652344 156.011719 88.652344 154.25 C 88.652344 135.550781 95.9375 117.96875 109.15625 104.746094 C 122.382812 91.523438 139.960938 84.246094 158.660156 84.246094 Z M 158.660156 84.246094 "/>
<g clip-path="url(#clip1)" clip-rule="nonzero">
<path style=" stroke:none;fill-rule:nonzero;fill:rgb(4.708862%,22.349548%,19.60907%);fill-opacity:1;" d="M 158.660156 264.550781 C 183.070312 264.550781 207.445312 256.480469 227.546875 240.367188 L 239.640625 252.457031 C 238.621094 258.871094 240.5 265.667969 245.449219 270.582031 L 299.816406 324.953125 C 303.902344 329.035156 309.230469 331.078125 314.589844 331.078125 C 319.921875 331.078125 325.28125 329.035156 329.363281 324.953125 C 337.53125 316.785156 337.53125 303.542969 329.363281 295.40625 L 274.992188 241.035156 C 270.082031 236.089844 263.285156 234.207031 256.871094 235.226562 L 244.777344 223.132812 C 279.523438 179.804688 276.8125 116.40625 236.640625 76.234375 C 215.105469 54.699219 186.867188 43.914062 158.660156 43.914062 C 130.421875 43.914062 102.183594 54.699219 80.648438 76.234375 C 37.539062 119.3125 37.539062 189.15625 80.648438 232.230469 C 102.183594 253.796875 130.421875 264.550781 158.660156 264.550781 Z M 97.878906 93.464844 C 114.117188 77.226562 135.6875 68.289062 158.660156 68.289062 C 181.601562 68.289062 203.171875 77.226562 219.410156 93.464844 C 235.652344 109.707031 244.585938 131.273438 244.585938 154.25 C 244.585938 177.191406 235.652344 198.757812 219.410156 215 C 203.171875 231.242188 181.601562 240.175781 158.660156 240.175781 C 135.6875 240.175781 114.117188 231.242188 97.878906 215 C 81.636719 198.757812 72.703125 177.191406 72.703125 154.25 C 72.703125 131.273438 81.636719 109.707031 97.878906 93.464844 Z M 97.878906 93.464844 "/>
</g>
</g>
</svg>
