<?xml version="1.0" encoding="UTF-8"?>
<svg xmlns="http://www.w3.org/2000/svg" xmlns:xlink="http://www.w3.org/1999/xlink" width="375pt" height="374.999991pt" viewBox="0 0 375 374.999991" version="1.2">
<g id="surface1">
<path style=" stroke:none;fill-rule:nonzero;fill:rgb(30.589294%,10.198975%,13.729858%);fill-opacity:1;" d="M 331.765625 303.652344 L 303.652344 331.765625 C 297.933594 337.484375 288.660156 337.484375 282.9375 331.765625 L 190.171875 239 C 188.691406 237.515625 186.285156 237.515625 184.800781 239 L 92.035156 331.765625 C 86.316406 337.484375 77.039062 337.484375 71.320312 331.765625 L 43.210938 303.652344 C 37.488281 297.933594 37.488281 288.660156 43.210938 282.941406 L 135.976562 190.171875 C 137.460938 188.691406 137.460938 186.285156 135.976562 184.800781 L 43.210938 92.03125 C 37.488281 86.316406 37.488281 77.042969 43.210938 71.320312 L 71.320312 43.210938 C 77.039062 37.488281 86.316406 37.488281 92.035156 43.210938 L 184.800781 135.976562 C 186.285156 137.460938 188.691406 137.460938 190.171875 135.976562 L 282.9375 43.210938 C 288.660156 37.488281 297.933594 37.488281 303.652344 43.210938 L 331.765625 71.320312 C 337.484375 77.042969 337.484375 86.316406 331.765625 92.03125 L 239 184.800781 C 237.515625 186.285156 237.515625 188.691406 239 190.171875 L 331.765625 282.941406 C 337.484375 288.660156 337.484375 297.933594 331.765625 303.652344 "/>
</g>
</svg>
