<?xml version="1.0" encoding="UTF-8"?>
<svg xmlns="http://www.w3.org/2000/svg" xmlns:xlink="http://www.w3.org/1999/xlink" width="810pt" height="809.999993pt" viewBox="0 0 810 809.999993" version="1.2">
<defs>
<clipPath id="clip1">
  <path d="M 81 81 L 729 81 L 729 729 L 81 729 Z M 81 81 "/>
</clipPath>
</defs>
<g id="surface1">
<g clip-path="url(#clip1)" clip-rule="nonzero">
<path style=" stroke:none;fill-rule:nonzero;fill:rgb(4.708862%,22.349548%,19.60907%);fill-opacity:1;" d="M 415.5625 81.621094 C 413.640625 81.515625 411.722656 81.367188 409.785156 81.367188 C 409.253906 81.367188 408.726562 81.433594 408.195312 81.441406 C 407.265625 81.433594 406.34375 81.367188 405.40625 81.367188 C 226.730469 81.367188 81.367188 226.730469 81.367188 405.40625 C 81.367188 584.085938 226.730469 729.449219 405.40625 729.449219 C 584.085938 729.449219 729.449219 584.085938 729.449219 405.40625 C 729.449219 230.136719 589.546875 87.015625 415.5625 81.621094 Z M 329.007812 115.730469 C 300.789062 141.457031 277.113281 180.417969 260.222656 228.457031 C 234.832031 219.882812 211.609375 209.050781 191.25 196.207031 C 228.539062 158.035156 275.890625 129.75 329.007812 115.730469 Z M 174.636719 214.59375 C 197.558594 229.503906 223.894531 241.988281 252.773438 251.714844 C 240.570312 293.871094 233.355469 341.832031 232.371094 393.179688 L 106.128906 393.179688 C 108.859375 325.496094 134.101562 263.515625 174.636719 214.59375 Z M 169.378906 589.585938 C 131.960938 541.742188 108.746094 482.320312 106.128906 417.632812 L 232.371094 417.632812 C 233.308594 465.308594 239.632812 510.035156 250.304688 549.914062 C 220.097656 560.316406 192.699219 573.667969 169.378906 589.585938 Z M 185.257812 608.332031 C 206.09375 594.386719 230.359375 582.558594 257.199219 573.242188 C 274.324219 625.644531 299.363281 667.964844 329.515625 695.230469 C 273.3125 680.503906 223.527344 649.8125 185.257812 608.332031 Z M 393.171875 702.875 C 345.929688 692.859375 305.09375 640.652344 280.691406 565.980469 C 315.496094 556.25 353.582031 550.40625 393.171875 549.132812 Z M 393.171875 524.65625 C 351.300781 525.953125 310.824219 532.148438 273.785156 542.554688 C 263.785156 504.847656 257.761719 462.511719 256.824219 417.632812 L 393.179688 417.632812 L 393.179688 524.65625 Z M 393.171875 393.179688 L 256.824219 393.179688 C 257.808594 344.527344 264.769531 298.859375 276.296875 258.828125 C 312.625 268.773438 352.140625 274.640625 393.179688 275.898438 L 393.179688 393.179688 Z M 393.171875 251.445312 C 354.644531 250.230469 317.65625 244.753906 283.714844 235.558594 C 308.386719 165.679688 347.835938 117.222656 393.171875 107.613281 Z M 639.113281 218.269531 C 677.894531 266.613281 702.019531 327.160156 704.6875 393.179688 L 587.207031 393.179688 C 586.21875 341.78125 578.980469 293.796875 566.773438 251.609375 C 593.230469 242.707031 617.601562 231.523438 639.113281 218.269531 Z M 622.792969 199.589844 C 603.792969 210.917969 582.4375 220.5625 559.3125 228.359375 C 543.214844 182.59375 520.972656 145.019531 494.480469 119.34375 C 543.988281 134.789062 587.957031 162.8125 622.792969 199.589844 Z M 417.625 106.210938 C 466.621094 111.070312 509.585938 161.1875 535.839844 235.527344 C 499.257812 245.445312 459.15625 250.972656 417.625 251.589844 Z M 417.625 276.042969 C 461.648438 275.410156 504.285156 269.464844 543.273438 258.804688 C 554.796875 298.835938 561.765625 344.527344 562.753906 393.179688 L 417.625 393.179688 Z M 417.625 417.632812 L 562.753906 417.632812 C 561.816406 462.539062 555.792969 504.890625 545.78125 542.605469 C 506.039062 531.445312 462.40625 525.179688 417.625 524.507812 Z M 417.625 704.277344 L 417.625 548.96875 C 460.140625 549.621094 501.402344 555.546875 538.863281 566.03125 C 512.949219 645.265625 468.554688 699.234375 417.625 704.277344 Z M 493.96875 691.628906 C 522.347656 664.324219 545.945312 623.460938 562.3125 573.398438 C 586.816406 581.890625 609.230469 592.429688 628.769531 604.78125 C 592.945312 644.875 546.550781 675.316406 493.96875 691.628906 Z M 644.484375 585.707031 C 622.476562 571.515625 597.035156 559.507812 569.25 549.964844 C 579.933594 510.066406 586.261719 465.324219 587.199219 417.632812 L 704.6875 417.632812 C 702.144531 480.566406 680.136719 538.546875 644.484375 585.707031 Z M 644.484375 585.707031 "/>
</g>
</g>
</svg>
