<?xml version="1.0" encoding="UTF-8"?>
<svg xmlns="http://www.w3.org/2000/svg" xmlns:xlink="http://www.w3.org/1999/xlink" width="375pt" height="374.999991pt" viewBox="0 0 375 374.999991" version="1.2">
<defs>
<clipPath id="clip1">
  <path d="M 42.1875 37.5 L 333 37.5 L 333 337.5 L 42.1875 337.5 Z M 42.1875 37.5 "/>
</clipPath>
</defs>
<g id="surface1">
<path style=" stroke:none;fill-rule:nonzero;fill:rgb(4.708862%,22.349548%,19.60907%);fill-opacity:1;" d="M 66.757812 168.417969 L 77.324219 168.417969 C 79.324219 174.027344 84.648438 178.078125 90.945312 178.078125 C 97.242188 178.078125 102.5625 174.027344 104.566406 168.417969 L 125.699219 168.417969 C 127.703125 174.027344 133.023438 178.078125 139.320312 178.078125 C 145.617188 178.078125 150.941406 174.027344 152.941406 168.417969 L 167.496094 168.417969 C 170.167969 168.417969 172.335938 166.257812 172.335938 163.585938 L 172.335938 149.09375 C 172.335938 142.070312 166.984375 136.011719 159.804688 134.820312 L 150.710938 131.792969 L 137.710938 113.859375 C 137.53125 113.609375 137.328125 113.382812 137.105469 113.171875 C 135.234375 111.414062 132.765625 110.445312 130.15625 110.445312 L 98.878906 110.445312 C 95.8125 110.445312 92.859375 111.851562 90.984375 114.199219 L 77.722656 130.8125 L 70.503906 134.699219 C 65.660156 135.351562 61.921875 139.394531 61.921875 144.261719 L 61.921875 163.585938 C 61.921875 166.257812 64.089844 168.417969 66.757812 168.417969 Z M 90.945312 168.417969 C 88.277344 168.417969 86.105469 166.253906 86.105469 163.585938 C 86.105469 160.921875 88.277344 158.757812 90.945312 158.757812 C 93.609375 158.757812 95.78125 160.921875 95.78125 163.585938 C 95.78125 166.253906 93.609375 168.417969 90.945312 168.417969 Z M 139.316406 168.417969 C 136.652344 168.417969 134.480469 166.253906 134.480469 163.585938 C 134.480469 160.921875 136.652344 158.757812 139.316406 158.757812 C 141.980469 158.757812 144.152344 160.921875 144.152344 163.585938 C 144.152344 166.253906 141.980469 168.417969 139.316406 168.417969 Z M 130.367188 120.210938 L 137.292969 129.769531 L 119.96875 129.769531 L 119.96875 120.175781 Z M 110.292969 120.148438 L 110.292969 129.769531 L 91.03125 129.769531 L 98.871094 120.109375 Z M 71.894531 144.261719 C 72.699219 144.261719 73.480469 144.066406 74.1875 143.6875 L 82.105469 139.433594 L 144.152344 139.433594 L 144.152344 139.089844 C 144.710938 139.703125 145.382812 140.207031 146.175781 140.472656 L 157.136719 144.117188 C 157.425781 144.214844 157.722656 144.277344 158.019531 144.320312 C 160.664062 144.675781 162.65625 146.726562 162.65625 149.09375 L 162.65625 158.757812 L 152.9375 158.757812 C 150.933594 153.148438 145.613281 149.09375 139.316406 149.09375 C 133.019531 149.09375 127.695312 153.148438 125.695312 158.757812 L 104.5625 158.757812 C 102.558594 153.148438 97.238281 149.09375 90.941406 149.09375 C 84.640625 149.09375 79.320312 153.148438 77.316406 158.757812 L 71.671875 158.757812 Z M 71.894531 144.261719 "/>
<path style=" stroke:none;fill-rule:nonzero;fill:rgb(4.708862%,22.349548%,19.60907%);fill-opacity:1;" d="M 171.757812 237.464844 L 163.5 229.21875 L 163.5 211.894531 L 153.828125 211.894531 L 153.828125 219.558594 L 142.734375 208.480469 C 140.84375 206.589844 137.789062 206.589844 135.894531 208.480469 L 106.875 237.464844 C 105.488281 238.847656 105.074219 240.925781 105.824219 242.730469 C 106.574219 244.539062 108.339844 245.710938 110.292969 245.710938 L 115.128906 245.710938 L 115.128906 269.867188 C 115.128906 272.539062 117.296875 274.699219 119.96875 274.699219 L 158.664062 274.699219 C 161.335938 274.699219 163.5 272.539062 163.5 269.867188 L 163.5 245.710938 L 168.339844 245.710938 C 170.292969 245.710938 172.058594 244.539062 172.808594 242.730469 C 173.558594 240.925781 173.140625 238.847656 171.757812 237.464844 Z M 153.828125 240.882812 L 153.828125 265.035156 L 124.804688 265.035156 L 124.804688 240.882812 C 124.804688 238.808594 123.5 237.042969 121.664062 236.355469 L 139.316406 218.726562 L 156.964844 236.355469 C 155.132812 237.042969 153.828125 238.808594 153.828125 240.882812 Z M 153.828125 240.882812 "/>
<path style=" stroke:none;fill-rule:nonzero;fill:rgb(4.708862%,22.349548%,19.60907%);fill-opacity:1;" d="M 246.269531 238.390625 C 248.917969 235.078125 250.570312 230.945312 250.570312 226.390625 C 250.570312 215.730469 241.894531 207.066406 231.222656 207.066406 C 220.550781 207.066406 211.875 215.730469 211.875 226.390625 C 211.875 230.945312 213.527344 235.078125 216.171875 238.390625 C 207.945312 242.25 202.199219 250.542969 202.199219 260.207031 L 202.199219 269.867188 C 202.199219 272.539062 204.367188 274.699219 207.035156 274.699219 L 255.40625 274.699219 C 258.078125 274.699219 260.246094 272.539062 260.246094 269.867188 L 260.246094 260.207031 C 260.246094 250.542969 254.5 242.25 246.269531 238.390625 Z M 231.222656 216.726562 C 236.558594 216.726562 240.894531 221.058594 240.894531 226.390625 C 240.894531 231.71875 236.558594 236.050781 231.222656 236.050781 C 225.886719 236.050781 221.546875 231.71875 221.546875 226.390625 C 221.546875 221.058594 225.886719 216.726562 231.222656 216.726562 Z M 250.570312 265.035156 L 211.875 265.035156 L 211.875 260.207031 C 211.875 252.214844 218.382812 245.710938 226.382812 245.710938 L 236.058594 245.710938 C 244.058594 245.710938 250.570312 252.214844 250.570312 260.207031 Z M 250.570312 265.035156 "/>
<path style=" stroke:none;fill-rule:nonzero;fill:rgb(4.708862%,22.349548%,19.60907%);fill-opacity:1;" d="M 284.429688 216.726562 L 274.757812 216.726562 L 274.757812 207.066406 L 265.082031 207.066406 L 265.082031 216.726562 L 255.40625 216.726562 L 255.40625 226.390625 L 265.082031 226.390625 L 265.082031 236.050781 L 274.757812 236.050781 L 274.757812 226.390625 L 284.429688 226.390625 Z M 284.429688 216.726562 "/>
<path style=" stroke:none;fill-rule:nonzero;fill:rgb(4.708862%,22.349548%,19.60907%);fill-opacity:1;" d="M 303.777344 129.769531 C 303.777344 123.316406 301.265625 117.253906 296.699219 112.691406 C 287.269531 103.277344 271.921875 103.277344 262.492188 112.691406 L 259.074219 116.109375 L 255.65625 112.691406 C 251.082031 108.132812 245.011719 105.617188 238.550781 105.617188 C 232.085938 105.617188 226.015625 108.132812 221.445312 112.691406 C 216.878906 117.25 214.359375 123.316406 214.359375 129.769531 C 214.359375 132.96875 214.984375 136.074219 216.167969 138.945312 L 211.875 138.945312 L 211.875 148.605469 L 223.210938 148.605469 L 255.65625 181.007812 C 256.5625 181.914062 257.792969 182.421875 259.074219 182.421875 C 260.355469 182.421875 261.589844 181.914062 262.492188 181.007812 L 296.699219 146.847656 C 297.652344 145.894531 298.457031 144.847656 299.226562 143.773438 L 308.617188 143.773438 L 308.617188 134.113281 L 303.351562 134.113281 C 303.609375 132.691406 303.777344 131.25 303.777344 129.769531 Z M 224.039062 129.769531 C 224.039062 125.894531 225.546875 122.257812 228.289062 119.523438 C 231.035156 116.789062 234.671875 115.277344 238.550781 115.277344 C 242.425781 115.277344 246.066406 116.785156 248.808594 119.523438 L 255.648438 126.355469 C 257.539062 128.242188 260.597656 128.242188 262.488281 126.355469 L 269.328125 119.523438 C 274.984375 113.871094 284.195312 113.867188 289.851562 119.523438 C 292.59375 122.257812 294.105469 125.894531 294.105469 129.769531 C 294.105469 131.273438 293.808594 132.722656 293.375 134.113281 L 274.757812 134.113281 C 273.472656 134.113281 272.242188 134.621094 271.335938 135.527344 L 265.082031 141.773438 L 253.992188 130.699219 C 252.097656 128.808594 249.042969 128.808594 247.152344 130.699219 L 238.894531 138.945312 L 227.40625 138.945312 C 225.261719 136.359375 224.039062 133.175781 224.039062 129.769531 Z M 259.070312 170.761719 L 236.886719 148.605469 L 240.894531 148.605469 C 242.179688 148.605469 243.410156 148.097656 244.316406 147.191406 L 250.570312 140.945312 L 261.660156 152.023438 C 262.605469 152.964844 263.84375 153.4375 265.082031 153.4375 C 266.320312 153.4375 267.558594 152.964844 268.5 152.023438 L 276.757812 143.773438 L 286.089844 143.773438 Z M 259.070312 170.761719 "/>
<g clip-path="url(#clip1)" clip-rule="nonzero">
<path style=" stroke:none;fill-rule:nonzero;fill:rgb(4.708862%,22.349548%,19.60907%);fill-opacity:1;" d="M 327.964844 91.125 L 318.628906 91.125 C 282.761719 91.125 244.230469 76.03125 197.371094 43.628906 L 190.445312 38.84375 C 188.785156 37.703125 186.59375 37.703125 184.933594 38.84375 L 178.007812 43.628906 C 131.144531 76.03125 92.613281 91.125 56.746094 91.125 L 47.410156 91.125 C 44.738281 91.125 42.574219 93.28125 42.574219 95.953125 L 42.574219 128.773438 C 42.574219 213.394531 91.875 291.839844 168.175781 328.625 L 185.582031 337.015625 C 186.246094 337.339844 186.964844 337.5 187.6875 337.5 C 188.269531 337.5 188.847656 337.398438 189.398438 337.1875 C 275.171875 304.691406 332.800781 221.3125 332.800781 129.691406 L 332.800781 95.953125 C 332.800781 93.28125 330.636719 91.125 327.964844 91.125 Z M 52.246094 100.785156 L 56.746094 100.785156 C 94.5 100.785156 134.59375 85.273438 182.851562 52.023438 L 182.851562 192.574219 L 62.234375 192.574219 C 55.734375 172.1875 52.246094 150.703125 52.246094 128.773438 Z M 65.550781 202.234375 L 182.851562 202.234375 L 182.851562 324.972656 L 172.378906 319.925781 C 122.324219 295.789062 84.425781 252.90625 65.550781 202.234375 Z M 192.523438 325.5 L 192.523438 202.234375 L 310.144531 202.234375 C 290.027344 256.941406 247.792969 302.402344 192.523438 325.5 Z M 323.128906 129.691406 C 323.128906 151.339844 319.761719 172.5 313.457031 192.574219 L 192.523438 192.574219 L 192.523438 52.023438 C 240.78125 85.273438 280.875 100.785156 318.628906 100.785156 L 323.128906 100.785156 Z M 323.128906 129.691406 "/>
</g>
</g>
</svg>
