<?xml version="1.0" encoding="UTF-8"?>
<svg xmlns="http://www.w3.org/2000/svg" xmlns:xlink="http://www.w3.org/1999/xlink" width="810pt" height="809.999993pt" viewBox="0 0 810 809.999993" version="1.2">
<defs>
<clipPath id="clip1">
  <path d="M 189.136719 378 L 621.136719 378 L 621.136719 729 L 189.136719 729 Z M 189.136719 378 "/>
</clipPath>
</defs>
<g id="surface1">
<path style=" stroke:none;fill-rule:nonzero;fill:rgb(4.708862%,22.349548%,19.60907%);fill-opacity:1;" d="M 580.636719 405 C 573.183594 405 567.136719 398.957031 567.136719 391.507812 L 567.136719 270.089844 C 567.136719 180.804688 494.476562 108.195312 405.136719 108.195312 C 315.792969 108.195312 243.136719 180.804688 243.136719 270.089844 L 243.136719 391.507812 C 243.136719 398.957031 237.085938 405 229.636719 405 C 222.183594 405 216.136719 398.957031 216.136719 391.507812 L 216.136719 270.089844 C 216.136719 165.9375 300.914062 81.210938 405.136719 81.210938 C 509.355469 81.210938 594.136719 165.9375 594.136719 270.089844 L 594.136719 391.507812 C 594.136719 398.957031 588.085938 405 580.636719 405 Z M 580.636719 405 "/>
<path style=" stroke:none;fill-rule:nonzero;fill:rgb(4.708862%,22.349548%,19.60907%);fill-opacity:1;" d="M 526.636719 405 C 519.183594 405 513.136719 398.957031 513.136719 391.507812 L 513.136719 270.089844 C 513.136719 210.566406 464.695312 162.160156 405.136719 162.160156 C 345.574219 162.160156 297.136719 210.566406 297.136719 270.089844 L 297.136719 391.507812 C 297.136719 398.957031 291.085938 405 283.636719 405 C 276.183594 405 270.136719 398.957031 270.136719 391.507812 L 270.136719 270.089844 C 270.136719 195.699219 330.695312 135.175781 405.136719 135.175781 C 479.574219 135.175781 540.136719 195.699219 540.136719 270.089844 L 540.136719 391.507812 C 540.136719 398.957031 534.085938 405 526.636719 405 Z M 526.636719 405 "/>
<g clip-path="url(#clip1)" clip-rule="nonzero">
<path style=" stroke:none;fill-rule:nonzero;fill:rgb(4.708862%,22.349548%,19.60907%);fill-opacity:1;" d="M 553.636719 728.789062 L 256.636719 728.789062 C 219.429688 728.789062 189.136719 698.515625 189.136719 661.332031 L 189.136719 418.492188 C 189.136719 396.175781 207.304688 378.019531 229.636719 378.019531 L 580.636719 378.019531 C 602.964844 378.019531 621.136719 396.175781 621.136719 418.492188 L 621.136719 661.332031 C 621.136719 698.515625 590.839844 728.789062 553.636719 728.789062 Z M 229.636719 405 C 222.183594 405 216.136719 411.042969 216.136719 418.492188 L 216.136719 661.332031 C 216.136719 683.648438 234.304688 701.804688 256.636719 701.804688 L 553.636719 701.804688 C 575.964844 701.804688 594.136719 683.648438 594.136719 661.332031 L 594.136719 418.492188 C 594.136719 411.042969 588.085938 405 580.636719 405 Z M 229.636719 405 "/>
</g>
<path style=" stroke:none;fill-rule:nonzero;fill:rgb(4.708862%,22.349548%,19.60907%);fill-opacity:1;" d="M 445.636719 620.859375 L 364.636719 620.859375 C 360.289062 620.859375 356.210938 618.78125 353.671875 615.246094 C 351.136719 611.738281 350.433594 607.207031 351.835938 603.078125 L 368.683594 552.566406 C 357.535156 542.476562 351.136719 528.28125 351.136719 512.929688 C 351.136719 483.167969 375.355469 458.964844 405.136719 458.964844 C 434.914062 458.964844 459.136719 483.167969 459.136719 512.929688 C 459.136719 528.28125 452.734375 542.476562 441.585938 552.59375 L 458.433594 603.105469 C 459.808594 607.207031 459.109375 611.738281 456.597656 615.273438 C 454.058594 618.78125 449.980469 620.859375 445.636719 620.859375 Z M 383.371094 593.875 L 426.898438 593.875 L 412.882812 551.890625 C 410.859375 545.875 413.34375 539.265625 418.796875 536.027344 C 427.140625 531.0625 432.136719 522.425781 432.136719 512.929688 C 432.136719 498.0625 420.011719 485.945312 405.136719 485.945312 C 390.257812 485.945312 378.136719 498.0625 378.136719 512.929688 C 378.136719 522.425781 383.128906 531.0625 391.472656 536.027344 C 396.925781 539.265625 399.382812 545.875 397.386719 551.890625 Z M 383.371094 593.875 "/>
</g>
</svg>
