<?xml version="1.0" encoding="UTF-8"?>
<svg xmlns="http://www.w3.org/2000/svg" xmlns:xlink="http://www.w3.org/1999/xlink" width="810pt" height="809.999993pt" viewBox="0 0 810 809.999993" version="1.2">
<defs>
<clipPath id="clip1">
  <path d="M 165.238281 81 L 644.488281 81 L 644.488281 729 L 165.238281 729 Z M 165.238281 81 "/>
</clipPath>
</defs>
<g id="surface1">
<g clip-path="url(#clip1)" clip-rule="nonzero">
<path style=" stroke:none;fill-rule:nonzero;fill:rgb(4.708862%,22.349548%,19.60907%);fill-opacity:1;" d="M 487.84375 571.867188 L 487.84375 699.757812 L 194.257812 699.757812 L 194.257812 109.957031 L 615.660156 109.957031 L 615.660156 571.867188 Z M 516.742188 676.355469 L 516.742188 600.78125 L 598.019531 600.78125 Z M 165.355469 81.042969 L 165.355469 728.671875 L 502.921875 728.671875 L 534.023438 699.757812 L 615.660156 623.851562 L 644.558594 596.980469 L 644.558594 81.042969 L 165.355469 81.042969 "/>
</g>
<path style=" stroke:none;fill-rule:nonzero;fill:rgb(4.708862%,22.349548%,19.60907%);fill-opacity:1;" d="M 540.054688 198.34375 L 269.871094 198.34375 L 269.871094 169.425781 L 540.054688 169.425781 L 540.054688 198.34375 "/>
<path style=" stroke:none;fill-rule:nonzero;fill:rgb(4.708862%,22.349548%,19.60907%);fill-opacity:1;" d="M 540.054688 273.191406 L 269.871094 273.191406 L 269.871094 244.277344 L 540.054688 244.277344 L 540.054688 273.191406 "/>
<path style=" stroke:none;fill-rule:nonzero;fill:rgb(4.708862%,22.349548%,19.60907%);fill-opacity:1;" d="M 540.054688 348.042969 L 269.871094 348.042969 L 269.871094 319.125 L 540.054688 319.125 L 540.054688 348.042969 "/>
<path style=" stroke:none;fill-rule:nonzero;fill:rgb(4.708862%,22.349548%,19.60907%);fill-opacity:1;" d="M 540.054688 422.890625 L 269.871094 422.890625 L 269.871094 393.976562 L 540.054688 393.976562 L 540.054688 422.890625 "/>
<path style=" stroke:none;fill-rule:nonzero;fill:rgb(4.708862%,22.349548%,19.60907%);fill-opacity:1;" d="M 540.054688 497.742188 L 269.871094 497.742188 L 269.871094 468.824219 L 540.054688 468.824219 L 540.054688 497.742188 "/>
</g>
</svg>
