<?xml version="1.0" encoding="UTF-8"?>
<svg xmlns="http://www.w3.org/2000/svg" xmlns:xlink="http://www.w3.org/1999/xlink" width="810pt" height="809.999993pt" viewBox="0 0 810 809.999993" version="1.2">
<g id="surface1">
<path style=" stroke:none;fill-rule:nonzero;fill:rgb(4.708862%,22.349548%,19.60907%);fill-opacity:1;" d="M 180.164062 679.148438 L 176.246094 700.390625 L 303.695312 723.925781 L 307.617188 702.679688 L 254.511719 692.875 L 291.902344 490.339844 C 293.554688 490.4375 295.21875 490.570312 296.859375 490.570312 C 337.695312 490.570312 374.113281 461.410156 381.789062 419.851562 L 417.019531 229.035156 L 440.152344 385.636719 C 446.492188 428.5 483.472656 459.410156 525.570312 459.410156 C 526.199219 459.410156 526.835938 459.28125 527.449219 459.269531 L 557.550781 663.054688 L 504.121094 670.949219 L 507.285156 692.324219 L 635.492188 673.390625 L 632.328125 652.019531 L 578.914062 659.914062 L 548.824219 456.171875 C 590.132812 444.667969 617.511719 403.898438 611.097656 360.394531 L 577.953125 136.015625 C 577.085938 130.117188 571.730469 126.046875 565.683594 126.910156 L 416.101562 149.007812 C 410.207031 149.882812 406.125 155.367188 406.996094 161.265625 L 410.28125 183.480469 L 265.613281 156.785156 C 259.761719 155.703125 254.125 159.570312 253.03125 165.445312 L 211.851562 388.476562 C 203.882812 431.71875 229.792969 473.441406 270.648438 486.421875 L 233.257812 688.941406 Z M 535.085938 437.109375 C 499.695312 442.367188 466.742188 417.808594 461.515625 382.472656 L 449.648438 302.128906 L 469.292969 281.015625 C 479.910156 269.601562 496.722656 267.09375 510.214844 274.96875 C 531.316406 287.28125 557.894531 284.007812 575.5 267.191406 L 589.734375 363.515625 C 594.949219 398.886719 570.433594 431.890625 535.085938 437.109375 Z M 558.164062 149.851562 L 571.578125 240.667969 L 561.308594 251.023438 C 550.703125 261.769531 534.144531 263.929688 521.101562 256.328125 C 498.832031 243.34375 471.019531 247.4375 453.46875 266.316406 L 445.597656 274.773438 L 429.949219 168.792969 Z M 272.3125 179.980469 L 399.761719 203.503906 L 383.097656 293.78125 L 370.050781 300.261719 C 356.488281 306.980469 340.144531 303.695312 330.265625 292.28125 C 313.414062 272.796875 285.789062 267.6875 263.035156 279.871094 L 252.859375 285.335938 Z M 233.097656 392.394531 L 247.839844 312.542969 L 273.25 298.910156 C 287.019531 291.546875 303.738281 294.636719 313.945312 306.429688 C 324.605469 318.75 339.820312 325.328125 355.332031 325.328125 C 363.074219 325.328125 370.871094 323.621094 378.214844 320.230469 L 360.546875 415.917969 C 354.046875 451.050781 320.132812 474.324219 285.066406 467.878906 C 249.933594 461.398438 226.617188 427.527344 233.097656 392.394531 Z M 233.097656 392.394531 "/>
<path style=" stroke:none;fill-rule:nonzero;fill:rgb(4.708862%,22.349548%,19.60907%);fill-opacity:1;" d="M 491.398438 523.800781 C 497.371094 523.800781 502.199219 518.960938 502.199219 513 C 502.199219 507.039062 497.371094 502.199219 491.398438 502.199219 C 461.625 502.199219 437.398438 477.976562 437.398438 448.199219 C 437.398438 442.238281 432.574219 437.398438 426.601562 437.398438 C 420.628906 437.398438 415.800781 442.238281 415.800781 448.199219 C 415.800781 477.976562 391.574219 502.199219 361.800781 502.199219 C 355.828125 502.199219 351 507.039062 351 513 C 351 518.960938 355.828125 523.800781 361.800781 523.800781 C 391.574219 523.800781 415.800781 548.023438 415.800781 577.800781 C 415.800781 583.761719 420.628906 588.601562 426.601562 588.601562 C 432.574219 588.601562 437.398438 583.761719 437.398438 577.800781 C 437.398438 548.023438 461.625 523.800781 491.398438 523.800781 Z M 426.601562 538.886719 C 420.21875 528.292969 411.296875 519.382812 400.710938 513 C 411.296875 506.617188 420.226562 497.695312 426.601562 487.113281 C 432.984375 497.707031 441.902344 506.617188 452.488281 513 C 441.902344 519.382812 432.984375 528.304688 426.601562 538.886719 Z M 426.601562 538.886719 "/>
<path style=" stroke:none;fill-rule:nonzero;fill:rgb(4.708862%,22.349548%,19.60907%);fill-opacity:1;" d="M 178.199219 156.601562 C 160.335938 156.601562 145.800781 142.0625 145.800781 124.199219 C 145.800781 118.238281 140.972656 113.398438 135 113.398438 C 129.027344 113.398438 124.199219 118.238281 124.199219 124.199219 C 124.199219 142.0625 109.664062 156.601562 91.800781 156.601562 C 85.828125 156.601562 81 161.4375 81 167.398438 C 81 173.363281 85.828125 178.199219 91.800781 178.199219 C 109.664062 178.199219 124.199219 192.738281 124.199219 210.601562 C 124.199219 216.5625 129.027344 221.398438 135 221.398438 C 140.972656 221.398438 145.800781 216.5625 145.800781 210.601562 C 145.800781 192.738281 160.335938 178.199219 178.199219 178.199219 C 184.171875 178.199219 189 173.363281 189 167.398438 C 189 161.4375 184.171875 156.601562 178.199219 156.601562 Z M 135 178.230469 C 131.921875 174.140625 128.273438 170.476562 124.167969 167.398438 C 128.273438 164.320312 131.921875 160.660156 135 156.566406 C 138.078125 160.660156 141.726562 164.320312 145.832031 167.398438 C 141.726562 170.476562 138.078125 174.140625 135 178.230469 Z M 135 178.230469 "/>
<path style=" stroke:none;fill-rule:nonzero;fill:rgb(4.708862%,22.349548%,19.60907%);fill-opacity:1;" d="M 718.199219 124.199219 C 700.335938 124.199219 685.800781 109.664062 685.800781 91.800781 C 685.800781 85.839844 680.972656 81 675 81 C 669.027344 81 664.199219 85.839844 664.199219 91.800781 C 664.199219 109.664062 649.664062 124.199219 631.800781 124.199219 C 625.828125 124.199219 621 129.039062 621 135 C 621 140.960938 625.828125 145.800781 631.800781 145.800781 C 649.664062 145.800781 664.199219 160.335938 664.199219 178.199219 C 664.199219 184.160156 669.027344 189 675 189 C 680.972656 189 685.800781 184.160156 685.800781 178.199219 C 685.800781 160.335938 700.335938 145.800781 718.199219 145.800781 C 724.171875 145.800781 729 140.960938 729 135 C 729 129.039062 724.171875 124.199219 718.199219 124.199219 Z M 675 145.832031 C 671.921875 141.738281 668.273438 138.078125 664.167969 135 C 668.273438 131.921875 671.921875 128.261719 675 124.167969 C 678.078125 128.261719 681.726562 131.921875 685.832031 135 C 681.726562 138.078125 678.078125 141.738281 675 145.832031 Z M 675 145.832031 "/>
<path style=" stroke:none;fill-rule:nonzero;fill:rgb(4.708862%,22.349548%,19.60907%);fill-opacity:1;" d="M 653.398438 361.800781 L 675 361.800781 L 675 383.398438 L 653.398438 383.398438 Z M 653.398438 361.800781 "/>
<path style=" stroke:none;fill-rule:nonzero;fill:rgb(4.708862%,22.349548%,19.60907%);fill-opacity:1;" d="M 170.5625 483.765625 L 156.601562 497.730469 L 142.636719 483.765625 L 127.363281 499.035156 L 141.328125 513 L 127.363281 526.964844 L 142.636719 542.234375 L 156.601562 528.269531 L 170.5625 542.234375 L 185.835938 526.964844 L 171.871094 513 L 185.835938 499.035156 Z M 170.5625 483.765625 "/>
<path style=" stroke:none;fill-rule:nonzero;fill:rgb(4.708862%,22.349548%,19.60907%);fill-opacity:1;" d="M 102.601562 631.800781 L 124.199219 631.800781 L 124.199219 653.398438 L 102.601562 653.398438 Z M 102.601562 631.800781 "/>
<path style=" stroke:none;fill-rule:nonzero;fill:rgb(4.708862%,22.349548%,19.60907%);fill-opacity:1;" d="M 426.601562 664.199219 L 448.199219 664.199219 L 448.199219 685.800781 L 426.601562 685.800781 Z M 426.601562 664.199219 "/>
<path style=" stroke:none;fill-rule:nonzero;fill:rgb(4.708862%,22.349548%,19.60907%);fill-opacity:1;" d="M 707.398438 707.398438 L 729 707.398438 L 729 729 L 707.398438 729 Z M 707.398438 707.398438 "/>
<path style=" stroke:none;fill-rule:nonzero;fill:rgb(4.708862%,22.349548%,19.60907%);fill-opacity:1;" d="M 275.398438 135 L 297 135 C 297 105.222656 272.777344 81 243 81 L 243 102.601562 C 260.863281 102.601562 275.398438 117.136719 275.398438 135 Z M 275.398438 135 "/>
<path style=" stroke:none;fill-rule:nonzero;fill:rgb(4.708862%,22.349548%,19.60907%);fill-opacity:1;" d="M 610.199219 502.199219 L 631.800781 502.199219 C 631.800781 484.335938 646.335938 469.800781 664.199219 469.800781 L 664.199219 448.199219 C 634.425781 448.199219 610.199219 472.425781 610.199219 502.199219 Z M 610.199219 502.199219 "/>
<path style=" stroke:none;fill-rule:nonzero;fill:rgb(4.708862%,22.349548%,19.60907%);fill-opacity:1;" d="M 307.800781 631.800781 L 329.398438 631.800781 C 329.398438 607.976562 348.773438 588.601562 372.601562 588.601562 L 372.601562 567 C 336.863281 567 307.800781 596.0625 307.800781 631.800781 Z M 307.800781 631.800781 "/>
<path style=" stroke:none;fill-rule:nonzero;fill:rgb(4.708862%,22.349548%,19.60907%);fill-opacity:1;" d="M 502.199219 102.601562 L 502.199219 81 C 478.375 81 459 100.375 459 124.199219 L 480.601562 124.199219 C 480.601562 112.289062 490.289062 102.601562 502.199219 102.601562 Z M 502.199219 102.601562 "/>
<path style=" stroke:none;fill-rule:nonzero;fill:rgb(4.708862%,22.349548%,19.60907%);fill-opacity:1;" d="M 113.398438 264.601562 L 113.398438 286.199219 C 143.175781 286.199219 167.398438 310.425781 167.398438 340.199219 L 189 340.199219 C 189 298.511719 155.078125 264.601562 113.398438 264.601562 Z M 113.398438 264.601562 "/>
<path style=" stroke:none;fill-rule:nonzero;fill:rgb(4.708862%,22.349548%,19.60907%);fill-opacity:1;" d="M 394.199219 113.398438 C 394.199219 95.535156 379.664062 81 361.800781 81 C 343.9375 81 329.398438 95.535156 329.398438 113.398438 C 329.398438 131.261719 343.9375 145.800781 361.800781 145.800781 C 379.664062 145.800781 394.199219 131.261719 394.199219 113.398438 Z M 351 113.398438 C 351 107.449219 355.839844 102.601562 361.800781 102.601562 C 367.761719 102.601562 372.601562 107.449219 372.601562 113.398438 C 372.601562 119.351562 367.761719 124.199219 361.800781 124.199219 C 355.839844 124.199219 351 119.351562 351 113.398438 Z M 351 113.398438 "/>
<path style=" stroke:none;fill-rule:nonzero;fill:rgb(4.708862%,22.349548%,19.60907%);fill-opacity:1;" d="M 675 545.398438 C 657.136719 545.398438 642.601562 559.9375 642.601562 577.800781 C 642.601562 595.664062 657.136719 610.199219 675 610.199219 C 692.863281 610.199219 707.398438 595.664062 707.398438 577.800781 C 707.398438 559.9375 692.863281 545.398438 675 545.398438 Z M 675 588.601562 C 669.039062 588.601562 664.199219 583.75 664.199219 577.800781 C 664.199219 571.847656 669.039062 567 675 567 C 680.960938 567 685.800781 571.847656 685.800781 577.800781 C 685.800781 583.75 680.960938 588.601562 675 588.601562 Z M 675 588.601562 "/>
<path style=" stroke:none;fill-rule:nonzero;fill:rgb(4.708862%,22.349548%,19.60907%);fill-opacity:1;" d="M 329.398438 361.800781 L 351 361.800781 L 351 383.398438 L 329.398438 383.398438 Z M 329.398438 361.800781 "/>
<path style=" stroke:none;fill-rule:nonzero;fill:rgb(4.708862%,22.349548%,19.60907%);fill-opacity:1;" d="M 534.601562 329.398438 L 556.199219 329.398438 L 556.199219 351 L 534.601562 351 Z M 534.601562 329.398438 "/>
<path style=" stroke:none;fill-rule:nonzero;fill:rgb(4.708862%,22.349548%,19.60907%);fill-opacity:1;" d="M 469.800781 307.800781 L 491.398438 307.800781 L 491.398438 329.398438 L 469.800781 329.398438 Z M 469.800781 307.800781 "/>
<path style=" stroke:none;fill-rule:nonzero;fill:rgb(4.708862%,22.349548%,19.60907%);fill-opacity:1;" d="M 502.199219 383.398438 L 523.800781 383.398438 L 523.800781 405 L 502.199219 405 Z M 502.199219 383.398438 "/>
<path style=" stroke:none;fill-rule:nonzero;fill:rgb(4.708862%,22.349548%,19.60907%);fill-opacity:1;" d="M 264.601562 340.199219 L 286.199219 340.199219 L 286.199219 361.800781 L 264.601562 361.800781 Z M 264.601562 340.199219 "/>
<path style=" stroke:none;fill-rule:nonzero;fill:rgb(4.708862%,22.349548%,19.60907%);fill-opacity:1;" d="M 275.398438 415.800781 L 297 415.800781 L 297 437.398438 L 275.398438 437.398438 Z M 275.398438 415.800781 "/>
</g>
</svg>
