<?xml version="1.0" encoding="UTF-8"?>
<svg xmlns="http://www.w3.org/2000/svg" xmlns:xlink="http://www.w3.org/1999/xlink" width="810pt" height="809.999993pt" viewBox="0 0 810 809.999993" version="1.2">
<g id="surface1">
<path style=" stroke:none;fill-rule:evenodd;fill:rgb(4.708862%,22.349548%,19.60907%);fill-opacity:1;" d="M 245.417969 665.921875 C 243.546875 667.933594 239.375 670.667969 236.5 671.671875 L 114.109375 722.152344 C 92.820312 730.925781 82.753906 720.714844 91.527344 699.574219 L 141.863281 577.328125 C 143.015625 574.304688 145.75 570.421875 147.761719 568.121094 L 612.734375 103.292969 C 634.164062 81.863281 669.257812 81.863281 690.828125 103.4375 L 710.101562 122.851562 C 731.820312 144.570312 731.820312 179.375 710.390625 201.089844 L 690.6875 220.507812 L 710.246094 239.921875 C 721.03125 250.851562 720.886719 268.542969 710.390625 279.183594 L 583.394531 406.179688 C 577.929688 411.5 569.011719 411.355469 563.835938 406.179688 C 558.371094 400.714844 558.660156 391.796875 563.835938 386.332031 L 690.6875 259.625 L 671.269531 240.066406 Z M 632.152344 122.996094 L 612.589844 142.410156 L 671.269531 201.089844 L 690.6875 181.53125 C 701.472656 170.746094 701.617188 153.484375 690.6875 142.410156 L 671.125 122.996094 C 660.484375 112.210938 642.9375 112.210938 632.152344 122.996094 Z M 182.996094 572.003906 L 241.675781 630.683594 L 651.710938 220.507812 L 593.175781 162.113281 Z M 220.390625 648.519531 L 165.308594 593.433594 L 126.042969 687.636719 Z M 220.390625 648.519531 "/>
</g>
</svg>
