<?xml version="1.0" encoding="UTF-8"?>
<svg xmlns="http://www.w3.org/2000/svg" xmlns:xlink="http://www.w3.org/1999/xlink" width="375pt" height="374.999991pt" viewBox="0 0 375 374.999991" version="1.2">
<defs>
<clipPath id="clip1">
  <path d="M 0 123 L 367.5 123 L 367.5 351.613281 L 0 351.613281 Z M 0 123 "/>
</clipPath>
<clipPath id="clip2">
  <path d="M 7.5 23.046875 L 375 23.046875 L 375 251.796875 L 7.5 251.796875 Z M 7.5 23.046875 "/>
</clipPath>
<clipPath id="clip3">
  <path d="M 91.734375 85.425781 L 273.316406 85.425781 L 273.316406 292.425781 L 91.734375 292.425781 Z M 91.734375 85.425781 "/>
</clipPath>
</defs>
<g id="surface1">
<g clip-path="url(#clip1)" clip-rule="nonzero">
<path style=" stroke:none;fill-rule:nonzero;fill:rgb(10.978699%,12.939453%,12.548828%);fill-opacity:1;" d="M 34.121094 331.515625 C 32.6875 332.949219 31.457031 333.5625 29.609375 332.128906 C 29.199219 331.71875 28.585938 331.71875 27.765625 331.515625 C 27.96875 331.105469 28.378906 330.492188 28.789062 329.671875 C 27.96875 329.46875 26.738281 329.46875 26.328125 328.851562 C 25.917969 328.238281 26.328125 327.214844 26.535156 325.78125 C 25.714844 325.988281 24.691406 325.988281 23.871094 326.191406 L 22.640625 323.734375 C 23.050781 323.734375 23.664062 323.53125 24.28125 323.53125 L 24.28125 323.121094 C 23.664062 322.917969 22.84375 322.710938 22.84375 322.710938 C 22.230469 321.894531 22.023438 321.484375 21.613281 321.277344 C 21.203125 321.074219 20.792969 320.871094 20.589844 320.664062 C 19.972656 320.253906 19.5625 319.84375 18.949219 319.230469 C 19.769531 318.820312 20.382812 318.617188 21.203125 318.207031 C 21.613281 318.003906 22.230469 318.003906 22.640625 317.796875 C 22.230469 317.390625 21.820312 317.183594 21.410156 316.773438 C 21 316.363281 20.589844 315.75 20.382812 315.136719 C 19.972656 313.703125 19.769531 312.269531 19.359375 310.835938 C 18.949219 310.019531 18.128906 309.199219 17.511719 308.382812 C 17.308594 308.175781 16.695312 307.972656 16.488281 307.765625 C 15.667969 306.332031 15.464844 304.082031 14.4375 303.261719 C 12.386719 301.625 14.4375 299.371094 12.796875 297.941406 C 12.386719 297.53125 11.773438 296.917969 11.773438 296.300781 C 11.773438 294.867188 9.109375 294.253906 10.746094 292.414062 C 10.953125 292.207031 9.925781 290.160156 9.109375 289.546875 C 6.441406 287.5 7.058594 284.019531 5.417969 281.5625 C 5.210938 281.152344 5.828125 280.332031 5.828125 279.71875 C 3.160156 278.082031 2.546875 275.625 3.980469 273.167969 C 2.957031 272.347656 1.929688 271.734375 1.109375 270.917969 L 0.496094 270.300781 C 4.390625 269.484375 3.160156 266.207031 3.777344 263.75 C 2.957031 263.339844 2.339844 263.136719 1.316406 262.726562 C 1.726562 262.316406 2.136719 262.113281 2.546875 261.703125 C 1.109375 260.269531 -3.195312 259.859375 0.703125 256.175781 C -0.527344 255.765625 -1.554688 255.355469 -2.988281 254.949219 C -2.167969 254.332031 -1.554688 253.921875 -0.9375 253.515625 C -1.554688 253.105469 -2.375 252.898438 -3.195312 252.285156 C -4.015625 251.261719 -0.9375 248.804688 -4.21875 247.578125 L -4.21875 244.507812 C -4.015625 244.300781 -3.398438 243.890625 -2.578125 243.484375 C -3.605469 243.277344 -4.21875 243.074219 -4.425781 243.074219 C -4.835938 241.027344 -5.246094 239.183594 -5.65625 237.546875 C -6.066406 237.546875 -6.269531 237.339844 -6.679688 237.339844 C -6.066406 237.136719 -5.65625 236.929688 -5.039062 236.726562 C -5.039062 236.523438 -5.246094 236.316406 -5.246094 236.113281 C -6.066406 235.703125 -6.679688 235.5 -7.5 235.089844 C -7.5 234.882812 -7.5 234.269531 -7.296875 233.859375 C -6.679688 233.859375 -5.859375 234.066406 -5.246094 234.066406 C 1.929688 228.128906 6.03125 226.285156 16.488281 223.828125 C 22.230469 222.394531 27.765625 220.554688 33.300781 218.914062 C 34.941406 218.300781 36.785156 217.6875 38.222656 216.664062 C 39.042969 216.050781 39.246094 214.617188 39.453125 213.386719 C 39.453125 212.773438 38.632812 211.953125 37.8125 211.75 C 35.964844 210.929688 36.171875 209.5 36.375 208.269531 C 35.554688 207.449219 34.734375 206.835938 33.917969 206.019531 C 34.53125 205.199219 34.941406 204.585938 35.351562 203.96875 C 32.070312 204.585938 33.097656 201.71875 32.6875 200.492188 C 31.660156 198.035156 31.457031 195.578125 30.839844 192.914062 C 31.046875 192.914062 31.457031 192.914062 31.867188 193.121094 C 30.839844 190.050781 30.019531 187.183594 28.996094 184.113281 C 29.199219 184.113281 29.40625 183.90625 29.609375 183.90625 C 28.996094 183.292969 28.175781 182.882812 27.355469 182.066406 C 28.789062 180.425781 30.429688 179.199219 30.636719 176.945312 C 30.839844 174.285156 33.710938 173.464844 35.964844 172.441406 C 42.117188 169.984375 48.472656 167.734375 54.625 165.074219 C 58.519531 163.433594 62.210938 161.386719 66.105469 159.75 C 69.796875 158.113281 73.488281 156.472656 77.382812 155.042969 C 81.074219 153.609375 84.96875 152.378906 88.660156 151.355469 C 91.941406 150.539062 95.425781 150.128906 98.707031 149.308594 C 100.140625 149.105469 101.371094 148.285156 102.601562 147.875 C 109.164062 146.035156 115.722656 144.394531 122.078125 142.554688 C 127.613281 141.121094 132.945312 139.480469 138.480469 138.867188 C 140.738281 138.664062 142.992188 136.207031 145.453125 138.253906 C 145.65625 138.457031 146.476562 137.640625 147.09375 137.640625 C 148.117188 137.433594 148.9375 137.640625 149.964844 137.640625 C 149.347656 134.570312 152.421875 136.207031 153.449219 136 C 156.933594 134.976562 160.828125 134.363281 164.519531 134.160156 C 172.722656 133.546875 180.511719 130.882812 188.507812 130.472656 C 193.222656 130.066406 197.941406 129.039062 202.65625 128.425781 C 203.066406 128.425781 204.910156 127.199219 204.089844 129.039062 C 210.242188 126.378906 217.007812 126.992188 223.570312 125.96875 C 223.570312 126.789062 223.570312 127.199219 223.363281 127.8125 C 223.773438 127.609375 224.390625 127.402344 224.390625 127.402344 C 223.773438 125.5625 225.003906 125.5625 226.234375 125.355469 C 229.308594 125.152344 232.589844 124.945312 235.664062 124.742188 C 239.152344 124.535156 242.433594 124.128906 245.917969 123.921875 C 246.53125 123.921875 247.148438 124.128906 247.761719 124.332031 C 248.582031 124.742188 248.992188 124.742188 250.019531 124.128906 C 251.042969 123.308594 253.09375 123.511719 254.527344 123.511719 C 260.882812 123.308594 267.242188 123.105469 273.597656 123.105469 C 278.105469 123.105469 282.414062 123.511719 286.921875 123.71875 C 289.179688 123.921875 291.433594 124.128906 293.6875 124.128906 C 295.535156 124.128906 300.046875 127.8125 299.429688 129.246094 C 298.609375 131.089844 300.660156 132.519531 299.636719 134.160156 C 299.636719 134.160156 300.25 134.570312 300.660156 134.773438 C 299.636719 136 299.839844 136.617188 301.070312 140.710938 C 301.683594 142.757812 301.683594 145.214844 301.683594 147.464844 C 301.890625 148.285156 301.890625 149.105469 302.09375 150.128906 C 302.503906 152.175781 302.914062 154.222656 303.324219 156.472656 C 302.300781 156.679688 301.273438 156.679688 300.046875 156.882812 C 302.09375 158.523438 303.734375 160.570312 301.480469 163.640625 L 302.503906 163.640625 C 301.273438 165.890625 300.046875 168.347656 299.226562 170.191406 C 301.070312 172.035156 302.710938 173.875 304.554688 175.515625 C 304.964844 175.921875 305.785156 176.539062 305.992188 176.332031 C 308.863281 174.898438 310.089844 177.5625 311.730469 178.585938 C 312.960938 179.402344 315.832031 180.019531 314.191406 182.882812 C 314.191406 182.882812 315.421875 183.90625 316.039062 184.113281 C 317.269531 184.316406 318.496094 184.113281 320.136719 183.90625 L 320.136719 203.355469 L 320.546875 203.355469 C 320.34375 203.765625 320.136719 204.378906 320.136719 204.585938 C 321.367188 207.042969 320.546875 208.882812 317.882812 209.703125 C 317.675781 209.703125 317.472656 210.113281 317.269531 210.316406 C 317.269531 210.523438 317.269531 210.929688 317.472656 210.929688 L 318.496094 210.929688 L 320.957031 209.703125 L 321.367188 210.113281 C 320.957031 210.726562 320.546875 211.339844 320.136719 212.160156 C 320.753906 212.773438 321.367188 213.386719 322.394531 214.207031 C 321.984375 214.617188 321.367188 215.027344 321.164062 215.640625 C 320.957031 216.253906 319.523438 216.867188 321.164062 217.6875 C 321.574219 217.890625 321.574219 219.324219 321.777344 220.347656 C 318.703125 218.914062 318.90625 222.394531 317.0625 223.214844 C 316.859375 222.804688 316.449219 222.191406 316.039062 221.371094 C 315.832031 222.191406 315.628906 222.804688 315.628906 223.011719 C 315.011719 223.011719 313.78125 222.804688 313.578125 223.011719 C 313.167969 224.238281 312.550781 225.671875 312.960938 226.695312 C 313.167969 227.515625 314.601562 228.539062 315.628906 228.539062 C 318.496094 229.152344 321.367188 229.355469 324.238281 229.5625 C 325.878906 229.765625 327.519531 229.355469 329.160156 229.355469 C 331.414062 229.5625 333.464844 229.972656 335.71875 230.175781 C 336.539062 230.175781 337.566406 229.765625 338.386719 229.765625 C 340.640625 229.972656 343.101562 230.175781 345.355469 230.585938 C 345.765625 230.585938 346.175781 231.199219 346.382812 231.402344 C 347.816406 231.609375 349.253906 232.019531 350.484375 231.8125 C 353.351562 231.199219 354.789062 232.222656 356.632812 234.269531 C 357.25 235.089844 359.503906 234.882812 360.734375 234.679688 C 364.015625 234.269531 362.988281 236.929688 363.808594 238.363281 C 364.21875 238.980469 364.21875 239.796875 364.21875 240.410156 C 364.628906 242.050781 364.425781 243.484375 361.964844 244.300781 C 362.785156 245.121094 363.605469 245.53125 364.21875 246.347656 C 364.628906 246.757812 364.628906 247.371094 364.628906 247.988281 C 364.628906 248.804688 364.21875 249.828125 364.628906 250.238281 C 366.066406 251.46875 365.246094 252.285156 364.425781 252.898438 C 364.835938 253.921875 365.65625 254.742188 365.65625 255.5625 C 365.65625 256.996094 364.628906 258.429688 366.269531 259.453125 L 366.269531 259.65625 C 364.015625 262.523438 366.886719 265.183594 366.269531 268.050781 C 366.269531 268.460938 366.269531 269.277344 366.679688 269.6875 C 367.910156 270.710938 367.292969 271.734375 366.886719 272.964844 C 366.066406 274.804688 365.246094 276.648438 364.628906 278.082031 C 363.398438 277.875 361.964844 277.46875 360.527344 277.671875 C 359.09375 277.671875 357.863281 278.082031 356.429688 278.285156 C 356.839844 279.515625 358.683594 280.332031 356.632812 281.972656 C 356.019531 282.378906 356.429688 284.222656 356.632812 285.246094 C 356.839844 286.679688 357.453125 288.316406 357.25 289.75 C 357.25 290.363281 355.8125 290.980469 354.789062 291.390625 C 352.941406 292.414062 349.867188 292.003906 350.277344 295.484375 C 348.84375 295.6875 346.996094 295.484375 348.84375 297.734375 C 349.664062 298.757812 348.023438 300.191406 345.765625 300.398438 C 343.304688 300.601562 340.847656 301.214844 338.386719 301.625 C 336.128906 302.035156 333.875 302.445312 331.621094 302.648438 C 331.003906 302.648438 330.183594 302.035156 329.363281 301.828125 C 328.75 302.035156 327.722656 302.445312 326.699219 302.851562 C 326.082031 301.625 325.671875 300.804688 325.46875 299.78125 C 325.265625 299.78125 325.058594 299.78125 325.058594 299.988281 L 325.058594 302.851562 C 323.417969 299.371094 321.164062 302.851562 319.523438 302.238281 C 319.933594 302.648438 320.136719 303.058594 320.546875 303.671875 C 319.523438 304.082031 318.703125 304.285156 317.882812 304.492188 L 317.882812 306.949219 C 316.449219 308.175781 315.421875 308.996094 314.398438 310.019531 C 315.21875 310.222656 316.039062 310.632812 317.265625 311.042969 C 314.808594 311.65625 312.960938 313.089844 310.5 312.476562 C 309.886719 312.269531 309.066406 313.089844 308.453125 313.5 C 307.222656 314.933594 305.992188 315.957031 304.554688 314.523438 C 303.53125 316.363281 302.710938 318.003906 301.890625 319.640625 C 301.890625 318.820312 301.683594 318.207031 301.683594 317.390625 C 300.863281 317.59375 300.046875 317.59375 299.226562 317.796875 C 299.429688 319.027344 299.636719 319.640625 299.839844 320.664062 C 300.660156 320.253906 301.273438 319.84375 301.890625 319.4375 C 302.914062 321.894531 303.53125 322.097656 306.402344 320.664062 C 306.8125 321.484375 307.222656 322.300781 307.632812 323.324219 C 305.375 323.734375 303.121094 324.144531 300.660156 324.757812 C 302.09375 326.601562 298.816406 329.261719 302.09375 329.878906 C 301.273438 330.695312 300.660156 331.925781 299.636719 332.539062 C 298.199219 333.359375 296.558594 333.5625 294.917969 333.972656 C 292.664062 334.382812 290.203125 334.789062 287.949219 334.996094 C 284.871094 335.199219 281.796875 335.40625 278.925781 335.609375 C 276.671875 335.8125 274.621094 336.429688 272.570312 336.632812 C 270.929688 336.835938 269.085938 336.429688 267.445312 336.632812 C 264.78125 337.042969 262.320312 338.066406 259.652344 338.679688 C 259.039062 338.886719 258.21875 338.886719 257.605469 338.886719 C 256.578125 338.886719 255.554688 337.863281 254.9375 339.5 C 252.476562 337.863281 250.429688 341.75 247.96875 339.910156 C 247.761719 339.703125 247.148438 340.316406 246.738281 340.523438 L 245.507812 341.136719 C 239.765625 342.160156 234.023438 342.980469 228.285156 343.796875 C 225.414062 344.207031 222.542969 344.207031 219.671875 344.414062 C 217.828125 344.617188 215.984375 345.230469 214.136719 345.4375 C 212.90625 345.640625 211.675781 345.4375 210.035156 345.230469 C 209.421875 346.871094 208.398438 346.664062 207.371094 345.230469 C 205.320312 346.253906 203.269531 347.277344 200.808594 346.664062 C 199.992188 346.460938 198.761719 347.074219 197.734375 347.074219 C 196.914062 347.074219 196.09375 346.871094 195.273438 346.460938 C 194.453125 346.050781 193.429688 344.820312 193.222656 347.074219 C 193.222656 347.277344 191.175781 347.484375 189.945312 347.6875 C 187.484375 348.097656 184.816406 348.300781 182.152344 348.710938 C 182.5625 347.894531 182.769531 347.277344 182.972656 346.664062 L 182.769531 346.460938 L 179.691406 348.917969 C 178.050781 350.351562 176 350.144531 173.953125 350.144531 C 172.105469 350.144531 170.054688 349.941406 168.621094 350.554688 C 166.980469 351.167969 167.1875 351.578125 166.160156 350.144531 C 165.339844 351.78125 161.648438 352.601562 160.625 351.578125 C 161.238281 351.167969 161.855469 350.964844 162.46875 350.554688 C 162.265625 350.351562 162.265625 350.144531 162.058594 349.941406 C 161.648438 350.144531 161.445312 350.351562 161.035156 350.554688 C 158.574219 351.988281 155.910156 351.578125 153.449219 351.78125 C 151.398438 351.988281 149.347656 351.167969 147.09375 350.757812 L 147.09375 348.917969 C 147.09375 346.253906 145.65625 344.820312 143.195312 344.617188 C 142.375 344.617188 140.941406 344.820312 141.148438 342.773438 C 141.351562 341.339844 139.300781 340.523438 137.457031 340.933594 C 136.019531 341.339844 134.378906 341.136719 132.945312 341.136719 C 132.742188 340.933594 132.332031 340.726562 131.921875 340.726562 C 130.28125 340.933594 128.84375 341.339844 127.203125 341.339844 C 123.925781 341.75 120.847656 341.957031 117.566406 342.367188 C 116.75 342.367188 115.929688 342.160156 114.699219 342.160156 C 115.519531 341.546875 116.132812 341.136719 116.75 340.726562 C 111.417969 341.75 109.777344 338.476562 108.753906 334.585938 C 108.957031 334.585938 109.367188 334.382812 109.777344 334.382812 C 105.472656 333.765625 105.0625 330.285156 104.035156 327.011719 C 103.421875 326.804688 102.191406 326.398438 101.371094 325.988281 C 101.78125 325.375 102.394531 324.554688 102.804688 323.941406 C 101.984375 323.734375 100.960938 323.324219 100.140625 323.324219 C 97.269531 323.734375 94.808594 323.324219 92.964844 320.871094 C 95.628906 321.277344 98.089844 321.6875 100.753906 322.097656 C 101.164062 320.664062 101.371094 319.84375 101.574219 318.820312 C 99.730469 320.050781 99.730469 320.050781 98.296875 318.820312 C 97.679688 318.414062 97.066406 318.003906 96.65625 317.796875 C 95.425781 319.84375 93.375 318.207031 91.53125 319.027344 C 92.144531 319.84375 92.554688 320.460938 92.964844 321.074219 C 91.941406 320.460938 89.890625 321.894531 90.300781 319.4375 C 88.660156 319.84375 87.019531 320.253906 85.582031 320.871094 C 84.761719 321.277344 84.351562 322.300781 83.738281 323.121094 L 83.738281 321.894531 C 83.328125 321.894531 82.917969 321.894531 82.714844 322.097656 C 80.253906 323.324219 77.585938 324.757812 75.128906 325.988281 C 74.511719 325.167969 74.308594 324.554688 74.101562 324.554688 C 72.667969 325.375 71.230469 326.601562 70 326.398438 C 68.769531 326.398438 67.335938 324.964844 66.105469 324.347656 C 66.105469 325.375 65.902344 326.398438 65.902344 327.421875 C 63.441406 325.375 63.03125 325.578125 61.59375 329.261719 C 63.03125 329.261719 64.464844 329.058594 66.105469 329.058594 L 66.105469 327.625 C 66.722656 328.238281 67.335938 328.648438 67.949219 329.261719 C 67.949219 329.671875 67.746094 330.695312 67.746094 330.695312 C 65.695312 330.695312 64.054688 333.359375 61.59375 331.71875 C 61.183594 331.515625 60.363281 332.128906 59.75 332.128906 L 58.519531 332.128906 C 52.984375 334.585938 47.039062 334.789062 41.09375 336.222656 C 40.886719 333.972656 39.65625 334.175781 38.015625 334.585938 C 37.605469 334.789062 36.785156 334.175781 36.171875 334.175781 C 36.582031 334.175781 36.992188 333.972656 37.195312 333.972656 C 37.605469 333.152344 38.015625 332.128906 38.222656 331.515625 C 37.605469 331.308594 36.785156 330.695312 35.964844 330.695312 C 35.351562 330.695312 34.734375 331.308594 34.121094 331.515625 C 34.53125 330.902344 34.324219 331.308594 34.121094 331.515625 Z M 248.582031 335.609375 C 245.917969 336.019531 243.660156 336.429688 241.203125 336.835938 L 241.203125 337.863281 C 242.433594 338.066406 243.867188 338.476562 245.097656 338.269531 C 246.328125 338.269531 248.171875 338.269531 248.582031 335.609375 Z M 60.980469 329.46875 C 59.953125 328.238281 59.542969 327.011719 58.109375 328.238281 C 57.496094 328.851562 56.46875 328.851562 55.648438 329.261719 C 55.238281 329.46875 54.828125 329.671875 54.417969 330.082031 L 54.625 330.695312 C 55.035156 330.695312 55.445312 330.492188 56.058594 330.285156 C 56.675781 330.082031 57.289062 330.082031 57.90625 330.082031 C 58.519531 329.878906 59.542969 329.671875 60.980469 329.46875 Z M 130.691406 335.8125 C 131.714844 337.042969 132.535156 338.066406 133.355469 339.089844 C 133.765625 338.066406 134.378906 337.042969 134.585938 336.222656 C 133.355469 335.8125 132.125 335.8125 130.691406 335.8125 Z M 67.132812 318.003906 C 65.902344 321.277344 66.722656 322.507812 68.976562 322.300781 C 68.359375 321.074219 67.746094 319.84375 67.132812 318.003906 Z M 67.132812 318.003906 "/>
</g>
<path style=" stroke:none;fill-rule:nonzero;fill:rgb(10.978699%,12.939453%,12.548828%);fill-opacity:1;" d="M 68.359375 328.445312 C 68.15625 328.035156 68.15625 327.625 67.949219 326.804688 C 70.207031 328.445312 71.847656 326.804688 73.691406 326.398438 C 75.539062 325.988281 77.585938 326.804688 79.433594 327.011719 L 79.433594 326.804688 C 79.023438 328.851562 77.382812 328.238281 75.945312 328.445312 C 74.71875 328.648438 73.078125 328.238281 72.257812 328.851562 C 70.410156 330.492188 69.386719 329.671875 68.359375 328.445312 Z M 68.359375 328.445312 "/>
<path style=" stroke:none;fill-rule:nonzero;fill:rgb(10.978699%,12.939453%,12.548828%);fill-opacity:1;" d="M 79.433594 327.011719 C 80.046875 326.601562 80.664062 325.78125 81.484375 325.167969 C 82.304688 324.554688 83.125 324.144531 83.945312 323.53125 C 84.148438 323.734375 84.351562 324.144531 84.761719 324.347656 L 87.222656 324.964844 C 84.351562 325.578125 81.894531 326.191406 79.433594 327.011719 Z M 79.433594 327.011719 "/>
<path style=" stroke:none;fill-rule:nonzero;fill:rgb(10.978699%,12.939453%,12.548828%);fill-opacity:1;" d="M 34.121094 331.515625 C 34.324219 331.308594 34.53125 330.902344 34.734375 330.695312 C 37.195312 329.671875 36.582031 332.332031 37.8125 333.152344 C 37.402344 333.152344 36.992188 333.355469 36.785156 333.355469 C 36.171875 333.5625 35.144531 333.972656 34.734375 333.765625 C 34.324219 333.152344 34.324219 332.332031 34.121094 331.515625 Z M 34.121094 331.515625 "/>
<path style=" stroke:none;fill-rule:nonzero;fill:rgb(10.978699%,12.939453%,12.548828%);fill-opacity:1;" d="M 87.019531 324.964844 C 86.609375 322.917969 88.660156 323.121094 89.480469 322.710938 C 90.09375 322.507812 91.121094 322.917969 92.351562 323.121094 C 90.503906 325.167969 88.863281 325.78125 87.019531 324.964844 Z M 87.019531 324.964844 "/>
<g clip-path="url(#clip2)" clip-rule="nonzero">
<path style=" stroke:none;fill-rule:nonzero;fill:rgb(10.978699%,12.939453%,12.548828%);fill-opacity:1;" d="M 49.121094 231.695312 C 47.6875 233.128906 46.457031 233.742188 44.609375 232.3125 C 44.199219 231.902344 43.585938 231.902344 42.765625 231.695312 C 42.96875 231.289062 43.378906 230.671875 43.789062 229.855469 C 42.96875 229.648438 41.738281 229.648438 41.328125 229.035156 C 40.917969 228.421875 41.328125 227.398438 41.535156 225.964844 C 40.714844 226.167969 39.691406 226.167969 38.871094 226.375 L 37.640625 223.917969 C 38.050781 223.917969 38.664062 223.710938 39.28125 223.710938 L 39.28125 223.304688 C 38.664062 223.097656 37.84375 222.894531 37.84375 222.894531 C 37.230469 222.074219 37.023438 221.664062 36.613281 221.460938 C 36.203125 221.253906 35.792969 221.050781 35.589844 220.847656 C 34.972656 220.4375 34.5625 220.027344 33.949219 219.414062 C 34.769531 219.003906 35.382812 218.800781 36.203125 218.390625 C 36.613281 218.183594 37.230469 218.183594 37.640625 217.980469 C 37.230469 217.570312 36.820312 217.367188 36.410156 216.957031 C 36 216.546875 35.589844 215.933594 35.382812 215.320312 C 34.972656 213.886719 34.769531 212.453125 34.359375 211.019531 C 33.949219 210.199219 33.128906 209.382812 32.511719 208.5625 C 32.308594 208.359375 31.695312 208.152344 31.488281 207.949219 C 30.667969 206.515625 30.464844 204.261719 29.4375 203.445312 C 27.386719 201.808594 29.4375 199.554688 27.796875 198.121094 C 27.386719 197.710938 26.773438 197.097656 26.773438 196.484375 C 26.773438 195.050781 24.109375 194.4375 25.746094 192.59375 C 25.953125 192.390625 24.925781 190.34375 24.109375 189.726562 C 21.441406 187.679688 22.058594 184.199219 20.417969 181.742188 C 20.210938 181.335938 20.828125 180.515625 20.828125 179.902344 C 18.160156 178.261719 17.546875 175.804688 18.980469 173.351562 C 17.957031 172.53125 16.929688 171.917969 16.109375 171.097656 L 15.496094 170.484375 C 19.390625 169.664062 18.160156 166.390625 18.777344 163.933594 C 17.957031 163.523438 17.339844 163.316406 16.316406 162.910156 C 16.726562 162.5 17.136719 162.292969 17.546875 161.886719 C 16.109375 160.453125 11.804688 160.042969 15.703125 156.359375 C 14.472656 155.949219 13.445312 155.539062 12.011719 155.128906 C 12.832031 154.515625 13.445312 154.105469 14.0625 153.695312 C 13.445312 153.285156 12.625 153.082031 11.804688 152.46875 C 10.984375 151.445312 14.0625 148.988281 10.78125 147.757812 L 10.78125 144.6875 C 10.984375 144.484375 11.601562 144.074219 12.421875 143.664062 C 11.394531 143.460938 10.78125 143.253906 10.574219 143.253906 C 10.164062 141.207031 9.753906 139.367188 9.34375 137.726562 C 8.933594 137.726562 8.730469 137.523438 8.320312 137.523438 C 8.933594 137.316406 9.34375 137.113281 9.960938 136.910156 C 9.960938 136.703125 9.753906 136.5 9.753906 136.292969 C 8.933594 135.886719 8.320312 135.679688 7.5 135.269531 C 7.5 135.066406 7.5 134.453125 7.703125 134.042969 C 8.320312 134.042969 9.140625 134.246094 9.753906 134.246094 C 16.929688 128.308594 21.03125 126.46875 31.488281 124.011719 C 37.230469 122.578125 42.765625 120.734375 48.300781 119.097656 C 49.941406 118.484375 51.785156 117.871094 53.222656 116.84375 C 54.042969 116.230469 54.246094 114.796875 54.453125 113.570312 C 54.453125 112.957031 53.632812 112.136719 52.8125 111.933594 C 50.964844 111.113281 51.171875 109.679688 51.375 108.453125 C 50.554688 107.632812 49.734375 107.019531 48.917969 106.199219 C 49.53125 105.382812 49.941406 104.765625 50.351562 104.152344 C 47.070312 104.765625 48.097656 101.902344 47.6875 100.671875 C 46.660156 98.214844 46.457031 95.757812 45.839844 93.097656 C 46.046875 93.097656 46.457031 93.097656 46.867188 93.300781 C 45.839844 90.230469 45.019531 87.363281 43.996094 84.292969 C 44.199219 84.292969 44.40625 84.089844 44.609375 84.089844 C 43.996094 83.476562 43.175781 83.066406 42.355469 82.246094 C 43.789062 80.609375 45.429688 79.378906 45.636719 77.128906 C 45.839844 74.46875 48.710938 73.648438 50.964844 72.625 C 57.117188 70.167969 63.472656 67.917969 69.625 65.253906 C 73.519531 63.617188 77.210938 61.570312 81.105469 59.933594 C 84.796875 58.292969 88.488281 56.65625 92.382812 55.222656 C 96.074219 53.789062 99.96875 52.5625 103.660156 51.539062 C 106.941406 50.71875 110.425781 50.308594 113.707031 49.492188 C 115.140625 49.285156 116.371094 48.46875 117.601562 48.058594 C 124.164062 46.214844 130.722656 44.578125 137.078125 42.734375 C 142.613281 41.300781 147.945312 39.664062 153.480469 39.050781 C 155.738281 38.84375 157.992188 36.386719 160.453125 38.433594 C 160.65625 38.640625 161.476562 37.820312 162.09375 37.820312 C 163.117188 37.617188 163.9375 37.820312 164.964844 37.820312 C 164.347656 34.75 167.421875 36.386719 168.449219 36.183594 C 171.933594 35.160156 175.828125 34.546875 179.519531 34.339844 C 187.722656 33.726562 195.511719 31.066406 203.507812 30.65625 C 208.222656 30.246094 212.941406 29.222656 217.65625 28.609375 C 218.066406 28.609375 219.910156 27.378906 219.089844 29.222656 C 225.242188 26.5625 232.007812 27.175781 238.570312 26.152344 C 238.570312 26.972656 238.570312 27.378906 238.363281 27.996094 C 238.773438 27.789062 239.390625 27.585938 239.390625 27.585938 C 238.773438 25.742188 240.003906 25.742188 241.234375 25.539062 C 244.308594 25.332031 247.589844 25.128906 250.664062 24.921875 C 254.152344 24.71875 257.433594 24.308594 260.917969 24.105469 C 261.53125 24.105469 262.148438 24.308594 262.761719 24.515625 C 263.582031 24.921875 263.992188 24.921875 265.019531 24.308594 C 266.042969 23.492188 268.09375 23.695312 269.527344 23.695312 C 275.882812 23.492188 282.242188 23.285156 288.597656 23.285156 C 293.105469 23.285156 297.414062 23.695312 301.921875 23.898438 C 304.179688 24.105469 306.433594 24.308594 308.6875 24.308594 C 310.535156 24.308594 315.046875 27.996094 314.429688 29.425781 C 313.609375 31.269531 315.660156 32.703125 314.636719 34.339844 C 314.636719 34.339844 315.25 34.75 315.660156 34.957031 C 314.636719 36.183594 314.839844 36.796875 316.070312 40.890625 C 316.683594 42.941406 316.683594 45.394531 316.683594 47.648438 C 316.890625 48.46875 316.890625 49.285156 317.09375 50.308594 C 317.503906 52.355469 317.914062 54.402344 318.324219 56.65625 C 317.300781 56.859375 316.273438 56.859375 315.046875 57.066406 C 317.09375 58.703125 318.734375 60.75 316.480469 63.820312 L 317.503906 63.820312 C 316.273438 66.074219 315.046875 68.53125 314.226562 70.371094 C 316.070312 72.214844 317.710938 74.058594 319.554688 75.695312 C 319.964844 76.105469 320.785156 76.71875 320.992188 76.515625 C 323.863281 75.082031 325.089844 77.742188 326.730469 78.765625 C 327.960938 79.585938 330.832031 80.199219 329.191406 83.066406 C 329.191406 83.066406 330.421875 84.089844 331.039062 84.292969 C 332.269531 84.5 333.496094 84.292969 335.136719 84.089844 L 335.136719 103.539062 L 335.546875 103.539062 C 335.34375 103.949219 335.136719 104.5625 335.136719 104.765625 C 336.367188 107.222656 335.546875 109.066406 332.882812 109.886719 C 332.675781 109.886719 332.472656 110.292969 332.269531 110.5 C 332.269531 110.703125 332.269531 111.113281 332.472656 111.113281 L 333.496094 111.113281 L 335.957031 109.886719 L 336.367188 110.292969 C 335.957031 110.910156 335.546875 111.523438 335.136719 112.339844 C 335.753906 112.957031 336.367188 113.570312 337.394531 114.390625 C 336.984375 114.796875 336.367188 115.207031 336.164062 115.820312 C 335.957031 116.4375 334.523438 117.050781 336.164062 117.871094 C 336.574219 118.074219 336.574219 119.507812 336.777344 120.53125 C 333.703125 119.097656 333.90625 122.578125 332.0625 123.398438 C 331.859375 122.988281 331.449219 122.375 331.039062 121.554688 C 330.832031 122.375 330.628906 122.988281 330.628906 123.191406 C 330.011719 123.191406 328.78125 122.988281 328.578125 123.191406 C 328.167969 124.421875 327.550781 125.851562 327.960938 126.878906 C 328.167969 127.695312 329.601562 128.71875 330.628906 128.71875 C 333.496094 129.332031 336.367188 129.539062 339.238281 129.742188 C 340.878906 129.949219 342.519531 129.539062 344.160156 129.539062 C 346.414062 129.742188 348.464844 130.152344 350.71875 130.359375 C 351.539062 130.359375 352.566406 129.949219 353.386719 129.949219 C 355.640625 130.152344 358.101562 130.359375 360.355469 130.765625 C 360.765625 130.765625 361.175781 131.382812 361.382812 131.585938 C 362.816406 131.789062 364.253906 132.199219 365.484375 131.996094 C 368.351562 131.382812 369.789062 132.40625 371.632812 134.453125 C 372.25 135.269531 374.503906 135.066406 375.734375 134.863281 C 379.015625 134.453125 377.988281 137.113281 378.808594 138.546875 C 379.21875 139.160156 379.21875 139.980469 379.21875 140.59375 C 379.628906 142.230469 379.425781 143.664062 376.964844 144.484375 C 377.785156 145.300781 378.605469 145.710938 379.21875 146.53125 C 379.628906 146.941406 379.628906 147.554688 379.628906 148.167969 C 379.628906 148.988281 379.21875 150.011719 379.628906 150.421875 C 381.066406 151.648438 380.246094 152.46875 379.425781 153.082031 C 379.835938 154.105469 380.65625 154.925781 380.65625 155.742188 C 380.65625 157.175781 379.628906 158.609375 381.269531 159.632812 L 381.269531 159.839844 C 379.015625 162.703125 381.886719 165.367188 381.269531 168.230469 C 381.269531 168.640625 381.269531 169.460938 381.679688 169.871094 C 382.910156 170.894531 382.292969 171.917969 381.886719 173.144531 C 381.066406 174.988281 380.246094 176.832031 379.628906 178.261719 C 378.398438 178.058594 376.964844 177.648438 375.527344 177.855469 C 374.09375 177.855469 372.863281 178.261719 371.429688 178.46875 C 371.839844 179.695312 373.683594 180.515625 371.632812 182.152344 C 371.019531 182.5625 371.429688 184.40625 371.632812 185.429688 C 371.839844 186.863281 372.453125 188.5 372.25 189.933594 C 372.25 190.546875 370.8125 191.160156 369.789062 191.570312 C 367.941406 192.59375 364.867188 192.183594 365.277344 195.664062 C 363.84375 195.871094 361.996094 195.664062 363.84375 197.917969 C 364.664062 198.941406 363.023438 200.375 360.765625 200.578125 C 358.304688 200.78125 355.847656 201.398438 353.386719 201.808594 C 351.128906 202.214844 348.875 202.625 346.621094 202.832031 C 346.003906 202.832031 345.183594 202.214844 344.363281 202.011719 C 343.75 202.214844 342.722656 202.625 341.699219 203.035156 C 341.082031 201.808594 340.671875 200.988281 340.46875 199.964844 C 340.265625 199.964844 340.058594 199.964844 340.058594 200.167969 L 340.058594 203.035156 C 338.417969 199.554688 336.164062 203.035156 334.523438 202.421875 C 334.933594 202.832031 335.136719 203.238281 335.546875 203.855469 C 334.523438 204.261719 333.703125 204.46875 332.882812 204.671875 L 332.882812 207.128906 C 331.449219 208.359375 330.421875 209.175781 329.398438 210.199219 C 330.21875 210.40625 331.039062 210.816406 332.265625 211.222656 C 329.808594 211.839844 327.960938 213.269531 325.5 212.65625 C 324.886719 212.453125 324.066406 213.269531 323.453125 213.679688 C 322.222656 215.113281 320.992188 216.136719 319.554688 214.703125 C 318.53125 216.546875 317.710938 218.183594 316.890625 219.824219 C 316.890625 219.003906 316.683594 218.390625 316.683594 217.570312 C 315.863281 217.777344 315.046875 217.777344 314.226562 217.980469 C 314.429688 219.207031 314.636719 219.824219 314.839844 220.847656 C 315.660156 220.4375 316.273438 220.027344 316.890625 219.617188 C 317.914062 222.074219 318.53125 222.28125 321.402344 220.847656 C 321.8125 221.664062 322.222656 222.484375 322.632812 223.507812 C 320.375 223.917969 318.121094 224.328125 315.660156 224.941406 C 317.09375 226.785156 313.816406 229.445312 317.09375 230.058594 C 316.273438 230.878906 315.660156 232.105469 314.636719 232.71875 C 313.199219 233.539062 311.558594 233.742188 309.917969 234.152344 C 307.664062 234.5625 305.203125 234.972656 302.949219 235.175781 C 299.871094 235.382812 296.796875 235.585938 293.925781 235.792969 C 291.671875 235.996094 289.621094 236.609375 287.570312 236.816406 C 285.929688 237.019531 284.085938 236.609375 282.445312 236.816406 C 279.78125 237.222656 277.320312 238.246094 274.652344 238.863281 C 274.039062 239.066406 273.21875 239.066406 272.605469 239.066406 C 271.578125 239.066406 270.554688 238.042969 269.9375 239.679688 C 267.476562 238.042969 265.429688 241.933594 262.96875 240.089844 C 262.761719 239.886719 262.148438 240.5 261.738281 240.703125 L 260.507812 241.320312 C 254.765625 242.34375 249.023438 243.160156 243.285156 243.980469 C 240.414062 244.390625 237.542969 244.390625 234.671875 244.59375 C 232.828125 244.800781 230.984375 245.414062 229.136719 245.617188 C 227.90625 245.824219 226.675781 245.617188 225.035156 245.414062 C 224.421875 247.050781 223.398438 246.847656 222.371094 245.414062 C 220.320312 246.4375 218.269531 247.460938 215.808594 246.847656 C 214.992188 246.640625 213.761719 247.257812 212.734375 247.257812 C 211.914062 247.257812 211.09375 247.050781 210.273438 246.640625 C 209.453125 246.230469 208.429688 245.003906 208.222656 247.257812 C 208.222656 247.460938 206.175781 247.664062 204.945312 247.871094 C 202.484375 248.28125 199.816406 248.484375 197.152344 248.894531 C 197.5625 248.074219 197.769531 247.460938 197.972656 246.847656 L 197.769531 246.640625 L 194.691406 249.097656 C 193.050781 250.53125 191 250.328125 188.953125 250.328125 C 187.105469 250.328125 185.054688 250.121094 183.621094 250.734375 C 181.980469 251.351562 182.1875 251.761719 181.160156 250.328125 C 180.339844 251.964844 176.648438 252.785156 175.625 251.761719 C 176.238281 251.351562 176.855469 251.144531 177.46875 250.734375 C 177.265625 250.53125 177.265625 250.328125 177.058594 250.121094 C 176.648438 250.328125 176.445312 250.53125 176.035156 250.734375 C 173.574219 252.167969 170.910156 251.761719 168.449219 251.964844 C 166.398438 252.167969 164.347656 251.351562 162.09375 250.941406 L 162.09375 249.097656 C 162.09375 246.4375 160.65625 245.003906 158.195312 244.800781 C 157.375 244.800781 155.941406 245.003906 156.148438 242.957031 C 156.351562 241.523438 154.300781 240.703125 152.457031 241.113281 C 151.019531 241.523438 149.378906 241.320312 147.945312 241.320312 C 147.742188 241.113281 147.332031 240.910156 146.921875 240.910156 C 145.28125 241.113281 143.84375 241.523438 142.203125 241.523438 C 138.925781 241.933594 135.847656 242.136719 132.566406 242.546875 C 131.75 242.546875 130.929688 242.34375 129.699219 242.34375 C 130.519531 241.726562 131.132812 241.320312 131.75 240.910156 C 126.417969 241.933594 124.777344 238.65625 123.753906 234.769531 C 123.957031 234.769531 124.367188 234.5625 124.777344 234.5625 C 120.472656 233.949219 120.0625 230.46875 119.035156 227.191406 C 118.421875 226.988281 117.191406 226.578125 116.371094 226.167969 C 116.78125 225.554688 117.394531 224.734375 117.804688 224.121094 C 116.984375 223.917969 115.960938 223.507812 115.140625 223.507812 C 112.269531 223.917969 109.808594 223.507812 107.964844 221.050781 C 110.628906 221.460938 113.089844 221.871094 115.753906 222.28125 C 116.164062 220.847656 116.371094 220.027344 116.574219 219.003906 C 114.730469 220.230469 114.730469 220.230469 113.296875 219.003906 C 112.679688 218.59375 112.066406 218.183594 111.65625 217.980469 C 110.425781 220.027344 108.375 218.390625 106.53125 219.207031 C 107.144531 220.027344 107.554688 220.640625 107.964844 221.253906 C 106.941406 220.640625 104.890625 222.074219 105.300781 219.617188 C 103.660156 220.027344 102.019531 220.4375 100.582031 221.050781 C 99.761719 221.460938 99.351562 222.484375 98.738281 223.304688 L 98.738281 222.074219 C 98.328125 222.074219 97.917969 222.074219 97.714844 222.28125 C 95.253906 223.507812 92.585938 224.941406 90.128906 226.167969 C 89.511719 225.351562 89.308594 224.734375 89.101562 224.734375 C 87.667969 225.554688 86.230469 226.785156 85 226.578125 C 83.769531 226.578125 82.335938 225.144531 81.105469 224.53125 C 81.105469 225.554688 80.902344 226.578125 80.902344 227.601562 C 78.441406 225.554688 78.03125 225.757812 76.59375 229.445312 C 78.03125 229.445312 79.464844 229.238281 81.105469 229.238281 L 81.105469 227.808594 C 81.722656 228.421875 82.335938 228.832031 82.949219 229.445312 C 82.949219 229.855469 82.746094 230.878906 82.746094 230.878906 C 80.695312 230.878906 79.054688 233.539062 76.59375 231.902344 C 76.183594 231.695312 75.363281 232.3125 74.75 232.3125 L 73.519531 232.3125 C 67.984375 234.769531 62.039062 234.972656 56.09375 236.40625 C 55.886719 234.152344 54.65625 234.359375 53.015625 234.769531 C 52.605469 234.972656 51.785156 234.359375 51.171875 234.359375 C 51.582031 234.359375 51.992188 234.152344 52.195312 234.152344 C 52.605469 233.335938 53.015625 232.3125 53.222656 231.695312 C 52.605469 231.492188 51.785156 230.878906 50.964844 230.878906 C 50.351562 230.878906 49.734375 231.492188 49.121094 231.695312 C 49.53125 231.082031 49.324219 231.492188 49.121094 231.695312 Z M 263.582031 235.792969 C 260.917969 236.199219 258.660156 236.609375 256.203125 237.019531 L 256.203125 238.042969 C 257.433594 238.246094 258.867188 238.65625 260.097656 238.453125 C 261.328125 238.453125 263.171875 238.453125 263.582031 235.792969 Z M 75.980469 229.648438 C 74.953125 228.421875 74.542969 227.191406 73.109375 228.421875 C 72.496094 229.035156 71.46875 229.035156 70.648438 229.445312 C 70.238281 229.648438 69.828125 229.855469 69.417969 230.261719 L 69.625 230.878906 C 70.035156 230.878906 70.445312 230.671875 71.058594 230.46875 C 71.675781 230.261719 72.289062 230.261719 72.90625 230.261719 C 73.519531 230.058594 74.542969 229.855469 75.980469 229.648438 Z M 145.691406 235.996094 C 146.714844 237.222656 147.535156 238.246094 148.355469 239.273438 C 148.765625 238.246094 149.378906 237.222656 149.585938 236.40625 C 148.355469 235.996094 147.125 235.996094 145.691406 235.996094 Z M 82.132812 218.183594 C 80.902344 221.460938 81.722656 222.6875 83.976562 222.484375 C 83.359375 221.253906 82.746094 220.027344 82.132812 218.183594 Z M 82.132812 218.183594 "/>
</g>
<path style=" stroke:none;fill-rule:nonzero;fill:rgb(10.978699%,12.939453%,12.548828%);fill-opacity:1;" d="M 83.359375 228.625 C 83.15625 228.214844 83.15625 227.808594 82.949219 226.988281 C 85.207031 228.625 86.847656 226.988281 88.691406 226.578125 C 90.539062 226.167969 92.585938 226.988281 94.433594 227.191406 L 94.433594 226.988281 C 94.023438 229.035156 92.382812 228.421875 90.945312 228.625 C 89.71875 228.832031 88.078125 228.421875 87.257812 229.035156 C 85.410156 230.671875 84.386719 229.855469 83.359375 228.625 Z M 83.359375 228.625 "/>
<path style=" stroke:none;fill-rule:nonzero;fill:rgb(10.978699%,12.939453%,12.548828%);fill-opacity:1;" d="M 94.433594 227.191406 C 95.046875 226.785156 95.664062 225.964844 96.484375 225.351562 C 97.304688 224.734375 98.125 224.328125 98.945312 223.710938 C 99.148438 223.917969 99.351562 224.328125 99.761719 224.53125 L 102.222656 225.144531 C 99.351562 225.757812 96.894531 226.375 94.433594 227.191406 Z M 94.433594 227.191406 "/>
<path style=" stroke:none;fill-rule:nonzero;fill:rgb(10.978699%,12.939453%,12.548828%);fill-opacity:1;" d="M 49.121094 231.695312 C 49.324219 231.492188 49.53125 231.082031 49.734375 230.878906 C 52.195312 229.855469 51.582031 232.515625 52.8125 233.335938 C 52.402344 233.335938 51.992188 233.539062 51.785156 233.539062 C 51.171875 233.742188 50.144531 234.152344 49.734375 233.949219 C 49.324219 233.335938 49.324219 232.515625 49.121094 231.695312 Z M 49.121094 231.695312 "/>
<path style=" stroke:none;fill-rule:nonzero;fill:rgb(10.978699%,12.939453%,12.548828%);fill-opacity:1;" d="M 102.019531 225.144531 C 101.609375 223.097656 103.660156 223.304688 104.480469 222.894531 C 105.09375 222.6875 106.121094 223.097656 107.351562 223.304688 C 105.503906 225.351562 103.863281 225.964844 102.019531 225.144531 Z M 102.019531 225.144531 "/>
<g clip-path="url(#clip3)" clip-rule="nonzero">
<path style=" stroke:none;fill-rule:nonzero;fill:rgb(100%,100%,100%);fill-opacity:1;" d="M 261.792969 292.425781 L 150.3125 292.425781 C 143.988281 292.425781 138.769531 287.191406 138.769531 280.867188 C 138.769531 274.546875 143.988281 269.328125 150.3125 269.328125 L 250.25 269.328125 L 250.25 163.402344 L 182.535156 108.691406 L 114.820312 163.402344 L 114.820312 280.867188 C 114.820312 287.191406 109.582031 292.425781 103.277344 292.425781 C 96.953125 292.425781 91.734375 287.191406 91.734375 280.867188 L 91.734375 162.960938 C 91.734375 156.417969 94.785156 150.097656 99.785156 145.960938 L 168.804688 90.167969 C 176.652344 83.847656 188.195312 83.847656 196.027344 90.167969 L 265.265625 145.960938 C 270.488281 150.097656 273.316406 156.199219 273.316406 162.960938 L 273.316406 281.089844 C 273.316406 287.191406 268.097656 292.425781 261.792969 292.425781 "/>
</g>
</g>
</svg>
