<?xml version="1.0" encoding="UTF-8"?>
<svg xmlns="http://www.w3.org/2000/svg" xmlns:xlink="http://www.w3.org/1999/xlink" width="810pt" height="809.999993pt" viewBox="0 0 810 809.999993" version="1.2">
<defs>
<clipPath id="clip1">
  <path d="M 121.464844 126.425781 L 688 126.425781 L 688 683.675781 L 121.464844 683.675781 Z M 121.464844 126.425781 "/>
</clipPath>
</defs>
<g id="surface1">
<g clip-path="url(#clip1)" clip-rule="nonzero">
<path style=" stroke:none;fill-rule:nonzero;fill:rgb(100%,100%,100%);fill-opacity:1;" d="M 632.167969 300.445312 L 580.832031 300.445312 C 576.078125 286.183594 561.820312 275.722656 545.65625 275.722656 L 544.707031 275.722656 L 535.199219 133.082031 C 535.199219 129.277344 531.398438 126.425781 528.546875 126.425781 L 279.480469 126.425781 C 275.675781 126.425781 271.875 129.277344 271.875 133.082031 L 265.21875 275.722656 L 263.316406 275.722656 C 247.15625 275.722656 232.898438 286.183594 228.144531 300.445312 L 177.761719 300.445312 C 147.339844 300.445312 121.671875 325.171875 121.671875 356.550781 L 121.671875 575.269531 C 121.671875 605.699219 146.390625 631.375 177.761719 631.375 L 217.6875 631.375 L 197.722656 674.164062 C 196.773438 676.066406 196.773438 678.921875 197.722656 680.824219 C 198.675781 682.722656 201.527344 683.675781 203.425781 683.675781 L 606.5 683.675781 C 610.300781 683.675781 614.105469 680.824219 614.105469 676.066406 C 614.105469 674.164062 613.152344 673.214844 613.152344 672.265625 L 595.089844 630.421875 L 631.214844 630.421875 C 661.636719 630.421875 687.304688 605.699219 687.304688 574.316406 L 687.304688 356.550781 C 688.253906 325.171875 662.585938 300.445312 632.167969 300.445312 Z M 673.042969 353.699219 C 649.277344 377.472656 617.90625 395.539062 582.734375 409.804688 L 582.734375 314.710938 L 631.214844 314.710938 C 654.03125 314.710938 672.09375 331.828125 673.042969 353.699219 Z M 286.132812 140.6875 L 520.941406 140.6875 L 530.449219 275.722656 L 279.480469 275.722656 Z M 264.269531 289.988281 L 545.65625 289.988281 C 556.113281 289.988281 565.621094 297.59375 568.472656 308.054688 L 568.472656 415.511719 C 469.605469 450.695312 342.222656 449.746094 240.503906 412.65625 L 240.503906 312.808594 C 240.503906 300.445312 250.960938 289.988281 264.269531 289.988281 Z M 177.761719 314.710938 L 226.242188 314.710938 L 226.242188 406.953125 C 192.019531 393.640625 161.597656 375.570312 135.933594 353.699219 C 138.785156 331.828125 155.894531 314.710938 177.761719 314.710938 Z M 215.785156 669.410156 L 279.480469 530.574219 L 536.152344 530.574219 L 596.042969 669.410156 Z M 552.3125 531.523438 L 547.558594 521.066406 C 546.609375 518.210938 543.757812 516.308594 540.90625 516.308594 L 274.726562 516.308594 C 271.875 516.308594 269.023438 518.210938 268.070312 520.113281 L 259.515625 539.132812 L 259.515625 516.308594 C 259.515625 505.851562 268.070312 496.339844 279.480469 496.339844 L 532.347656 496.339844 C 542.804688 496.339844 552.3125 504.898438 552.3125 516.308594 Z M 673.042969 575.269531 C 673.042969 598.089844 654.03125 617.109375 631.214844 617.109375 L 588.4375 617.109375 L 562.769531 558.152344 C 564.671875 554.347656 565.621094 549.59375 565.621094 544.839844 L 565.621094 517.261719 C 565.621094 498.242188 550.410156 483.027344 531.398438 483.027344 L 279.480469 483.027344 C 260.464844 483.027344 245.253906 498.242188 245.253906 517.261719 L 245.253906 544.839844 C 245.253906 550.542969 247.15625 556.25 250.007812 561.953125 L 224.339844 617.109375 L 177.761719 617.109375 C 154.945312 617.109375 135.933594 598.089844 135.933594 575.269531 L 135.933594 371.765625 C 205.328125 426.921875 307.996094 454.5 409.714844 454.5 C 467.707031 454.5 523.792969 445.941406 574.175781 427.871094 L 575.128906 427.871094 C 577.027344 427.871094 578.929688 426.921875 580.832031 425.019531 C 616.003906 411.707031 647.375 394.589844 673.042969 372.71875 Z M 673.042969 575.269531 "/>
</g>
<path style=" stroke:none;fill-rule:nonzero;fill:rgb(100%,100%,100%);fill-opacity:1;" d="M 610.300781 358.453125 L 633.117188 358.453125 C 636.917969 358.453125 640.722656 355.601562 640.722656 350.847656 C 640.722656 346.09375 637.871094 343.238281 633.117188 343.238281 L 610.300781 343.238281 C 606.5 343.238281 602.695312 346.09375 602.695312 350.847656 C 602.695312 355.601562 606.5 358.453125 610.300781 358.453125 Z M 610.300781 358.453125 "/>
</g>
</svg>
