<?xml version="1.0" encoding="UTF-8"?>
<svg xmlns="http://www.w3.org/2000/svg" xmlns:xlink="http://www.w3.org/1999/xlink" width="375pt" height="374.999991pt" viewBox="0 0 375 374.999991" version="1.2">
<g id="surface1">
<path style=" stroke:none;fill-rule:nonzero;fill:rgb(100%,100%,100%);fill-opacity:1;" d="M 309.636719 166.039062 L 117.941406 166.039062 C 117.421875 166.039062 116.933594 166.082031 116.433594 166.109375 C 139.949219 144.21875 163.464844 122.324219 186.980469 100.429688 C 207.34375 81.472656 176.65625 51.152344 156.3125 70.089844 C 119.667969 104.214844 83.019531 138.328125 46.375 172.445312 C 37.960938 180.277344 38.199219 195.183594 46.539062 202.949219 L 156.476562 305.296875 C 176.777344 324.195312 207.234375 293.640625 186.816406 274.628906 C 163.359375 252.792969 139.90625 230.960938 116.453125 209.125 C 116.84375 209.140625 117.226562 209.179688 117.628906 209.179688 L 309.324219 209.179688 C 337.179688 209.183594 337.421875 166.039062 309.636719 166.039062 Z M 309.636719 166.039062 "/>
</g>
</svg>
