<?xml version="1.0" encoding="UTF-8"?>
<svg xmlns="http://www.w3.org/2000/svg" xmlns:xlink="http://www.w3.org/1999/xlink" width="375pt" height="374.999991pt" viewBox="0 0 375 374.999991" version="1.2">
<g id="surface1">
<path style=" stroke:none;fill-rule:nonzero;fill:rgb(4.708862%,22.349548%,19.60907%);fill-opacity:1;" d="M 65.363281 208.960938 L 257.058594 208.960938 C 257.578125 208.960938 258.066406 208.917969 258.566406 208.890625 C 235.050781 230.78125 211.535156 252.675781 188.019531 274.570312 C 167.65625 293.527344 198.34375 323.847656 218.6875 304.910156 C 255.332031 270.785156 291.980469 236.671875 328.625 202.554688 C 337.039062 194.722656 336.800781 179.816406 328.460938 172.050781 L 218.523438 69.703125 C 198.222656 50.804688 167.765625 81.359375 188.183594 100.371094 C 211.640625 122.207031 235.09375 144.039062 258.546875 165.875 C 258.15625 165.859375 257.773438 165.820312 257.371094 165.820312 L 65.675781 165.820312 C 37.820312 165.816406 37.578125 208.960938 65.363281 208.960938 Z M 65.363281 208.960938 "/>
</g>
</svg>
