<?xml version="1.0" encoding="UTF-8"?>
<svg xmlns="http://www.w3.org/2000/svg" xmlns:xlink="http://www.w3.org/1999/xlink" width="810pt" height="809.999993pt" viewBox="0 0 810 809.999993" version="1.2">
<defs>
<clipPath id="clip1">
  <path d="M 111 188 L 698.96875 188 L 698.96875 729 L 111 729 Z M 111 188 "/>
</clipPath>
</defs>
<g id="surface1">
<path style=" stroke:none;fill-rule:nonzero;fill:rgb(4.708862%,22.349548%,19.60907%);fill-opacity:1;" d="M 351.089844 614.546875 L 241.398438 568.351562 L 241.398438 490.875 C 241.398438 483.542969 235.449219 477.59375 228.117188 477.59375 C 220.78125 477.59375 214.832031 483.542969 214.832031 490.875 L 214.832031 577.167969 C 214.832031 582.511719 218.035156 587.335938 222.960938 589.410156 L 340.78125 639.035156 C 342.464844 639.746094 344.214844 640.078125 345.929688 640.078125 C 351.113281 640.078125 356.039062 637.023438 358.179688 631.945312 C 361.027344 625.179688 357.851562 617.398438 351.089844 614.546875 "/>
<path style=" stroke:none;fill-rule:nonzero;fill:rgb(4.708862%,22.349548%,19.60907%);fill-opacity:1;" d="M 319.359375 107.570312 C 333.699219 107.570312 346.867188 115.410156 353.726562 128.027344 C 355.402344 131.105469 363.378906 147.46875 372.398438 166.113281 C 369.347656 171.535156 367.589844 177.761719 367.589844 184.40625 C 367.589844 184.855469 367.628906 185.304688 367.644531 185.75 L 319.359375 185.75 C 297.808594 185.75 280.269531 168.214844 280.269531 146.65625 C 280.269531 125.105469 297.808594 107.570312 319.359375 107.570312 Z M 456.214844 128.019531 C 463.070312 115.410156 476.238281 107.570312 490.582031 107.570312 C 512.132812 107.570312 529.667969 125.105469 529.667969 146.65625 C 529.667969 168.214844 512.132812 185.75 490.582031 185.75 L 442.296875 185.75 C 442.3125 185.304688 442.351562 184.855469 442.351562 184.40625 C 442.351562 177.761719 440.589844 171.535156 437.539062 166.113281 C 446.5625 147.46875 454.535156 131.105469 456.214844 128.019531 Z M 319.359375 212.316406 L 370.878906 212.316406 L 339.058594 261.289062 C 335.0625 267.4375 336.808594 275.664062 342.960938 279.664062 C 349.113281 283.664062 357.339844 281.921875 361.339844 275.765625 L 402.5625 212.316406 L 407.378906 212.316406 L 448.601562 275.765625 C 451.148438 279.679688 455.40625 281.8125 459.753906 281.8125 C 462.234375 281.808594 464.742188 281.117188 466.980469 279.664062 C 473.128906 275.664062 474.875 267.4375 470.878906 261.289062 L 439.058594 212.316406 L 490.582031 212.316406 C 526.785156 212.316406 556.230469 182.867188 556.230469 146.65625 C 556.230469 110.453125 526.785156 81 490.582031 81 C 466.5 81 444.382812 94.152344 432.875 115.328125 C 431.050781 118.679688 423.976562 133.183594 416.398438 148.820312 C 412.789062 147.664062 408.957031 147.023438 404.96875 147.023438 C 400.984375 147.023438 397.148438 147.664062 393.542969 148.820312 C 385.964844 133.171875 378.886719 118.679688 377.066406 115.328125 C 365.554688 94.152344 343.441406 81 319.359375 81 C 283.160156 81 253.707031 110.453125 253.707031 146.65625 C 253.707031 182.867188 283.160156 212.316406 319.359375 212.316406 "/>
<g clip-path="url(#clip1)" clip-rule="nonzero">
<path style=" stroke:none;fill-rule:nonzero;fill:rgb(4.708862%,22.349548%,19.60907%);fill-opacity:1;" d="M 404.96875 424.894531 L 137.84375 312.386719 L 137.84375 263.527344 L 399.816406 373.863281 C 401.460938 374.554688 403.21875 374.902344 404.96875 374.902344 C 406.722656 374.902344 408.480469 374.554688 410.125 373.863281 L 672.097656 263.527344 L 672.097656 312.386719 Z M 627.578125 607.546875 L 418.25 695.707031 L 418.25 503.371094 C 418.25 496.035156 412.308594 490.089844 404.96875 490.089844 C 397.632812 490.089844 391.6875 496.035156 391.6875 503.371094 L 391.6875 695.707031 L 182.367188 607.546875 L 182.367188 359.96875 L 399.816406 451.554688 C 401.460938 452.246094 403.21875 452.59375 404.96875 452.59375 C 406.722656 452.59375 408.480469 452.246094 410.125 451.554688 L 627.578125 359.96875 Z M 690.539062 231.269531 L 592.265625 189.882812 C 585.5 187.039062 577.71875 190.210938 574.871094 196.976562 C 572.023438 203.734375 575.195312 211.519531 581.957031 214.371094 L 651.160156 243.515625 L 404.96875 347.207031 L 158.78125 243.515625 L 227.957031 214.382812 C 234.714844 211.535156 237.886719 203.742188 235.039062 196.984375 C 232.191406 190.21875 224.402344 187.046875 217.640625 189.898438 L 119.402344 231.269531 C 114.476562 233.347656 111.277344 238.171875 111.277344 243.515625 L 111.277344 321.207031 C 111.277344 326.550781 114.476562 331.375 119.402344 333.453125 L 155.800781 348.777344 L 155.800781 616.367188 C 155.800781 621.714844 159 626.535156 163.925781 628.609375 L 399.816406 727.957031 C 401.460938 728.652344 403.21875 729 404.96875 729 C 406.722656 729 408.480469 728.652344 410.125 727.957031 L 646.007812 628.609375 C 650.933594 626.535156 654.132812 621.714844 654.132812 616.367188 L 654.132812 348.78125 L 690.539062 333.453125 C 695.464844 331.375 698.664062 326.550781 698.664062 321.207031 L 698.664062 243.515625 C 698.664062 238.171875 695.464844 233.347656 690.539062 231.269531 "/>
</g>
</g>
</svg>
