<?xml version="1.0" encoding="UTF-8"?>
<svg xmlns="http://www.w3.org/2000/svg" xmlns:xlink="http://www.w3.org/1999/xlink" width="810pt" height="809.999993pt" viewBox="0 0 810 809.999993" version="1.2">
<defs>
<clipPath id="clip1">
  <path d="M 109.433594 160 L 730.433594 160 L 730.433594 681 L 109.433594 681 Z M 109.433594 160 "/>
</clipPath>
</defs>
<g id="surface1">
<g clip-path="url(#clip1)" clip-rule="nonzero">
<path style=" stroke:none;fill-rule:nonzero;fill:rgb(4.708862%,22.349548%,19.60907%);fill-opacity:1;" d="M 702.871094 230.0625 C 702.859375 237.757812 696.625 244.007812 688.9375 244.007812 L 179.082031 244.007812 C 171.394531 244.007812 165.148438 237.769531 165.148438 230.0625 C 165.148438 222.371094 171.382812 216.117188 179.082031 216.117188 L 688.9375 216.117188 C 696.625 216.117188 702.871094 222.359375 702.871094 230.0625 Z M 730.433594 434.304688 L 730.433594 517.949219 C 730.433594 525.617188 724.199219 531.871094 716.496094 531.871094 L 702.882812 531.871094 L 702.882812 666.386719 C 702.859375 674.089844 696.625 680.332031 688.9375 680.332031 L 179.082031 680.332031 C 140.679688 680.332031 109.433594 649.058594 109.433594 610.628906 L 109.433594 230.0625 C 109.433594 191.632812 140.679688 160.363281 179.082031 160.363281 L 688.9375 160.363281 C 696.625 160.363281 702.871094 166.601562 702.871094 174.308594 C 702.871094 182.015625 696.636719 188.253906 688.9375 188.253906 L 179.082031 188.253906 C 156.058594 188.253906 137.328125 206.984375 137.289062 230.027344 C 137.289062 230.039062 137.304688 230.050781 137.304688 230.0625 C 137.304688 253.117188 156.042969 271.886719 179.097656 271.886719 L 688.949219 271.886719 C 696.636719 271.886719 702.882812 278.125 702.882812 285.832031 L 702.882812 420.359375 L 716.496094 420.359375 C 724.183594 420.359375 730.433594 426.597656 730.433594 434.304688 Z M 702.574219 448.226562 L 689.011719 448.226562 C 688.988281 448.226562 688.972656 448.238281 688.949219 448.238281 C 688.925781 448.238281 688.914062 448.226562 688.886719 448.226562 L 584.160156 448.226562 C 576.722656 448.226562 569.71875 451.121094 564.464844 456.390625 C 559.199219 461.660156 556.304688 468.65625 556.304688 476.101562 C 556.304688 483.546875 559.199219 490.558594 564.464844 495.8125 C 569.730469 501.085938 576.722656 503.980469 584.160156 503.980469 L 702.574219 503.980469 Z M 675.015625 531.871094 L 584.160156 531.871094 C 569.28125 531.871094 555.285156 526.066406 544.765625 515.539062 C 534.234375 505 528.445312 491.003906 528.445312 476.113281 C 528.445312 461.226562 534.246094 447.21875 544.765625 436.691406 C 555.285156 426.164062 569.28125 420.359375 584.160156 420.359375 L 675.015625 420.359375 L 675.015625 299.765625 L 179.082031 299.765625 C 175.554688 299.765625 172.117188 299.414062 168.738281 298.90625 C 168.09375 298.808594 167.433594 298.71875 166.789062 298.609375 C 163.519531 298.023438 160.34375 297.226562 157.25 296.210938 C 156.726562 296.035156 156.230469 295.835938 155.722656 295.648438 C 152.765625 294.59375 149.898438 293.363281 147.140625 291.933594 C 146.878906 291.796875 146.617188 291.699219 146.355469 291.5625 C 143.488281 290.03125 140.78125 288.253906 138.171875 286.351562 C 137.898438 286.15625 137.574219 286.003906 137.304688 285.804688 L 137.304688 610.644531 C 137.304688 633.699219 156.042969 652.464844 179.097656 652.464844 L 675.015625 652.464844 Z M 584.160156 462.15625 C 576.460938 462.15625 570.226562 468.398438 570.226562 476.101562 C 570.226562 483.808594 576.460938 490.046875 584.160156 490.046875 C 591.863281 490.046875 598.097656 483.808594 598.097656 476.101562 C 598.097656 468.398438 591.863281 462.15625 584.160156 462.15625 Z M 584.160156 462.15625 "/>
</g>
</g>
</svg>
