<?xml version="1.0" encoding="UTF-8"?>
<svg xmlns="http://www.w3.org/2000/svg" xmlns:xlink="http://www.w3.org/1999/xlink" width="810pt" height="809.999993pt" viewBox="0 0 810 809.999993" version="1.2">
<defs>
<clipPath id="clip1">
  <path d="M 82 210.601562 L 728 210.601562 L 728 598 L 82 598 Z M 82 210.601562 "/>
</clipPath>
</defs>
<g id="surface1">
<g clip-path="url(#clip1)" clip-rule="nonzero">
<path style=" stroke:none;fill-rule:nonzero;fill:rgb(4.708862%,22.349548%,19.60907%);fill-opacity:1;" d="M 294.476562 210.601562 C 290.429688 210.601562 285.9375 212.179688 282.921875 214.683594 C 279.90625 217.1875 278.335938 220.109375 277.421875 222.472656 C 275.597656 227.203125 275.820312 230.617188 275.832031 231.726562 C 275.832031 231.734375 275.832031 231.742188 275.832031 231.75 C 275.902344 236.5625 275.492188 238.878906 275.355469 239.160156 C 275.214844 239.445312 275.410156 240.152344 270.132812 241.910156 C 260.960938 244.964844 258.347656 250.101562 255.046875 253.808594 C 253.136719 255.949219 250.996094 257.574219 250.152344 258.371094 C 249.882812 258.347656 250.042969 258.394531 247.90625 258.09375 C 244.738281 257.648438 239.144531 256.496094 232.316406 258.800781 C 232.304688 258.800781 232.296875 258.800781 232.289062 258.800781 C 221.800781 262.34375 217.8125 269.480469 215.613281 271.355469 C 209.816406 276.289062 198.078125 277.921875 184.683594 287.035156 C 177.1875 292.128906 173.691406 296.167969 172.144531 296.789062 C 169.941406 297.671875 166.992188 297.222656 159.378906 297.191406 C 159.378906 297.183594 159.378906 297.175781 159.378906 297.167969 C 142.828125 297.105469 127.25 303.425781 115.257812 315.191406 C 115.25 315.199219 115.238281 315.207031 115.230469 315.21875 C 114.378906 316.054688 112.257812 320.132812 110.464844 321.871094 C 108.566406 320.253906 106.769531 318.699219 103.828125 317.535156 C 100.375 316.167969 93.753906 315.714844 89.019531 319.097656 C 84.285156 322.480469 83.191406 326.644531 82.613281 329.460938 C 82.03125 332.273438 82.007812 334.589844 82.082031 336.972656 C 82.453125 349.640625 89.554688 359.121094 95.984375 365.683594 C 102.410156 372.25 108.703125 377.214844 111.574219 380.835938 C 115.421875 385.679688 114.796875 387.351562 113.414062 394.449219 C 112.035156 401.546875 108.394531 412.769531 112.457031 425.984375 C 118.992188 447.269531 133.1875 467.382812 151.257812 480.03125 C 160.203125 486.296875 166.519531 490.253906 171.917969 496.695312 C 178.53125 504.585938 185.3125 512.910156 193.992188 520.671875 C 209.8125 534.824219 225.5 547.394531 238.269531 561.960938 C 247.742188 572.785156 259.707031 592.441406 282.695312 597.152344 C 282.703125 597.152344 282.710938 597.152344 282.71875 597.152344 C 290.0625 598.652344 297.027344 597.175781 301.765625 595.363281 C 306.507812 593.554688 309.460938 591.902344 312.058594 591.105469 C 311.707031 591.210938 313.75 591.136719 318.265625 591.960938 C 322.78125 592.785156 330.660156 594.347656 338.75 589.769531 C 346.398438 585.4375 349.195312 578.636719 350.988281 574.441406 C 352.78125 570.242188 354.121094 567.929688 353.914062 568.136719 C 353.921875 568.136719 353.929688 568.136719 353.9375 568.136719 C 355.933594 566.121094 358.34375 565.078125 362.515625 561.03125 C 366.6875 556.980469 370.207031 549.074219 370.234375 541.242188 C 370.242188 539.785156 370.050781 539.386719 369.957031 538.113281 C 371.253906 539 372.507812 539.914062 373.84375 540.734375 C 375.222656 541.585938 376.601562 542.390625 378.335938 543.15625 C 380.066406 543.921875 381.84375 545.167969 386.710938 544.746094 C 394.527344 544.082031 399.628906 543.433594 403.160156 544.417969 C 410.1875 546.367188 419 552.078125 429.421875 557.199219 C 438.820312 561.800781 449.84375 567.957031 463.175781 570.507812 C 479.664062 573.675781 491.980469 568.128906 500.460938 567.761719 C 507.734375 567.441406 516.644531 569.214844 520.542969 571.894531 C 526.585938 576.046875 531.09375 577.878906 534.847656 580.464844 C 537.800781 582.507812 542.0625 584.089844 546.402344 583.816406 C 550.742188 583.546875 554.308594 581.589844 556.671875 579.683594 C 561.390625 575.875 563.210938 572.140625 565.148438 568.769531 C 569.019531 562.027344 573.605469 557.382812 571.628906 558.230469 C 571.628906 558.222656 571.628906 558.214844 571.628906 558.207031 C 576.066406 556.296875 582.480469 556.472656 591.460938 556.972656 C 600.4375 557.46875 612.292969 558.09375 623.929688 551.5 C 635.21875 545.101562 641.339844 535.839844 646.40625 531.082031 C 646.40625 531.074219 646.40625 531.066406 646.40625 531.054688 C 652.785156 525.054688 660.847656 517.898438 665.832031 506.601562 C 672.621094 491.203125 681.1875 475.664062 691.992188 465.613281 C 693.433594 464.273438 694.421875 463.96875 698.300781 463.195312 C 702.171875 462.421875 708.75 461.660156 715.632812 457.320312 L 715.65625 457.292969 C 723.429688 452.402344 727.46875 443 727.84375 436.472656 C 728.214844 429.933594 727.1875 425.410156 727.1875 422.582031 C 727.1875 416.144531 722.980469 409.382812 718.808594 406.449219 C 714.640625 403.511719 711.121094 402.703125 708.59375 401.960938 C 707.484375 401.636719 707.644531 401.683594 706.980469 401.457031 C 706.691406 395.417969 706.933594 389.164062 701.882812 381.792969 C 697.34375 375.164062 689.746094 372.003906 684.296875 371.15625 C 678.851562 370.308594 674.691406 370.652344 672.390625 370.527344 C 672.382812 370.527344 672.375 370.527344 672.367188 370.527344 C 666.582031 370.214844 664.433594 369.785156 663.308594 369.011719 C 663.09375 368.667969 662.246094 367.625 661.0625 365.960938 C 659.214844 363.359375 655.824219 358.503906 648.652344 356.710938 C 643.738281 355.484375 638.589844 356.339844 635.15625 357.71875 C 631.71875 359.097656 629.570312 360.648438 628.140625 361.550781 C 627.265625 362.105469 627.445312 362.117188 627.359375 362.28125 C 626.636719 361.867188 622.417969 359.5 619.664062 356.886719 C 618.570312 355.847656 618.929688 356.96875 618.554688 356.28125 C 619.804688 355.542969 620.800781 355.179688 622.414062 353.609375 C 625.148438 350.953125 627.710938 346.304688 628.21875 341.6875 C 628.21875 341.679688 628.21875 341.667969 628.21875 341.660156 C 628.398438 339.992188 631.308594 336.324219 627.257812 327.746094 C 625.230469 323.457031 620.648438 320.203125 617.066406 319.023438 C 613.484375 317.84375 610.414062 317.6875 606.847656 317.6875 L 589.089844 317.6875 C 577.292969 317.6875 575.441406 317.019531 571.175781 313.703125 C 568.746094 311.8125 565 308.363281 559.875 305.285156 C 554.75 302.207031 547.273438 299.214844 538.785156 300.921875 C 533.78125 301.925781 527.933594 303.699219 524.226562 310.148438 C 520.519531 316.601562 522.542969 323.304688 524.101562 326.613281 C 526.183594 331.03125 526.980469 331.722656 528.035156 333.140625 C 524.285156 335.03125 518.050781 336.863281 511.386719 342.390625 C 508.917969 344.425781 508.480469 343.941406 507.5 343.527344 C 506.519531 343.113281 505.25 341.847656 504.902344 339.996094 L 504.902344 339.972656 C 503.722656 333.460938 501.566406 324.953125 494.761719 318.089844 C 492.585938 315.886719 491.636719 315.523438 490.246094 314.613281 C 490.671875 314.257812 490.660156 314.203125 491.152344 313.804688 C 493.460938 311.953125 496.476562 309.730469 499.402344 305.839844 C 502.332031 301.949219 504.882812 295.125 503.515625 288.546875 C 500.742188 275.175781 490.386719 267.386719 480.785156 263.96875 C 475.984375 262.257812 471.148438 261.339844 465.597656 262.277344 C 462.234375 262.847656 458.460938 265.332031 455.277344 268.632812 C 455.054688 268.492188 455.230469 268.609375 455 268.453125 C 448.605469 264.179688 440.324219 256.039062 428.941406 251.765625 C 425.011719 250.289062 419.347656 248.546875 414.15625 246.21875 C 409.015625 243.914062 406.023438 239.5625 407.320312 242.867188 C 406.125 239.898438 404.34375 236.421875 401.59375 232.429688 C 399.304688 229.109375 397.015625 224.929688 390.820312 222.371094 C 391.265625 222.71875 391.253906 222.96875 391.328125 223.027344 C 391.480469 223.15625 391.207031 222.890625 390.796875 222.5 C 390.746094 222.453125 390.621094 222.324219 390.570312 222.273438 C 389.394531 221.804688 388.332031 221.289062 386.835938 220.960938 C 389.0625 221.453125 389.996094 221.886719 390.542969 222.246094 C 389.710938 221.441406 388.484375 220.238281 386.910156 218.816406 C 383.542969 215.78125 379.722656 210.601562 369.480469 210.601562 C 363.339844 210.601562 356.882812 212.957031 352.753906 216.828125 C 348.621094 220.699219 346.855469 224.949219 345.636719 228.144531 C 343.207031 234.539062 341.992188 236.570312 342.761719 236.035156 C 342.753906 236.035156 342.746094 236.035156 342.738281 236.035156 C 342.664062 236.085938 339.046875 235.878906 339.230469 236.035156 C 340.464844 237.078125 335.511719 232.542969 331.914062 229.078125 C 328.316406 225.613281 324.117188 221.472656 324.019531 221.363281 C 324.011719 221.355469 324 221.347656 323.992188 221.339844 C 315.1875 212.019531 303.457031 210.601562 294.476562 210.601562 Z M 300.632812 237.925781 C 302.03125 238.390625 304.679688 238.511719 305.199219 239.0625 C 307.101562 241.082031 310.308594 244.148438 313.976562 247.683594 C 317.660156 251.226562 319.859375 253.480469 322.582031 255.773438 C 332.988281 264.546875 346.566406 264.761719 357.445312 257.238281 C 366.84375 250.734375 368.230469 241.875 369.554688 237.976562 C 369.554688 237.976562 369.578125 237.976562 369.578125 237.976562 C 370.628906 238.921875 371.726562 240.019531 372.910156 241.152344 C 373.503906 241.71875 374.089844 242.292969 374.980469 243.019531 C 375.867188 243.742188 376.046875 244.996094 381.210938 246.144531 C 376.566406 245.128906 378.953125 245.121094 380.300781 247.078125 C 381.675781 249.070312 383.195312 252.152344 383.355469 252.546875 C 387.980469 264.0625 396.527344 266.597656 403.585938 269.765625 C 410.65625 272.9375 417.898438 275.214844 419.835938 275.941406 C 422.480469 276.933594 431.976562 284.136719 440.648438 289.933594 C 444.980469 292.828125 448.9375 295.980469 456.539062 296.664062 C 460.339844 297.003906 465.808594 295.90625 469.632812 292.554688 C 471.101562 291.269531 471.117188 289.703125 472.003906 288.242188 C 472.089844 288.269531 472.046875 288.238281 472.132812 288.269531 C 474.347656 289.058594 475.464844 290.769531 476.546875 292.277344 C 475.929688 292.828125 475.882812 292.945312 474.957031 293.6875 C 472.753906 295.457031 469.839844 297.585938 466.882812 301.199219 C 463.929688 304.816406 460.910156 311.109375 461.789062 317.8125 C 461.796875 317.820312 461.804688 317.832031 461.8125 317.839844 C 462.902344 326.128906 468.199219 330.234375 471.375 332.660156 C 474.550781 335.089844 477.085938 336.96875 476.371094 336.242188 C 476.378906 336.242188 476.386719 336.242188 476.394531 336.242188 C 477.925781 337.785156 478.558594 339.40625 479.5 344.585938 C 479.5 344.59375 479.5 344.601562 479.5 344.609375 C 481.367188 354.863281 488.089844 363.351562 497.410156 367.296875 C 506.730469 371.246094 518.921875 369.679688 527.886719 362.257812 C 527.894531 362.257812 527.902344 362.257812 527.910156 362.257812 C 528.902344 361.433594 535.035156 358.789062 541.632812 355.121094 C 544.933594 353.289062 548.695312 351.066406 551.953125 346.449219 C 554.355469 343.046875 554.089844 337.773438 553.820312 332.9375 C 554.386719 333.390625 554.707031 333.605469 555.308594 334.074219 C 563.960938 340.800781 575.050781 343.5 589.089844 343.5 L 595.21875 343.5 C 593.589844 345.792969 591.65625 347.839844 591.132812 350.8125 C 588.96875 363.183594 596.25 370.25 601.878906 375.59375 C 607.507812 380.9375 612.828125 384.707031 619.414062 386.988281 C 619.421875 386.996094 619.429688 387.003906 619.4375 387.011719 C 628.914062 390.285156 638.3125 385.691406 641.964844 383.382812 C 641.996094 383.363281 641.984375 383.375 642.015625 383.355469 C 642.953125 384.871094 643.445312 386.21875 646.382812 388.675781 C 655.121094 395.980469 665.078125 396 670.976562 396.3125 C 675.523438 396.5625 678.851562 396.4375 680.335938 396.667969 C 680.667969 396.71875 680.539062 396.652344 680.640625 396.640625 C 680.578125 396.832031 682.710938 404.636719 682.710938 407.558594 C 682.710938 414.367188 688.15625 421.015625 692.167969 423.289062 C 696.183594 425.558594 699.195312 426.089844 701.328125 426.714844 C 701.550781 426.78125 701.402344 426.726562 701.605469 426.792969 C 701.832031 430.0625 702.121094 433.917969 702.058594 435.011719 C 702.046875 435.25 702.101562 435.285156 702.136719 435.386719 C 702.046875 435.421875 702.039062 435.378906 701.90625 435.464844 C 701.890625 435.472656 701.875 435.480469 701.855469 435.488281 C 700.382812 436.421875 698.113281 436.886719 693.253906 437.859375 C 688.398438 438.828125 680.785156 440.777344 674.382812 446.730469 C 659.097656 460.945312 649.535156 479.53125 642.191406 496.191406 C 639.84375 501.519531 635.15625 506.195312 628.695312 512.273438 C 620.84375 519.648438 615.296875 526.738281 611.1875 529.066406 C 606.898438 531.496094 601.386719 531.652344 592.898438 531.183594 C 584.410156 530.710938 573.253906 529.410156 561.414062 534.507812 C 548.988281 539.847656 546.132812 549.714844 543.074219 555.332031 C 540.382812 553.832031 537.074219 551.921875 535.175781 550.617188 C 523.597656 542.660156 510.292969 541.492188 499.328125 541.972656 C 484.558594 542.609375 475.0625 546.523438 468.042969 545.171875 C 468.042969 545.164062 468.042969 545.15625 468.042969 545.148438 C 460.066406 543.621094 450.800781 538.929688 440.796875 534.03125 C 432.773438 530.089844 422.957031 523.109375 410.097656 519.535156 C 400.957031 516.992188 393.914062 518.429688 387.972656 519.105469 C 387.730469 518.972656 387.714844 518.96875 387.367188 518.753906 C 385.746094 517.757812 383.292969 516.046875 380.730469 514.242188 C 378.171875 512.433594 375.53125 510.535156 372.808594 508.871094 C 371.449219 508.039062 370.089844 507.265625 368.292969 506.503906 C 366.496094 505.738281 364.492188 504.09375 358.632812 505.367188 C 352.910156 506.609375 347.425781 511.441406 345.3125 516.058594 C 343.195312 520.671875 343.109375 524.570312 343.167969 527.90625 C 343.277344 534.574219 344.40625 540.597656 344.402344 541.140625 C 344.390625 544.433594 344.941406 542.097656 344.503906 542.527344 C 344.0625 542.953125 340.21875 545.296875 335.574219 549.988281 C 330.097656 555.511719 328.617188 561.042969 327.222656 564.304688 C 326.589844 565.785156 326.132812 566.5 325.859375 566.953125 C 325.371094 566.917969 324.589844 566.882812 322.910156 566.574219 C 319.136719 565.886719 312.726562 563.890625 304.464844 566.425781 C 298.757812 568.179688 294.878906 570.34375 292.535156 571.238281 C 290.1875 572.136719 289.835938 572.265625 287.890625 571.871094 C 278.765625 570 268.859375 557.691406 257.71875 544.972656 C 257.71875 544.964844 257.71875 544.953125 257.71875 544.945312 C 242.949219 528.097656 226.304688 514.929688 211.222656 501.433594 C 204.457031 495.382812 198.441406 488.148438 191.722656 480.132812 C 191.722656 480.125 191.722656 480.117188 191.722656 480.109375 C 183.378906 470.160156 174.324219 464.671875 166.089844 458.90625 C 153.789062 450.292969 141.804688 433.554688 137.15625 418.398438 C 135.664062 413.542969 137.03125 408.328125 138.769531 399.390625 C 140.507812 390.449219 141.082031 376.480469 131.804688 364.804688 C 127.195312 358.992188 122.574219 355.292969 118.359375 351.46875 C 119.429688 350.902344 120.839844 350.976562 121.613281 350.257812 C 126.597656 345.636719 126.296875 342.601562 126.8125 340.730469 C 127.453125 338.40625 128.210938 338.664062 133.34375 333.621094 C 141.0625 326.050781 148.785156 322.941406 159.28125 322.980469 C 164.042969 323 172.054688 324.628906 181.757812 320.738281 C 191.863281 316.6875 196.457031 310.261719 199.214844 308.386719 C 205.972656 303.789062 219.300781 302.113281 232.363281 290.992188 C 238.742188 285.558594 240.125 283.398438 240.5625 283.253906 C 240.089844 283.414062 240.988281 283.214844 244.324219 283.679688 C 247.65625 284.148438 253.527344 285.230469 260.367188 282.648438 C 269.585938 279.160156 271.214844 274.460938 274.34375 270.949219 C 277.472656 267.4375 281.507812 265.34375 278.304688 266.414062 C 287.558594 263.332031 295.109375 257.667969 298.640625 250.328125 C 300.953125 245.523438 300.5 241.863281 300.632812 237.925781 Z M 300.632812 237.925781 "/>
</g>
</g>
</svg>
