<?xml version="1.0" encoding="UTF-8"?>
<svg xmlns="http://www.w3.org/2000/svg" xmlns:xlink="http://www.w3.org/1999/xlink" width="810pt" height="809.999993pt" viewBox="0 0 810 809.999993" version="1.2">
<defs>
<clipPath id="clip1">
  <path d="M 108.671875 108.671875 L 701.171875 108.671875 L 701.171875 307 L 108.671875 307 Z M 108.671875 108.671875 "/>
</clipPath>
<clipPath id="clip2">
  <path d="M 108.671875 577 L 701 577 L 701 701.171875 L 108.671875 701.171875 Z M 108.671875 577 "/>
</clipPath>
</defs>
<g id="surface1">
<path style=" stroke:none;fill-rule:nonzero;fill:rgb(4.708862%,22.349548%,19.60907%);fill-opacity:1;" d="M 515.769531 528.359375 C 511.152344 528.359375 506.855469 525.792969 504.734375 521.546875 L 454.050781 420.203125 L 454.050781 516.015625 C 454.050781 522.828125 448.519531 528.359375 441.707031 528.359375 C 434.890625 528.359375 429.363281 522.828125 429.363281 516.015625 L 429.363281 367.890625 C 429.363281 362.164062 433.289062 357.175781 438.867188 355.867188 C 444.519531 354.609375 450.199219 357.25 452.765625 362.359375 L 503.449219 463.703125 L 503.449219 367.890625 C 503.449219 361.078125 508.980469 355.546875 515.792969 355.546875 C 522.605469 355.546875 528.136719 361.078125 528.136719 367.890625 L 528.136719 516.015625 C 528.136719 521.742188 524.210938 526.730469 518.632812 528.039062 C 517.644531 528.261719 516.707031 528.359375 515.769531 528.359375 Z M 515.769531 528.359375 "/>
<path style=" stroke:none;fill-rule:nonzero;fill:rgb(4.708862%,22.349548%,19.60907%);fill-opacity:1;" d="M 392.332031 528.359375 C 387.171875 528.359375 382.355469 525.101562 380.605469 519.917969 L 342.957031 406.921875 L 305.308594 519.917969 C 303.136719 526.410156 296.171875 529.914062 289.679688 527.71875 C 283.210938 525.570312 279.730469 518.582031 281.878906 512.113281 L 331.253906 363.988281 C 334.636719 353.917969 351.324219 353.917969 354.683594 363.988281 L 404.058594 512.113281 C 406.207031 518.582031 402.699219 525.570312 396.257812 527.71875 C 394.949219 528.160156 393.640625 528.359375 392.332031 528.359375 Z M 392.332031 528.359375 "/>
<path style=" stroke:none;fill-rule:nonzero;fill:rgb(4.708862%,22.349548%,19.60907%);fill-opacity:1;" d="M 367.644531 478.984375 L 318.269531 478.984375 C 311.453125 478.984375 305.925781 473.453125 305.925781 466.640625 C 305.925781 459.828125 311.453125 454.296875 318.269531 454.296875 L 367.644531 454.296875 C 374.457031 454.296875 379.988281 459.828125 379.988281 466.640625 C 379.988281 473.453125 374.480469 478.984375 367.644531 478.984375 Z M 367.644531 478.984375 "/>
<path style=" stroke:none;fill-rule:nonzero;fill:rgb(4.708862%,22.349548%,19.60907%);fill-opacity:1;" d="M 207.175781 528.359375 L 170.144531 528.359375 C 163.328125 528.359375 157.800781 522.828125 157.800781 516.015625 L 157.800781 367.890625 C 157.800781 361.078125 163.328125 355.546875 170.144531 355.546875 L 207.175781 355.546875 C 234.40625 355.546875 256.550781 377.691406 256.550781 404.921875 C 256.550781 419.660156 250.058594 432.894531 239.785156 441.953125 C 250.082031 451.011719 256.550781 464.246094 256.550781 478.984375 C 256.550781 506.214844 234.40625 528.359375 207.175781 528.359375 Z M 182.488281 503.671875 L 207.175781 503.671875 C 220.800781 503.671875 231.863281 492.585938 231.863281 478.984375 C 231.863281 465.382812 220.800781 454.296875 207.175781 454.296875 L 182.488281 454.296875 Z M 182.488281 429.609375 L 207.175781 429.609375 C 220.800781 429.609375 231.863281 418.523438 231.863281 404.921875 C 231.863281 391.320312 220.800781 380.234375 207.175781 380.234375 L 182.488281 380.234375 Z M 182.488281 429.609375 "/>
<path style=" stroke:none;fill-rule:nonzero;fill:rgb(4.708862%,22.349548%,19.60907%);fill-opacity:1;" d="M 565.144531 528.359375 C 558.328125 528.359375 552.800781 522.828125 552.800781 516.015625 L 552.800781 367.890625 C 552.800781 361.078125 558.328125 355.546875 565.144531 355.546875 C 571.957031 355.546875 577.488281 361.078125 577.488281 367.890625 L 577.488281 516.015625 C 577.488281 522.828125 571.980469 528.359375 565.144531 528.359375 Z M 565.144531 528.359375 "/>
<path style=" stroke:none;fill-rule:nonzero;fill:rgb(4.708862%,22.349548%,19.60907%);fill-opacity:1;" d="M 639.207031 528.359375 C 635.675781 528.359375 632.171875 526.851562 629.726562 523.914062 L 568.007812 449.851562 C 564.179688 445.261719 564.179688 438.621094 568.007812 434.027344 L 629.726562 359.964844 C 634.09375 354.730469 641.898438 354.066406 647.105469 358.386719 C 652.339844 362.753906 653.03125 370.53125 648.660156 375.789062 L 593.535156 441.953125 L 648.660156 508.117188 C 653.03125 513.347656 652.316406 521.148438 647.105469 525.519531 C 644.808594 527.421875 642.019531 528.359375 639.207031 528.359375 Z M 639.207031 528.359375 "/>
<g clip-path="url(#clip1)" clip-rule="nonzero">
<path style=" stroke:none;fill-rule:nonzero;fill:rgb(4.708862%,22.349548%,19.60907%);fill-opacity:1;" d="M 689.074219 306.171875 C 688.976562 306.171875 688.777344 306.195312 688.582031 306.171875 L 120.769531 306.171875 C 115.214844 306.171875 110.300781 302.445312 108.867188 297.039062 C 107.386719 291.65625 109.734375 285.976562 114.546875 283.136719 L 410.796875 110.324219 C 414.796875 108.003906 419.734375 108.105469 423.660156 110.574219 L 693.417969 282.25 C 698.085938 284.027344 701.417969 288.542969 701.417969 293.828125 C 701.417969 300.640625 695.886719 306.171875 689.074219 306.171875 Z M 166.441406 281.484375 L 646.21875 281.484375 L 416.746094 135.457031 Z M 166.441406 281.484375 "/>
</g>
<g clip-path="url(#clip2)" clip-rule="nonzero">
<path style=" stroke:none;fill-rule:nonzero;fill:rgb(4.708862%,22.349548%,19.60907%);fill-opacity:1;" d="M 688.582031 701.171875 L 120.769531 701.171875 C 113.953125 701.171875 108.425781 695.640625 108.425781 688.828125 L 108.425781 590.078125 C 108.425781 583.265625 113.953125 577.734375 120.769531 577.734375 L 688.582031 577.734375 C 695.394531 577.734375 700.925781 583.265625 700.925781 590.078125 L 700.925781 688.828125 C 700.925781 695.640625 695.417969 701.171875 688.582031 701.171875 Z M 133.113281 676.484375 L 676.238281 676.484375 L 676.238281 602.421875 L 133.113281 602.421875 Z M 133.113281 676.484375 "/>
</g>
</g>
</svg>
