<?xml version="1.0" encoding="UTF-8"?>
<svg xmlns="http://www.w3.org/2000/svg" xmlns:xlink="http://www.w3.org/1999/xlink" width="810pt" height="809.999993pt" viewBox="0 0 810 809.999993" version="1.2">
<g id="surface1">
<path style=" stroke:none;fill-rule:nonzero;fill:rgb(4.708862%,22.349548%,19.60907%);fill-opacity:1;" d="M 635.496094 732.386719 L 171.523438 732.386719 C 163.992188 732.386719 157.878906 726.269531 157.878906 718.738281 L 157.878906 391.226562 C 157.878906 383.695312 163.992188 377.582031 171.523438 377.582031 C 179.054688 377.582031 185.167969 383.695312 185.167969 391.226562 L 185.167969 705.09375 L 621.851562 705.09375 L 621.851562 391.226562 C 621.851562 383.695312 627.964844 377.582031 635.496094 377.582031 C 643.027344 377.582031 649.144531 383.695312 649.144531 391.226562 L 649.144531 718.738281 C 649.144531 726.269531 643.027344 732.386719 635.496094 732.386719 Z M 635.496094 732.386719 "/>
<path style=" stroke:none;fill-rule:nonzero;fill:rgb(4.708862%,22.349548%,19.60907%);fill-opacity:1;" d="M 717.375 404.875 L 89.644531 404.875 C 84.078125 404.875 79.054688 401.492188 76.980469 396.332031 C 74.90625 391.171875 76.191406 385.25 80.203125 381.375 L 394.066406 81.15625 C 399.335938 76.082031 407.660156 76.082031 412.925781 81.15625 L 726.789062 381.375 C 730.800781 385.25 732.085938 391.144531 730.011719 396.332031 C 727.964844 401.492188 722.941406 404.875 717.375 404.875 Z M 123.652344 377.582031 L 683.367188 377.582031 L 403.511719 109.898438 Z M 123.652344 377.582031 "/>
<path style=" stroke:none;fill-rule:nonzero;fill:rgb(4.708862%,22.349548%,19.60907%);fill-opacity:1;" d="M 553.617188 732.386719 L 444.449219 732.386719 C 436.914062 732.386719 430.800781 726.269531 430.800781 718.738281 L 430.800781 500.398438 C 430.800781 492.867188 436.914062 486.753906 444.449219 486.753906 L 553.617188 486.753906 C 561.152344 486.753906 567.265625 492.867188 567.265625 500.398438 L 567.265625 718.738281 C 567.265625 726.269531 561.152344 732.386719 553.617188 732.386719 Z M 458.09375 705.09375 L 539.972656 705.09375 L 539.972656 514.042969 L 458.09375 514.042969 Z M 458.09375 705.09375 "/>
<path style=" stroke:none;fill-rule:nonzero;fill:rgb(4.708862%,22.349548%,19.60907%);fill-opacity:1;" d="M 335.277344 595.921875 L 253.402344 595.921875 C 245.867188 595.921875 239.753906 589.808594 239.753906 582.277344 L 239.753906 500.398438 C 239.753906 492.867188 245.867188 486.753906 253.402344 486.753906 L 335.277344 486.753906 C 342.8125 486.753906 348.925781 492.867188 348.925781 500.398438 L 348.925781 582.277344 C 348.925781 589.808594 342.8125 595.921875 335.277344 595.921875 Z M 267.046875 568.628906 L 321.632812 568.628906 L 321.632812 514.042969 L 267.046875 514.042969 Z M 267.046875 568.628906 "/>
</g>
</svg>
