<?xml version="1.0" encoding="UTF-8"?>
<svg xmlns="http://www.w3.org/2000/svg" xmlns:xlink="http://www.w3.org/1999/xlink" width="810pt" height="809.999993pt" viewBox="0 0 810 809.999993" version="1.2">
<defs>
<clipPath id="clip1">
  <path d="M 278 213 L 704.703125 213 L 704.703125 643.390625 L 278 643.390625 Z M 278 213 "/>
</clipPath>
<clipPath id="clip2">
  <path d="M 105.042969 435 L 399 435 L 399 728.980469 L 105.042969 728.980469 Z M 105.042969 435 "/>
</clipPath>
</defs>
<g id="surface1">
<path style=" stroke:none;fill-rule:nonzero;fill:rgb(4.708862%,22.349548%,19.60907%);fill-opacity:1;" d="M 148.765625 387.832031 L 354.910156 387.832031 C 379.019531 387.832031 398.632812 368.210938 398.632812 344.09375 L 398.632812 238.390625 C 398.632812 231.9375 393.40625 226.714844 386.960938 226.714844 C 380.511719 226.714844 375.292969 231.9375 375.292969 238.390625 L 375.292969 344.09375 C 375.292969 355.339844 366.152344 364.484375 354.910156 364.484375 L 148.765625 364.484375 C 137.527344 364.484375 128.382812 355.339844 128.382812 344.09375 L 128.382812 137.875 C 128.382812 126.636719 137.527344 117.492188 148.765625 117.492188 L 334.992188 117.492188 C 341.4375 117.492188 346.664062 112.265625 346.664062 105.820312 C 346.664062 99.367188 341.4375 94.144531 334.992188 94.144531 L 148.765625 94.144531 C 124.660156 94.144531 105.042969 113.761719 105.042969 137.875 L 105.042969 344.09375 C 105.042969 368.210938 124.660156 387.832031 148.765625 387.832031 "/>
<path style=" stroke:none;fill-rule:nonzero;fill:rgb(4.708862%,22.349548%,19.60907%);fill-opacity:1;" d="M 268.542969 237.597656 L 398.75 107.355469 L 425.023438 133.636719 L 255.414062 303.308594 C 254.496094 304.234375 252.996094 304.234375 252.074219 303.308594 L 163.140625 214.339844 L 189.417969 188.054688 L 238.941406 237.597656 C 247.105469 245.757812 260.386719 245.757812 268.542969 237.597656 Z M 204.21875 169.84375 C 196.058594 161.679688 182.78125 161.679688 174.617188 169.84375 L 144.9375 199.535156 C 136.773438 207.703125 136.773438 220.980469 144.9375 229.148438 L 235.570312 319.816406 C 240.425781 324.675781 246.882812 327.351562 253.742188 327.351562 C 260.613281 327.351562 267.066406 324.675781 271.917969 319.816406 L 443.234375 148.441406 C 451.394531 140.277344 451.394531 126.996094 443.234375 118.832031 L 413.550781 89.140625 C 405.390625 80.972656 392.109375 80.972656 383.949219 89.140625 L 253.742188 219.382812 L 204.21875 169.84375 "/>
<g clip-path="url(#clip1)" clip-rule="nonzero">
<path style=" stroke:none;fill-rule:nonzero;fill:rgb(4.708862%,22.349548%,19.60907%);fill-opacity:1;" d="M 670.953125 325.453125 L 663.636719 332.773438 L 585.742188 254.855469 L 593.0625 247.535156 C 599.796875 240.800781 608.742188 237.09375 618.261719 237.09375 C 627.78125 237.09375 636.734375 240.800781 643.460938 247.535156 L 670.953125 275.035156 C 684.847656 288.933594 684.847656 311.554688 670.953125 325.453125 Z M 390.53125 605.976562 L 346.871094 612.019531 L 307.890625 573.027344 L 312.769531 527.917969 L 331.621094 509.0625 L 409.511719 586.980469 Z M 304.667969 602.828125 L 317.871094 616.03125 L 303.019531 618.089844 Z M 426.015625 570.472656 L 348.121094 492.554688 L 549.832031 290.777344 L 627.726562 368.695312 Z M 644.234375 352.1875 L 566.339844 274.261719 L 569.238281 271.363281 L 647.128906 349.289062 Z M 687.457031 258.527344 L 659.972656 231.027344 C 648.828125 219.878906 634.015625 213.746094 618.261719 213.746094 C 602.507812 213.746094 587.699219 219.878906 576.558594 231.027344 L 293.355469 514.316406 C 291.476562 516.199219 290.292969 518.667969 290.007812 521.3125 L 284.070312 576.214844 L 278.210938 630.449219 C 277.820312 634.023438 279.101562 637.574219 281.679688 640.082031 C 283.875 642.210938 286.796875 643.375 289.804688 643.375 C 290.339844 643.375 290.875 643.339844 291.410156 643.265625 L 397.613281 628.566406 C 400.128906 628.21875 402.460938 627.058594 404.261719 625.257812 L 434.269531 595.246094 C 434.269531 595.238281 434.269531 595.238281 434.269531 595.238281 C 434.269531 595.238281 434.269531 595.238281 434.277344 595.238281 L 652.46875 376.960938 C 652.476562 376.960938 652.484375 376.953125 652.484375 376.949219 C 652.488281 376.949219 652.496094 376.941406 652.496094 376.941406 L 687.457031 341.960938 C 710.453125 318.960938 710.453125 281.527344 687.457031 258.527344 "/>
</g>
<path style=" stroke:none;fill-rule:nonzero;fill:rgb(4.708862%,22.349548%,19.60907%);fill-opacity:1;" d="M 554.984375 324.746094 C 550.425781 320.1875 543.035156 320.1875 538.476562 324.746094 L 380.582031 482.703125 C 376.023438 487.261719 376.023438 494.652344 380.582031 499.210938 C 382.859375 501.492188 385.84375 502.628906 388.828125 502.628906 C 391.820312 502.628906 394.804688 501.492188 397.082031 499.210938 L 554.984375 341.257812 C 559.539062 336.703125 559.539062 329.308594 554.984375 324.746094 "/>
<path style=" stroke:none;fill-rule:nonzero;fill:rgb(4.708862%,22.349548%,19.60907%);fill-opacity:1;" d="M 592.453125 362.226562 C 587.894531 357.671875 580.503906 357.671875 575.945312 362.226562 L 418.046875 520.183594 C 413.488281 524.742188 413.488281 532.128906 418.046875 536.691406 C 420.328125 538.972656 423.3125 540.113281 426.300781 540.113281 C 429.285156 540.113281 432.269531 538.972656 434.550781 536.691406 L 592.453125 378.742188 C 597.011719 374.179688 597.011719 366.789062 592.453125 362.226562 "/>
<g clip-path="url(#clip2)" clip-rule="nonzero">
<path style=" stroke:none;fill-rule:nonzero;fill:rgb(4.708862%,22.349548%,19.60907%);fill-opacity:1;" d="M 386.960938 658.4375 C 380.511719 658.4375 375.292969 663.667969 375.292969 670.113281 L 375.292969 685.25 C 375.292969 696.488281 366.152344 705.632812 354.910156 705.632812 L 148.765625 705.632812 C 137.527344 705.632812 128.382812 696.488281 128.382812 685.25 L 128.382812 479.03125 C 128.382812 467.792969 137.527344 458.648438 148.765625 458.648438 L 308.179688 458.648438 C 314.628906 458.648438 319.851562 453.421875 319.851562 446.976562 C 319.851562 440.523438 314.628906 435.300781 308.179688 435.300781 L 148.765625 435.300781 C 124.660156 435.300781 105.042969 454.917969 105.042969 479.03125 L 105.042969 685.25 C 105.042969 709.367188 124.660156 728.980469 148.765625 728.980469 L 354.910156 728.980469 C 379.019531 728.980469 398.632812 709.367188 398.632812 685.25 L 398.632812 670.113281 C 398.632812 663.667969 393.40625 658.4375 386.960938 658.4375 "/>
</g>
<path style=" stroke:none;fill-rule:nonzero;fill:rgb(4.708862%,22.349548%,19.60907%);fill-opacity:1;" d="M 277.058594 497.5625 C 283.503906 497.5625 288.730469 492.335938 288.730469 485.890625 C 288.730469 479.4375 283.503906 474.214844 277.058594 474.214844 L 155.617188 474.214844 C 149.171875 474.214844 143.945312 479.4375 143.945312 485.890625 L 143.945312 678.394531 C 143.945312 684.84375 149.171875 690.066406 155.617188 690.066406 L 340.28125 690.066406 C 346.722656 690.066406 351.953125 684.84375 351.953125 678.394531 C 351.953125 671.949219 346.722656 666.71875 340.28125 666.71875 L 167.285156 666.71875 L 167.285156 497.5625 L 277.058594 497.5625 "/>
</g>
</svg>
