<?xml version="1.0" encoding="UTF-8"?>
<svg xmlns="http://www.w3.org/2000/svg" xmlns:xlink="http://www.w3.org/1999/xlink" width="375pt" height="374.999991pt" viewBox="0 0 375 374.999991" version="1.2">
<defs>
<clipPath id="clip1">
  <path d="M 0 113 L 367.21875 113 L 367.21875 337.816406 L 0 337.816406 Z M 0 113 "/>
</clipPath>
<clipPath id="clip2">
  <path d="M 7.210938 0 L 374.429688 0 L 374.429688 225 L 7.210938 225 Z M 7.210938 0 "/>
</clipPath>
<clipPath id="clip3">
  <path d="M 0 56.691406 L 367.21875 56.691406 L 367.21875 281.691406 L 0 281.691406 Z M 0 56.691406 "/>
</clipPath>
</defs>
<g id="surface1">
<g clip-path="url(#clip1)" clip-rule="nonzero">
<path style=" stroke:none;fill-rule:nonzero;fill:rgb(100%,100%,100%);fill-opacity:1;" d="M 40.757812 318.332031 C 39.351562 319.746094 38.148438 320.347656 36.339844 318.9375 C 35.9375 318.535156 35.335938 318.535156 34.535156 318.332031 C 34.734375 317.929688 35.136719 317.324219 35.539062 316.519531 C 34.734375 316.316406 33.53125 316.316406 33.128906 315.710938 C 32.726562 315.105469 33.128906 314.097656 33.328125 312.6875 C 32.527344 312.886719 31.523438 312.886719 30.71875 313.089844 L 29.515625 310.671875 C 29.914062 310.671875 30.519531 310.46875 31.121094 310.46875 L 31.121094 310.066406 C 30.519531 309.863281 29.714844 309.660156 29.714844 309.660156 C 29.113281 308.855469 28.910156 308.453125 28.511719 308.25 C 28.109375 308.046875 27.707031 307.847656 27.507812 307.644531 C 26.902344 307.242188 26.503906 306.839844 25.898438 306.234375 C 26.703125 305.832031 27.304688 305.628906 28.109375 305.226562 C 28.511719 305.023438 29.113281 305.023438 29.515625 304.824219 C 29.113281 304.417969 28.710938 304.21875 28.308594 303.8125 C 27.90625 303.410156 27.507812 302.804688 27.304688 302.199219 C 26.902344 300.789062 26.703125 299.378906 26.300781 297.964844 C 25.898438 297.160156 25.097656 296.351562 24.496094 295.546875 C 24.292969 295.34375 23.691406 295.144531 23.492188 294.941406 C 22.6875 293.53125 22.488281 291.3125 21.484375 290.503906 C 19.476562 288.890625 21.484375 286.675781 19.875 285.261719 C 19.476562 284.859375 18.871094 284.253906 18.871094 283.648438 C 18.871094 282.238281 16.261719 281.632812 17.867188 279.816406 C 18.070312 279.617188 17.066406 277.601562 16.261719 276.996094 C 13.652344 274.976562 14.253906 271.550781 12.648438 269.128906 C 12.449219 268.726562 13.050781 267.921875 13.050781 267.316406 C 10.441406 265.703125 9.839844 263.28125 11.242188 260.863281 C 10.238281 260.054688 9.234375 259.449219 8.433594 258.644531 L 7.832031 258.039062 C 11.644531 257.234375 10.441406 254.007812 11.042969 251.585938 C 10.238281 251.183594 9.636719 250.980469 8.632812 250.578125 C 9.035156 250.175781 9.4375 249.972656 9.839844 249.570312 C 8.433594 248.160156 4.214844 247.753906 8.03125 244.125 C 6.828125 243.722656 5.824219 243.320312 4.417969 242.914062 C 5.21875 242.3125 5.824219 241.90625 6.425781 241.503906 C 5.824219 241.101562 5.019531 240.898438 4.214844 240.292969 C 3.414062 239.285156 6.425781 236.867188 3.210938 235.65625 L 3.210938 232.632812 C 3.414062 232.429688 4.015625 232.027344 4.820312 231.625 C 3.816406 231.421875 3.210938 231.21875 3.011719 231.21875 C 2.609375 229.203125 2.207031 227.390625 1.808594 225.777344 C 1.40625 225.777344 1.203125 225.574219 0.804688 225.574219 C 1.40625 225.371094 1.808594 225.171875 2.410156 224.96875 C 2.410156 224.765625 2.207031 224.566406 2.207031 224.363281 C 1.40625 223.960938 0.804688 223.757812 0 223.355469 C 0 223.152344 0 222.550781 0.199219 222.144531 C 0.804688 222.144531 1.605469 222.347656 2.207031 222.347656 C 9.234375 216.5 13.25 214.683594 23.492188 212.265625 C 29.113281 210.851562 34.535156 209.039062 39.953125 207.425781 C 41.5625 206.820312 43.367188 206.214844 44.773438 205.207031 C 45.574219 204.601562 45.777344 203.191406 45.976562 201.980469 C 45.976562 201.375 45.175781 200.570312 44.371094 200.367188 C 42.566406 199.5625 42.765625 198.148438 42.964844 196.941406 C 42.164062 196.132812 41.359375 195.527344 40.558594 194.722656 C 41.160156 193.914062 41.5625 193.308594 41.960938 192.703125 C 38.75 193.308594 39.753906 190.488281 39.351562 189.277344 C 38.347656 186.855469 38.148438 184.4375 37.546875 181.816406 C 37.746094 181.816406 38.148438 181.816406 38.550781 182.015625 C 37.546875 178.992188 36.742188 176.167969 35.738281 173.144531 C 35.9375 173.144531 36.140625 172.941406 36.339844 172.941406 C 35.738281 172.339844 34.933594 171.933594 34.132812 171.128906 C 35.539062 169.515625 37.144531 168.304688 37.34375 166.085938 C 37.546875 163.464844 40.355469 162.660156 42.566406 161.652344 C 48.585938 159.230469 54.8125 157.011719 60.835938 154.390625 C 64.648438 152.777344 68.265625 150.761719 72.078125 149.148438 C 75.691406 147.535156 79.304688 145.921875 83.121094 144.511719 C 86.734375 143.097656 90.550781 141.890625 94.164062 140.882812 C 97.375 140.074219 100.789062 139.671875 104 138.863281 C 105.40625 138.664062 106.613281 137.855469 107.816406 137.453125 C 114.242188 135.636719 120.667969 134.023438 126.890625 132.210938 C 132.3125 130.796875 137.53125 129.183594 142.953125 128.582031 C 145.160156 128.378906 147.371094 125.957031 149.777344 127.976562 C 149.980469 128.175781 150.78125 127.371094 151.386719 127.371094 C 152.390625 127.167969 153.191406 127.371094 154.195312 127.371094 C 153.59375 124.34375 156.605469 125.957031 157.609375 125.757812 C 161.023438 124.75 164.835938 124.144531 168.449219 123.941406 C 176.480469 123.335938 184.113281 120.714844 191.941406 120.3125 C 196.558594 119.910156 201.175781 118.902344 205.796875 118.296875 C 206.195312 118.296875 208.003906 117.085938 207.199219 118.902344 C 213.222656 116.28125 219.847656 116.882812 226.273438 115.875 C 226.273438 116.683594 226.273438 117.085938 226.074219 117.691406 C 226.476562 117.488281 227.078125 117.289062 227.078125 117.289062 C 226.476562 115.472656 227.679688 115.472656 228.882812 115.269531 C 231.894531 115.070312 235.109375 114.867188 238.121094 114.667969 C 241.535156 114.464844 244.746094 114.0625 248.160156 113.859375 C 248.761719 113.859375 249.363281 114.0625 249.964844 114.261719 C 250.769531 114.667969 251.171875 114.667969 252.175781 114.0625 C 253.179688 113.253906 255.1875 113.457031 256.589844 113.457031 C 262.816406 113.253906 269.039062 113.054688 275.261719 113.054688 C 279.679688 113.054688 283.898438 113.457031 288.3125 113.660156 C 290.523438 113.859375 292.730469 114.0625 294.941406 114.0625 C 296.746094 114.0625 301.164062 117.691406 300.5625 119.101562 C 299.757812 120.917969 301.765625 122.328125 300.761719 123.941406 C 300.761719 123.941406 301.363281 124.34375 301.765625 124.546875 C 300.761719 125.757812 300.964844 126.363281 302.167969 130.394531 C 302.769531 132.410156 302.769531 134.832031 302.769531 137.050781 C 302.972656 137.855469 302.972656 138.664062 303.171875 139.671875 C 303.574219 141.6875 303.972656 143.703125 304.375 145.921875 C 303.371094 146.125 302.367188 146.125 301.164062 146.324219 C 303.171875 147.9375 304.777344 149.957031 302.570312 152.980469 L 303.574219 152.980469 C 302.367188 155.199219 301.164062 157.617188 300.359375 159.433594 C 302.167969 161.246094 303.773438 163.0625 305.582031 164.675781 C 305.980469 165.078125 306.785156 165.683594 306.984375 165.480469 C 309.796875 164.070312 311 166.691406 312.609375 167.699219 C 313.8125 168.507812 316.625 169.113281 315.015625 171.933594 C 315.015625 171.933594 316.222656 172.941406 316.824219 173.144531 C 318.027344 173.347656 319.234375 173.144531 320.839844 172.941406 L 320.839844 192.101562 L 321.242188 192.101562 C 321.039062 192.503906 320.839844 193.109375 320.839844 193.308594 C 322.042969 195.730469 321.242188 197.542969 318.632812 198.351562 C 318.429688 198.351562 318.230469 198.753906 318.027344 198.957031 C 318.027344 199.15625 318.027344 199.5625 318.230469 199.5625 L 319.234375 199.5625 L 321.644531 198.351562 L 322.042969 198.753906 C 321.644531 199.359375 321.242188 199.964844 320.839844 200.769531 C 321.441406 201.375 322.042969 201.980469 323.046875 202.789062 C 322.648438 203.191406 322.042969 203.59375 321.84375 204.199219 C 321.644531 204.804688 320.238281 205.410156 321.84375 206.214844 C 322.246094 206.417969 322.246094 207.828125 322.445312 208.835938 C 319.433594 207.425781 319.636719 210.851562 317.828125 211.660156 C 317.628906 211.257812 317.226562 210.652344 316.824219 209.84375 C 316.625 210.652344 316.421875 211.257812 316.421875 211.457031 C 315.820312 211.457031 314.617188 211.257812 314.414062 211.457031 C 314.011719 212.667969 313.410156 214.078125 313.8125 215.089844 C 314.011719 215.894531 315.417969 216.902344 316.421875 216.902344 C 319.234375 217.507812 322.042969 217.710938 324.855469 217.910156 C 326.460938 218.113281 328.066406 217.710938 329.675781 217.710938 C 331.882812 217.910156 333.890625 218.316406 336.097656 218.515625 C 336.902344 218.515625 337.90625 218.113281 338.707031 218.113281 C 340.917969 218.316406 343.328125 218.515625 345.535156 218.917969 C 345.9375 218.917969 346.339844 219.523438 346.539062 219.726562 C 347.945312 219.929688 349.351562 220.332031 350.554688 220.128906 C 353.367188 219.523438 354.769531 220.53125 356.578125 222.550781 C 357.179688 223.355469 359.386719 223.152344 360.59375 222.953125 C 363.804688 222.550781 362.800781 225.171875 363.605469 226.582031 C 364.007812 227.1875 364.007812 227.992188 364.007812 228.597656 C 364.40625 230.210938 364.207031 231.625 361.796875 232.429688 C 362.601562 233.238281 363.402344 233.640625 364.007812 234.445312 C 364.40625 234.851562 364.40625 235.453125 364.40625 236.058594 C 364.40625 236.867188 364.007812 237.875 364.40625 238.277344 C 365.8125 239.488281 365.011719 240.292969 364.207031 240.898438 C 364.609375 241.90625 365.410156 242.714844 365.410156 243.519531 C 365.410156 244.933594 364.40625 246.34375 366.015625 247.351562 L 366.015625 247.554688 C 363.804688 250.375 366.617188 253 366.015625 255.820312 C 366.015625 256.226562 366.015625 257.03125 366.414062 257.433594 C 367.621094 258.441406 367.019531 259.449219 366.617188 260.660156 C 365.8125 262.476562 365.011719 264.289062 364.40625 265.703125 C 363.203125 265.5 361.796875 265.097656 360.390625 265.300781 C 358.988281 265.300781 357.78125 265.703125 356.378906 265.902344 C 356.777344 267.113281 358.585938 267.921875 356.578125 269.535156 C 355.976562 269.9375 356.378906 271.75 356.578125 272.761719 C 356.777344 274.171875 357.382812 275.785156 357.179688 277.195312 C 357.179688 277.800781 355.773438 278.40625 354.769531 278.808594 C 352.964844 279.816406 349.953125 279.414062 350.355469 282.84375 C 348.949219 283.042969 347.140625 282.84375 348.949219 285.0625 C 349.75 286.070312 348.144531 287.480469 345.9375 287.683594 C 343.527344 287.882812 341.117188 288.488281 338.707031 288.890625 C 336.5 289.296875 334.292969 289.699219 332.082031 289.898438 C 331.480469 289.898438 330.675781 289.296875 329.875 289.09375 C 329.273438 289.296875 328.269531 289.699219 327.265625 290.101562 C 326.664062 288.890625 326.261719 288.085938 326.058594 287.078125 C 325.859375 287.078125 325.660156 287.078125 325.660156 287.277344 L 325.660156 290.101562 C 324.050781 286.675781 321.84375 290.101562 320.238281 289.496094 C 320.640625 289.898438 320.839844 290.304688 321.242188 290.910156 C 320.238281 291.3125 319.433594 291.511719 318.632812 291.714844 L 318.632812 294.136719 C 317.226562 295.34375 316.222656 296.152344 315.21875 297.160156 C 316.019531 297.363281 316.824219 297.765625 318.027344 298.167969 C 315.621094 298.773438 313.8125 300.183594 311.402344 299.578125 C 310.800781 299.378906 309.996094 300.183594 309.394531 300.585938 C 308.191406 302 306.984375 303.007812 305.582031 301.597656 C 304.578125 303.410156 303.773438 305.023438 302.96875 306.636719 C 302.96875 305.832031 302.769531 305.226562 302.769531 304.417969 C 301.964844 304.621094 301.164062 304.621094 300.359375 304.824219 C 300.5625 306.03125 300.761719 306.636719 300.960938 307.644531 C 301.765625 307.242188 302.367188 306.839844 302.96875 306.4375 C 303.972656 308.855469 304.578125 309.058594 307.386719 307.644531 C 307.789062 308.453125 308.191406 309.257812 308.59375 310.265625 C 306.382812 310.671875 304.175781 311.074219 301.765625 311.679688 C 303.171875 313.492188 299.960938 316.113281 303.171875 316.71875 C 302.367188 317.527344 301.765625 318.734375 300.761719 319.339844 C 299.355469 320.148438 297.75 320.347656 296.144531 320.753906 C 293.9375 321.15625 291.527344 321.558594 289.316406 321.761719 C 286.304688 321.960938 283.292969 322.164062 280.484375 322.367188 C 278.273438 322.566406 276.265625 323.171875 274.257812 323.375 C 272.652344 323.574219 270.847656 323.171875 269.242188 323.375 C 266.628906 323.777344 264.222656 324.785156 261.609375 325.390625 C 261.007812 325.59375 260.207031 325.59375 259.601562 325.59375 C 258.597656 325.59375 257.59375 324.585938 256.992188 326.199219 C 254.582031 324.585938 252.574219 328.414062 250.167969 326.601562 C 249.964844 326.398438 249.363281 327.003906 248.960938 327.207031 L 247.757812 327.808594 C 242.136719 328.820312 236.515625 329.625 230.890625 330.433594 C 228.082031 330.835938 225.269531 330.835938 222.460938 331.035156 C 220.652344 331.238281 218.84375 331.84375 217.039062 332.046875 C 215.832031 332.246094 214.628906 332.046875 213.023438 331.84375 C 212.421875 333.457031 211.417969 333.253906 210.414062 331.84375 C 208.40625 332.851562 206.398438 333.859375 203.988281 333.253906 C 203.183594 333.054688 201.980469 333.660156 200.976562 333.660156 C 200.171875 333.660156 199.371094 333.457031 198.566406 333.054688 C 197.765625 332.648438 196.761719 331.441406 196.558594 333.660156 C 196.558594 333.859375 194.550781 334.0625 193.347656 334.261719 C 190.9375 334.667969 188.328125 334.867188 185.71875 335.273438 C 186.117188 334.464844 186.320312 333.859375 186.519531 333.253906 L 186.320312 333.054688 L 183.308594 335.472656 C 181.703125 336.882812 179.695312 336.683594 177.6875 336.683594 C 175.878906 336.683594 173.871094 336.480469 172.464844 337.085938 C 170.859375 337.691406 171.0625 338.09375 170.058594 336.683594 C 169.253906 338.296875 165.640625 339.101562 164.636719 338.09375 C 165.238281 337.691406 165.839844 337.488281 166.441406 337.085938 C 166.242188 336.882812 166.242188 336.683594 166.042969 336.480469 C 165.640625 336.683594 165.4375 336.882812 165.039062 337.085938 C 162.628906 338.496094 160.019531 338.09375 157.609375 338.296875 C 155.601562 338.496094 153.59375 337.691406 151.386719 337.289062 L 151.386719 335.472656 C 151.386719 332.851562 149.980469 331.441406 147.570312 331.238281 C 146.765625 331.238281 145.363281 331.441406 145.5625 329.421875 C 145.761719 328.011719 143.753906 327.207031 141.949219 327.609375 C 140.542969 328.011719 138.9375 327.808594 137.53125 327.808594 C 137.332031 327.609375 136.929688 327.40625 136.527344 327.40625 C 134.921875 327.609375 133.515625 328.011719 131.910156 328.011719 C 128.695312 328.414062 125.6875 328.617188 122.472656 329.019531 C 121.671875 329.019531 120.867188 328.820312 119.664062 328.820312 C 120.464844 328.214844 121.066406 327.808594 121.671875 327.40625 C 116.449219 328.414062 114.84375 325.1875 113.839844 321.359375 C 114.039062 321.359375 114.441406 321.15625 114.84375 321.15625 C 110.628906 320.550781 110.226562 317.125 109.222656 313.898438 C 108.621094 313.695312 107.414062 313.292969 106.613281 312.886719 C 107.011719 312.285156 107.617188 311.476562 108.015625 310.871094 C 107.214844 310.671875 106.210938 310.265625 105.40625 310.265625 C 102.597656 310.671875 100.1875 310.265625 98.378906 307.847656 C 100.988281 308.25 103.398438 308.652344 106.007812 309.058594 C 106.410156 307.644531 106.613281 306.839844 106.8125 305.832031 C 105.003906 307.039062 105.003906 307.039062 103.601562 305.832031 C 102.996094 305.425781 102.394531 305.023438 101.992188 304.824219 C 100.789062 306.839844 98.78125 305.226562 96.976562 306.03125 C 97.578125 306.839844 97.980469 307.445312 98.378906 308.046875 C 97.375 307.445312 95.367188 308.855469 95.769531 306.4375 C 94.164062 306.839844 92.558594 307.242188 91.152344 307.847656 C 90.347656 308.25 89.949219 309.257812 89.34375 310.066406 L 89.34375 308.855469 C 88.945312 308.855469 88.542969 308.855469 88.339844 309.058594 C 85.933594 310.265625 83.320312 311.679688 80.914062 312.886719 C 80.308594 312.082031 80.109375 311.476562 79.910156 311.476562 C 78.503906 312.285156 77.097656 313.492188 75.894531 313.292969 C 74.6875 313.292969 73.28125 311.878906 72.078125 311.273438 C 72.078125 312.285156 71.878906 313.292969 71.878906 314.300781 C 69.46875 312.285156 69.066406 312.484375 67.660156 316.113281 C 69.066406 316.113281 70.472656 315.914062 72.078125 315.914062 L 72.078125 314.5 C 72.679688 315.105469 73.28125 315.511719 73.886719 316.113281 C 73.886719 316.519531 73.683594 317.527344 73.683594 317.527344 C 71.675781 317.527344 70.070312 320.148438 67.660156 318.535156 C 67.261719 318.332031 66.457031 318.9375 65.855469 318.9375 L 64.648438 318.9375 C 59.230469 321.359375 53.40625 321.558594 47.582031 322.972656 C 47.382812 320.753906 46.179688 320.953125 44.570312 321.359375 C 44.171875 321.558594 43.367188 320.953125 42.765625 320.953125 C 43.167969 320.953125 43.566406 320.753906 43.769531 320.753906 C 44.171875 319.945312 44.570312 318.9375 44.773438 318.332031 C 44.171875 318.132812 43.367188 317.527344 42.5625 317.527344 C 41.960938 317.527344 41.359375 318.132812 40.757812 318.332031 C 41.160156 317.726562 40.957031 318.132812 40.757812 318.332031 Z M 250.769531 322.367188 C 248.160156 322.769531 245.949219 323.171875 243.542969 323.574219 L 243.542969 324.585938 C 244.746094 324.785156 246.152344 325.1875 247.355469 324.988281 C 248.558594 324.988281 250.367188 324.988281 250.769531 322.367188 Z M 67.058594 316.316406 C 66.054688 315.105469 65.652344 313.898438 64.25 315.105469 C 63.644531 315.710938 62.640625 315.710938 61.839844 316.113281 C 61.4375 316.316406 61.035156 316.519531 60.632812 316.921875 L 60.835938 317.527344 C 61.238281 317.527344 61.636719 317.324219 62.242188 317.121094 C 62.84375 316.921875 63.445312 316.921875 64.046875 316.921875 C 64.648438 316.71875 65.652344 316.519531 67.058594 316.316406 Z M 135.324219 322.566406 C 136.328125 323.777344 137.128906 324.785156 137.933594 325.792969 C 138.335938 324.785156 138.9375 323.777344 139.136719 322.972656 C 137.933594 322.566406 136.726562 322.566406 135.324219 322.566406 Z M 73.082031 305.023438 C 71.878906 308.25 72.679688 309.460938 74.890625 309.257812 C 74.285156 308.046875 73.683594 306.839844 73.082031 305.023438 Z M 73.082031 305.023438 "/>
</g>
<path style=" stroke:none;fill-rule:nonzero;fill:rgb(100%,100%,100%);fill-opacity:1;" d="M 74.285156 315.308594 C 74.085938 314.90625 74.085938 314.5 73.886719 313.695312 C 76.09375 315.308594 77.699219 313.695312 79.507812 313.292969 C 81.3125 312.886719 83.320312 313.695312 85.128906 313.898438 L 85.128906 313.695312 C 84.726562 315.710938 83.121094 315.105469 81.714844 315.308594 C 80.511719 315.511719 78.90625 315.105469 78.101562 315.710938 C 76.292969 317.324219 75.289062 316.519531 74.285156 315.308594 Z M 74.285156 315.308594 "/>
<path style=" stroke:none;fill-rule:nonzero;fill:rgb(100%,100%,100%);fill-opacity:1;" d="M 85.128906 313.898438 C 85.730469 313.492188 86.332031 312.6875 87.136719 312.082031 C 87.941406 311.476562 88.742188 311.074219 89.546875 310.46875 C 89.746094 310.671875 89.949219 311.074219 90.347656 311.273438 L 92.757812 311.878906 C 89.949219 312.484375 87.539062 313.089844 85.128906 313.898438 Z M 85.128906 313.898438 "/>
<path style=" stroke:none;fill-rule:nonzero;fill:rgb(100%,100%,100%);fill-opacity:1;" d="M 40.757812 318.332031 C 40.957031 318.132812 41.160156 317.726562 41.359375 317.527344 C 43.769531 316.519531 43.167969 319.140625 44.371094 319.945312 C 43.96875 319.945312 43.566406 320.148438 43.367188 320.148438 C 42.765625 320.347656 41.761719 320.753906 41.359375 320.550781 C 40.957031 319.945312 40.957031 319.140625 40.757812 318.332031 Z M 40.757812 318.332031 "/>
<path style=" stroke:none;fill-rule:nonzero;fill:rgb(100%,100%,100%);fill-opacity:1;" d="M 92.558594 311.878906 C 92.15625 309.863281 94.164062 310.066406 94.96875 309.660156 C 95.570312 309.460938 96.574219 309.863281 97.777344 310.066406 C 95.972656 312.082031 94.363281 312.6875 92.558594 311.878906 Z M 92.558594 311.878906 "/>
<g clip-path="url(#clip2)" clip-rule="nonzero">
<path style=" stroke:none;fill-rule:nonzero;fill:rgb(100%,100%,100%);fill-opacity:1;" d="M 47.96875 205.519531 C 46.5625 206.929688 45.359375 207.535156 43.550781 206.125 C 43.152344 205.71875 42.546875 205.71875 41.746094 205.519531 C 41.945312 205.113281 42.347656 204.511719 42.75 203.703125 C 41.945312 203.5 40.742188 203.5 40.339844 202.898438 C 39.9375 202.292969 40.339844 201.285156 40.539062 199.871094 C 39.738281 200.074219 38.734375 200.074219 37.929688 200.273438 L 36.726562 197.855469 C 37.128906 197.855469 37.730469 197.652344 38.332031 197.652344 L 38.332031 197.25 C 37.730469 197.050781 36.925781 196.847656 36.925781 196.847656 C 36.324219 196.039062 36.125 195.636719 35.722656 195.4375 C 35.320312 195.234375 34.917969 195.03125 34.71875 194.832031 C 34.117188 194.425781 33.714844 194.023438 33.113281 193.417969 C 33.914062 193.015625 34.515625 192.8125 35.320312 192.410156 C 35.722656 192.210938 36.324219 192.210938 36.726562 192.007812 C 36.324219 191.605469 35.921875 191.402344 35.519531 191 C 35.121094 190.597656 34.71875 189.992188 34.515625 189.386719 C 34.117188 187.976562 33.914062 186.5625 33.511719 185.152344 C 33.113281 184.34375 32.308594 183.539062 31.707031 182.730469 C 31.503906 182.53125 30.902344 182.328125 30.703125 182.125 C 29.898438 180.714844 29.699219 178.496094 28.695312 177.691406 C 26.6875 176.078125 28.695312 173.859375 27.089844 172.449219 C 26.6875 172.042969 26.085938 171.4375 26.085938 170.835938 C 26.085938 169.421875 23.472656 168.816406 25.082031 167.003906 C 25.28125 166.800781 24.277344 164.785156 23.472656 164.179688 C 20.863281 162.164062 21.464844 158.734375 19.859375 156.316406 C 19.660156 155.914062 20.261719 155.105469 20.261719 154.5 C 17.652344 152.886719 17.050781 150.46875 18.453125 148.046875 C 17.449219 147.242188 16.445312 146.636719 15.644531 145.828125 L 15.042969 145.226562 C 18.855469 144.417969 17.652344 141.191406 18.253906 138.773438 C 17.449219 138.367188 16.847656 138.167969 15.84375 137.765625 C 16.246094 137.359375 16.648438 137.160156 17.050781 136.753906 C 15.644531 135.34375 11.429688 134.941406 15.242188 131.3125 C 14.039062 130.90625 13.035156 130.503906 11.628906 130.101562 C 12.433594 129.496094 13.035156 129.09375 13.636719 128.691406 C 13.035156 128.285156 12.230469 128.085938 11.429688 127.480469 C 10.625 126.472656 13.636719 124.050781 10.425781 122.839844 L 10.425781 119.816406 C 10.625 119.617188 11.226562 119.210938 12.03125 118.808594 C 11.027344 118.605469 10.425781 118.40625 10.222656 118.40625 C 9.820312 116.390625 9.421875 114.574219 9.019531 112.960938 C 8.617188 112.960938 8.417969 112.757812 8.015625 112.757812 C 8.617188 112.558594 9.019531 112.355469 9.621094 112.15625 C 9.621094 111.953125 9.421875 111.75 9.421875 111.550781 C 8.617188 111.144531 8.015625 110.945312 7.210938 110.542969 C 7.210938 110.339844 7.210938 109.734375 7.414062 109.332031 C 8.015625 109.332031 8.816406 109.53125 9.421875 109.53125 C 16.445312 103.683594 20.460938 101.871094 30.703125 99.449219 C 36.324219 98.039062 41.746094 96.222656 47.164062 94.609375 C 48.773438 94.003906 50.578125 93.402344 51.984375 92.394531 C 52.789062 91.789062 52.988281 90.375 53.1875 89.167969 C 53.1875 88.5625 52.386719 87.753906 51.582031 87.554688 C 49.777344 86.746094 49.976562 85.335938 50.175781 84.125 C 49.375 83.320312 48.570312 82.714844 47.769531 81.90625 C 48.371094 81.101562 48.773438 80.496094 49.171875 79.890625 C 45.960938 80.496094 46.964844 77.671875 46.5625 76.460938 C 45.558594 74.042969 45.359375 71.621094 44.757812 69 C 44.957031 69 45.359375 69 45.761719 69.203125 C 44.757812 66.179688 43.953125 63.355469 42.949219 60.332031 C 43.152344 60.332031 43.351562 60.128906 43.550781 60.128906 C 42.949219 59.523438 42.148438 59.121094 41.34375 58.3125 C 42.75 56.699219 44.355469 55.492188 44.554688 53.273438 C 44.757812 50.652344 47.566406 49.84375 49.777344 48.835938 C 55.800781 46.417969 62.023438 44.199219 68.046875 41.578125 C 71.863281 39.964844 75.476562 37.945312 79.289062 36.332031 C 82.902344 34.722656 86.519531 33.109375 90.332031 31.695312 C 93.945312 30.285156 97.761719 29.074219 101.375 28.066406 C 104.585938 27.257812 108 26.855469 111.214844 26.050781 C 112.617188 25.847656 113.824219 25.042969 115.027344 24.636719 C 121.453125 22.824219 127.878906 21.210938 134.101562 19.394531 C 139.523438 17.984375 144.742188 16.371094 150.164062 15.765625 C 152.371094 15.5625 154.582031 13.144531 156.992188 15.160156 C 157.191406 15.363281 157.996094 14.554688 158.597656 14.554688 C 159.601562 14.355469 160.402344 14.554688 161.40625 14.554688 C 160.804688 11.53125 163.816406 13.144531 164.820312 12.941406 C 168.234375 11.933594 172.046875 11.328125 175.664062 11.128906 C 183.695312 10.523438 191.324219 7.902344 199.152344 7.496094 C 203.769531 7.09375 208.390625 6.085938 213.007812 5.480469 C 213.410156 5.480469 215.214844 4.273438 214.414062 6.085938 C 220.433594 3.464844 227.0625 4.070312 233.484375 3.0625 C 233.484375 3.867188 233.484375 4.273438 233.285156 4.875 C 233.6875 4.675781 234.289062 4.472656 234.289062 4.472656 C 233.6875 2.660156 234.890625 2.660156 236.097656 2.457031 C 239.109375 2.253906 242.320312 2.054688 245.332031 1.851562 C 248.746094 1.648438 251.957031 1.246094 255.371094 1.046875 C 255.972656 1.046875 256.574219 1.246094 257.175781 1.449219 C 257.980469 1.851562 258.382812 1.851562 259.386719 1.246094 C 260.390625 0.441406 262.398438 0.640625 263.804688 0.640625 C 270.027344 0.441406 276.25 0.238281 282.476562 0.238281 C 286.890625 0.238281 291.109375 0.640625 295.527344 0.84375 C 297.734375 1.046875 299.941406 1.246094 302.152344 1.246094 C 303.957031 1.246094 308.375 4.875 307.773438 6.289062 C 306.96875 8.101562 308.976562 9.515625 307.972656 11.128906 C 307.972656 11.128906 308.574219 11.53125 308.976562 11.734375 C 307.972656 12.941406 308.175781 13.546875 309.378906 17.582031 C 309.980469 19.597656 309.980469 22.015625 309.980469 24.234375 C 310.183594 25.042969 310.183594 25.847656 310.382812 26.855469 C 310.785156 28.871094 311.1875 30.890625 311.585938 33.109375 C 310.582031 33.308594 309.578125 33.308594 308.375 33.511719 C 310.382812 35.125 311.988281 37.140625 309.78125 40.164062 L 310.785156 40.164062 C 309.578125 42.382812 308.375 44.804688 307.570312 46.617188 C 309.378906 48.433594 310.984375 50.246094 312.792969 51.859375 C 313.195312 52.265625 313.996094 52.871094 314.199219 52.667969 C 317.007812 51.257812 318.214844 53.878906 319.820312 54.886719 C 321.023438 55.691406 323.835938 56.296875 322.230469 59.121094 C 322.230469 59.121094 323.433594 60.128906 324.035156 60.332031 C 325.242188 60.53125 326.445312 60.332031 328.050781 60.128906 L 328.050781 79.285156 L 328.453125 79.285156 C 328.253906 79.6875 328.050781 80.292969 328.050781 80.496094 C 329.257812 82.914062 328.453125 84.730469 325.84375 85.535156 C 325.640625 85.535156 325.441406 85.941406 325.242188 86.140625 C 325.242188 86.34375 325.242188 86.746094 325.441406 86.746094 L 326.445312 86.746094 L 328.855469 85.535156 L 329.257812 85.941406 C 328.855469 86.542969 328.453125 87.148438 328.050781 87.957031 C 328.652344 88.5625 329.257812 89.167969 330.261719 89.972656 C 329.859375 90.375 329.257812 90.78125 329.054688 91.382812 C 328.855469 91.988281 327.449219 92.59375 329.054688 93.402344 C 329.457031 93.601562 329.457031 95.015625 329.65625 96.023438 C 326.644531 94.609375 326.847656 98.039062 325.039062 98.84375 C 324.839844 98.441406 324.4375 97.835938 324.035156 97.03125 C 323.835938 97.835938 323.632812 98.441406 323.632812 98.644531 C 323.03125 98.644531 321.828125 98.441406 321.625 98.644531 C 321.226562 99.855469 320.621094 101.265625 321.023438 102.273438 C 321.226562 103.078125 322.628906 104.089844 323.632812 104.089844 C 326.445312 104.691406 329.257812 104.894531 332.066406 105.097656 C 333.671875 105.296875 335.277344 104.894531 336.886719 104.894531 C 339.09375 105.097656 341.101562 105.5 343.308594 105.703125 C 344.113281 105.703125 345.117188 105.296875 345.921875 105.296875 C 348.128906 105.5 350.539062 105.703125 352.746094 106.105469 C 353.148438 106.105469 353.550781 106.710938 353.75 106.910156 C 355.15625 107.113281 356.5625 107.515625 357.765625 107.316406 C 360.578125 106.710938 361.980469 107.71875 363.789062 109.734375 C 364.390625 110.542969 366.601562 110.339844 367.804688 110.136719 C 371.015625 109.734375 370.011719 112.355469 370.816406 113.765625 C 371.21875 114.371094 371.21875 115.179688 371.21875 115.785156 C 371.621094 117.398438 371.417969 118.808594 369.007812 119.617188 C 369.8125 120.421875 370.617188 120.824219 371.21875 121.632812 C 371.621094 122.035156 371.621094 122.640625 371.621094 123.246094 C 371.621094 124.050781 371.21875 125.058594 371.621094 125.464844 C 373.023438 126.671875 372.222656 127.480469 371.417969 128.085938 C 371.820312 129.09375 372.625 129.898438 372.625 130.707031 C 372.625 132.117188 371.621094 133.527344 373.226562 134.539062 L 373.226562 134.738281 C 371.015625 137.5625 373.828125 140.183594 373.226562 143.007812 C 373.226562 143.410156 373.226562 144.214844 373.628906 144.621094 C 374.832031 145.628906 374.230469 146.636719 373.828125 147.847656 C 373.023438 149.660156 372.222656 151.476562 371.621094 152.886719 C 370.414062 152.6875 369.007812 152.28125 367.605469 152.484375 C 366.199219 152.484375 364.992188 152.886719 363.589844 153.089844 C 363.988281 154.300781 365.796875 155.105469 363.789062 156.71875 C 363.1875 157.121094 363.589844 158.9375 363.789062 159.945312 C 363.988281 161.355469 364.59375 162.96875 364.390625 164.382812 C 364.390625 164.988281 362.984375 165.589844 361.980469 165.996094 C 360.175781 167.003906 357.164062 166.601562 357.566406 170.027344 C 356.160156 170.230469 354.351562 170.027344 356.160156 172.246094 C 356.964844 173.253906 355.355469 174.664062 353.148438 174.867188 C 350.738281 175.070312 348.328125 175.675781 345.921875 176.078125 C 343.710938 176.480469 341.503906 176.882812 339.292969 177.085938 C 338.691406 177.085938 337.890625 176.480469 337.085938 176.277344 C 336.484375 176.480469 335.480469 176.882812 334.476562 177.289062 C 333.875 176.078125 333.472656 175.269531 333.269531 174.261719 C 333.070312 174.261719 332.871094 174.261719 332.871094 174.464844 L 332.871094 177.289062 C 331.261719 173.859375 329.054688 177.289062 327.449219 176.683594 C 327.851562 177.085938 328.050781 177.488281 328.453125 178.09375 C 327.449219 178.496094 326.644531 178.699219 325.84375 178.902344 L 325.84375 181.320312 C 324.4375 182.53125 323.433594 183.335938 322.429688 184.34375 C 323.234375 184.546875 324.035156 184.949219 325.242188 185.351562 C 322.832031 185.957031 321.023438 187.371094 318.613281 186.765625 C 318.011719 186.5625 317.210938 187.371094 316.605469 187.773438 C 315.402344 189.183594 314.199219 190.191406 312.792969 188.78125 C 311.789062 190.597656 310.984375 192.210938 310.183594 193.824219 C 310.183594 193.015625 309.980469 192.410156 309.980469 191.605469 C 309.179688 191.804688 308.375 191.804688 307.570312 192.007812 C 307.773438 193.21875 307.972656 193.824219 308.175781 194.832031 C 308.976562 194.425781 309.578125 194.023438 310.183594 193.621094 C 311.1875 196.039062 311.789062 196.242188 314.597656 194.832031 C 315 195.636719 315.402344 196.445312 315.804688 197.453125 C 313.59375 197.855469 311.386719 198.257812 308.976562 198.863281 C 310.382812 200.679688 307.171875 203.300781 310.382812 203.90625 C 309.578125 204.710938 308.976562 205.921875 307.972656 206.527344 C 306.566406 207.332031 304.960938 207.535156 303.355469 207.9375 C 301.148438 208.339844 298.738281 208.746094 296.53125 208.945312 C 293.519531 209.148438 290.507812 209.347656 287.695312 209.550781 C 285.488281 209.753906 283.480469 210.359375 281.472656 210.558594 C 279.863281 210.761719 278.058594 210.359375 276.453125 210.558594 C 273.839844 210.960938 271.433594 211.972656 268.824219 212.574219 C 268.21875 212.777344 267.417969 212.777344 266.816406 212.777344 C 265.8125 212.777344 264.808594 211.769531 264.203125 213.382812 C 261.796875 211.769531 259.789062 215.601562 257.378906 213.785156 C 257.175781 213.585938 256.574219 214.1875 256.171875 214.390625 L 254.96875 214.996094 C 249.347656 216.003906 243.726562 216.8125 238.105469 217.617188 C 235.292969 218.019531 232.480469 218.019531 229.671875 218.222656 C 227.863281 218.425781 226.058594 219.027344 224.25 219.230469 C 223.046875 219.433594 221.839844 219.230469 220.234375 219.027344 C 219.632812 220.640625 218.628906 220.441406 217.625 219.027344 C 215.617188 220.035156 213.609375 221.046875 211.199219 220.441406 C 210.398438 220.238281 209.191406 220.84375 208.1875 220.84375 C 207.386719 220.84375 206.582031 220.640625 205.777344 220.238281 C 204.976562 219.835938 203.972656 218.625 203.769531 220.84375 C 203.769531 221.046875 201.761719 221.246094 200.558594 221.449219 C 198.148438 221.851562 195.539062 222.054688 192.929688 222.457031 C 193.332031 221.648438 193.53125 221.046875 193.730469 220.441406 L 193.53125 220.238281 L 190.519531 222.660156 C 188.914062 224.070312 186.90625 223.867188 184.898438 223.867188 C 183.089844 223.867188 181.082031 223.667969 179.679688 224.273438 C 178.070312 224.875 178.273438 225.28125 177.269531 223.867188 C 176.464844 225.480469 172.851562 226.289062 171.847656 225.28125 C 172.449219 224.875 173.050781 224.675781 173.65625 224.273438 C 173.453125 224.070312 173.453125 223.867188 173.253906 223.667969 C 172.851562 223.867188 172.652344 224.070312 172.25 224.273438 C 169.839844 225.683594 167.230469 225.28125 164.820312 225.480469 C 162.8125 225.683594 160.804688 224.875 158.597656 224.472656 L 158.597656 222.660156 C 158.597656 220.035156 157.191406 218.625 154.78125 218.425781 C 153.980469 218.425781 152.574219 218.625 152.773438 216.609375 C 152.976562 215.199219 150.96875 214.390625 149.160156 214.792969 C 147.753906 215.199219 146.148438 214.996094 144.742188 214.996094 C 144.542969 214.792969 144.140625 214.59375 143.738281 214.59375 C 142.132812 214.792969 140.726562 215.199219 139.121094 215.199219 C 135.910156 215.601562 132.898438 215.800781 129.683594 216.207031 C 128.882812 216.207031 128.078125 216.003906 126.875 216.003906 C 127.675781 215.398438 128.28125 214.996094 128.882812 214.59375 C 123.660156 215.601562 122.054688 212.375 121.050781 208.542969 C 121.253906 208.542969 121.652344 208.339844 122.054688 208.339844 C 117.839844 207.738281 117.4375 204.308594 116.433594 201.082031 C 115.832031 200.878906 114.625 200.476562 113.824219 200.074219 C 114.226562 199.46875 114.828125 198.664062 115.230469 198.058594 C 114.425781 197.855469 113.421875 197.453125 112.617188 197.453125 C 109.808594 197.855469 107.398438 197.453125 105.589844 195.03125 C 108.203125 195.4375 110.609375 195.839844 113.222656 196.242188 C 113.621094 194.832031 113.824219 194.023438 114.023438 193.015625 C 112.21875 194.226562 112.21875 194.226562 110.8125 193.015625 C 110.210938 192.613281 109.605469 192.210938 109.207031 192.007812 C 108 194.023438 105.992188 192.410156 104.1875 193.21875 C 104.789062 194.023438 105.191406 194.628906 105.589844 195.234375 C 104.585938 194.628906 102.578125 196.039062 102.980469 193.621094 C 101.375 194.023438 99.769531 194.425781 98.363281 195.03125 C 97.5625 195.4375 97.160156 196.445312 96.558594 197.25 L 96.558594 196.039062 C 96.15625 196.039062 95.753906 196.039062 95.554688 196.242188 C 93.144531 197.453125 90.535156 198.863281 88.125 200.074219 C 87.523438 199.265625 87.320312 198.664062 87.121094 198.664062 C 85.714844 199.46875 84.308594 200.679688 83.105469 200.476562 C 81.898438 200.476562 80.496094 199.066406 79.289062 198.460938 C 79.289062 199.46875 79.089844 200.476562 79.089844 201.484375 C 76.679688 199.46875 76.277344 199.671875 74.871094 203.300781 C 76.277344 203.300781 77.683594 203.097656 79.289062 203.097656 L 79.289062 201.6875 C 79.890625 202.292969 80.496094 202.695312 81.097656 203.300781 C 81.097656 203.703125 80.894531 204.710938 80.894531 204.710938 C 78.886719 204.710938 77.28125 207.332031 74.871094 205.71875 C 74.472656 205.519531 73.667969 206.125 73.066406 206.125 L 71.859375 206.125 C 66.441406 208.542969 60.617188 208.746094 54.796875 210.15625 C 54.59375 207.9375 53.390625 208.140625 51.785156 208.542969 C 51.382812 208.746094 50.578125 208.140625 49.976562 208.140625 C 50.378906 208.140625 50.78125 207.9375 50.980469 207.9375 C 51.382812 207.132812 51.785156 206.125 51.984375 205.519531 C 51.382812 205.316406 50.578125 204.710938 49.777344 204.710938 C 49.171875 204.710938 48.570312 205.316406 47.96875 205.519531 C 48.371094 204.914062 48.167969 205.316406 47.96875 205.519531 Z M 257.980469 209.550781 C 255.371094 209.953125 253.160156 210.359375 250.753906 210.761719 L 250.753906 211.769531 C 251.957031 211.972656 253.363281 212.375 254.566406 212.171875 C 255.773438 212.171875 257.578125 212.171875 257.980469 209.550781 Z M 74.269531 203.5 C 73.265625 202.292969 72.863281 201.082031 71.460938 202.292969 C 70.859375 202.898438 69.855469 202.898438 69.050781 203.300781 C 68.648438 203.5 68.246094 203.703125 67.847656 204.105469 L 68.046875 204.710938 C 68.449219 204.710938 68.851562 204.511719 69.453125 204.308594 C 70.054688 204.105469 70.65625 204.105469 71.257812 204.105469 C 71.863281 203.90625 72.863281 203.703125 74.269531 203.5 Z M 142.535156 209.753906 C 143.539062 210.960938 144.339844 211.972656 145.144531 212.980469 C 145.546875 211.972656 146.148438 210.960938 146.347656 210.15625 C 145.144531 209.753906 143.941406 209.753906 142.535156 209.753906 Z M 80.292969 192.210938 C 79.089844 195.4375 79.890625 196.644531 82.101562 196.445312 C 81.5 195.234375 80.894531 194.023438 80.292969 192.210938 Z M 80.292969 192.210938 "/>
</g>
<path style=" stroke:none;fill-rule:nonzero;fill:rgb(100%,100%,100%);fill-opacity:1;" d="M 81.5 202.492188 C 81.296875 202.089844 81.296875 201.6875 81.097656 200.878906 C 83.304688 202.492188 84.910156 200.878906 86.71875 200.476562 C 88.527344 200.074219 90.535156 200.878906 92.339844 201.082031 L 92.339844 200.878906 C 91.9375 202.898438 90.332031 202.292969 88.925781 202.492188 C 87.722656 202.695312 86.117188 202.292969 85.3125 202.898438 C 83.507812 204.511719 82.503906 203.703125 81.5 202.492188 Z M 81.5 202.492188 "/>
<path style=" stroke:none;fill-rule:nonzero;fill:rgb(100%,100%,100%);fill-opacity:1;" d="M 92.339844 201.082031 C 92.941406 200.679688 93.546875 199.871094 94.347656 199.265625 C 95.152344 198.660156 95.953125 198.257812 96.757812 197.652344 C 96.957031 197.855469 97.160156 198.257812 97.5625 198.460938 L 99.96875 199.066406 C 97.160156 199.671875 94.75 200.273438 92.339844 201.082031 Z M 92.339844 201.082031 "/>
<path style=" stroke:none;fill-rule:nonzero;fill:rgb(100%,100%,100%);fill-opacity:1;" d="M 47.96875 205.519531 C 48.167969 205.316406 48.371094 204.914062 48.570312 204.710938 C 50.980469 203.703125 50.378906 206.324219 51.582031 207.132812 C 51.179688 207.132812 50.78125 207.332031 50.578125 207.332031 C 49.976562 207.535156 48.972656 207.9375 48.570312 207.738281 C 48.167969 207.132812 48.167969 206.324219 47.96875 205.519531 Z M 47.96875 205.519531 "/>
<path style=" stroke:none;fill-rule:nonzero;fill:rgb(100%,100%,100%);fill-opacity:1;" d="M 99.769531 199.066406 C 99.367188 197.050781 101.375 197.25 102.179688 196.847656 C 102.78125 196.644531 103.785156 197.050781 104.988281 197.25 C 103.183594 199.265625 101.578125 199.871094 99.769531 199.066406 Z M 99.769531 199.066406 "/>
<g clip-path="url(#clip3)" clip-rule="nonzero">
<path style=" stroke:none;fill-rule:nonzero;fill:rgb(100%,100%,100%);fill-opacity:1;" d="M 40.757812 262.210938 C 39.351562 263.621094 38.148438 264.226562 36.339844 262.816406 C 35.9375 262.410156 35.335938 262.410156 34.535156 262.210938 C 34.734375 261.804688 35.136719 261.203125 35.539062 260.394531 C 34.734375 260.191406 33.53125 260.191406 33.128906 259.589844 C 32.726562 258.984375 33.128906 257.976562 33.328125 256.5625 C 32.527344 256.765625 31.523438 256.765625 30.71875 256.964844 L 29.515625 254.546875 C 29.914062 254.546875 30.519531 254.34375 31.121094 254.34375 L 31.121094 253.941406 C 30.519531 253.742188 29.714844 253.539062 29.714844 253.539062 C 29.113281 252.730469 28.910156 252.328125 28.511719 252.128906 C 28.109375 251.925781 27.707031 251.722656 27.507812 251.523438 C 26.902344 251.117188 26.503906 250.714844 25.898438 250.109375 C 26.703125 249.707031 27.304688 249.503906 28.109375 249.101562 C 28.511719 248.902344 29.113281 248.902344 29.515625 248.699219 C 29.113281 248.296875 28.710938 248.09375 28.308594 247.691406 C 27.90625 247.289062 27.507812 246.683594 27.304688 246.078125 C 26.902344 244.667969 26.703125 243.253906 26.300781 241.84375 C 25.898438 241.035156 25.097656 240.230469 24.496094 239.421875 C 24.292969 239.222656 23.691406 239.019531 23.492188 238.816406 C 22.6875 237.40625 22.488281 235.1875 21.484375 234.382812 C 19.476562 232.769531 21.484375 230.550781 19.875 229.140625 C 19.476562 228.734375 18.871094 228.128906 18.871094 227.527344 C 18.871094 226.113281 16.261719 225.507812 17.867188 223.695312 C 18.070312 223.492188 17.066406 221.476562 16.261719 220.871094 C 13.652344 218.855469 14.253906 215.425781 12.648438 213.007812 C 12.449219 212.605469 13.050781 211.796875 13.050781 211.191406 C 10.441406 209.578125 9.839844 207.160156 11.242188 204.738281 C 10.238281 203.933594 9.234375 203.328125 8.433594 202.519531 L 7.832031 201.917969 C 11.644531 201.109375 10.441406 197.882812 11.042969 195.464844 C 10.238281 195.058594 9.636719 194.859375 8.632812 194.457031 C 9.035156 194.050781 9.4375 193.851562 9.839844 193.445312 C 8.433594 192.035156 4.214844 191.632812 8.03125 188.003906 C 6.828125 187.597656 5.824219 187.195312 4.417969 186.792969 C 5.21875 186.1875 5.824219 185.785156 6.425781 185.382812 C 5.824219 184.976562 5.019531 184.777344 4.214844 184.171875 C 3.414062 183.164062 6.425781 180.742188 3.210938 179.53125 L 3.210938 176.507812 C 3.414062 176.308594 4.015625 175.902344 4.820312 175.5 C 3.816406 175.296875 3.210938 175.097656 3.011719 175.097656 C 2.609375 173.082031 2.207031 171.265625 1.808594 169.652344 C 1.40625 169.652344 1.203125 169.449219 0.804688 169.449219 C 1.40625 169.25 1.808594 169.046875 2.410156 168.847656 C 2.410156 168.644531 2.207031 168.441406 2.207031 168.242188 C 1.40625 167.835938 0.804688 167.636719 0 167.234375 C 0 167.03125 0 166.425781 0.199219 166.023438 C 0.804688 166.023438 1.605469 166.222656 2.207031 166.222656 C 9.234375 160.375 13.25 158.5625 23.492188 156.140625 C 29.113281 154.730469 34.535156 152.914062 39.953125 151.300781 C 41.5625 150.695312 43.367188 150.09375 44.773438 149.085938 C 45.574219 148.480469 45.777344 147.066406 45.976562 145.859375 C 45.976562 145.253906 45.175781 144.445312 44.371094 144.246094 C 42.566406 143.4375 42.765625 142.027344 42.964844 140.816406 C 42.164062 140.011719 41.359375 139.40625 40.558594 138.597656 C 41.160156 137.792969 41.5625 137.1875 41.960938 136.582031 C 38.75 137.1875 39.753906 134.363281 39.351562 133.152344 C 38.347656 130.734375 38.148438 128.3125 37.546875 125.691406 C 37.746094 125.691406 38.148438 125.691406 38.550781 125.894531 C 37.546875 122.871094 36.742188 120.046875 35.738281 117.023438 C 35.9375 117.023438 36.140625 116.820312 36.339844 116.820312 C 35.738281 116.214844 34.933594 115.8125 34.132812 115.003906 C 35.539062 113.390625 37.144531 112.183594 37.34375 109.964844 C 37.546875 107.34375 40.355469 106.535156 42.566406 105.527344 C 48.585938 103.109375 54.8125 100.890625 60.835938 98.269531 C 64.648438 96.65625 68.265625 94.636719 72.078125 93.023438 C 75.691406 91.414062 79.304688 89.800781 83.121094 88.386719 C 86.734375 86.976562 90.550781 85.765625 94.164062 84.757812 C 97.375 83.949219 100.789062 83.546875 104 82.742188 C 105.40625 82.539062 106.613281 81.734375 107.816406 81.328125 C 114.242188 79.515625 120.667969 77.902344 126.890625 76.085938 C 132.3125 74.675781 137.53125 73.0625 142.953125 72.457031 C 145.160156 72.253906 147.371094 69.835938 149.777344 71.851562 C 149.980469 72.054688 150.78125 71.246094 151.386719 71.246094 C 152.390625 71.046875 153.191406 71.246094 154.195312 71.246094 C 153.59375 68.222656 156.605469 69.835938 157.609375 69.632812 C 161.023438 68.625 164.835938 68.019531 168.449219 67.820312 C 176.480469 67.214844 184.113281 64.59375 191.941406 64.1875 C 196.558594 63.785156 201.175781 62.777344 205.796875 62.171875 C 206.195312 62.171875 208.003906 60.964844 207.199219 62.777344 C 213.222656 60.15625 219.847656 60.761719 226.273438 59.753906 C 226.273438 60.558594 226.273438 60.964844 226.074219 61.566406 C 226.476562 61.367188 227.078125 61.164062 227.078125 61.164062 C 226.476562 59.351562 227.679688 59.351562 228.882812 59.148438 C 231.894531 58.945312 235.109375 58.746094 238.121094 58.542969 C 241.535156 58.339844 244.746094 57.9375 248.160156 57.738281 C 248.761719 57.738281 249.363281 57.9375 249.964844 58.140625 C 250.769531 58.542969 251.171875 58.542969 252.175781 57.9375 C 253.179688 57.132812 255.1875 57.332031 256.589844 57.332031 C 262.816406 57.132812 269.039062 56.929688 275.261719 56.929688 C 279.679688 56.929688 283.898438 57.332031 288.3125 57.535156 C 290.523438 57.738281 292.730469 57.9375 294.941406 57.9375 C 296.746094 57.9375 301.164062 61.566406 300.5625 62.980469 C 299.757812 64.792969 301.765625 66.207031 300.761719 67.820312 C 300.761719 67.820312 301.363281 68.222656 301.765625 68.425781 C 300.761719 69.632812 300.964844 70.238281 302.167969 74.273438 C 302.769531 76.289062 302.769531 78.707031 302.769531 80.925781 C 302.972656 81.734375 302.972656 82.539062 303.171875 83.546875 C 303.574219 85.5625 303.972656 87.582031 304.375 89.800781 C 303.371094 90 302.367188 90 301.164062 90.203125 C 303.171875 91.816406 304.777344 93.832031 302.570312 96.855469 L 303.574219 96.855469 C 302.367188 99.074219 301.164062 101.496094 300.359375 103.308594 C 302.167969 105.125 303.773438 106.9375 305.582031 108.550781 C 305.980469 108.957031 306.785156 109.5625 306.984375 109.359375 C 309.796875 107.949219 311 110.570312 312.609375 111.578125 C 313.8125 112.382812 316.625 112.988281 315.015625 115.8125 C 315.015625 115.8125 316.222656 116.820312 316.824219 117.023438 C 318.027344 117.222656 319.234375 117.023438 320.839844 116.820312 L 320.839844 135.976562 L 321.242188 135.976562 C 321.039062 136.378906 320.839844 136.984375 320.839844 137.1875 C 322.042969 139.605469 321.242188 141.421875 318.632812 142.226562 C 318.429688 142.226562 318.230469 142.632812 318.027344 142.832031 C 318.027344 143.035156 318.027344 143.4375 318.230469 143.4375 L 319.234375 143.4375 L 321.644531 142.226562 L 322.042969 142.632812 C 321.644531 143.234375 321.242188 143.839844 320.839844 144.648438 C 321.441406 145.253906 322.042969 145.859375 323.046875 146.664062 C 322.648438 147.066406 322.042969 147.472656 321.84375 148.074219 C 321.644531 148.679688 320.238281 149.285156 321.84375 150.09375 C 322.246094 150.292969 322.246094 151.707031 322.445312 152.714844 C 319.433594 151.300781 319.636719 154.730469 317.828125 155.535156 C 317.628906 155.132812 317.226562 154.527344 316.824219 153.722656 C 316.625 154.527344 316.421875 155.132812 316.421875 155.335938 C 315.820312 155.335938 314.617188 155.132812 314.414062 155.335938 C 314.011719 156.546875 313.410156 157.957031 313.8125 158.964844 C 314.011719 159.773438 315.417969 160.78125 316.421875 160.78125 C 319.234375 161.382812 322.042969 161.585938 324.855469 161.789062 C 326.460938 161.988281 328.066406 161.585938 329.675781 161.585938 C 331.882812 161.789062 333.890625 162.191406 336.097656 162.394531 C 336.902344 162.394531 337.90625 161.988281 338.707031 161.988281 C 340.917969 162.191406 343.328125 162.394531 345.535156 162.796875 C 345.9375 162.796875 346.339844 163.402344 346.539062 163.601562 C 347.945312 163.804688 349.351562 164.207031 350.554688 164.007812 C 353.367188 163.402344 354.769531 164.410156 356.578125 166.425781 C 357.179688 167.234375 359.386719 167.03125 360.59375 166.828125 C 363.804688 166.425781 362.800781 169.046875 363.605469 170.457031 C 364.007812 171.0625 364.007812 171.871094 364.007812 172.476562 C 364.40625 174.089844 364.207031 175.5 361.796875 176.308594 C 362.601562 177.113281 363.402344 177.515625 364.007812 178.324219 C 364.40625 178.726562 364.40625 179.332031 364.40625 179.9375 C 364.40625 180.742188 364.007812 181.75 364.40625 182.15625 C 365.8125 183.363281 365.011719 184.171875 364.207031 184.777344 C 364.609375 185.785156 365.410156 186.589844 365.410156 187.398438 C 365.410156 188.808594 364.40625 190.21875 366.015625 191.230469 L 366.015625 191.429688 C 363.804688 194.253906 366.617188 196.875 366.015625 199.699219 C 366.015625 200.101562 366.015625 200.90625 366.414062 201.3125 C 367.621094 202.320312 367.019531 203.328125 366.617188 204.539062 C 365.8125 206.351562 365.011719 208.167969 364.40625 209.578125 C 363.203125 209.378906 361.796875 208.972656 360.390625 209.175781 C 358.988281 209.175781 357.78125 209.578125 356.378906 209.78125 C 356.777344 210.992188 358.585938 211.796875 356.578125 213.410156 C 355.976562 213.8125 356.378906 215.628906 356.578125 216.636719 C 356.777344 218.046875 357.382812 219.660156 357.179688 221.074219 C 357.179688 221.679688 355.773438 222.28125 354.769531 222.6875 C 352.964844 223.695312 349.953125 223.292969 350.355469 226.71875 C 348.949219 226.921875 347.140625 226.71875 348.949219 228.9375 C 349.75 229.945312 348.144531 231.355469 345.9375 231.558594 C 343.527344 231.761719 341.117188 232.367188 338.707031 232.769531 C 336.5 233.171875 334.292969 233.574219 332.082031 233.777344 C 331.480469 233.777344 330.675781 233.171875 329.875 232.96875 C 329.273438 233.171875 328.269531 233.574219 327.265625 233.980469 C 326.664062 232.769531 326.261719 231.960938 326.058594 230.953125 C 325.859375 230.953125 325.660156 230.953125 325.660156 231.15625 L 325.660156 233.980469 C 324.050781 230.550781 321.84375 233.980469 320.238281 233.375 C 320.640625 233.777344 320.839844 234.179688 321.242188 234.785156 C 320.238281 235.1875 319.433594 235.390625 318.632812 235.59375 L 318.632812 238.011719 C 317.226562 239.222656 316.222656 240.027344 315.21875 241.035156 C 316.019531 241.238281 316.824219 241.640625 318.027344 242.042969 C 315.621094 242.648438 313.8125 244.0625 311.402344 243.457031 C 310.800781 243.253906 309.996094 244.0625 309.394531 244.464844 C 308.191406 245.875 306.984375 246.882812 305.582031 245.472656 C 304.578125 247.289062 303.773438 248.902344 302.96875 250.515625 C 302.96875 249.707031 302.769531 249.101562 302.769531 248.296875 C 301.964844 248.496094 301.164062 248.496094 300.359375 248.699219 C 300.5625 249.910156 300.761719 250.515625 300.960938 251.523438 C 301.765625 251.117188 302.367188 250.714844 302.96875 250.3125 C 303.972656 252.730469 304.578125 252.933594 307.386719 251.523438 C 307.789062 252.328125 308.191406 253.136719 308.59375 254.144531 C 306.382812 254.546875 304.175781 254.949219 301.765625 255.554688 C 303.171875 257.371094 299.960938 259.992188 303.171875 260.597656 C 302.367188 261.402344 301.765625 262.613281 300.761719 263.21875 C 299.355469 264.023438 297.75 264.226562 296.144531 264.628906 C 293.9375 265.03125 291.527344 265.4375 289.316406 265.636719 C 286.304688 265.839844 283.292969 266.042969 280.484375 266.242188 C 278.273438 266.445312 276.265625 267.050781 274.257812 267.25 C 272.652344 267.453125 270.847656 267.050781 269.242188 267.25 C 266.628906 267.652344 264.222656 268.664062 261.609375 269.265625 C 261.007812 269.46875 260.207031 269.46875 259.601562 269.46875 C 258.597656 269.46875 257.59375 268.460938 256.992188 270.074219 C 254.582031 268.460938 252.574219 272.292969 250.167969 270.476562 C 249.964844 270.277344 249.363281 270.878906 248.960938 271.082031 L 247.757812 271.6875 C 242.136719 272.695312 236.515625 273.503906 230.890625 274.308594 C 228.082031 274.710938 225.269531 274.710938 222.460938 274.914062 C 220.652344 275.117188 218.84375 275.71875 217.039062 275.921875 C 215.832031 276.125 214.628906 275.921875 213.023438 275.71875 C 212.421875 277.332031 211.417969 277.132812 210.414062 275.71875 C 208.40625 276.730469 206.398438 277.738281 203.988281 277.132812 C 203.183594 276.929688 201.980469 277.535156 200.976562 277.535156 C 200.171875 277.535156 199.371094 277.332031 198.566406 276.929688 C 197.765625 276.527344 196.761719 275.316406 196.558594 277.535156 C 196.558594 277.738281 194.550781 277.9375 193.347656 278.140625 C 190.9375 278.542969 188.328125 278.746094 185.71875 279.148438 C 186.117188 278.339844 186.320312 277.738281 186.519531 277.132812 L 186.320312 276.929688 L 183.308594 279.351562 C 181.703125 280.761719 179.695312 280.558594 177.6875 280.558594 C 175.878906 280.558594 173.871094 280.359375 172.464844 280.964844 C 170.859375 281.566406 171.0625 281.972656 170.058594 280.558594 C 169.253906 282.171875 165.640625 282.980469 164.636719 281.972656 C 165.238281 281.566406 165.839844 281.367188 166.441406 280.964844 C 166.242188 280.761719 166.242188 280.558594 166.042969 280.359375 C 165.640625 280.558594 165.4375 280.761719 165.039062 280.964844 C 162.628906 282.375 160.019531 281.972656 157.609375 282.171875 C 155.601562 282.375 153.59375 281.566406 151.386719 281.164062 L 151.386719 279.351562 C 151.386719 276.726562 149.980469 275.316406 147.570312 275.117188 C 146.765625 275.117188 145.363281 275.316406 145.5625 273.300781 C 145.761719 271.890625 143.753906 271.082031 141.949219 271.484375 C 140.542969 271.890625 138.9375 271.6875 137.53125 271.6875 C 137.332031 271.484375 136.929688 271.285156 136.527344 271.285156 C 134.921875 271.484375 133.515625 271.890625 131.910156 271.890625 C 128.695312 272.292969 125.6875 272.492188 122.472656 272.898438 C 121.671875 272.898438 120.867188 272.695312 119.664062 272.695312 C 120.464844 272.089844 121.066406 271.6875 121.671875 271.285156 C 116.449219 272.292969 114.84375 269.066406 113.839844 265.234375 C 114.039062 265.234375 114.441406 265.03125 114.84375 265.03125 C 110.628906 264.429688 110.226562 261 109.222656 257.773438 C 108.621094 257.570312 107.414062 257.167969 106.613281 256.765625 C 107.011719 256.160156 107.617188 255.355469 108.015625 254.75 C 107.214844 254.546875 106.210938 254.144531 105.40625 254.144531 C 102.597656 254.546875 100.1875 254.144531 98.378906 251.722656 C 100.988281 252.128906 103.398438 252.53125 106.007812 252.933594 C 106.410156 251.523438 106.613281 250.714844 106.8125 249.707031 C 105.003906 250.917969 105.003906 250.917969 103.601562 249.707031 C 102.996094 249.304688 102.394531 248.902344 101.992188 248.699219 C 100.789062 250.714844 98.78125 249.101562 96.976562 249.910156 C 97.578125 250.714844 97.980469 251.320312 98.378906 251.925781 C 97.375 251.320312 95.367188 252.730469 95.769531 250.3125 C 94.164062 250.714844 92.558594 251.117188 91.152344 251.722656 C 90.347656 252.128906 89.949219 253.136719 89.34375 253.941406 L 89.34375 252.730469 C 88.945312 252.730469 88.542969 252.730469 88.339844 252.933594 C 85.933594 254.144531 83.320312 255.554688 80.914062 256.765625 C 80.308594 255.957031 80.109375 255.355469 79.910156 255.355469 C 78.503906 256.160156 77.097656 257.371094 75.894531 257.167969 C 74.6875 257.167969 73.28125 255.757812 72.078125 255.152344 C 72.078125 256.160156 71.878906 257.167969 71.878906 258.175781 C 69.46875 256.160156 69.066406 256.363281 67.660156 259.992188 C 69.066406 259.992188 70.472656 259.789062 72.078125 259.789062 L 72.078125 258.378906 C 72.679688 258.984375 73.28125 259.386719 73.886719 259.992188 C 73.886719 260.394531 73.683594 261.402344 73.683594 261.402344 C 71.675781 261.402344 70.070312 264.023438 67.660156 262.410156 C 67.261719 262.210938 66.457031 262.816406 65.855469 262.816406 L 64.648438 262.816406 C 59.230469 265.234375 53.40625 265.4375 47.582031 266.847656 C 47.382812 264.628906 46.179688 264.832031 44.570312 265.234375 C 44.171875 265.4375 43.367188 264.832031 42.765625 264.832031 C 43.167969 264.832031 43.566406 264.628906 43.769531 264.628906 C 44.171875 263.824219 44.570312 262.816406 44.773438 262.210938 C 44.171875 262.007812 43.367188 261.402344 42.5625 261.402344 C 41.960938 261.402344 41.359375 262.007812 40.757812 262.210938 C 41.160156 261.605469 40.957031 262.007812 40.757812 262.210938 Z M 250.769531 266.242188 C 248.160156 266.644531 245.949219 267.050781 243.542969 267.453125 L 243.542969 268.460938 C 244.746094 268.664062 246.152344 269.066406 247.355469 268.863281 C 248.558594 268.863281 250.367188 268.863281 250.769531 266.242188 Z M 67.058594 260.191406 C 66.054688 258.984375 65.652344 257.773438 64.25 258.984375 C 63.644531 259.589844 62.640625 259.589844 61.839844 259.992188 C 61.4375 260.191406 61.035156 260.394531 60.632812 260.796875 L 60.835938 261.402344 C 61.238281 261.402344 61.636719 261.203125 62.242188 261 C 62.84375 260.796875 63.445312 260.796875 64.046875 260.796875 C 64.648438 260.597656 65.652344 260.394531 67.058594 260.191406 Z M 135.324219 266.445312 C 136.328125 267.652344 137.128906 268.664062 137.933594 269.671875 C 138.335938 268.664062 138.9375 267.652344 139.136719 266.847656 C 137.933594 266.445312 136.726562 266.445312 135.324219 266.445312 Z M 73.082031 248.902344 C 71.878906 252.128906 72.679688 253.335938 74.890625 253.136719 C 74.285156 251.925781 73.683594 250.714844 73.082031 248.902344 Z M 73.082031 248.902344 "/>
</g>
<path style=" stroke:none;fill-rule:nonzero;fill:rgb(100%,100%,100%);fill-opacity:1;" d="M 74.285156 259.183594 C 74.085938 258.78125 74.085938 258.378906 73.886719 257.570312 C 76.09375 259.183594 77.699219 257.570312 79.507812 257.167969 C 81.3125 256.765625 83.320312 257.570312 85.128906 257.773438 L 85.128906 257.570312 C 84.726562 259.589844 83.121094 258.984375 81.714844 259.183594 C 80.511719 259.386719 78.90625 258.984375 78.101562 259.589844 C 76.292969 261.203125 75.289062 260.394531 74.285156 259.183594 Z M 74.285156 259.183594 "/>
<path style=" stroke:none;fill-rule:nonzero;fill:rgb(100%,100%,100%);fill-opacity:1;" d="M 85.128906 257.773438 C 85.730469 257.371094 86.332031 256.5625 87.136719 255.957031 C 87.941406 255.355469 88.742188 254.949219 89.546875 254.34375 C 89.746094 254.546875 89.949219 254.949219 90.347656 255.152344 L 92.757812 255.757812 C 89.949219 256.363281 87.539062 256.964844 85.128906 257.773438 Z M 85.128906 257.773438 "/>
<path style=" stroke:none;fill-rule:nonzero;fill:rgb(100%,100%,100%);fill-opacity:1;" d="M 40.757812 262.210938 C 40.957031 262.007812 41.160156 261.605469 41.359375 261.402344 C 43.769531 260.394531 43.167969 263.015625 44.371094 263.824219 C 43.96875 263.824219 43.566406 264.023438 43.367188 264.023438 C 42.765625 264.226562 41.761719 264.628906 41.359375 264.429688 C 40.957031 263.824219 40.957031 263.015625 40.757812 262.210938 Z M 40.757812 262.210938 "/>
<path style=" stroke:none;fill-rule:nonzero;fill:rgb(100%,100%,100%);fill-opacity:1;" d="M 92.558594 255.757812 C 92.15625 253.742188 94.164062 253.941406 94.96875 253.539062 C 95.570312 253.335938 96.574219 253.742188 97.777344 253.941406 C 95.972656 255.957031 94.363281 256.5625 92.558594 255.757812 Z M 92.558594 255.757812 "/>
</g>
</svg>
