<?xml version="1.0" encoding="UTF-8"?>
<svg xmlns="http://www.w3.org/2000/svg" xmlns:xlink="http://www.w3.org/1999/xlink" width="375pt" height="374.999991pt" viewBox="0 0 375 374.999991" version="1.2">
<defs>
<clipPath id="clip1">
  <path d="M 0 123 L 367.5 123 L 367.5 351.273438 L 0 351.273438 Z M 0 123 "/>
</clipPath>
<clipPath id="clip2">
  <path d="M 7.5 23.046875 L 375 23.046875 L 375 251.457031 L 7.5 251.457031 Z M 7.5 23.046875 "/>
</clipPath>
</defs>
<g id="surface1">
<g clip-path="url(#clip1)" clip-rule="nonzero">
<path style=" stroke:none;fill-rule:nonzero;fill:rgb(100%,100%,100%);fill-opacity:1;" d="M 34.121094 331.207031 C 32.6875 332.636719 31.457031 333.25 29.609375 331.820312 C 29.199219 331.410156 28.585938 331.410156 27.765625 331.207031 C 27.96875 330.796875 28.378906 330.183594 28.789062 329.367188 C 27.96875 329.160156 26.738281 329.160156 26.328125 328.546875 C 25.917969 327.933594 26.328125 326.914062 26.535156 325.480469 C 25.714844 325.6875 24.691406 325.6875 23.871094 325.890625 L 22.640625 323.4375 C 23.050781 323.4375 23.664062 323.234375 24.28125 323.234375 L 24.28125 322.824219 C 23.664062 322.621094 22.84375 322.414062 22.84375 322.414062 C 22.230469 321.597656 22.023438 321.1875 21.613281 320.984375 C 21.203125 320.78125 20.792969 320.574219 20.589844 320.371094 C 19.972656 319.960938 19.5625 319.554688 18.949219 318.941406 C 19.769531 318.53125 20.382812 318.328125 21.203125 317.917969 C 21.613281 317.714844 22.230469 317.714844 22.640625 317.507812 C 22.230469 317.101562 21.820312 316.894531 21.410156 316.488281 C 21 316.078125 20.589844 315.464844 20.382812 314.851562 C 19.972656 313.421875 19.769531 311.988281 19.359375 310.558594 C 18.949219 309.742188 18.128906 308.921875 17.511719 308.105469 C 17.308594 307.902344 16.695312 307.695312 16.488281 307.492188 C 15.667969 306.0625 15.464844 303.8125 14.4375 302.996094 C 12.386719 301.359375 14.4375 299.109375 12.796875 297.679688 C 12.386719 297.269531 11.773438 296.65625 11.773438 296.042969 C 11.773438 294.613281 9.109375 294 10.746094 292.160156 C 10.953125 291.957031 9.925781 289.914062 9.109375 289.300781 C 6.441406 287.253906 7.058594 283.78125 5.417969 281.328125 C 5.210938 280.917969 5.828125 280.101562 5.828125 279.488281 C 3.160156 277.851562 2.546875 275.398438 3.980469 272.945312 C 2.957031 272.128906 1.929688 271.515625 1.109375 270.695312 L 0.496094 270.082031 C 4.390625 269.265625 3.160156 265.996094 3.777344 263.542969 C 2.957031 263.132812 2.339844 262.929688 1.316406 262.519531 C 1.726562 262.109375 2.136719 261.90625 2.546875 261.496094 C 1.109375 260.066406 -3.195312 259.65625 0.703125 255.976562 C -0.527344 255.570312 -1.554688 255.160156 -2.988281 254.75 C -2.167969 254.136719 -1.554688 253.730469 -0.9375 253.320312 C -1.554688 252.910156 -2.375 252.707031 -3.195312 252.09375 C -4.015625 251.070312 -0.9375 248.617188 -4.21875 247.390625 L -4.21875 244.324219 C -4.015625 244.121094 -3.398438 243.710938 -2.578125 243.304688 C -3.605469 243.097656 -4.21875 242.894531 -4.425781 242.894531 C -4.835938 240.851562 -5.246094 239.011719 -5.65625 237.375 C -6.066406 237.375 -6.269531 237.171875 -6.679688 237.171875 C -6.066406 236.964844 -5.65625 236.761719 -5.039062 236.558594 C -5.039062 236.351562 -5.246094 236.148438 -5.246094 235.945312 C -6.066406 235.535156 -6.679688 235.332031 -7.5 234.921875 C -7.5 234.71875 -7.5 234.105469 -7.296875 233.695312 C -6.679688 233.695312 -5.859375 233.902344 -5.246094 233.902344 C 1.929688 227.972656 6.03125 226.132812 16.488281 223.679688 C 22.230469 222.25 27.765625 220.410156 33.300781 218.773438 C 34.941406 218.160156 36.785156 217.546875 38.222656 216.523438 C 39.042969 215.910156 39.246094 214.480469 39.453125 213.253906 C 39.453125 212.640625 38.632812 211.824219 37.8125 211.617188 C 35.964844 210.800781 36.171875 209.371094 36.375 208.144531 C 35.554688 207.324219 34.734375 206.710938 33.917969 205.894531 C 34.53125 205.078125 34.941406 204.464844 35.351562 203.851562 C 32.070312 204.464844 33.097656 201.601562 32.6875 200.375 C 31.660156 197.921875 31.457031 195.46875 30.839844 192.8125 C 31.046875 192.8125 31.457031 192.8125 31.867188 193.015625 C 30.839844 189.949219 30.019531 187.085938 28.996094 184.019531 C 29.199219 184.019531 29.40625 183.816406 29.609375 183.816406 C 28.996094 183.203125 28.175781 182.792969 27.355469 181.976562 C 28.789062 180.34375 30.429688 179.117188 30.636719 176.867188 C 30.839844 174.210938 33.710938 173.390625 35.964844 172.371094 C 42.117188 169.917969 48.472656 167.667969 54.625 165.011719 C 58.519531 163.375 62.210938 161.332031 66.105469 159.695312 C 69.796875 158.058594 73.488281 156.425781 77.382812 154.992188 C 81.074219 153.5625 84.96875 152.335938 88.660156 151.3125 C 91.941406 150.496094 95.425781 150.085938 98.707031 149.269531 C 100.140625 149.066406 101.371094 148.246094 102.601562 147.839844 C 109.164062 146 115.722656 144.363281 122.078125 142.523438 C 127.613281 141.09375 132.945312 139.457031 138.480469 138.84375 C 140.738281 138.640625 142.992188 136.1875 145.453125 138.230469 C 145.65625 138.433594 146.476562 137.617188 147.09375 137.617188 C 148.117188 137.414062 148.9375 137.617188 149.964844 137.617188 C 149.347656 134.550781 152.421875 136.1875 153.449219 135.980469 C 156.933594 134.960938 160.828125 134.347656 164.519531 134.140625 C 172.722656 133.527344 180.511719 130.871094 188.507812 130.460938 C 193.222656 130.054688 197.941406 129.03125 202.65625 128.417969 C 203.066406 128.417969 204.910156 127.191406 204.089844 129.03125 C 210.242188 126.375 217.007812 126.988281 223.570312 125.964844 C 223.570312 126.78125 223.570312 127.191406 223.363281 127.804688 C 223.773438 127.601562 224.390625 127.394531 224.390625 127.394531 C 223.773438 125.558594 225.003906 125.558594 226.234375 125.351562 C 229.308594 125.148438 232.589844 124.945312 235.664062 124.738281 C 239.152344 124.535156 242.433594 124.125 245.917969 123.921875 C 246.53125 123.921875 247.148438 124.125 247.761719 124.332031 C 248.582031 124.738281 248.992188 124.738281 250.019531 124.125 C 251.042969 123.308594 253.09375 123.511719 254.527344 123.511719 C 260.882812 123.308594 267.242188 123.105469 273.597656 123.105469 C 278.105469 123.105469 282.414062 123.511719 286.921875 123.71875 C 289.179688 123.921875 291.433594 124.125 293.6875 124.125 C 295.535156 124.125 300.046875 127.804688 299.429688 129.234375 C 298.609375 131.074219 300.660156 132.507812 299.636719 134.140625 C 299.636719 134.140625 300.25 134.550781 300.660156 134.753906 C 299.636719 135.980469 299.839844 136.59375 301.070312 140.683594 C 301.683594 142.726562 301.683594 145.179688 301.683594 147.429688 C 301.890625 148.246094 301.890625 149.066406 302.09375 150.085938 C 302.503906 152.132812 302.914062 154.175781 303.324219 156.425781 C 302.300781 156.628906 301.273438 156.628906 300.046875 156.832031 C 302.09375 158.46875 303.734375 160.511719 301.480469 163.578125 L 302.503906 163.578125 C 301.273438 165.828125 300.046875 168.28125 299.226562 170.121094 C 301.070312 171.960938 302.710938 173.800781 304.554688 175.4375 C 304.964844 175.84375 305.785156 176.457031 305.992188 176.253906 C 308.863281 174.824219 310.089844 177.480469 311.730469 178.503906 C 312.960938 179.320312 315.832031 179.933594 314.191406 182.792969 C 314.191406 182.792969 315.421875 183.816406 316.039062 184.019531 C 317.269531 184.226562 318.496094 184.019531 320.136719 183.816406 L 320.136719 203.238281 L 320.546875 203.238281 C 320.34375 203.644531 320.136719 204.257812 320.136719 204.464844 C 321.367188 206.917969 320.546875 208.757812 317.882812 209.574219 C 317.675781 209.574219 317.472656 209.984375 317.269531 210.1875 C 317.269531 210.390625 317.269531 210.800781 317.472656 210.800781 L 318.496094 210.800781 L 320.957031 209.574219 L 321.367188 209.984375 C 320.957031 210.597656 320.546875 211.210938 320.136719 212.027344 C 320.753906 212.640625 321.367188 213.253906 322.394531 214.070312 C 321.984375 214.480469 321.367188 214.890625 321.164062 215.503906 C 320.957031 216.117188 319.523438 216.730469 321.164062 217.546875 C 321.574219 217.75 321.574219 219.183594 321.777344 220.203125 C 318.703125 218.773438 318.90625 222.25 317.0625 223.066406 C 316.859375 222.65625 316.449219 222.042969 316.039062 221.226562 C 315.832031 222.042969 315.628906 222.65625 315.628906 222.863281 C 315.011719 222.863281 313.78125 222.65625 313.578125 222.863281 C 313.167969 224.089844 312.550781 225.519531 312.960938 226.542969 C 313.167969 227.359375 314.601562 228.382812 315.628906 228.382812 C 318.496094 228.996094 321.367188 229.199219 324.238281 229.402344 C 325.878906 229.609375 327.519531 229.199219 329.160156 229.199219 C 331.414062 229.402344 333.464844 229.8125 335.71875 230.015625 C 336.539062 230.015625 337.566406 229.609375 338.386719 229.609375 C 340.640625 229.8125 343.101562 230.015625 345.355469 230.425781 C 345.765625 230.425781 346.175781 231.039062 346.382812 231.242188 C 347.816406 231.449219 349.253906 231.855469 350.484375 231.652344 C 353.351562 231.039062 354.789062 232.0625 356.632812 234.105469 C 357.25 234.921875 359.503906 234.71875 360.734375 234.515625 C 364.015625 234.105469 362.988281 236.761719 363.808594 238.191406 C 364.21875 238.804688 364.21875 239.625 364.21875 240.238281 C 364.628906 241.871094 364.425781 243.304688 361.964844 244.121094 C 362.785156 244.9375 363.605469 245.347656 364.21875 246.164062 C 364.628906 246.574219 364.628906 247.1875 364.628906 247.800781 C 364.628906 248.617188 364.21875 249.640625 364.628906 250.050781 C 366.066406 251.277344 365.246094 252.09375 364.425781 252.707031 C 364.835938 253.730469 365.65625 254.546875 365.65625 255.363281 C 365.65625 256.796875 364.628906 258.226562 366.269531 259.25 L 366.269531 259.453125 C 364.015625 262.316406 366.886719 264.972656 366.269531 267.835938 C 366.269531 268.242188 366.269531 269.0625 366.679688 269.46875 C 367.910156 270.492188 367.292969 271.515625 366.886719 272.742188 C 366.066406 274.582031 365.246094 276.421875 364.628906 277.851562 C 363.398438 277.648438 361.964844 277.238281 360.527344 277.441406 C 359.09375 277.441406 357.863281 277.851562 356.429688 278.054688 C 356.839844 279.28125 358.683594 280.101562 356.632812 281.734375 C 356.019531 282.144531 356.429688 283.984375 356.632812 285.007812 C 356.839844 286.4375 357.453125 288.074219 357.25 289.503906 C 357.25 290.117188 355.8125 290.730469 354.789062 291.140625 C 352.941406 292.160156 349.867188 291.753906 350.277344 295.226562 C 348.84375 295.429688 346.996094 295.226562 348.84375 297.476562 C 349.664062 298.496094 348.023438 299.929688 345.765625 300.132812 C 343.304688 300.335938 340.847656 300.949219 338.386719 301.359375 C 336.128906 301.769531 333.875 302.175781 331.621094 302.382812 C 331.003906 302.382812 330.183594 301.769531 329.363281 301.5625 C 328.75 301.769531 327.722656 302.175781 326.699219 302.585938 C 326.082031 301.359375 325.671875 300.542969 325.46875 299.519531 C 325.265625 299.519531 325.058594 299.519531 325.058594 299.722656 L 325.058594 302.585938 C 323.417969 299.109375 321.164062 302.585938 319.523438 301.972656 C 319.933594 302.382812 320.136719 302.789062 320.546875 303.402344 C 319.523438 303.8125 318.703125 304.015625 317.882812 304.222656 L 317.882812 306.675781 C 316.449219 307.902344 315.421875 308.71875 314.398438 309.742188 C 315.21875 309.945312 316.039062 310.355469 317.265625 310.761719 C 314.808594 311.375 312.960938 312.808594 310.5 312.195312 C 309.886719 311.988281 309.066406 312.808594 308.453125 313.214844 C 307.222656 314.648438 305.992188 315.667969 304.554688 314.238281 C 303.53125 316.078125 302.710938 317.714844 301.890625 319.347656 C 301.890625 318.53125 301.683594 317.917969 301.683594 317.101562 C 300.863281 317.304688 300.046875 317.304688 299.226562 317.507812 C 299.429688 318.734375 299.636719 319.347656 299.839844 320.371094 C 300.660156 319.960938 301.273438 319.554688 301.890625 319.144531 C 302.914062 321.597656 303.53125 321.800781 306.402344 320.371094 C 306.8125 321.1875 307.222656 322.007812 307.632812 323.027344 C 305.375 323.4375 303.121094 323.847656 300.660156 324.460938 C 302.09375 326.300781 298.816406 328.957031 302.09375 329.570312 C 301.273438 330.386719 300.660156 331.613281 299.636719 332.226562 C 298.199219 333.046875 296.558594 333.25 294.917969 333.660156 C 292.664062 334.066406 290.203125 334.476562 287.949219 334.679688 C 284.871094 334.886719 281.796875 335.089844 278.925781 335.292969 C 276.671875 335.5 274.621094 336.113281 272.570312 336.316406 C 270.929688 336.519531 269.085938 336.113281 267.445312 336.316406 C 264.78125 336.726562 262.320312 337.746094 259.652344 338.359375 C 259.039062 338.566406 258.21875 338.566406 257.605469 338.566406 C 256.578125 338.566406 255.554688 337.542969 254.9375 339.179688 C 252.476562 337.542969 250.429688 341.425781 247.96875 339.585938 C 247.761719 339.382812 247.148438 339.996094 246.738281 340.199219 L 245.507812 340.8125 C 239.765625 341.835938 234.023438 342.652344 228.285156 343.472656 C 225.414062 343.878906 222.542969 343.878906 219.671875 344.085938 C 217.828125 344.289062 215.984375 344.902344 214.136719 345.105469 C 212.90625 345.3125 211.675781 345.105469 210.035156 344.902344 C 209.421875 346.539062 208.398438 346.332031 207.371094 344.902344 C 205.320312 345.925781 203.269531 346.945312 200.808594 346.332031 C 199.992188 346.128906 198.761719 346.742188 197.734375 346.742188 C 196.914062 346.742188 196.09375 346.539062 195.273438 346.128906 C 194.453125 345.71875 193.429688 344.492188 193.222656 346.742188 C 193.222656 346.945312 191.175781 347.148438 189.945312 347.355469 C 187.484375 347.761719 184.816406 347.96875 182.152344 348.375 C 182.5625 347.558594 182.769531 346.945312 182.972656 346.332031 L 182.769531 346.128906 L 179.691406 348.582031 C 178.050781 350.011719 176 349.808594 173.953125 349.808594 C 172.105469 349.808594 170.054688 349.601562 168.621094 350.214844 C 166.980469 350.828125 167.1875 351.238281 166.160156 349.808594 C 165.339844 351.441406 161.648438 352.261719 160.625 351.238281 C 161.238281 350.828125 161.855469 350.625 162.46875 350.214844 C 162.265625 350.011719 162.265625 349.808594 162.058594 349.601562 C 161.648438 349.808594 161.445312 350.011719 161.035156 350.214844 C 158.574219 351.648438 155.910156 351.238281 153.449219 351.441406 C 151.398438 351.648438 149.347656 350.828125 147.09375 350.421875 L 147.09375 348.582031 C 147.09375 345.925781 145.65625 344.492188 143.195312 344.289062 C 142.375 344.289062 140.941406 344.492188 141.148438 342.449219 C 141.351562 341.019531 139.300781 340.199219 137.457031 340.609375 C 136.019531 341.019531 134.378906 340.8125 132.945312 340.8125 C 132.742188 340.609375 132.332031 340.40625 131.921875 340.40625 C 130.28125 340.609375 128.84375 341.019531 127.203125 341.019531 C 123.925781 341.425781 120.847656 341.632812 117.566406 342.039062 C 116.75 342.039062 115.929688 341.835938 114.699219 341.835938 C 115.519531 341.222656 116.132812 340.8125 116.75 340.40625 C 111.417969 341.425781 109.777344 338.15625 108.753906 334.273438 C 108.957031 334.273438 109.367188 334.066406 109.777344 334.066406 C 105.472656 333.453125 105.0625 329.980469 104.035156 326.707031 C 103.421875 326.503906 102.191406 326.09375 101.371094 325.6875 C 101.78125 325.074219 102.394531 324.253906 102.804688 323.640625 C 101.984375 323.4375 100.960938 323.027344 100.140625 323.027344 C 97.269531 323.4375 94.808594 323.027344 92.964844 320.574219 C 95.628906 320.984375 98.089844 321.394531 100.753906 321.800781 C 101.164062 320.371094 101.371094 319.554688 101.574219 318.53125 C 99.730469 319.757812 99.730469 319.757812 98.296875 318.53125 C 97.679688 318.121094 97.066406 317.714844 96.65625 317.507812 C 95.425781 319.554688 93.375 317.917969 91.53125 318.734375 C 92.144531 319.554688 92.554688 320.167969 92.964844 320.78125 C 91.941406 320.167969 89.890625 321.597656 90.300781 319.144531 C 88.660156 319.554688 87.019531 319.960938 85.582031 320.574219 C 84.761719 320.984375 84.351562 322.007812 83.738281 322.824219 L 83.738281 321.597656 C 83.328125 321.597656 82.917969 321.597656 82.714844 321.800781 C 80.253906 323.027344 77.585938 324.460938 75.128906 325.6875 C 74.511719 324.867188 74.308594 324.253906 74.101562 324.253906 C 72.667969 325.074219 71.230469 326.300781 70 326.09375 C 68.769531 326.09375 67.335938 324.664062 66.105469 324.050781 C 66.105469 325.074219 65.902344 326.09375 65.902344 327.117188 C 63.441406 325.074219 63.03125 325.277344 61.59375 328.957031 C 63.03125 328.957031 64.464844 328.753906 66.105469 328.753906 L 66.105469 327.320312 C 66.722656 327.933594 67.335938 328.34375 67.949219 328.957031 C 67.949219 329.367188 67.746094 330.386719 67.746094 330.386719 C 65.695312 330.386719 64.054688 333.046875 61.59375 331.410156 C 61.183594 331.207031 60.363281 331.820312 59.75 331.820312 L 58.519531 331.820312 C 52.984375 334.273438 47.039062 334.476562 41.09375 335.90625 C 40.886719 333.660156 39.65625 333.863281 38.015625 334.273438 C 37.605469 334.476562 36.785156 333.863281 36.171875 333.863281 C 36.582031 333.863281 36.992188 333.660156 37.195312 333.660156 C 37.605469 332.839844 38.015625 331.820312 38.222656 331.207031 C 37.605469 331 36.785156 330.386719 35.964844 330.386719 C 35.351562 330.386719 34.734375 331 34.121094 331.207031 C 34.53125 330.59375 34.324219 331 34.121094 331.207031 Z M 248.582031 335.292969 C 245.917969 335.703125 243.660156 336.113281 241.203125 336.519531 L 241.203125 337.542969 C 242.433594 337.746094 243.867188 338.15625 245.097656 337.953125 C 246.328125 337.953125 248.171875 337.953125 248.582031 335.292969 Z M 60.980469 329.160156 C 59.953125 327.933594 59.542969 326.707031 58.109375 327.933594 C 57.496094 328.546875 56.46875 328.546875 55.648438 328.957031 C 55.238281 329.160156 54.828125 329.367188 54.417969 329.773438 L 54.625 330.386719 C 55.035156 330.386719 55.445312 330.183594 56.058594 329.980469 C 56.675781 329.773438 57.289062 329.773438 57.90625 329.773438 C 58.519531 329.570312 59.542969 329.367188 60.980469 329.160156 Z M 130.691406 335.5 C 131.714844 336.726562 132.535156 337.746094 133.355469 338.769531 C 133.765625 337.746094 134.378906 336.726562 134.585938 335.90625 C 133.355469 335.5 132.125 335.5 130.691406 335.5 Z M 67.132812 317.714844 C 65.902344 320.984375 66.722656 322.210938 68.976562 322.007812 C 68.359375 320.78125 67.746094 319.554688 67.132812 317.714844 Z M 67.132812 317.714844 "/>
</g>
<path style=" stroke:none;fill-rule:nonzero;fill:rgb(100%,100%,100%);fill-opacity:1;" d="M 68.359375 328.140625 C 68.15625 327.730469 68.15625 327.320312 67.949219 326.503906 C 70.207031 328.140625 71.847656 326.503906 73.691406 326.09375 C 75.539062 325.6875 77.585938 326.503906 79.433594 326.707031 L 79.433594 326.503906 C 79.023438 328.546875 77.382812 327.933594 75.945312 328.140625 C 74.71875 328.34375 73.078125 327.933594 72.257812 328.546875 C 70.410156 330.183594 69.386719 329.367188 68.359375 328.140625 Z M 68.359375 328.140625 "/>
<path style=" stroke:none;fill-rule:nonzero;fill:rgb(100%,100%,100%);fill-opacity:1;" d="M 79.433594 326.707031 C 80.046875 326.300781 80.664062 325.480469 81.484375 324.867188 C 82.304688 324.253906 83.125 323.847656 83.945312 323.234375 C 84.148438 323.4375 84.351562 323.847656 84.761719 324.050781 L 87.222656 324.664062 C 84.351562 325.277344 81.894531 325.890625 79.433594 326.707031 Z M 79.433594 326.707031 "/>
<path style=" stroke:none;fill-rule:nonzero;fill:rgb(100%,100%,100%);fill-opacity:1;" d="M 34.121094 331.207031 C 34.324219 331 34.53125 330.59375 34.734375 330.386719 C 37.195312 329.367188 36.582031 332.023438 37.8125 332.839844 C 37.402344 332.839844 36.992188 333.046875 36.785156 333.046875 C 36.171875 333.25 35.144531 333.660156 34.734375 333.453125 C 34.324219 332.839844 34.324219 332.023438 34.121094 331.207031 Z M 34.121094 331.207031 "/>
<path style=" stroke:none;fill-rule:nonzero;fill:rgb(100%,100%,100%);fill-opacity:1;" d="M 87.019531 324.664062 C 86.609375 322.621094 88.660156 322.824219 89.480469 322.414062 C 90.09375 322.210938 91.121094 322.621094 92.351562 322.824219 C 90.503906 324.867188 88.863281 325.480469 87.019531 324.664062 Z M 87.019531 324.664062 "/>
<g clip-path="url(#clip2)" clip-rule="nonzero">
<path style=" stroke:none;fill-rule:nonzero;fill:rgb(100%,100%,100%);fill-opacity:1;" d="M 49.121094 231.386719 C 47.6875 232.816406 46.457031 233.429688 44.609375 232 C 44.199219 231.589844 43.585938 231.589844 42.765625 231.386719 C 42.96875 230.976562 43.378906 230.363281 43.789062 229.546875 C 42.96875 229.34375 41.738281 229.34375 41.328125 228.730469 C 40.917969 228.117188 41.328125 227.09375 41.535156 225.664062 C 40.714844 225.867188 39.691406 225.867188 38.871094 226.070312 L 37.640625 223.621094 C 38.050781 223.621094 38.664062 223.414062 39.28125 223.414062 L 39.28125 223.007812 C 38.664062 222.800781 37.84375 222.597656 37.84375 222.597656 C 37.230469 221.78125 37.023438 221.371094 36.613281 221.167969 C 36.203125 220.960938 35.792969 220.757812 35.589844 220.554688 C 34.972656 220.144531 34.5625 219.734375 33.949219 219.121094 C 34.769531 218.714844 35.382812 218.507812 36.203125 218.101562 C 36.613281 217.894531 37.230469 217.894531 37.640625 217.691406 C 37.230469 217.28125 36.820312 217.078125 36.410156 216.667969 C 36 216.261719 35.589844 215.648438 35.382812 215.035156 C 34.972656 213.601562 34.769531 212.171875 34.359375 210.742188 C 33.949219 209.921875 33.128906 209.105469 32.511719 208.289062 C 32.308594 208.082031 31.695312 207.878906 31.488281 207.675781 C 30.667969 206.242188 30.464844 203.996094 29.4375 203.175781 C 27.386719 201.542969 29.4375 199.292969 27.796875 197.863281 C 27.386719 197.453125 26.773438 196.839844 26.773438 196.226562 C 26.773438 194.796875 24.109375 194.183594 25.746094 192.34375 C 25.953125 192.136719 24.925781 190.09375 24.109375 189.480469 C 21.441406 187.4375 22.058594 183.960938 20.417969 181.507812 C 20.210938 181.097656 20.828125 180.28125 20.828125 179.667969 C 18.160156 178.03125 17.546875 175.578125 18.980469 173.125 C 17.957031 172.308594 16.929688 171.695312 16.109375 170.878906 L 15.496094 170.265625 C 19.390625 169.449219 18.160156 166.175781 18.777344 163.722656 C 17.957031 163.316406 17.339844 163.109375 16.316406 162.703125 C 16.726562 162.292969 17.136719 162.089844 17.546875 161.679688 C 16.109375 160.25 11.804688 159.839844 15.703125 156.160156 C 14.472656 155.75 13.445312 155.34375 12.011719 154.933594 C 12.832031 154.320312 13.445312 153.910156 14.0625 153.503906 C 13.445312 153.09375 12.625 152.890625 11.804688 152.277344 C 10.984375 151.253906 14.0625 148.800781 10.78125 147.574219 L 10.78125 144.507812 C 10.984375 144.304688 11.601562 143.894531 12.421875 143.484375 C 11.394531 143.28125 10.78125 143.078125 10.574219 143.078125 C 10.164062 141.03125 9.753906 139.191406 9.34375 137.558594 C 8.933594 137.558594 8.730469 137.351562 8.320312 137.351562 C 8.933594 137.148438 9.34375 136.945312 9.960938 136.738281 C 9.960938 136.535156 9.753906 136.332031 9.753906 136.125 C 8.933594 135.71875 8.320312 135.511719 7.5 135.105469 C 7.5 134.898438 7.5 134.285156 7.703125 133.878906 C 8.320312 133.878906 9.140625 134.082031 9.753906 134.082031 C 16.929688 128.152344 21.03125 126.3125 31.488281 123.859375 C 37.230469 122.429688 42.765625 120.589844 48.300781 118.953125 C 49.941406 118.339844 51.785156 117.726562 53.222656 116.707031 C 54.042969 116.09375 54.246094 114.664062 54.453125 113.4375 C 54.453125 112.824219 53.632812 112.003906 52.8125 111.800781 C 50.964844 110.984375 51.171875 109.550781 51.375 108.324219 C 50.554688 107.507812 49.734375 106.894531 48.917969 106.078125 C 49.53125 105.257812 49.941406 104.644531 50.351562 104.03125 C 47.070312 104.644531 48.097656 101.785156 47.6875 100.558594 C 46.660156 98.105469 46.457031 95.652344 45.839844 92.992188 C 46.046875 92.992188 46.457031 92.992188 46.867188 93.199219 C 45.839844 90.132812 45.019531 87.269531 43.996094 84.203125 C 44.199219 84.203125 44.40625 84 44.609375 84 C 43.996094 83.386719 43.175781 82.976562 42.355469 82.160156 C 43.789062 80.523438 45.429688 79.296875 45.636719 77.046875 C 45.839844 74.390625 48.710938 73.574219 50.964844 72.550781 C 57.117188 70.097656 63.472656 67.847656 69.625 65.191406 C 73.519531 63.554688 77.210938 61.511719 81.105469 59.878906 C 84.796875 58.242188 88.488281 56.605469 92.382812 55.175781 C 96.074219 53.746094 99.96875 52.519531 103.660156 51.496094 C 106.941406 50.679688 110.425781 50.269531 113.707031 49.453125 C 115.140625 49.246094 116.371094 48.429688 117.601562 48.019531 C 124.164062 46.179688 130.722656 44.546875 137.078125 42.707031 C 142.613281 41.273438 147.945312 39.640625 153.480469 39.027344 C 155.738281 38.820312 157.992188 36.367188 160.453125 38.414062 C 160.65625 38.617188 161.476562 37.800781 162.09375 37.800781 C 163.117188 37.59375 163.9375 37.800781 164.964844 37.800781 C 164.347656 34.734375 167.421875 36.367188 168.449219 36.164062 C 171.933594 35.140625 175.828125 34.527344 179.519531 34.324219 C 187.722656 33.710938 195.511719 31.054688 203.507812 30.644531 C 208.222656 30.234375 212.941406 29.214844 217.65625 28.601562 C 218.066406 28.601562 219.910156 27.375 219.089844 29.214844 C 225.242188 26.554688 232.007812 27.167969 238.570312 26.148438 C 238.570312 26.964844 238.570312 27.375 238.363281 27.988281 C 238.773438 27.78125 239.390625 27.578125 239.390625 27.578125 C 238.773438 25.738281 240.003906 25.738281 241.234375 25.535156 C 244.308594 25.328125 247.589844 25.125 250.664062 24.921875 C 254.152344 24.714844 257.433594 24.308594 260.917969 24.101562 C 261.53125 24.101562 262.148438 24.308594 262.761719 24.511719 C 263.582031 24.921875 263.992188 24.921875 265.019531 24.308594 C 266.042969 23.488281 268.09375 23.695312 269.527344 23.695312 C 275.882812 23.488281 282.242188 23.285156 288.597656 23.285156 C 293.105469 23.285156 297.414062 23.695312 301.921875 23.898438 C 304.179688 24.101562 306.433594 24.308594 308.6875 24.308594 C 310.535156 24.308594 315.046875 27.988281 314.429688 29.417969 C 313.609375 31.257812 315.660156 32.6875 314.636719 34.324219 C 314.636719 34.324219 315.25 34.734375 315.660156 34.9375 C 314.636719 36.164062 314.839844 36.777344 316.070312 40.867188 C 316.683594 42.910156 316.683594 45.363281 316.683594 47.613281 C 316.890625 48.429688 316.890625 49.246094 317.09375 50.269531 C 317.503906 52.3125 317.914062 54.359375 318.324219 56.605469 C 317.300781 56.8125 316.273438 56.8125 315.046875 57.015625 C 317.09375 58.652344 318.734375 60.695312 316.480469 63.761719 L 317.503906 63.761719 C 316.273438 66.007812 315.046875 68.460938 314.226562 70.300781 C 316.070312 72.140625 317.710938 73.980469 319.554688 75.617188 C 319.964844 76.027344 320.785156 76.640625 320.992188 76.433594 C 323.863281 75.003906 325.089844 77.660156 326.730469 78.683594 C 327.960938 79.5 330.832031 80.113281 329.191406 82.976562 C 329.191406 82.976562 330.421875 84 331.039062 84.203125 C 332.269531 84.40625 333.496094 84.203125 335.136719 84 L 335.136719 103.417969 L 335.546875 103.417969 C 335.34375 103.828125 335.136719 104.441406 335.136719 104.644531 C 336.367188 107.097656 335.546875 108.9375 332.882812 109.757812 C 332.675781 109.757812 332.472656 110.164062 332.269531 110.371094 C 332.269531 110.574219 332.269531 110.984375 332.472656 110.984375 L 333.496094 110.984375 L 335.957031 109.757812 L 336.367188 110.164062 C 335.957031 110.777344 335.546875 111.390625 335.136719 112.210938 C 335.753906 112.824219 336.367188 113.4375 337.394531 114.253906 C 336.984375 114.664062 336.367188 115.070312 336.164062 115.683594 C 335.957031 116.296875 334.523438 116.910156 336.164062 117.726562 C 336.574219 117.933594 336.574219 119.363281 336.777344 120.386719 C 333.703125 118.953125 333.90625 122.429688 332.0625 123.246094 C 331.859375 122.839844 331.449219 122.226562 331.039062 121.40625 C 330.832031 122.226562 330.628906 122.839844 330.628906 123.042969 C 330.011719 123.042969 328.78125 122.839844 328.578125 123.042969 C 328.167969 124.269531 327.550781 125.699219 327.960938 126.722656 C 328.167969 127.539062 329.601562 128.5625 330.628906 128.5625 C 333.496094 129.175781 336.367188 129.378906 339.238281 129.585938 C 340.878906 129.789062 342.519531 129.378906 344.160156 129.378906 C 346.414062 129.585938 348.464844 129.992188 350.71875 130.199219 C 351.539062 130.199219 352.566406 129.789062 353.386719 129.789062 C 355.640625 129.992188 358.101562 130.199219 360.355469 130.605469 C 360.765625 130.605469 361.175781 131.21875 361.382812 131.425781 C 362.816406 131.628906 364.253906 132.039062 365.484375 131.832031 C 368.351562 131.21875 369.789062 132.242188 371.632812 134.285156 C 372.25 135.105469 374.503906 134.898438 375.734375 134.695312 C 379.015625 134.285156 377.988281 136.945312 378.808594 138.375 C 379.21875 138.988281 379.21875 139.804688 379.21875 140.417969 C 379.628906 142.054688 379.425781 143.484375 376.964844 144.304688 C 377.785156 145.121094 378.605469 145.53125 379.21875 146.347656 C 379.628906 146.757812 379.628906 147.371094 379.628906 147.984375 C 379.628906 148.800781 379.21875 149.824219 379.628906 150.230469 C 381.066406 151.457031 380.246094 152.277344 379.425781 152.890625 C 379.835938 153.910156 380.65625 154.730469 380.65625 155.546875 C 380.65625 156.976562 379.628906 158.410156 381.269531 159.429688 L 381.269531 159.636719 C 379.015625 162.496094 381.886719 165.15625 381.269531 168.015625 C 381.269531 168.425781 381.269531 169.242188 381.679688 169.652344 C 382.910156 170.675781 382.292969 171.695312 381.886719 172.921875 C 381.066406 174.761719 380.246094 176.601562 379.628906 178.03125 C 378.398438 177.828125 376.964844 177.417969 375.527344 177.625 C 374.09375 177.625 372.863281 178.03125 371.429688 178.238281 C 371.839844 179.464844 373.683594 180.28125 371.632812 181.917969 C 371.019531 182.324219 371.429688 184.164062 371.632812 185.1875 C 371.839844 186.617188 372.453125 188.253906 372.25 189.683594 C 372.25 190.296875 370.8125 190.910156 369.789062 191.320312 C 367.941406 192.34375 364.867188 191.933594 365.277344 195.410156 C 363.84375 195.613281 361.996094 195.410156 363.84375 197.65625 C 364.664062 198.679688 363.023438 200.109375 360.765625 200.316406 C 358.304688 200.519531 355.847656 201.132812 353.386719 201.542969 C 351.128906 201.949219 348.875 202.359375 346.621094 202.5625 C 346.003906 202.5625 345.183594 201.949219 344.363281 201.746094 C 343.75 201.949219 342.722656 202.359375 341.699219 202.769531 C 341.082031 201.542969 340.671875 200.722656 340.46875 199.703125 C 340.265625 199.703125 340.058594 199.703125 340.058594 199.90625 L 340.058594 202.769531 C 338.417969 199.292969 336.164062 202.769531 334.523438 202.15625 C 334.933594 202.5625 335.136719 202.972656 335.546875 203.585938 C 334.523438 203.996094 333.703125 204.199219 332.882812 204.402344 L 332.882812 206.855469 C 331.449219 208.082031 330.421875 208.902344 329.398438 209.921875 C 330.21875 210.128906 331.039062 210.535156 332.265625 210.945312 C 329.808594 211.558594 327.960938 212.988281 325.5 212.375 C 324.886719 212.171875 324.066406 212.988281 323.453125 213.398438 C 322.222656 214.828125 320.992188 215.851562 319.554688 214.421875 C 318.53125 216.261719 317.710938 217.894531 316.890625 219.53125 C 316.890625 218.714844 316.683594 218.101562 316.683594 217.28125 C 315.863281 217.488281 315.046875 217.488281 314.226562 217.691406 C 314.429688 218.917969 314.636719 219.53125 314.839844 220.554688 C 315.660156 220.144531 316.273438 219.734375 316.890625 219.328125 C 317.914062 221.78125 318.53125 221.984375 321.402344 220.554688 C 321.8125 221.371094 322.222656 222.1875 322.632812 223.210938 C 320.375 223.621094 318.121094 224.027344 315.660156 224.640625 C 317.09375 226.480469 313.816406 229.136719 317.09375 229.75 C 316.273438 230.570312 315.660156 231.796875 314.636719 232.410156 C 313.199219 233.226562 311.558594 233.429688 309.917969 233.839844 C 307.664062 234.25 305.203125 234.65625 302.949219 234.863281 C 299.871094 235.066406 296.796875 235.269531 293.925781 235.476562 C 291.671875 235.679688 289.621094 236.292969 287.570312 236.496094 C 285.929688 236.703125 284.085938 236.292969 282.445312 236.496094 C 279.78125 236.90625 277.320312 237.929688 274.652344 238.542969 C 274.039062 238.746094 273.21875 238.746094 272.605469 238.746094 C 271.578125 238.746094 270.554688 237.722656 269.9375 239.359375 C 267.476562 237.722656 265.429688 241.609375 262.96875 239.769531 C 262.761719 239.5625 262.148438 240.175781 261.738281 240.382812 L 260.507812 240.996094 C 254.765625 242.015625 249.023438 242.835938 243.285156 243.652344 C 240.414062 244.0625 237.542969 244.0625 234.671875 244.265625 C 232.828125 244.46875 230.984375 245.082031 229.136719 245.289062 C 227.90625 245.492188 226.675781 245.289062 225.035156 245.082031 C 224.421875 246.71875 223.398438 246.515625 222.371094 245.082031 C 220.320312 246.105469 218.269531 247.128906 215.808594 246.515625 C 214.992188 246.308594 213.761719 246.921875 212.734375 246.921875 C 211.914062 246.921875 211.09375 246.71875 210.273438 246.308594 C 209.453125 245.902344 208.429688 244.675781 208.222656 246.921875 C 208.222656 247.128906 206.175781 247.332031 204.945312 247.535156 C 202.484375 247.945312 199.816406 248.148438 197.152344 248.558594 C 197.5625 247.742188 197.769531 247.128906 197.972656 246.515625 L 197.769531 246.308594 L 194.691406 248.761719 C 193.050781 250.195312 191 249.988281 188.953125 249.988281 C 187.105469 249.988281 185.054688 249.785156 183.621094 250.398438 C 181.980469 251.011719 182.1875 251.421875 181.160156 249.988281 C 180.339844 251.625 176.648438 252.441406 175.625 251.421875 C 176.238281 251.011719 176.855469 250.808594 177.46875 250.398438 C 177.265625 250.195312 177.265625 249.988281 177.058594 249.785156 C 176.648438 249.988281 176.445312 250.195312 176.035156 250.398438 C 173.574219 251.828125 170.910156 251.421875 168.449219 251.625 C 166.398438 251.828125 164.347656 251.011719 162.09375 250.601562 L 162.09375 248.761719 C 162.09375 246.105469 160.65625 244.675781 158.195312 244.46875 C 157.375 244.46875 155.941406 244.675781 156.148438 242.628906 C 156.351562 241.199219 154.300781 240.382812 152.457031 240.789062 C 151.019531 241.199219 149.378906 240.996094 147.945312 240.996094 C 147.742188 240.789062 147.332031 240.585938 146.921875 240.585938 C 145.28125 240.789062 143.84375 241.199219 142.203125 241.199219 C 138.925781 241.609375 135.847656 241.8125 132.566406 242.222656 C 131.75 242.222656 130.929688 242.015625 129.699219 242.015625 C 130.519531 241.402344 131.132812 240.996094 131.75 240.585938 C 126.417969 241.609375 124.777344 238.335938 123.753906 234.453125 C 123.957031 234.453125 124.367188 234.25 124.777344 234.25 C 120.472656 233.636719 120.0625 230.160156 119.035156 226.890625 C 118.421875 226.6875 117.191406 226.277344 116.371094 225.867188 C 116.78125 225.253906 117.394531 224.4375 117.804688 223.824219 C 116.984375 223.621094 115.960938 223.210938 115.140625 223.210938 C 112.269531 223.621094 109.808594 223.210938 107.964844 220.757812 C 110.628906 221.167969 113.089844 221.574219 115.753906 221.984375 C 116.164062 220.554688 116.371094 219.734375 116.574219 218.714844 C 114.730469 219.941406 114.730469 219.941406 113.296875 218.714844 C 112.679688 218.304688 112.066406 217.894531 111.65625 217.691406 C 110.425781 219.734375 108.375 218.101562 106.53125 218.917969 C 107.144531 219.734375 107.554688 220.347656 107.964844 220.960938 C 106.941406 220.347656 104.890625 221.78125 105.300781 219.328125 C 103.660156 219.734375 102.019531 220.144531 100.582031 220.757812 C 99.761719 221.167969 99.351562 222.1875 98.738281 223.007812 L 98.738281 221.78125 C 98.328125 221.78125 97.917969 221.78125 97.714844 221.984375 C 95.253906 223.210938 92.585938 224.640625 90.128906 225.867188 C 89.511719 225.050781 89.308594 224.4375 89.101562 224.4375 C 87.667969 225.253906 86.230469 226.480469 85 226.277344 C 83.769531 226.277344 82.335938 224.847656 81.105469 224.234375 C 81.105469 225.253906 80.902344 226.277344 80.902344 227.300781 C 78.441406 225.253906 78.03125 225.460938 76.59375 229.136719 C 78.03125 229.136719 79.464844 228.933594 81.105469 228.933594 L 81.105469 227.503906 C 81.722656 228.117188 82.335938 228.527344 82.949219 229.136719 C 82.949219 229.546875 82.746094 230.570312 82.746094 230.570312 C 80.695312 230.570312 79.054688 233.226562 76.59375 231.589844 C 76.183594 231.386719 75.363281 232 74.75 232 L 73.519531 232 C 67.984375 234.453125 62.039062 234.65625 56.09375 236.089844 C 55.886719 233.839844 54.65625 234.042969 53.015625 234.453125 C 52.605469 234.65625 51.785156 234.042969 51.171875 234.042969 C 51.582031 234.042969 51.992188 233.839844 52.195312 233.839844 C 52.605469 233.023438 53.015625 232 53.222656 231.386719 C 52.605469 231.183594 51.785156 230.570312 50.964844 230.570312 C 50.351562 230.570312 49.734375 231.183594 49.121094 231.386719 C 49.53125 230.773438 49.324219 231.183594 49.121094 231.386719 Z M 263.582031 235.476562 C 260.917969 235.882812 258.660156 236.292969 256.203125 236.703125 L 256.203125 237.722656 C 257.433594 237.929688 258.867188 238.335938 260.097656 238.132812 C 261.328125 238.132812 263.171875 238.132812 263.582031 235.476562 Z M 75.980469 229.34375 C 74.953125 228.117188 74.542969 226.890625 73.109375 228.117188 C 72.496094 228.730469 71.46875 228.730469 70.648438 229.136719 C 70.238281 229.34375 69.828125 229.546875 69.417969 229.957031 L 69.625 230.570312 C 70.035156 230.570312 70.445312 230.363281 71.058594 230.160156 C 71.675781 229.957031 72.289062 229.957031 72.90625 229.957031 C 73.519531 229.75 74.542969 229.546875 75.980469 229.34375 Z M 145.691406 235.679688 C 146.714844 236.90625 147.535156 237.929688 148.355469 238.949219 C 148.765625 237.929688 149.378906 236.90625 149.585938 236.089844 C 148.355469 235.679688 147.125 235.679688 145.691406 235.679688 Z M 82.132812 217.894531 C 80.902344 221.167969 81.722656 222.394531 83.976562 222.1875 C 83.359375 220.960938 82.746094 219.734375 82.132812 217.894531 Z M 82.132812 217.894531 "/>
</g>
<path style=" stroke:none;fill-rule:nonzero;fill:rgb(100%,100%,100%);fill-opacity:1;" d="M 83.359375 228.320312 C 83.15625 227.910156 83.15625 227.503906 82.949219 226.683594 C 85.207031 228.320312 86.847656 226.683594 88.691406 226.277344 C 90.539062 225.867188 92.585938 226.683594 94.433594 226.890625 L 94.433594 226.683594 C 94.023438 228.730469 92.382812 228.117188 90.945312 228.320312 C 89.71875 228.523438 88.078125 228.117188 87.257812 228.730469 C 85.410156 230.363281 84.386719 229.546875 83.359375 228.320312 Z M 83.359375 228.320312 "/>
<path style=" stroke:none;fill-rule:nonzero;fill:rgb(100%,100%,100%);fill-opacity:1;" d="M 94.433594 226.890625 C 95.046875 226.480469 95.664062 225.664062 96.484375 225.050781 C 97.304688 224.4375 98.125 224.027344 98.945312 223.414062 C 99.148438 223.621094 99.351562 224.027344 99.761719 224.234375 L 102.222656 224.847656 C 99.351562 225.457031 96.894531 226.070312 94.433594 226.890625 Z M 94.433594 226.890625 "/>
<path style=" stroke:none;fill-rule:nonzero;fill:rgb(100%,100%,100%);fill-opacity:1;" d="M 49.121094 231.386719 C 49.324219 231.183594 49.53125 230.773438 49.734375 230.570312 C 52.195312 229.546875 51.582031 232.203125 52.8125 233.023438 C 52.402344 233.023438 51.992188 233.226562 51.785156 233.226562 C 51.171875 233.429688 50.144531 233.839844 49.734375 233.636719 C 49.324219 233.023438 49.324219 232.203125 49.121094 231.386719 Z M 49.121094 231.386719 "/>
<path style=" stroke:none;fill-rule:nonzero;fill:rgb(100%,100%,100%);fill-opacity:1;" d="M 102.019531 224.847656 C 101.609375 222.800781 103.660156 223.007812 104.480469 222.597656 C 105.09375 222.394531 106.121094 222.800781 107.351562 223.007812 C 105.503906 225.050781 103.863281 225.664062 102.019531 224.847656 Z M 102.019531 224.847656 "/>
</g>
</svg>
