<?xml version="1.0" encoding="UTF-8"?>
<svg xmlns="http://www.w3.org/2000/svg" xmlns:xlink="http://www.w3.org/1999/xlink" width="375pt" height="374.999991pt" viewBox="0 0 375 374.999991" version="1.2">
<defs>
<clipPath id="clip1">
  <path d="M 37.5 38 L 335 38 L 335 336 L 37.5 336 Z M 37.5 38 "/>
</clipPath>
</defs>
<g id="surface1">
<g clip-path="url(#clip1)" clip-rule="nonzero">
<path style=" stroke:none;fill-rule:evenodd;fill:rgb(4.708862%,22.349548%,19.60907%);fill-opacity:1;" d="M 110.53125 158.539062 C 108.023438 155.957031 107.953125 151.703125 110.53125 149.050781 L 136.203125 123.453125 C 138.851562 120.800781 143.945312 118.707031 147.640625 118.707031 L 197.726562 118.707031 L 238.394531 78.042969 L 233.648438 73.226562 C 225.90625 65.484375 225.835938 52.71875 233.648438 44.90625 C 241.601562 37.027344 254.226562 37.027344 262.039062 44.839844 L 328.375 111.246094 C 336.1875 119.058594 336.1875 131.753906 328.375 139.566406 C 320.492188 147.515625 307.796875 147.445312 299.984375 139.632812 L 295.242188 134.890625 L 254.574219 175.488281 L 254.574219 225.570312 C 254.574219 229.269531 252.484375 234.429688 249.832031 237.082031 L 224.164062 262.679688 C 221.582031 265.332031 217.328125 265.332031 214.746094 262.679688 L 171.777344 219.78125 L 49.148438 333.902344 C 46.429688 336.410156 42.035156 336.273438 39.523438 333.761719 C 36.941406 331.109375 36.800781 326.855469 39.3125 324.136719 L 153.5 201.507812 Z M 299.984375 120.730469 L 309.402344 130.078125 C 312.054688 132.730469 316.378906 132.660156 318.890625 130.148438 C 321.539062 127.496094 321.46875 123.171875 318.890625 120.660156 L 252.621094 54.394531 C 249.972656 51.742188 245.648438 51.8125 243.136719 54.394531 C 240.554688 56.976562 240.414062 61.089844 243.207031 63.882812 L 252.554688 73.226562 C 255.203125 75.878906 255.273438 80.0625 252.554688 82.855469 L 208.121094 127.289062 C 205.46875 129.9375 200.238281 132.101562 196.539062 132.101562 L 149.246094 132.101562 C 147.710938 132.101562 145.550781 133.007812 144.644531 133.914062 L 124.761719 153.792969 L 219.488281 248.519531 L 239.300781 228.640625 C 240.347656 227.59375 241.183594 225.570312 241.183594 224.039062 L 241.183594 176.675781 C 241.183594 172.976562 243.207031 167.886719 245.996094 165.164062 L 290.429688 120.730469 C 293.082031 118.082031 297.265625 117.941406 299.984375 120.730469 Z M 299.984375 120.730469 "/>
</g>
</g>
</svg>
